<svg width="66" height="66" viewBox="0 0 66 66" fill="none" xmlns="http://www.w3.org/2000/svg">
<rect x="0.8" y="0.8" width="64.4" height="64.4" rx="32.2" stroke="#2F2F37" stroke-width="0.4"/>
<path d="M53.1876 18.8755C53.1874 20.8642 50.0217 24.0733 48.4388 25.4292C39.4704 25.8812 20.8553 26.4688 18.1423 25.2032C15.4294 23.9377 13.8473 19.7042 13.3953 17.7456C11.948 20.4575 13.3942 26.7098 14.2982 29.497C14.117 32.2089 15.7294 35.1467 16.5583 36.2767C14.7497 35.5535 11.4336 35.8247 10.0016 36.0507C11.2074 36.5027 13.9354 37.9038 15.2013 39.8925C16.4672 41.8812 20.2503 43.5836 21.9836 44.1863L21.5313 44.6383C17.9138 44.6383 16.7078 46.4462 16.5569 47.3501C16.7831 46.8981 20.6267 46.8981 23.7919 47.8021C26.324 48.5253 30.4241 46.4462 32.1576 45.3162C31.5545 47.1995 30.3482 51.1467 30.3481 51.8699C30.348 52.5931 32.6089 52.9245 33.7393 52.9998L34.4186 45.3162C37.1313 48.4801 45.0445 48.7061 45.4968 47.8021C45.8587 47.0789 49.2651 47.1995 50.9231 47.3501C49.8381 45.723 46.5523 44.5629 45.0451 44.1863C47.9843 43.9603 51.376 41.4744 51.8285 39.4405C52.1904 37.8134 54.8434 36.5027 56.1247 36.0507C53.9543 34.9659 50.6984 36.2013 49.3418 36.9546C52.0553 33.8812 52.131 30.7023 51.8297 29.497C54.5434 25.158 53.8657 20.6081 53.1876 18.8755Z" fill="#998470" stroke="#010101" stroke-width="0.2"/>
<path d="M33.0664 13C27.3736 13 26.5092 17.5198 26.5092 17.7458L29.8994 26.7853H37.1343L40.0746 17.7458C39.6226 16.1639 37.8143 13 33.0664 13Z" fill="white" stroke="#010101" stroke-width="0.2"/>
<path d="M23.7905 38.3109C11.4912 36.6838 15.6531 25.8815 19.0443 24.2996C18.3667 19.1019 21.0799 17.2939 23.7931 17.2939C26.3234 17.2939 28.4656 18.4992 29.219 19.7798C32.1574 25.8815 36.0898 39.938 23.7905 38.3109Z" fill="white" stroke="#010101" stroke-width="0.2"/>
<path d="M42.8585 38.3109C55.1582 36.6838 50.999 25.8815 47.6083 24.2996C48.2871 19.1019 45.5744 17.2939 42.8612 17.2939C40.3309 17.2939 38.1884 18.4992 37.4347 19.7798C34.4947 25.8815 30.5589 39.938 42.8585 38.3109Z" fill="white" stroke="#010101" stroke-width="0.2"/>
<path d="M42.8464 27.7075C46.6905 41.9442 33.5746 43.5267 33.1224 43.5267C32.218 43.5267 20.1718 41.7188 23.6279 27.4816C25.4383 20.0238 40.8327 20.2499 42.8464 27.7075Z" fill="white" stroke="#010101" stroke-width="0.2"/>
</svg>
