<svg width="66" height="66" viewBox="0 0 66 66" fill="none" xmlns="http://www.w3.org/2000/svg">
<rect x="1" y="1" width="64" height="64" rx="32" stroke="#2F2F37" stroke-width="0.4"/>
<mask id="path-2-inside-1_994_139" fill="white">
<path d="M17.9599 12.9003C18.5292 13.2496 19.0089 13.5116 19.4277 13.8318C22.9591 16.3932 25.0693 19.3621 25.8101 23.5535C26.1235 25.329 26.2252 27.1628 26.418 28.9383C26.5828 30.5101 26.7478 32.0527 26.9427 33.6245C26.9988 34.032 26.9367 34.2067 26.4537 34.2649C25.4277 34.3522 24.5485 34.8179 24.1165 35.7784C23.7159 36.6225 23.8582 37.4375 24.3938 38.1361C24.929 38.8638 25.7401 39.1549 26.6443 39.184C27.0966 39.184 27.3999 39.0093 27.6453 38.6018C29.5765 35.5165 30.7262 32.1983 31.215 28.6472C31.607 25.7074 31.3961 22.7676 31.3054 19.8569C31.2622 18.1978 31.2795 16.5096 31.176 14.8505C31.1265 13.8027 31.1668 12.813 31.4486 11.7943C31.7305 10.7755 32.2225 9.8441 32.9849 9C33.7608 9.78589 34.2637 10.7173 34.4643 11.7361C34.6353 12.6966 34.6852 13.7153 34.7054 14.6759C34.7248 15.7237 34.5934 16.7716 34.5528 17.7903C34.4345 20.4973 34.2861 23.2042 34.2582 25.9112C34.242 30.4227 35.3744 34.6433 37.7165 38.5145C38.0126 39.0384 38.4332 39.184 39.0067 39.1258C40.4551 39.0093 41.5517 37.9324 41.5651 36.6226C41.5777 35.4001 40.4735 34.294 39.057 34.2358C38.5447 34.2067 38.5164 34.032 38.5809 33.6245C38.8741 31.4997 39.1375 29.3458 39.4005 27.221C39.7269 24.8051 39.9025 22.3892 40.951 20.1189C42.3386 17.1209 44.3492 15.1125 47.2318 13.3369C47.444 13.2205 47.6563 13.1041 47.9596 12.9294C47.9569 13.1914 47.9551 13.3661 47.9533 13.5407C47.8374 24.8051 47.7264 35.6038 47.6105 46.8682C47.6039 47.5086 47.6039 47.5086 46.9707 47.5086C44.5888 47.5086 42.1768 47.5086 39.7949 47.5086C39.3728 47.5086 39.1906 47.625 39.096 48.0325C38.3708 51.1178 36.7163 53.6792 34.0734 55.6003C33.5265 56.0078 33.0387 56.5318 32.5214 56.9975C31.1802 55.4839 29.2914 54.436 28.164 52.6605C27.2443 51.2052 26.5064 49.6625 26.1921 47.9743C26.1055 47.5959 25.9258 47.4795 25.564 47.4795C23.1218 47.4795 20.7097 47.4795 18.2675 47.4795C17.8454 47.4795 17.6654 47.3921 17.6702 46.9264C17.7867 35.6038 17.8986 24.7178 18.0151 13.3952C18.0198 12.937 17.9599 12.9003 17.9599 12.9003ZM20.5599 18.0814C20.4766 18.0814 20.4088 18.1105 20.3482 18.1396C20.3461 18.3433 20.344 18.5471 20.3419 18.7508C20.2859 24.1939 20.2344 29.2003 20.1784 34.6433C20.1692 35.5456 20.1692 35.5456 21.134 35.5456C21.4958 35.5456 21.6776 35.4583 21.7716 35.109C22.1445 34.032 22.8765 33.217 23.8769 32.6931C24.3014 32.4603 24.3644 32.1983 24.3083 31.7908C24.0576 29.7824 23.777 27.7449 23.6168 25.7365C23.4273 23.6408 22.961 22.069 21.8945 20.2353C21.4802 19.4785 21.0046 18.8091 20.5599 18.0814ZM45.4032 18.1687C45.3359 18.1396 45.313 18.1396 45.2527 18.1396C45.0694 18.3725 44.8861 18.6053 44.733 18.8382C43.5391 20.5846 42.5602 21.9526 42.2375 24.0192C41.8487 26.6388 41.5203 29.2585 41.1617 31.8781C41.0978 32.2274 41.1858 32.4602 41.5455 32.664C42.5348 33.217 43.2504 34.0029 43.6312 35.0799C43.8071 35.5747 44.1375 35.6911 44.9229 35.5456C45.4062 35.4583 45.2289 35.109 45.2316 34.847C45.2885 29.3167 45.3409 24.223 45.3981 18.6635C45.4032 18.4688 45.4032 18.3281 45.4032 18.1687ZM26.1976 41.5707C26.0472 41.5416 25.8666 41.5125 25.6561 41.4543C23.7608 41.0468 22.2927 40.1445 21.7092 38.2525C21.6214 37.9906 21.502 37.8741 21.2303 37.9033C21.0193 37.9033 20.8082 37.9033 20.5972 37.9033C20.2957 37.9033 20.1739 38.0197 20.1709 38.3108C20.1484 40.4938 20.1257 42.7059 20.1334 44.8889C20.1322 45.0054 20.3707 45.2673 20.4913 45.2673C22.1191 45.2964 23.7774 45.2964 25.4058 45.2673C25.5265 45.2673 25.7698 45.0636 25.8011 44.9472C25.9331 43.8411 26.0651 42.735 26.1976 41.5707ZM39.1022 41.5707C39.2108 42.735 39.3502 43.8411 39.4591 44.9763C39.486 45.2964 39.7272 45.2964 39.9684 45.2964C41.5061 45.2964 43.0139 45.2673 44.5513 45.2964C45.0337 45.2964 45.1862 45.1218 45.1606 44.6852C45.1505 42.735 45.2007 40.7849 45.2211 38.8056C45.2303 37.9033 45.2303 37.9033 44.2957 37.9033C44.0243 37.9033 43.7831 37.9033 43.6894 38.2234C43.129 39.9408 41.8229 40.8722 40.1294 41.367C39.7667 41.4543 39.4046 41.4834 39.1022 41.5707ZM32.7946 33.3626C31.9274 35.6038 31.0607 37.7868 29.7432 39.8243C30.6716 40.4356 31.54 41.0177 32.4388 41.5707C32.5586 41.6581 32.8607 41.5999 33.0123 41.5125C33.801 41.0468 34.53 40.5229 35.3187 40.0572C35.5614 39.9116 35.6232 39.7661 35.4752 39.5041C34.3779 37.7286 33.4376 35.3418 32.7946 33.3626ZM28.7594 47.5377C28.6232 49.0513 30.2504 52.0784 31.2414 52.4568C31.2719 52.4276 31.3024 52.3985 31.3024 52.3985C31.3179 50.885 31.3636 49.3714 31.3488 47.887C31.35 47.7705 31.1407 47.5959 31.0204 47.5668C30.2672 47.5086 29.5132 47.5377 28.7594 47.5377ZM33.7735 52.515C35.0775 51.7873 36.6171 48.6728 36.418 47.5086C35.7547 47.5086 35.031 47.5086 34.3677 47.5086C33.9758 47.5086 33.8537 47.6541 33.8501 48.0034C33.8375 49.2259 33.8249 50.4484 33.8123 51.6709C33.7795 51.9328 33.7768 52.1948 33.7735 52.515ZM29.8383 45.2382C30.2303 45.2382 30.6521 45.2673 31.0446 45.2091C31.1652 45.2091 31.4088 44.9763 31.3796 44.8889C31.2119 43.6082 30.379 42.5022 29.1157 42.2111C28.8449 42.1529 28.6936 42.2111 28.6306 42.4731C28.5019 43.2589 28.4033 44.0448 28.2744 44.8598C28.2412 45.1509 28.4209 45.2673 28.6923 45.2673C29.0544 45.2382 29.4464 45.2382 29.8383 45.2382ZM35.386 45.2382C35.7479 45.2382 36.0795 45.2382 36.4413 45.2382C36.8028 45.2673 37.0154 45.1218 36.959 44.7434C36.876 44.0157 36.793 43.2881 36.6799 42.5604C36.6232 42.2111 36.4432 42.1238 36.0802 42.2402C34.9312 42.5604 33.8938 43.7538 33.8519 44.8889C33.8508 45.0054 34.0597 45.2091 34.18 45.2382C34.6018 45.2673 34.9941 45.2382 35.386 45.2382Z"/>
</mask>
<path d="M17.9599 12.9003C18.5292 13.2496 19.0089 13.5116 19.4277 13.8318C22.9591 16.3932 25.0693 19.3621 25.8101 23.5535C26.1235 25.329 26.2252 27.1628 26.418 28.9383C26.5828 30.5101 26.7478 32.0527 26.9427 33.6245C26.9988 34.032 26.9367 34.2067 26.4537 34.2649C25.4277 34.3522 24.5485 34.8179 24.1165 35.7784C23.7159 36.6225 23.8582 37.4375 24.3938 38.1361C24.929 38.8638 25.7401 39.1549 26.6443 39.184C27.0966 39.184 27.3999 39.0093 27.6453 38.6018C29.5765 35.5165 30.7262 32.1983 31.215 28.6472C31.607 25.7074 31.3961 22.7676 31.3054 19.8569C31.2622 18.1978 31.2795 16.5096 31.176 14.8505C31.1265 13.8027 31.1668 12.813 31.4486 11.7943C31.7305 10.7755 32.2225 9.8441 32.9849 9C33.7608 9.78589 34.2637 10.7173 34.4643 11.7361C34.6353 12.6966 34.6852 13.7153 34.7054 14.6759C34.7248 15.7237 34.5934 16.7716 34.5528 17.7903C34.4345 20.4973 34.2861 23.2042 34.2582 25.9112C34.242 30.4227 35.3744 34.6433 37.7165 38.5145C38.0126 39.0384 38.4332 39.184 39.0067 39.1258C40.4551 39.0093 41.5517 37.9324 41.5651 36.6226C41.5777 35.4001 40.4735 34.294 39.057 34.2358C38.5447 34.2067 38.5164 34.032 38.5809 33.6245C38.8741 31.4997 39.1375 29.3458 39.4005 27.221C39.7269 24.8051 39.9025 22.3892 40.951 20.1189C42.3386 17.1209 44.3492 15.1125 47.2318 13.3369C47.444 13.2205 47.6563 13.1041 47.9596 12.9294C47.9569 13.1914 47.9551 13.3661 47.9533 13.5407C47.8374 24.8051 47.7264 35.6038 47.6105 46.8682C47.6039 47.5086 47.6039 47.5086 46.9707 47.5086C44.5888 47.5086 42.1768 47.5086 39.7949 47.5086C39.3728 47.5086 39.1906 47.625 39.096 48.0325C38.3708 51.1178 36.7163 53.6792 34.0734 55.6003C33.5265 56.0078 33.0387 56.5318 32.5214 56.9975C31.1802 55.4839 29.2914 54.436 28.164 52.6605C27.2443 51.2052 26.5064 49.6625 26.1921 47.9743C26.1055 47.5959 25.9258 47.4795 25.564 47.4795C23.1218 47.4795 20.7097 47.4795 18.2675 47.4795C17.8454 47.4795 17.6654 47.3921 17.6702 46.9264C17.7867 35.6038 17.8986 24.7178 18.0151 13.3952C18.0198 12.937 17.9599 12.9003 17.9599 12.9003ZM20.5599 18.0814C20.4766 18.0814 20.4088 18.1105 20.3482 18.1396C20.3461 18.3433 20.344 18.5471 20.3419 18.7508C20.2859 24.1939 20.2344 29.2003 20.1784 34.6433C20.1692 35.5456 20.1692 35.5456 21.134 35.5456C21.4958 35.5456 21.6776 35.4583 21.7716 35.109C22.1445 34.032 22.8765 33.217 23.8769 32.6931C24.3014 32.4603 24.3644 32.1983 24.3083 31.7908C24.0576 29.7824 23.777 27.7449 23.6168 25.7365C23.4273 23.6408 22.961 22.069 21.8945 20.2353C21.4802 19.4785 21.0046 18.8091 20.5599 18.0814ZM45.4032 18.1687C45.3359 18.1396 45.313 18.1396 45.2527 18.1396C45.0694 18.3725 44.8861 18.6053 44.733 18.8382C43.5391 20.5846 42.5602 21.9526 42.2375 24.0192C41.8487 26.6388 41.5203 29.2585 41.1617 31.8781C41.0978 32.2274 41.1858 32.4602 41.5455 32.664C42.5348 33.217 43.2504 34.0029 43.6312 35.0799C43.8071 35.5747 44.1375 35.6911 44.9229 35.5456C45.4062 35.4583 45.2289 35.109 45.2316 34.847C45.2885 29.3167 45.3409 24.223 45.3981 18.6635C45.4032 18.4688 45.4032 18.3281 45.4032 18.1687ZM26.1976 41.5707C26.0472 41.5416 25.8666 41.5125 25.6561 41.4543C23.7608 41.0468 22.2927 40.1445 21.7092 38.2525C21.6214 37.9906 21.502 37.8741 21.2303 37.9033C21.0193 37.9033 20.8082 37.9033 20.5972 37.9033C20.2957 37.9033 20.1739 38.0197 20.1709 38.3108C20.1484 40.4938 20.1257 42.7059 20.1334 44.8889C20.1322 45.0054 20.3707 45.2673 20.4913 45.2673C22.1191 45.2964 23.7774 45.2964 25.4058 45.2673C25.5265 45.2673 25.7698 45.0636 25.8011 44.9472C25.9331 43.8411 26.0651 42.735 26.1976 41.5707ZM39.1022 41.5707C39.2108 42.735 39.3502 43.8411 39.4591 44.9763C39.486 45.2964 39.7272 45.2964 39.9684 45.2964C41.5061 45.2964 43.0139 45.2673 44.5513 45.2964C45.0337 45.2964 45.1862 45.1218 45.1606 44.6852C45.1505 42.735 45.2007 40.7849 45.2211 38.8056C45.2303 37.9033 45.2303 37.9033 44.2957 37.9033C44.0243 37.9033 43.7831 37.9033 43.6894 38.2234C43.129 39.9408 41.8229 40.8722 40.1294 41.367C39.7667 41.4543 39.4046 41.4834 39.1022 41.5707ZM32.7946 33.3626C31.9274 35.6038 31.0607 37.7868 29.7432 39.8243C30.6716 40.4356 31.54 41.0177 32.4388 41.5707C32.5586 41.6581 32.8607 41.5999 33.0123 41.5125C33.801 41.0468 34.53 40.5229 35.3187 40.0572C35.5614 39.9116 35.6232 39.7661 35.4752 39.5041C34.3779 37.7286 33.4376 35.3418 32.7946 33.3626ZM28.7594 47.5377C28.6232 49.0513 30.2504 52.0784 31.2414 52.4568C31.2719 52.4276 31.3024 52.3985 31.3024 52.3985C31.3179 50.885 31.3636 49.3714 31.3488 47.887C31.35 47.7705 31.1407 47.5959 31.0204 47.5668C30.2672 47.5086 29.5132 47.5377 28.7594 47.5377ZM33.7735 52.515C35.0775 51.7873 36.6171 48.6728 36.418 47.5086C35.7547 47.5086 35.031 47.5086 34.3677 47.5086C33.9758 47.5086 33.8537 47.6541 33.8501 48.0034C33.8375 49.2259 33.8249 50.4484 33.8123 51.6709C33.7795 51.9328 33.7768 52.1948 33.7735 52.515ZM29.8383 45.2382C30.2303 45.2382 30.6521 45.2673 31.0446 45.2091C31.1652 45.2091 31.4088 44.9763 31.3796 44.8889C31.2119 43.6082 30.379 42.5022 29.1157 42.2111C28.8449 42.1529 28.6936 42.2111 28.6306 42.4731C28.5019 43.2589 28.4033 44.0448 28.2744 44.8598C28.2412 45.1509 28.4209 45.2673 28.6923 45.2673C29.0544 45.2382 29.4464 45.2382 29.8383 45.2382ZM35.386 45.2382C35.7479 45.2382 36.0795 45.2382 36.4413 45.2382C36.8028 45.2673 37.0154 45.1218 36.959 44.7434C36.876 44.0157 36.793 43.2881 36.6799 42.5604C36.6232 42.2111 36.4432 42.1238 36.0802 42.2402C34.9312 42.5604 33.8938 43.7538 33.8519 44.8889C33.8508 45.0054 34.0597 45.2091 34.18 45.2382C34.6018 45.2673 34.9941 45.2382 35.386 45.2382Z" fill="#FFD500" stroke="#2F2F37" stroke-width="0.4" mask="url(#path-2-inside-1_994_139)"/>
</svg>
