<svg width="66" height="66" viewBox="0 0 66 66" fill="none" xmlns="http://www.w3.org/2000/svg">
<g clip-path="url(#clip0_30835_474)">
<mask id="path-2-outside-1_30835_474" maskUnits="userSpaceOnUse" x="-20.9844" y="8.93408" width="70" height="116" fill="black">
<rect fill="white" x="-20.9844" y="8.93408" width="70" height="116"/>
<path fill-rule="evenodd" clip-rule="evenodd" d="M37.0908 10.2482C37.0861 10.2155 37.0885 10.1848 37.0983 10.1564C37.2774 9.63716 39.8643 10.0585 42.8763 11.0975C45.8884 12.1364 48.1849 13.3996 48.0058 13.9188C48.0027 13.9277 47.9989 13.9364 47.9944 13.9448L48.002 13.9475L46.05 19.5371L46.0315 19.5388L45.9644 19.5448C46.8645 20.8271 47.2089 22.4116 46.3954 24.291C47.1627 24.5227 47.6645 25.6319 47.5391 26.9035C47.4082 28.2312 46.6413 29.2517 45.8011 29.2472C46.017 30.2241 46.3838 31.1442 46.7441 32.048C47.6358 34.2848 48.4878 36.4218 46.9137 39.0729C46.1358 40.383 45.3107 41.2577 44.5405 42.0744C42.8069 43.9125 41.3508 45.4563 41.334 51.0071C41.3222 54.8735 39.6042 62.5794 37.7255 69.7746L37.7445 69.7718L37.5491 70.4472C36.5612 74.1946 35.5426 77.7648 34.7148 80.534C41.788 90.1465 38.5543 107.648 35.1217 117.306C12.2509 124.788 -30.4296 132.405 -18.1844 103.023C-10.3309 84.1784 -0.89394 76.0113 6.58421 73.0941C3.67943 67.9431 4.94204 65.1516 7.57045 63.7799C6.83244 58.7488 11.5505 59.2544 16.0142 60.2647C17.7507 54.2743 19.6668 48.5518 21.2741 45.7482C23.5218 41.8277 22.7713 39.3721 22.0231 36.924C21.444 35.0292 20.8663 33.1388 21.6814 30.5772C22.5526 27.8391 24.3383 26.8602 26.058 25.9176C26.9754 25.4147 27.8739 24.9221 28.6048 24.1782C27.899 23.7459 27.756 22.4956 28.2994 21.296C28.7677 20.2621 29.6005 19.5867 30.3277 19.5768C30.8486 16.9645 32.9115 15.8918 35.1384 15.5849L37.0908 10.2482ZM15.6057 61.6899C15.5048 62.046 15.4046 62.4023 15.3053 62.7582C13.2494 62.5275 10.7391 62.6044 8.70142 63.3002C9.17688 61.8166 11.0405 60.9964 15.6057 61.6899ZM8.79379 65.6682C10.0414 64.8379 11.9643 64.3601 14.7922 64.4698L14.8673 64.2366L14.4307 65.7518L14.4103 65.7345L13.6562 68.6625L13.7096 68.7136C13.4402 69.759 13.1849 70.7704 12.9468 71.7308C12.5504 71.7411 12.1402 71.7673 11.7171 71.8112C11.5118 71.4508 11.2924 71.0792 11.0582 70.6963C10.9466 70.4789 10.8297 70.2545 10.7099 70.0247C9.9947 68.652 9.17809 67.0846 8.79379 65.6682ZM10.8942 71.917C10.7052 71.5392 10.502 71.1473 10.2837 70.741C9.32264 68.9513 8.63754 67.4322 8.18678 66.1471C6.40243 67.8187 6.58508 70.4533 7.47868 72.7666C8.67899 72.3559 9.8227 72.0807 10.8942 71.917Z"/>
</mask>
<path fill-rule="evenodd" clip-rule="evenodd" d="M37.0908 10.2482C37.0861 10.2155 37.0885 10.1848 37.0983 10.1564C37.2774 9.63716 39.8643 10.0585 42.8763 11.0975C45.8884 12.1364 48.1849 13.3996 48.0058 13.9188C48.0027 13.9277 47.9989 13.9364 47.9944 13.9448L48.002 13.9475L46.05 19.5371L46.0315 19.5388L45.9644 19.5448C46.8645 20.8271 47.2089 22.4116 46.3954 24.291C47.1627 24.5227 47.6645 25.6319 47.5391 26.9035C47.4082 28.2312 46.6413 29.2517 45.8011 29.2472C46.017 30.2241 46.3838 31.1442 46.7441 32.048C47.6358 34.2848 48.4878 36.4218 46.9137 39.0729C46.1358 40.383 45.3107 41.2577 44.5405 42.0744C42.8069 43.9125 41.3508 45.4563 41.334 51.0071C41.3222 54.8735 39.6042 62.5794 37.7255 69.7746L37.7445 69.7718L37.5491 70.4472C36.5612 74.1946 35.5426 77.7648 34.7148 80.534C41.788 90.1465 38.5543 107.648 35.1217 117.306C12.2509 124.788 -30.4296 132.405 -18.1844 103.023C-10.3309 84.1784 -0.89394 76.0113 6.58421 73.0941C3.67943 67.9431 4.94204 65.1516 7.57045 63.7799C6.83244 58.7488 11.5505 59.2544 16.0142 60.2647C17.7507 54.2743 19.6668 48.5518 21.2741 45.7482C23.5218 41.8277 22.7713 39.3721 22.0231 36.924C21.444 35.0292 20.8663 33.1388 21.6814 30.5772C22.5526 27.8391 24.3383 26.8602 26.058 25.9176C26.9754 25.4147 27.8739 24.9221 28.6048 24.1782C27.899 23.7459 27.756 22.4956 28.2994 21.296C28.7677 20.2621 29.6005 19.5867 30.3277 19.5768C30.8486 16.9645 32.9115 15.8918 35.1384 15.5849L37.0908 10.2482ZM15.6057 61.6899C15.5048 62.046 15.4046 62.4023 15.3053 62.7582C13.2494 62.5275 10.7391 62.6044 8.70142 63.3002C9.17688 61.8166 11.0405 60.9964 15.6057 61.6899ZM8.79379 65.6682C10.0414 64.8379 11.9643 64.3601 14.7922 64.4698L14.8673 64.2366L14.4307 65.7518L14.4103 65.7345L13.6562 68.6625L13.7096 68.7136C13.4402 69.759 13.1849 70.7704 12.9468 71.7308C12.5504 71.7411 12.1402 71.7673 11.7171 71.8112C11.5118 71.4508 11.2924 71.0792 11.0582 70.6963C10.9466 70.4789 10.8297 70.2545 10.7099 70.0247C9.9947 68.652 9.17809 67.0846 8.79379 65.6682ZM10.8942 71.917C10.7052 71.5392 10.502 71.1473 10.2837 70.741C9.32264 68.9513 8.63754 67.4322 8.18678 66.1471C6.40243 67.8187 6.58508 70.4533 7.47868 72.7666C8.67899 72.3559 9.8227 72.0807 10.8942 71.917Z" fill="#005BBB"/>
<path d="M37.0983 10.1564L37.3432 10.2408L37.3432 10.2408L37.0983 10.1564ZM37.0908 10.2482L37.3472 10.211L37.3566 10.2758L37.3341 10.3372L37.0908 10.2482ZM42.8763 11.0975L42.9608 10.8526V10.8526L42.8763 11.0975ZM48.0058 13.9188L47.7609 13.8343L47.7609 13.8343L48.0058 13.9188ZM47.9944 13.9448L47.9086 14.1892L47.6229 14.089L47.7662 13.8222L47.9944 13.9448ZM48.002 13.9475L48.0878 13.703L48.3318 13.7887L48.2465 14.0329L48.002 13.9475ZM46.05 19.5371L46.2946 19.6225L46.2397 19.7797L46.0739 19.7951L46.05 19.5371ZM46.0315 19.5388L46.0554 19.7968L46.0544 19.7969L46.0315 19.5388ZM45.9644 19.5448L45.7523 19.6936L45.4946 19.3264L45.9415 19.2867L45.9644 19.5448ZM46.3954 24.291L46.3205 24.539L46.0421 24.4549L46.1576 24.1881L46.3954 24.291ZM47.5391 26.9035L47.7969 26.9289L47.5391 26.9035ZM45.8011 29.2472L45.5481 29.3031L45.4781 28.9864L45.8025 28.9882L45.8011 29.2472ZM46.7441 32.048L46.5035 32.1439L46.7441 32.048ZM46.9137 39.0729L46.6909 38.9406L46.9137 39.0729ZM44.5405 42.0744L44.7289 42.2522L44.5405 42.0744ZM41.334 51.0071L41.593 51.0079L41.334 51.0071ZM37.7255 69.7746L37.7637 70.0309L37.3758 70.0886L37.4749 69.7092L37.7255 69.7746ZM37.7445 69.7718L37.7064 69.5156L38.1056 69.4561L37.9934 69.8438L37.7445 69.7718ZM37.5491 70.4472L37.2985 70.3811L37.3002 70.3752L37.5491 70.4472ZM34.7148 80.534L34.5061 80.6876L34.4296 80.5835L34.4666 80.4598L34.7148 80.534ZM35.1217 117.306L35.3658 117.393L35.3232 117.513L35.2023 117.552L35.1217 117.306ZM-18.1844 103.023L-18.4235 102.923L-18.1844 103.023ZM6.58421 73.0941L6.80986 72.9669L6.95652 73.2269L6.67835 73.3355L6.58421 73.0941ZM7.57045 63.7799L7.82677 63.7423L7.85348 63.9244L7.69031 64.0096L7.57045 63.7799ZM16.0142 60.2647L16.263 60.3368L16.195 60.5712L15.957 60.5173L16.0142 60.2647ZM21.2741 45.7482L21.4989 45.8771L21.2741 45.7482ZM22.0231 36.924L21.7754 36.9998L22.0231 36.924ZM21.6814 30.5772L21.4345 30.4987L21.6814 30.5772ZM26.058 25.9176L25.9334 25.6904L26.058 25.9176ZM28.6048 24.1782L28.7401 23.9573L29.0179 24.1274L28.7896 24.3597L28.6048 24.1782ZM28.2994 21.296L28.0634 21.1891L28.2994 21.296ZM30.3277 19.5768L30.5817 19.6275L30.5407 19.833L30.3312 19.8359L30.3277 19.5768ZM35.1384 15.5849L35.3817 15.6739L35.3281 15.8203L35.1738 15.8415L35.1384 15.5849ZM15.6057 61.6899L15.6446 61.4338L15.935 61.4779L15.8549 61.7606L15.6057 61.6899ZM15.3053 62.7582L15.5549 62.8278L15.4956 63.0403L15.2764 63.0157L15.3053 62.7582ZM8.70142 63.3002L8.78513 63.5453L8.29745 63.7118L8.45472 63.2211L8.70142 63.3002ZM8.79379 65.6682L8.54377 65.736L8.4949 65.5559L8.65027 65.4525L8.79379 65.6682ZM14.7922 64.4698L15.0388 64.5493L14.9785 64.7363L14.7821 64.7287L14.7922 64.4698ZM14.8673 64.2366L14.6207 64.1571L15.1162 64.3083L14.8673 64.2366ZM14.4307 65.7518L14.6796 65.8236L14.5686 66.2087L14.263 65.9493L14.4307 65.7518ZM14.4103 65.7345L14.1595 65.6699L14.2626 65.2694L14.578 65.537L14.4103 65.7345ZM13.6562 68.6625L13.477 68.8496L13.3675 68.7447L13.4053 68.5978L13.6562 68.6625ZM13.7096 68.7136L13.8887 68.5264L13.9983 68.6313L13.9605 68.7783L13.7096 68.7136ZM12.9468 71.7308L13.1982 71.7931L13.1508 71.9847L12.9535 71.9898L12.9468 71.7308ZM11.7171 71.8112L11.7438 72.0689L11.5756 72.0864L11.492 71.9394L11.7171 71.8112ZM11.0582 70.6963L10.8372 70.8314L10.8321 70.8232L10.8277 70.8146L11.0582 70.6963ZM10.7099 70.0247L10.4802 70.1444L10.7099 70.0247ZM10.2837 70.741L10.0555 70.8635L10.2837 70.741ZM10.8942 71.917L11.1259 71.8011L11.285 72.1193L10.9333 72.1731L10.8942 71.917ZM8.18678 66.1471L8.00967 65.958L8.29971 65.6863L8.43124 66.0614L8.18678 66.1471ZM7.47868 72.7666L7.56255 73.0117L7.32681 73.0924L7.23702 72.8599L7.47868 72.7666ZM37.3432 10.2408C37.3456 10.2338 37.3469 10.2271 37.3473 10.2214C37.3478 10.2158 37.3474 10.2121 37.3472 10.211L36.8345 10.2855C36.8245 10.2169 36.8285 10.144 36.8534 10.0719L37.3432 10.2408ZM42.7918 11.3424C41.2953 10.8262 39.9104 10.4656 38.8833 10.2983C38.3677 10.2143 37.9547 10.1812 37.6673 10.1969C37.5223 10.2049 37.4253 10.2246 37.3676 10.2468C37.3071 10.2702 37.3299 10.2794 37.3432 10.2408L36.8534 10.0719C36.9114 9.90351 37.0542 9.81235 37.1813 9.7634C37.3111 9.71336 37.4691 9.68892 37.6389 9.6796C37.981 9.66082 38.4366 9.7006 38.9666 9.78692C40.0307 9.96025 41.4453 10.3298 42.9608 10.8526L42.7918 11.3424ZM47.7609 13.8343C47.7476 13.8729 47.7712 13.8796 47.738 13.824C47.7063 13.7709 47.642 13.6956 47.5328 13.5999C47.3163 13.4103 46.9707 13.1818 46.5129 12.93C45.6011 12.4285 44.2883 11.8586 42.7918 11.3424L42.9608 10.8526C44.4763 11.3753 45.8179 11.9564 46.7626 12.4761C47.2331 12.7348 47.6163 12.9844 47.8741 13.2101C48.0021 13.3221 48.1114 13.4388 48.1828 13.5582C48.2526 13.6751 48.3088 13.8349 48.2507 14.0033L47.7609 13.8343ZM47.7662 13.8222C47.7642 13.8259 47.7624 13.83 47.7609 13.8343L48.2507 14.0033C48.243 14.0255 48.2336 14.0469 48.2226 14.0674L47.7662 13.8222ZM47.9162 14.1919L47.9086 14.1892L48.0802 13.7004L48.0878 13.703L47.9162 14.1919ZM45.8055 19.4517L47.7574 13.8621L48.2465 14.0329L46.2946 19.6225L45.8055 19.4517ZM46.0076 19.2809L46.0262 19.2791L46.0739 19.7951L46.0554 19.7968L46.0076 19.2809ZM45.9415 19.2867L46.0086 19.2808L46.0544 19.7969L45.9873 19.8028L45.9415 19.2867ZM46.1576 24.1881C46.9322 22.3985 46.6054 20.9088 45.7523 19.6936L46.1764 19.3959C47.1237 20.7454 47.4855 22.4246 46.6331 24.3939L46.1576 24.1881ZM47.2813 26.8781C47.3402 26.2811 47.2505 25.7315 47.0651 25.312C46.8779 24.8887 46.6075 24.6257 46.3205 24.539L46.4703 24.043C46.9505 24.188 47.3147 24.5955 47.5389 25.1025C47.7649 25.6135 47.8634 26.2543 47.7969 26.9289L47.2813 26.8781ZM45.8025 28.9882C46.1118 28.9898 46.4445 28.8014 46.7283 28.4202C47.0096 28.0425 47.2198 27.5017 47.2813 26.8781L47.7969 26.9289C47.7275 27.633 47.4888 28.2664 47.1439 28.7297C46.8014 29.1896 46.3305 29.5091 45.7997 29.5063L45.8025 28.9882ZM46.5035 32.1439C46.1444 31.2432 45.7693 30.3038 45.5481 29.3031L46.054 29.1913C46.2647 30.1443 46.6232 31.0452 46.9847 31.952L46.5035 32.1439ZM46.6909 38.9406C48.1941 36.409 47.3974 34.3863 46.5035 32.1439L46.9847 31.952C47.8743 34.1833 48.7815 36.4346 47.1364 39.2051L46.6909 38.9406ZM44.352 41.8967C45.1217 41.0806 45.929 40.2238 46.6909 38.9406L47.1364 39.2051C46.3426 40.5421 45.4997 41.4349 44.7289 42.2522L44.352 41.8967ZM41.0749 51.0063C41.0834 48.2098 41.4542 46.397 42.0567 45.0432C42.6596 43.6886 43.4865 42.8144 44.352 41.8967L44.7289 42.2522C43.8609 43.1725 43.0929 43.9893 42.5301 45.2538C41.967 46.5192 41.6014 48.2536 41.593 51.0079L41.0749 51.0063ZM37.4749 69.7092C38.4135 66.1142 39.3114 62.394 39.9759 59.0914C40.6414 55.7836 41.0691 52.9121 41.0749 51.0063L41.593 51.0079C41.5871 52.9685 41.1499 55.8832 40.4838 59.1936C39.8167 62.5094 38.9162 66.2398 37.9762 69.8401L37.4749 69.7092ZM37.7827 70.028L37.7637 70.0309L37.6874 69.5184L37.7064 69.5156L37.7827 70.028ZM37.3002 70.3752L37.4957 69.6998L37.9934 69.8438L37.7979 70.5192L37.3002 70.3752ZM34.4666 80.4598C35.2936 77.693 36.3115 74.1255 37.2986 70.3812L37.7996 70.5132C36.8109 74.2636 35.7915 77.8366 34.963 80.6082L34.4666 80.4598ZM34.8776 117.219C36.5873 112.409 38.2474 105.644 38.5992 98.8896C38.9514 92.1277 37.99 85.4222 34.5061 80.6876L34.9234 80.3805C38.5127 85.2584 39.4711 92.1101 39.1166 98.9166C38.7617 105.731 37.0887 112.545 35.3658 117.393L34.8776 117.219ZM-17.9453 103.122C-20.9913 110.431 -20.5849 115.348 -18.0351 118.541C-15.4692 121.753 -10.6634 123.314 -4.68192 123.73C7.26515 124.56 23.6141 120.798 35.0412 117.06L35.2023 117.552C23.7585 121.296 7.33176 125.084 -4.71781 124.247C-10.7346 123.829 -15.7324 122.253 -18.4399 118.864C-21.1633 115.454 -21.5001 110.305 -18.4235 102.923L-17.9453 103.122ZM6.67835 73.3355C-0.713188 76.2188 -10.1087 84.3187 -17.9453 103.122L-18.4235 102.923C-10.5531 84.0381 -1.07469 75.8037 6.49006 72.8528L6.67835 73.3355ZM7.69031 64.0096C6.42715 64.6688 5.52005 65.6515 5.25708 67.0671C4.99173 68.4955 5.37189 70.4169 6.80986 72.9669L6.35855 73.2214C4.89175 70.6203 4.45083 68.5704 4.74768 66.9724C5.04693 65.3616 6.08534 64.2627 7.4506 63.5502L7.69031 64.0096ZM15.957 60.5173C13.7182 60.0106 11.4789 59.6481 9.89943 60.0093C9.12038 60.1874 8.53031 60.5354 8.16956 61.1047C7.80639 61.6778 7.6474 62.5195 7.82677 63.7423L7.31414 63.8175C7.12451 62.5248 7.27851 61.5429 7.73191 60.8274C8.18773 60.1081 8.91777 59.7023 9.78394 59.5042C11.4949 59.113 13.8465 59.5084 16.0713 60.012L15.957 60.5173ZM21.4989 45.8771C19.9096 48.6491 18.0011 54.3408 16.263 60.3368L15.7653 60.1925C17.5002 54.2077 19.424 48.4545 21.0494 45.6194L21.4989 45.8771ZM22.2709 36.8483C22.6438 38.0685 23.031 39.3298 23.0312 40.7839C23.0314 42.2453 22.6419 43.8833 21.4989 45.8771L21.0494 45.6194C22.154 43.6926 22.5132 42.1426 22.513 40.784C22.5129 39.4182 22.1507 38.2276 21.7754 36.9998L22.2709 36.8483ZM21.9282 30.6558C21.1395 33.1346 21.6925 34.9558 22.2709 36.8483L21.7754 36.9998C21.1955 35.1025 20.5931 33.1431 21.4345 30.4987L21.9282 30.6558ZM26.1825 26.1447C24.4673 27.085 22.7662 28.0221 21.9282 30.6558L21.4345 30.4987C22.339 27.6561 24.2094 26.6355 25.9334 25.6904L26.1825 26.1447ZM28.7896 24.3597C28.0275 25.1354 27.0942 25.6449 26.1825 26.1447L25.9334 25.6904C26.8565 25.1844 27.7203 24.7088 28.42 23.9966L28.7896 24.3597ZM28.5354 21.4029C28.2802 21.9663 28.1908 22.5323 28.2412 22.9969C28.2921 23.4657 28.4791 23.7974 28.7401 23.9573L28.4695 24.3991C28.0247 24.1266 27.7873 23.6171 27.7261 23.0528C27.6644 22.4842 27.7752 21.8253 28.0634 21.1891L28.5354 21.4029ZM30.3312 19.8359C30.0447 19.8397 29.7102 19.9769 29.3827 20.251C29.0577 20.5231 28.755 20.918 28.5354 21.4029L28.0634 21.1891C28.3121 20.6401 28.66 20.1803 29.0502 19.8537C29.438 19.5292 29.8834 19.3238 30.3242 19.3178L30.3312 19.8359ZM35.1738 15.8415C34.0872 15.9913 33.0604 16.3255 32.247 16.9249C31.4393 17.52 30.8295 18.3851 30.5817 19.6275L30.0736 19.5262C30.3468 18.1562 31.0289 17.1788 31.9396 16.5078C32.8446 15.8409 33.9627 15.4854 35.103 15.3283L35.1738 15.8415ZM37.3341 10.3372L35.3817 15.6739L34.8951 15.4959L36.8475 10.1592L37.3341 10.3372ZM15.8549 61.7606C15.7541 62.1163 15.6541 62.4722 15.5549 62.8278L15.0558 62.6886C15.1552 62.3324 15.2554 61.9757 15.3564 61.6193L15.8549 61.7606ZM15.2764 63.0157C13.2428 62.7874 10.7742 62.8662 8.78513 63.5453L8.61771 63.055C10.7039 62.3427 13.256 62.2675 15.3342 62.5008L15.2764 63.0157ZM8.45472 63.2211C8.72427 62.38 9.38835 61.7512 10.5507 61.429C11.6986 61.1108 13.3483 61.085 15.6446 61.4338L15.5668 61.946C13.2978 61.6014 11.7332 61.6389 10.6891 61.9283C9.65948 62.2137 9.15403 62.7367 8.94812 63.3792L8.45472 63.2211ZM8.65027 65.4525C9.96111 64.5802 11.9461 64.1002 14.8022 64.211L14.7821 64.7287C11.9825 64.6201 10.1218 65.0956 8.93731 65.8838L8.65027 65.4525ZM14.5456 64.3904L14.6207 64.1571L15.1139 64.316L15.0388 64.5493L14.5456 64.3904ZM15.1162 64.3083L14.6796 65.8236L14.1818 65.6801L14.6184 64.1648L15.1162 64.3083ZM14.263 65.9493L14.2427 65.932L14.578 65.537L14.5983 65.5543L14.263 65.9493ZM14.6612 65.7992L13.907 68.7271L13.4053 68.5978L14.1595 65.6699L14.6612 65.7992ZM13.8353 68.4753L13.8887 68.5264L13.5305 68.9008L13.477 68.8496L13.8353 68.4753ZM13.9605 68.7783C13.6912 69.8229 13.4361 70.8335 13.1982 71.7931L12.6953 71.6685C12.9336 70.7073 13.1891 69.6952 13.4587 68.6489L13.9605 68.7783ZM12.9535 71.9898C12.5639 71.9999 12.1603 72.0257 11.7438 72.0689L11.6903 71.5536C12.12 71.509 12.5369 71.4823 12.9401 71.4718L12.9535 71.9898ZM11.492 71.9394C11.2881 71.5814 11.07 71.2122 10.8372 70.8314L11.2792 70.5611C11.5147 70.9462 11.7356 71.3201 11.9422 71.6831L11.492 71.9394ZM10.8277 70.8146C10.7165 70.5981 10.6 70.3744 10.4802 70.1444L10.9397 69.905C11.0593 70.1347 11.1766 70.3598 11.2886 70.5779L10.8277 70.8146ZM10.4802 70.1444C9.76855 68.7786 8.93686 67.1849 8.54377 65.736L9.04381 65.6003C9.41931 66.9844 10.2208 68.5254 10.9397 69.905L10.4802 70.1444ZM10.512 70.6184C10.7313 71.0268 10.9357 71.4209 11.1259 71.8011L10.6625 72.0328C10.4747 71.6574 10.2726 71.2678 10.0555 70.8635L10.512 70.6184ZM8.43124 66.0614C8.87627 67.3302 9.5551 68.8366 10.512 70.6184L10.0555 70.8635C9.09017 69.066 8.3988 67.5343 7.94233 66.2328L8.43124 66.0614ZM7.23702 72.8599C6.33361 70.5212 6.10378 67.7435 8.00967 65.958L8.3639 66.3362C6.70108 67.8939 6.83655 70.3853 7.72034 72.6733L7.23702 72.8599ZM10.9333 72.1731C9.87746 72.3344 8.74871 72.6058 7.56255 73.0117L7.39481 72.5215C8.60926 72.1059 9.76794 71.827 10.855 71.6609L10.9333 72.1731Z" fill="#010101" mask="url(#path-2-outside-1_30835_474)"/>
<ellipse cx="1.59562" cy="2.5074" rx="1.59562" ry="2.5074" transform="matrix(-0.995174 -0.0981246 -0.0981246 0.995174 47.7812 24.4094)" fill="#010101"/>
<ellipse cx="29.747" cy="21.9551" rx="1.59562" ry="2.5074" transform="rotate(24.3688 29.747 21.9551)" fill="#010101"/>
<path fill-rule="evenodd" clip-rule="evenodd" d="M40.0267 15.7919C43.0627 16.6447 48.5723 19.5684 46.3228 24.4405C44.9181 27.483 45.848 29.8155 46.7382 32.0485C47.63 34.2853 48.482 36.4223 46.9078 39.0734C46.1299 40.3835 45.3049 41.2582 44.5346 42.0749C42.801 43.913 41.3449 45.4568 41.3281 51.0076C41.3087 57.4212 36.5941 74.3997 34.2393 82.0873L23.0652 79.0932L40.0267 15.7919ZM39.9953 15.9019C36.9397 15.1225 30.7064 14.8997 30.2184 20.2438C29.8929 23.8086 28.0119 24.8397 26.0443 25.9183C24.3247 26.861 22.5389 27.8399 21.6677 30.578C20.8526 33.1396 21.4303 35.0299 22.0095 36.9248C22.7577 39.3728 23.5082 41.8285 21.2605 45.749C18.0705 51.313 13.6642 68.3741 11.8597 76.2092L23.0338 79.2033L39.9953 15.9019Z" fill="white"/>
<ellipse cx="42.8481" cy="37.6799" rx="3.85622" ry="5.43172" transform="rotate(40.381 42.8481 37.6799)" fill="url(#paint0_radial_30835_474)"/>
<ellipse cx="25.52" cy="33.8442" rx="3.85622" ry="5.43172" transform="rotate(-17.7498 25.52 33.8442)" fill="url(#paint1_radial_30835_474)"/>
<path d="M15.1603 63.2072C22.3041 68.87 33.2395 70.4476 37.7406 69.7728L36.9768 72.4119C26.6219 74.6222 17.6918 68.8942 14.4061 65.8245L15.1603 63.2072Z" fill="#005BBB"/>
<path d="M14.4064 65.7358C22.8484 72.9083 32.4938 72.9966 37.0079 72.3742L36.3657 74.4308C25.9679 76.5203 16.8763 71.7712 13.6523 68.6637L14.4064 65.7358Z" fill="#FFD500"/>
<ellipse opacity="0.2" cx="0.7153" cy="1.12404" rx="0.7153" ry="1.12404" transform="matrix(-0.987551 0.157298 0.157298 0.987551 30.582 19.9534)" fill="white"/>
<ellipse opacity="0.2" cx="0.7153" cy="1.12404" rx="0.7153" ry="1.12404" transform="matrix(-0.987551 0.157298 0.157298 0.987551 46.8184 24.5676)" fill="white"/>
<path d="M24.2961 74.2214C43.8514 78.0283 39.6586 104.531 35.1178 117.307C12.2469 124.789 -30.4335 132.406 -18.1883 103.024C-5.94308 73.6416 10.1519 70.2171 16.6687 72.1776L24.2961 74.2214Z" fill="white"/>
<path d="M42.8698 30.0642C45.2752 22.4963 38.2678 19.2476 38.2735 19.3506C30.3524 19.3506 29.2472 26.1333 29.2472 27.1809C29.2472 30.0642 24.1281 31.2413 24.7161 34.4034C25.3041 37.5654 23.7216 43.3993 23.731 47.7676C23.7368 50.4446 24.5118 51.6291 25.17 52.0542C24.9769 52.0043 25.0548 52.0358 25.245 52.0996C25.4181 52.198 25.5805 52.2441 25.7152 52.2521C25.5401 52.1965 25.3688 52.1412 25.245 52.0996C25.2202 52.0855 25.1952 52.0704 25.17 52.0542C25.4239 52.1197 26.146 52.3256 27.6968 52.783C32.0709 54.0731 33.8948 48.3671 39.4628 42.7795C45.0308 37.1918 39.8631 39.5239 42.8698 30.0642Z" fill="#FF6B0A"/>
<path d="M28.4514 49.9759C32.0569 50.6116 35.2898 43.0964 36.4556 39.2594C34.4183 38.2022 29.9038 36.2767 28.1439 37.0322C25.9439 37.9767 23.9446 49.1813 28.4514 49.9759Z" fill="#010101"/>
<path d="M27.9991 48.7932C25.6157 47.8242 27.8401 42.6346 29.2502 40.1609L34.0391 41.4441C33.0188 44.2975 30.3825 49.7622 27.9991 48.7932Z" fill="#956C7C"/>
<path d="M28.7885 46.9347C28.377 46.4343 30.552 41.292 31.691 38.7834L32.7129 39.1777C31.5762 41.9719 29.2 47.435 28.7885 46.9347Z" fill="#86616F"/>
<path d="M38.6811 36.6706C37.6601 30.9694 39.7995 28.5338 40.9968 28.0286C38.6075 22.1495 33.5793 23.8583 31.3639 25.4475C32.8438 31.1538 31.814 26.6301 27.9474 33.7946C24.8541 39.5261 28.3369 42.6894 30.4649 43.5546C33.6291 43.6355 39.7021 42.3719 38.6811 36.6706Z" fill="#EB6005"/>
<path d="M26.9621 36.2683C34.6517 30.1164 37.3107 36.8386 37.6789 40.9687C36.7522 42.3723 33.9836 44.8517 30.3232 43.5405C26.6627 42.2293 26.5573 38.146 26.9621 36.2683Z" fill="#EFE5D5"/>
<path d="M33.5107 36.9887C33.7473 36.3529 34.2915 35.2054 34.5754 35.7022C34.8593 36.1991 33.9839 36.7669 33.5107 36.9887Z" fill="#DACAB0"/>
<path d="M32.2729 36.6585C32.4894 36.0155 32.7891 34.7814 32.2557 34.9886C31.7223 35.1959 32.0449 36.1882 32.2729 36.6585Z" fill="#DACAB0"/>
<path d="M37.1313 10.1343L35.135 15.5908C37.4063 19.3527 43.3568 19.7904 46.0481 19.5391L48 13.9494L37.1313 10.1343Z" fill="#3D3A00"/>
<path d="M35.132 15.5911C35.0285 18.7999 37.2082 23.8247 46.0451 19.4949L35.132 15.5911Z" fill="#3D3A00"/>
<ellipse cx="5.76911" cy="0.994453" rx="5.76911" ry="0.994453" transform="matrix(-0.945341 -0.326084 -0.326084 0.945341 48.3281 12.9802)" fill="#3D3A00"/>
<path d="M38.7604 11.5724C38.7248 11.5768 38.6956 11.5793 38.6681 11.585C38.439 11.628 38.2706 11.7097 38.1426 11.8611C38.0884 11.9253 38.0433 11.9951 37.995 12.0612C37.9525 12.1198 37.9107 12.1773 37.8668 12.2354C37.8551 12.2504 37.8543 12.2582 37.8767 12.2683C37.9251 12.2882 37.958 12.3205 37.9581 12.3649C37.9593 12.4043 37.9345 12.4338 37.893 12.4524C37.8508 12.4721 37.8047 12.4704 37.7598 12.457C37.7376 12.4497 37.7265 12.438 37.7234 12.4181C37.6963 12.2668 37.7125 12.1189 37.7663 11.9726C37.8114 11.8517 37.886 11.7405 37.9542 11.6285C37.9926 11.5646 38.0287 11.4985 38.07 11.4355C38.0954 11.3954 38.115 11.3562 38.1235 11.312C38.132 11.2677 38.1283 11.2235 38.1094 11.1783C38.0541 11.1964 38.0091 11.2246 37.977 11.2611C37.9476 11.2958 37.9229 11.3347 37.9009 11.3718C37.877 11.4124 37.8605 11.4553 37.8402 11.4957C37.7868 11.6031 37.7348 11.711 37.677 11.817C37.5791 11.9931 37.4312 12.1393 37.2318 12.2525C37.2058 12.2682 37.182 12.2671 37.1552 12.2555C37.0867 12.2277 37.0566 12.168 37.0845 12.1168C37.1107 12.0689 37.189 12.0436 37.2597 12.0641C37.2854 12.0713 37.2906 12.0649 37.2964 12.048C37.3285 11.9604 37.3627 11.8722 37.3963 11.7852C37.4332 11.6858 37.4774 11.5888 37.4757 11.4834C37.4733 11.3442 37.4187 11.2335 37.3163 11.1179C37.3084 11.1099 37.3006 11.1019 37.2895 11.0902C37.2839 11.1005 37.2802 11.1073 37.2765 11.1142C37.0357 11.5551 36.8049 11.9778 36.5641 12.4187C36.5504 12.4438 36.5504 12.4438 36.5815 12.454C36.6982 12.4924 36.8164 12.5312 36.9331 12.5696C36.9538 12.5764 36.9602 12.5839 36.9559 12.6013C36.924 12.7332 36.949 12.8597 37.0365 12.9772C37.0544 13.0019 37.0668 13.0301 37.082 13.0566C37.1809 13.0192 37.2963 13.0088 37.3904 12.9578C37.4674 12.9159 37.5373 12.8676 37.5896 12.8069C37.6021 12.7935 37.6135 12.7919 37.6312 12.7977C37.7509 12.837 37.8691 12.8759 37.9888 12.9152C38.0095 12.922 38.0202 12.9215 38.0302 12.9033C38.2722 12.4601 38.5049 12.034 38.7469 11.5908C38.7511 11.5894 38.7535 11.5849 38.7604 11.5724ZM38.5196 11.7324C38.522 11.7345 38.5264 11.736 38.5287 11.7381C38.5244 11.7461 38.52 11.754 38.5157 11.762C38.3993 11.9751 38.2923 12.1711 38.176 12.3841C38.1567 12.4194 38.1567 12.4194 38.1094 12.4039C38.0917 12.3981 38.0847 12.3917 38.0877 12.3766C38.093 12.3286 38.0749 12.2851 38.0374 12.2485C38.0217 12.2326 38.0243 12.2214 38.036 12.2064C38.0922 12.1322 38.1505 12.0573 38.2023 11.9816C38.2575 11.9029 38.3147 11.8492 38.4071 11.7949C38.4439 11.7721 38.4819 11.7536 38.5196 11.7324ZM37.3002 11.3356C37.3031 11.3366 37.3052 11.336 37.3082 11.3369C37.3121 11.349 37.316 11.361 37.3184 11.3725C37.3387 11.4598 37.3567 11.5289 37.3273 11.6147C37.2891 11.723 37.2479 11.8304 37.2081 11.9383C37.2036 11.953 37.1942 11.9606 37.1721 11.9628C37.1115 11.9684 37.0593 11.9875 37.017 12.0234C36.9976 12.0398 36.9789 12.039 36.9436 12.0207C36.9218 12.0095 36.9381 11.9988 36.9437 11.9885C37.0619 11.772 37.1708 11.5726 37.2896 11.355C37.2919 11.3477 37.2956 11.3409 37.3002 11.3356ZM37.7294 12.5572C37.7374 12.5585 37.7469 12.5602 37.7585 12.5614C37.8603 12.576 37.952 12.5645 38.022 12.5001C38.032 12.4913 38.0404 12.4887 38.0531 12.4942C38.0634 12.4976 38.0738 12.501 38.0841 12.5044C38.0989 12.5093 38.1023 12.5158 38.0961 12.5272C38.0495 12.6126 38.0022 12.6992 37.954 12.7842C37.9515 12.7888 37.9341 12.7951 37.9282 12.7932C37.8478 12.7681 37.7665 12.7414 37.6874 12.714C37.6815 12.7121 37.674 12.7002 37.675 12.6952C37.6927 12.6499 37.7105 12.6047 37.7294 12.5572ZM37.097 12.3493C37.0662 12.3929 37.0352 12.4338 37.005 12.4763C36.9967 12.4883 36.9849 12.4845 36.973 12.4806C36.8977 12.4558 36.8244 12.4304 36.7484 12.4068C36.7248 12.399 36.7211 12.3897 36.732 12.3731C36.7751 12.2973 36.8153 12.2204 36.8576 12.143C36.8769 12.1076 36.8769 12.1076 36.9227 12.1227C36.936 12.1271 36.9478 12.131 36.9454 12.1449C36.9353 12.2209 36.9789 12.2783 37.0511 12.3248C37.067 12.3341 37.0841 12.341 37.097 12.3493ZM37.5857 12.131C37.5792 12.2323 37.5739 12.3314 37.5939 12.432C37.535 12.4409 37.4797 12.4496 37.4236 12.4566C37.4158 12.4581 37.4022 12.451 37.3967 12.4451C37.3683 12.4143 37.344 12.3821 37.3155 12.3513C37.3068 12.3417 37.307 12.335 37.32 12.3272C37.4126 12.2757 37.4906 12.2126 37.5654 12.1458C37.5729 12.1416 37.5796 12.1357 37.5857 12.131ZM37.4733 12.7485C37.4469 12.8097 37.3009 12.9015 37.2441 12.9002C37.2432 12.8986 37.2424 12.897 37.2424 12.897C37.2747 12.8378 37.3056 12.778 37.3388 12.7204C37.3413 12.7158 37.3554 12.7124 37.3619 12.7132C37.4001 12.7231 37.4364 12.7364 37.4733 12.7485ZM37.1187 12.8617C37.0707 12.8124 37.0634 12.6662 37.0986 12.624C37.1312 12.6347 37.1666 12.6463 37.1991 12.657C37.2183 12.6633 37.2211 12.671 37.2137 12.6846C37.1875 12.7325 37.1614 12.7804 37.1353 12.8282C37.1312 12.8389 37.1256 12.8492 37.1187 12.8617ZM37.4708 12.6415C37.4516 12.6352 37.4303 12.6295 37.4123 12.6209C37.4064 12.619 37.3995 12.606 37.4029 12.603C37.4391 12.5558 37.5041 12.5261 37.5724 12.5351C37.587 12.5372 37.5931 12.5419 37.5905 12.5532C37.5796 12.5859 37.5672 12.6181 37.5557 12.6519C37.551 12.6638 37.5396 12.6655 37.5263 12.6611C37.5092 12.6541 37.49 12.6478 37.4708 12.6415ZM37.1989 12.5521C37.1812 12.5463 37.1649 12.541 37.1472 12.5351C37.1288 12.5304 37.1216 12.5213 37.1326 12.5075C37.1526 12.4805 37.1726 12.4534 37.1941 12.4269C37.2045 12.4142 37.2152 12.4137 37.2305 12.4241C37.2798 12.4551 37.3045 12.5183 37.2817 12.5632C37.2792 12.5678 37.2645 12.5724 37.258 12.5715C37.2367 12.5659 37.2181 12.5584 37.1989 12.5521Z" fill="#FFD500"/>
<path d="M37.1313 10.1343L35.135 15.5908C37.4063 19.3527 43.3568 19.7904 46.0481 19.5391L48 13.9494C48 13.9494 47.0613 13.8317 46.4917 13.6389C45.8092 13.4078 44.8503 12.796 44.8503 12.796L40.1479 16.6112V10.9328C40.1479 10.9328 39.1247 11.1021 38.5065 10.9328C37.9075 10.7688 37.1313 10.1343 37.1313 10.1343Z" fill="#4B4800"/>
<path d="M15.3401 62.7624C9.48661 62.0931 -0.115522 63.9169 8.1041 75.4681C16.2632 86.9342 17.8427 94.1438 13.4624 92.7254C13.4308 92.7136 13.398 92.7026 13.364 92.6924C13.3971 92.7039 13.4299 92.7149 13.4624 92.7254C14.68 93.1803 14.1232 94.8223 14.7522 95.4883C19.6279 96.2635 19.7188 89.7102 8.82879 75.3339C6.20785 71.5116 4.45731 64.069 14.7902 64.4698L15.3401 62.7624Z" fill="#FFD500"/>
<path d="M16.1258 60.2917C10.1591 58.9288 3.65006 58.3932 10.2818 70.7422C16.8455 82.9645 9.88294 82.0502 5.45685 80.019C5.41491 79.9973 5.36941 79.9761 5.3201 79.9555C5.3654 79.9768 5.41099 79.9979 5.45685 80.019C6.5467 80.582 5.22663 81.4763 5.76343 82.1982C10.6976 83.5476 18.664 83.1365 11.0562 70.6975C8.96448 66.6231 4.99265 60.0605 15.6538 61.6988L16.1258 60.2917Z" fill="#005BBB"/>
</g>
<rect x="1" y="1" width="64" height="64" rx="32" stroke="#2F2F37" stroke-width="0.4"/>
<defs>
<radialGradient id="paint0_radial_30835_474" cx="0" cy="0" r="1" gradientUnits="userSpaceOnUse" gradientTransform="translate(42.8481 37.6799) rotate(90) scale(5.43172 3.85622)">
<stop stop-color="#FFBBBB"/>
<stop offset="1" stop-color="#FFBBBB" stop-opacity="0"/>
</radialGradient>
<radialGradient id="paint1_radial_30835_474" cx="0" cy="0" r="1" gradientUnits="userSpaceOnUse" gradientTransform="translate(25.52 33.8442) rotate(90) scale(5.43172 3.85622)">
<stop stop-color="#FFBBBB"/>
<stop offset="1" stop-color="#FFBBBB" stop-opacity="0"/>
</radialGradient>
<clipPath id="clip0_30835_474">
<rect x="1" y="1" width="64" height="64" rx="32" fill="white"/>
</clipPath>
</defs>
</svg>
