<svg width="66" height="66" viewBox="0 0 66 66" fill="none" xmlns="http://www.w3.org/2000/svg">
<path d="M33 65C50.6731 65 65 50.6731 65 33C65 15.3269 50.6731 1 33 1C15.3269 1 1 15.3269 1 33C1 50.6731 15.3269 65 33 65Z" stroke="#2F2F37" stroke-width="0.4"/>
<path d="M39.5579 48.9067L44.6113 53.3941L40.1415 51.0494L43.7359 59L38.656 51.9118L38.5632 54.4183L37.4092 52.3969L36.7991 57.0864L36.1492 50.4969L39.5579 48.9067Z" stroke="black" stroke-width="0.2" stroke-miterlimit="10"/>
<path d="M21.7831 34.5688C16.2389 39.1101 20.2047 42.506 23.1094 47.8288C22.8441 45.6188 22.6584 43.5301 24.8867 41.8322L21.7831 34.5688Z" fill="black" stroke="black" stroke-width="0.2" stroke-miterlimit="10"/>
<path d="M38.6572 28.3296C44.4534 28.8821 45.3686 29.3403 47 38.9349C45.1962 37.2639 44.5728 35.4986 41.5752 36.1589C40.7997 33.4776 39.8242 30.8603 38.6572 28.3296Z" fill="black" stroke="black" stroke-width="0.2" stroke-miterlimit="10"/>
<path d="M40.5684 44.0151C40.5684 44.0151 42.7568 46.8585 40.5684 48.5968C39.1094 49.7962 32.3317 53.3672 31.3502 47.7479L40.5684 44.0151Z" fill="black" stroke="black" stroke-width="0.2" stroke-miterlimit="10"/>
<path d="M42.0097 41.2664C44.7552 42.8565 36.0013 47.236 31.1336 47.8424C30.3511 47.9368 27.0087 48.3545 28.3483 46.4006L32.46 45.5651L38.5877 43.2607L38.7999 43.1529L42.0097 41.2664Z" fill="#FF6B08" stroke="black" stroke-width="0.2" stroke-miterlimit="10"/>
<path d="M41.0173 36.5227L41.959 41.2796C40.2384 43.128 38.1256 44.5535 35.7814 45.4478C33.4371 46.3421 30.923 46.6817 28.4302 46.4407L25.4857 41.8186C25.4857 41.8186 32.5817 42.6406 41.0173 36.5227Z" fill="#ABB4B5" stroke="black" stroke-width="0.2" stroke-miterlimit="10"/>
<path d="M41.5488 36.3206C41.5488 36.3206 35.567 14.0994 21.6536 11C21.6536 11 14.2658 20.3116 25.0755 41.8726C25.0888 41.8726 31.3359 44.5273 41.5488 36.3206Z" fill="#FF6B08" stroke="black" stroke-width="0.2" stroke-miterlimit="10"/>
<path d="M31.1499 23.9098C26.4281 20.1905 20.0881 29.6504 28.4972 31.3483C30.8581 31.8334 35.8717 29.0305 31.1499 23.9098Z" fill="#F1E324" stroke="black" stroke-width="0.2" stroke-miterlimit="10"/>
<path d="M34.0956 25.6478C30.7001 17.0234 21.5881 21.686 22.742 27.2649C24.8376 37.8567 37.1727 33.4502 34.0956 25.6478Z" stroke="black" stroke-width="0.2" stroke-miterlimit="10"/>
<path d="M28.9727 14.7461C27.7814 16.1659 26.2952 17.2999 24.6211 18.0665C22.9469 18.8331 21.1263 19.2132 19.2903 19.1796" stroke="black" stroke-width="0.2" stroke-miterlimit="10"/>
<path d="M27.4783 13.6006C26.5188 14.8368 25.2957 15.8357 23.9012 16.522C22.5066 17.2083 20.9769 17.564 19.4273 17.5624" stroke="black" stroke-width="0.2" stroke-miterlimit="10"/>
<path d="M27.8198 24.1923C28.1745 24.0535 28.5544 23.9938 28.9339 24.0172C29.3659 24.0383 29.787 24.1628 30.1627 24.3806C30.5384 24.5983 30.8581 24.9032 31.0958 25.2704C31.48 25.8986 31.7329 26.6004 31.8386 27.3321C31.8676 27.4624 31.8467 27.5989 31.7801 27.714C31.7136 27.8291 31.6065 27.9142 31.4805 27.952C31.3539 27.9855 31.2195 27.9676 31.1057 27.9022C30.9918 27.8368 30.9075 27.7291 30.8704 27.6017C30.8175 27.2632 30.7376 26.9298 30.6316 26.6045C30.6108 26.5349 30.5842 26.4673 30.552 26.4023V26.3215C30.552 26.3215 30.552 26.4293 30.552 26.3215C30.552 26.3215 30.4459 26.0924 30.3796 25.9846L30.2868 25.8364C30.2868 25.8364 30.1807 25.6881 30.2868 25.7555C30.3929 25.8229 30.2868 25.7555 30.2868 25.6746L30.1541 25.5399C30.0988 25.4747 30.0365 25.4159 29.9684 25.3647C30.1011 25.3647 29.9684 25.3647 29.9684 25.3647L29.8358 25.2839H29.743C29.743 25.2839 29.6766 25.2839 29.743 25.2839C29.6594 25.2712 29.5786 25.2438 29.5042 25.203H29.3053C29.4379 25.203 29.3053 25.203 29.3053 25.203H29.1992C29.071 25.1963 28.9426 25.1963 28.8145 25.203H28.7217C28.8808 25.203 28.7217 25.203 28.7217 25.203H28.5758L28.2442 25.2973C28.1815 25.3157 28.1158 25.3212 28.051 25.3135C27.9862 25.3057 27.9235 25.2849 27.8667 25.2523C27.8099 25.2197 27.7601 25.1759 27.7201 25.1235C27.6802 25.071 27.6509 25.011 27.6341 24.947C27.6012 24.8184 27.6187 24.6818 27.6831 24.5662C27.7474 24.4505 27.8535 24.3648 27.9789 24.3271L27.8198 24.1923Z" fill="white"/>
</svg>
