<svg aria-hidden="true" style="position: absolute; width: 0; height: 0; overflow: hidden;" version="1.1"
    xmlns="http://www.w3.org/2000/svg" xmlns:xlink="http://www.w3.org/1999/xlink">
    <defs>
        <symbol>
            <path
                d="M94.1297 12.6872L97.0453 11.2794L104.633 26.9744L101.717 28.3822L94.1297 12.6872ZM93.598 32.3023L90.6823 33.7101L83.095 18.0151L86.0107 16.6074L93.598 32.3023ZM98.6896 21.5475L90.0996 25.695L88.8965 23.2063L97.4864 19.0587L98.6896 21.5475Z"
                fill="#010101" />
            <path
                d="M116.129 22.7893L115.233 20.2536L114.878 19.7716L113.309 15.3341C113.005 14.4732 112.511 13.8992 111.829 13.612C111.14 13.3091 110.272 13.3428 109.223 13.7131C108.518 13.9618 107.86 14.3173 107.249 14.7796C106.653 15.2364 106.189 15.7434 105.858 16.3005L103.952 14.5701C104.442 13.8159 105.105 13.1506 105.941 12.5741C106.786 11.9764 107.71 11.5007 108.712 11.147C110.528 10.5059 112.085 10.4495 113.381 10.9778C114.687 11.485 115.661 12.6465 116.303 14.4622L118.901 21.8111L116.129 22.7893ZM112.242 24.3464C111.302 24.678 110.425 24.8117 109.61 24.7473C108.789 24.6673 108.083 24.4146 107.492 23.9893C106.912 23.5428 106.494 22.9595 106.24 22.2395C105.991 21.5352 105.931 20.8432 106.061 20.1636C106.206 19.4786 106.604 18.8363 107.255 18.2367C107.906 17.6372 108.866 17.1136 110.134 16.666L113.775 15.381L114.464 17.3297L111.035 18.5401C110.032 18.8938 109.417 19.2958 109.189 19.7461C108.955 20.1808 108.921 20.6329 109.087 21.1024C109.275 21.6346 109.636 21.9826 110.17 22.1465C110.703 22.3103 111.345 22.2596 112.097 21.9943C112.817 21.7401 113.401 21.3491 113.849 20.8214C114.312 20.2883 114.555 19.6566 114.579 18.9264L115.695 20.5132C115.673 21.3484 115.366 22.0993 114.774 22.766C114.197 23.4272 113.353 23.954 112.242 24.3464Z"
                fill="#010101" />
            <path
                d="M121.9 20.8358L118.75 7.91684L121.775 7.18054L123.852 15.6964L128.915 5.4429L131.674 4.77141L134.824 17.6904L131.798 18.4267L129.722 9.91079L124.683 20.1584L121.9 20.8358ZM124.647 4.8671C123.356 5.18125 122.291 5.12437 121.452 4.69647C120.609 4.25244 120.037 3.45176 119.738 2.29444L121.747 1.80554C121.904 2.38224 122.194 2.79871 122.615 3.05494C123.053 3.30725 123.586 3.35683 124.216 3.20368C124.829 3.05446 125.271 2.76731 125.544 2.34221C125.832 1.9132 125.914 1.40641 125.788 0.821857L127.846 0.321181C128.113 1.48636 127.966 2.46179 127.405 3.24745C126.857 4.01307 125.937 4.55295 124.647 4.8671Z"
                fill="#010101" />
            <path
                d="M147.723 15.7433L142.088 10.0853L144.391 8.18438L151.351 15.2433L147.723 15.7433ZM138.273 17.0461L136.452 3.87443L139.537 3.44923L141.357 16.6209L138.273 17.0461ZM139.715 11.4682L139.36 8.90297L143.826 8.28728L144.181 10.8526L139.715 11.4682ZM144.915 9.79619L141.98 9.84885L145.903 2.57162L149.21 2.11581L144.915 9.79619Z"
                fill="#010101" />
            <path
                d="M160.793 15.0097C159.714 15.0465 158.718 14.8313 157.805 14.3642C156.908 13.8965 156.177 13.174 155.612 12.1968C155.062 11.2023 154.761 9.93368 154.708 8.39081C154.654 6.83134 154.859 5.54542 155.323 4.53302C155.803 3.52006 156.475 2.75802 157.338 2.24689C158.201 1.71917 159.196 1.43606 160.325 1.39754C161.636 1.3528 162.799 1.59547 163.814 2.12555C164.846 2.65506 165.67 3.4159 166.286 4.40807C166.918 5.39967 167.258 6.58396 167.305 7.96094C167.352 9.33791 167.095 10.5509 166.533 11.5999C165.987 12.6317 165.217 13.4469 164.224 14.0455C163.248 14.6435 162.104 14.9649 160.793 15.0097ZM153.584 19.9146L152.961 1.79832L155.923 1.69722L156.031 4.83274L156.053 8.36982L156.424 11.895L156.696 19.8084L153.584 19.9146ZM160.353 12.3589C161.1 12.3334 161.758 12.1448 162.327 11.7932C162.913 11.441 163.37 10.9438 163.697 10.3014C164.023 9.65912 164.172 8.91492 164.143 8.06883C164.114 7.20615 163.914 6.47384 163.544 5.8719C163.174 5.25337 162.685 4.7884 162.076 4.47699C161.483 4.16501 160.814 4.02177 160.067 4.04725C159.32 4.07274 158.654 4.26158 158.068 4.61377C157.481 4.96596 157.025 5.46321 156.698 6.10553C156.371 6.73125 156.222 7.47546 156.251 8.33814C156.281 9.18423 156.48 9.91654 156.85 10.5351C157.221 11.1536 157.71 11.6186 158.319 11.93C158.928 12.2414 159.606 12.3843 160.353 12.3589Z"
                fill="#010101" />
            <path
                d="M178.153 15.2568L178.33 12.5734L178.193 11.9905L178.502 7.29468C178.561 6.38367 178.334 5.6617 177.82 5.12877C177.307 4.57927 176.495 4.26795 175.385 4.19482C174.639 4.1457 173.894 4.21308 173.15 4.39694C172.422 4.5819 171.796 4.86505 171.272 5.2464L170.202 2.90522C170.951 2.40555 171.822 2.0554 172.818 1.85478C173.83 1.63869 174.867 1.56557 175.928 1.63543C177.85 1.76205 179.302 2.32353 180.285 3.31986C181.286 4.30073 181.723 5.75186 181.597 7.67326L181.086 15.45L178.153 15.2568ZM173.966 15.1556C172.972 15.0901 172.113 14.8672 171.389 14.4868C170.666 14.0898 170.117 13.5795 169.742 12.956C169.384 12.3169 169.231 11.6164 169.281 10.8545C169.33 10.1091 169.548 9.44974 169.935 8.87636C170.339 8.30408 170.958 7.87076 171.793 7.57641C172.627 7.28205 173.716 7.17908 175.058 7.2675L178.911 7.52128L178.776 9.58347L175.147 9.34443C174.086 9.27457 173.362 9.40155 172.975 9.72538C172.588 10.0326 172.379 10.4347 172.346 10.9316C172.309 11.4948 172.503 11.9568 172.929 12.3175C173.355 12.6783 173.965 12.8848 174.761 12.9372C175.523 12.9874 176.214 12.8583 176.833 12.5497C177.469 12.2423 177.942 11.7577 178.252 11.0961L178.651 12.9939C178.302 13.7527 177.724 14.3218 176.917 14.7012C176.126 15.0816 175.142 15.2331 173.966 15.1556Z"
                fill="#010101" />
            <path
                d="M194.777 14.8103L193.976 15.4175L196.119 4.21715L199.178 4.80272L197.034 16.0031L196.44 15.1289L202.899 16.3656L202.05 16.9634L204.193 5.76306L207.252 6.34863L204.752 19.4076L185.497 15.7208L187.997 2.66187L191.055 3.24744L188.911 14.4478L188.342 13.5783L194.777 14.8103ZM203.259 21.9102L203.919 18.4621L204.483 19.356L201.596 18.8032L202.092 16.211L207.132 17.176L206.121 22.4583L203.259 21.9102Z"
                fill="#010101" />
            <path
                d="M215.739 22.9346L216.555 20.3723L216.563 19.7737L217.99 15.2897C218.267 14.4198 218.22 13.6645 217.849 13.0237C217.483 12.3671 216.77 11.87 215.71 11.5325C214.998 11.3057 214.258 11.1922 213.492 11.192C212.741 11.1968 212.065 11.3213 211.464 11.5655L210.989 9.03625C211.835 8.73096 212.766 8.60041 213.78 8.64461C214.815 8.67804 215.839 8.85598 216.852 9.17843C218.687 9.76289 219.963 10.6567 220.677 11.8598C221.413 13.0522 221.489 14.5658 220.905 16.4005L218.54 23.8264L215.739 22.9346ZM211.698 21.831C210.749 21.5287 209.968 21.106 209.357 20.5629C208.751 20.004 208.34 19.3769 208.126 18.6816C207.933 17.9754 207.952 17.2586 208.184 16.531C208.41 15.8193 208.78 15.2316 209.294 14.768C209.823 14.3095 210.529 14.0376 211.41 13.9523C212.291 13.867 213.373 14.0284 214.654 14.4366L218.334 15.608L217.706 17.5772L214.241 16.4737C213.228 16.1513 212.495 16.1007 212.041 16.322C211.592 16.5275 211.292 16.8675 211.141 17.342C210.97 17.8797 211.047 18.3748 211.374 18.8272C211.7 19.2796 212.243 19.6267 213.003 19.8685C213.731 20.1003 214.433 20.1408 215.108 19.99C215.799 19.8443 216.375 19.4875 216.835 18.9196L216.766 20.8577C216.245 21.5104 215.547 21.9239 214.672 22.0984C213.813 22.2778 212.822 22.1887 211.698 21.831Z"
                fill="#010101" />
            <path
                d="M234.988 30.8654L236.924 26.7681L237.106 27.4323L233.502 25.7303C231.851 24.9501 230.715 23.9915 230.095 22.8543C229.497 21.7092 229.51 20.4763 230.134 19.1555C230.801 17.7447 231.804 16.9057 233.142 16.6383C234.496 16.3781 236.006 16.6416 237.673 17.4288L243.191 20.0351L237.511 32.0569L234.988 30.8654ZM226.339 26.7804L231.752 23.7197L234.636 25.0814L229.357 28.2059L226.339 26.7804ZM237.35 25.8676L239.903 20.4645L239.957 21.3989L236.646 19.8352C235.775 19.4238 235.021 19.2698 234.385 19.373C233.77 19.4683 233.293 19.8762 232.953 20.5966C232.314 21.9474 232.874 23.0376 234.631 23.8674L238.032 25.4737L237.35 25.8676Z"
                fill="#010101" />
            <path
                d="M248.572 38.4061L247.688 30.4721L250.674 30.4183L251.723 40.2731L248.572 38.4061ZM240.365 33.5418L247.147 22.1051L249.826 23.6927L243.044 35.1293L240.365 33.5418ZM244.969 30.0762L246.29 27.8488L250.168 30.1476L248.848 32.375L244.969 30.0762ZM250.08 32.0057L247.751 30.2199L255.355 26.9695L258.226 28.6713L250.08 32.0057Z"
                fill="#010101" />
            <path
                d="M253.142 41.4052L260.715 30.4758L263.275 32.2484L255.702 43.1778L253.142 41.4052ZM263.253 29.5681C262.775 29.2372 262.483 28.8129 262.377 28.2953C262.285 27.7872 262.385 27.3216 262.678 26.8986C262.981 26.462 263.382 26.2044 263.88 26.1258C264.402 26.0431 264.902 26.1671 265.38 26.498C265.858 26.8289 266.148 27.2416 266.25 27.7361C266.375 28.2264 266.291 28.6831 265.997 29.1061C265.685 29.5563 265.271 29.8344 264.753 29.9403C264.244 30.0325 263.744 29.9084 263.253 29.5681Z"
                fill="#010101" />
            <path
                d="M264.028 49.6883C262.94 48.8159 262.15 47.8103 261.659 46.6716C261.19 45.5304 261.038 44.3662 261.203 43.179C261.368 41.9919 261.86 40.8869 262.681 39.8639C263.512 38.828 264.484 38.1072 265.597 37.7016C266.72 37.2831 267.885 37.1847 269.091 37.4066C270.309 37.6389 271.463 38.1912 272.551 39.0637C273.562 39.8738 274.283 40.7924 274.715 41.8196C275.171 42.8442 275.283 43.9124 275.051 45.0243L272.312 44.6164C272.396 43.8751 272.305 43.2061 272.038 42.6095C271.785 42.0233 271.399 41.5224 270.88 41.107C270.284 40.6292 269.643 40.3277 268.956 40.2024C268.268 40.0771 267.591 40.1514 266.925 40.4253C266.268 40.6864 265.67 41.1535 265.13 41.8269C264.59 42.5002 264.258 43.192 264.136 43.9022C264.023 44.5994 264.103 45.2696 264.375 45.9129C264.646 46.5562 265.08 47.1167 265.676 47.5945C266.194 48.0099 266.767 48.2776 267.395 48.3977C268.035 48.5281 268.708 48.472 269.414 48.2292L270.407 50.8125C269.382 51.2675 268.31 51.397 267.19 51.2012C266.093 51.0027 265.039 50.4985 264.028 49.6883Z"
                fill="#010101" />
            <path
                d="M272.24 56.5777L280.101 48.3139L280.109 49.3528L276.191 45.6293L278.011 43.7167L287.038 52.2962L285.219 54.2088L281.319 50.5024L282.357 50.4588L274.497 58.7226L272.24 56.5777Z"
                fill="#010101" />
            <path
                d="M290.107 62.2046C291.244 63.4824 291.825 64.71 291.85 65.8872C291.875 67.0645 291.366 68.1163 290.324 69.0428C289.244 70.0023 288.07 70.3801 286.799 70.1761C285.542 69.9611 284.317 69.172 283.127 67.8087L279.007 63.1399L288.946 54.3057L291.015 56.6318L287.758 59.5269L290.107 62.2046ZM284.657 66.082C285.252 66.7754 285.858 67.1696 286.476 67.2647C287.094 67.3598 287.688 67.1536 288.259 66.6463C288.83 66.139 289.079 65.5951 289.007 65.0148C288.959 64.4358 288.632 63.7934 288.026 63.0876L286.157 60.9497L282.789 63.944L284.657 66.082Z"
                fill="#010101" />
        </symbol>
        <symbol id="icon-cotton" viewBox="0 0 32 32">
            <path fill="#998470" style="fill: var(--color1, #998470)"
                d="M25.788 9.152c-0 0.964-1.535 2.52-2.302 3.178-4.348 0.219-13.374 0.504-14.689-0.11s-2.082-2.666-2.302-3.616c-0.702 1.315-0.001 4.346 0.438 5.698-0.088 1.315 0.694 2.739 1.096 3.287-0.877-0.351-2.485-0.219-3.179-0.11 0.585 0.219 1.907 0.898 2.521 1.863s2.448 1.79 3.288 2.082l-0.219 0.219c-1.754 0-2.339 0.877-2.412 1.315 0.11-0.219 1.973-0.219 3.508 0.219 1.228 0.351 3.216-0.657 4.056-1.205-0.292 0.913-0.877 2.827-0.877 3.178s1.096 0.511 1.644 0.548l0.329-3.725c1.315 1.534 5.152 1.644 5.371 1.205 0.175-0.351 1.827-0.292 2.631-0.219-0.526-0.789-2.119-1.351-2.85-1.534 1.425-0.11 3.070-1.315 3.289-2.301 0.175-0.789 1.462-1.424 2.083-1.644-1.052-0.526-2.631 0.073-3.289 0.438 1.316-1.49 1.352-3.031 1.206-3.616 1.316-2.104 0.987-4.31 0.658-5.15z">
            </path>
            <path fill="#fff" style="fill: var(--color2, #fff)"
                d="M16.032 6.303c-2.76 0-3.179 2.191-3.179 2.301l1.644 4.383h3.508l1.426-4.383c-0.219-0.767-1.096-2.301-3.398-2.301z">
            </path>
            <path fill="#fff" style="fill: var(--color2, #fff)"
                d="M11.535 18.575c-5.963-0.789-3.945-6.026-2.301-6.793-0.329-2.52 0.987-3.397 2.302-3.397 1.227 0 2.265 0.584 2.631 1.205 1.425 2.958 3.331 9.774-2.632 8.985z">
            </path>
            <path fill="#fff" style="fill: var(--color2, #fff)"
                d="M20.78 18.575c5.963-0.789 3.947-6.026 2.303-6.793 0.329-2.52-0.986-3.397-2.302-3.397-1.227 0-2.266 0.584-2.631 1.205-1.425 2.958-3.334 9.774 2.63 8.985z">
            </path>
            <path fill="#fff" style="fill: var(--color2, #fff)"
                d="M20.774 13.434c1.864 6.903-4.495 7.67-4.715 7.67-0.438 0-6.279-0.877-4.603-7.779 0.878-3.616 8.342-3.506 9.318 0.11z">
            </path>
        </symbol>
        <symbol id="icon-emblem" viewBox="0 0 32 32">
            <path fill="#ffd500" style="fill: var(--color3, #ffd500)"
                d="M8.708 6.255c0.276 0.169 0.509 0.296 0.712 0.452 1.712 1.242 2.735 2.681 3.095 4.714 0.152 0.861 0.201 1.75 0.295 2.611 0.080 0.762 0.16 1.51 0.254 2.272 0.027 0.198-0.003 0.282-0.237 0.311-0.497 0.042-0.924 0.268-1.133 0.734-0.194 0.409-0.125 0.804 0.134 1.143 0.259 0.353 0.653 0.494 1.091 0.508 0.219 0 0.366-0.085 0.485-0.282 0.936-1.496 1.494-3.105 1.731-4.826 0.19-1.425 0.088-2.851 0.044-4.262-0.021-0.804-0.013-1.623-0.063-2.427-0.024-0.508-0.004-0.988 0.132-1.482s0.375-0.946 0.745-1.355c0.376 0.381 0.62 0.833 0.717 1.327 0.083 0.466 0.107 0.96 0.117 1.425 0.009 0.508-0.054 1.016-0.074 1.51-0.057 1.313-0.129 2.625-0.143 3.937-0.008 2.187 0.541 4.234 1.677 6.111 0.144 0.254 0.348 0.325 0.626 0.296 0.702-0.056 1.234-0.579 1.24-1.214 0.006-0.593-0.529-1.129-1.216-1.157-0.248-0.014-0.262-0.099-0.231-0.296 0.142-1.030 0.27-2.075 0.397-3.105 0.158-1.171 0.243-2.343 0.752-3.443 0.673-1.454 1.648-2.427 3.045-3.288 0.103-0.056 0.206-0.113 0.353-0.198-0.001 0.127-0.002 0.212-0.003 0.296-0.056 5.462-0.11 10.697-0.166 16.159-0.003 0.311-0.003 0.311-0.31 0.311-1.155 0-2.324 0-3.479 0-0.205 0-0.293 0.056-0.339 0.254-0.352 1.496-1.154 2.738-2.435 3.669-0.265 0.198-0.502 0.452-0.752 0.677-0.65-0.734-1.566-1.242-2.113-2.103-0.446-0.706-0.804-1.454-0.956-2.272-0.042-0.183-0.129-0.24-0.305-0.24-1.184 0-2.354 0-3.538 0-0.205 0-0.292-0.042-0.29-0.268 0.056-5.49 0.111-10.768 0.167-16.258 0.002-0.222-0.027-0.24-0.027-0.24zM9.968 8.767c-0.040 0-0.073 0.014-0.103 0.028-0.001 0.099-0.002 0.198-0.003 0.296-0.027 2.639-0.052 5.066-0.079 7.705-0.004 0.437-0.004 0.437 0.463 0.437 0.175 0 0.264-0.042 0.309-0.212 0.181-0.522 0.536-0.917 1.021-1.171 0.206-0.113 0.236-0.24 0.209-0.437-0.122-0.974-0.258-1.962-0.335-2.935-0.092-1.016-0.318-1.778-0.835-2.667-0.201-0.367-0.431-0.691-0.647-1.044zM22.014 8.809c-0.033-0.014-0.044-0.014-0.073-0.014-0.089 0.113-0.178 0.226-0.252 0.339-0.579 0.847-1.053 1.51-1.21 2.512-0.189 1.27-0.348 2.54-0.522 3.81-0.031 0.169 0.012 0.282 0.186 0.381 0.48 0.268 0.827 0.649 1.011 1.171 0.085 0.24 0.245 0.296 0.626 0.226 0.234-0.042 0.148-0.212 0.15-0.339 0.028-2.681 0.053-5.151 0.081-7.847 0.002-0.094 0.002-0.163 0.002-0.24zM12.702 20.155c-0.073-0.014-0.161-0.028-0.263-0.056-0.919-0.198-1.631-0.635-1.914-1.552-0.043-0.127-0.1-0.183-0.232-0.169-0.102 0-0.205 0-0.307 0-0.146 0-0.205 0.056-0.207 0.198-0.011 1.058-0.022 2.131-0.018 3.189-0.001 0.056 0.115 0.183 0.174 0.183 0.789 0.014 1.593 0.014 2.383 0 0.059 0 0.177-0.099 0.192-0.155 0.064-0.536 0.128-1.073 0.192-1.637zM18.959 20.155c0.053 0.564 0.12 1.101 0.173 1.651 0.013 0.155 0.13 0.155 0.247 0.155 0.746 0 1.477-0.014 2.222 0 0.234 0 0.308-0.085 0.295-0.296-0.005-0.946 0.019-1.891 0.029-2.851 0.004-0.437 0.004-0.437-0.449-0.437-0.132 0-0.249 0-0.294 0.155-0.272 0.833-0.905 1.284-1.726 1.524-0.176 0.042-0.351 0.056-0.498 0.099zM15.9 16.176c-0.42 1.087-0.841 2.145-1.479 3.133 0.45 0.296 0.871 0.579 1.307 0.847 0.058 0.042 0.205 0.014 0.278-0.028 0.382-0.226 0.736-0.48 1.118-0.706 0.118-0.071 0.148-0.141 0.076-0.268-0.532-0.861-0.988-2.018-1.3-2.978zM13.944 23.049c-0.066 0.734 0.723 2.202 1.203 2.385 0.015-0.014 0.030-0.028 0.030-0.028 0.008-0.734 0.030-1.468 0.023-2.187 0.001-0.056-0.101-0.141-0.159-0.155-0.365-0.028-0.731-0.014-1.096-0.014zM16.375 25.462c0.632-0.353 1.379-1.863 1.282-2.427-0.322 0-0.672 0-0.994 0-0.19 0-0.249 0.071-0.251 0.24-0.006 0.593-0.012 1.185-0.018 1.778-0.016 0.127-0.017 0.254-0.019 0.409zM14.467 21.934c0.19 0 0.395 0.014 0.585-0.014 0.058 0 0.177-0.113 0.162-0.155-0.081-0.621-0.485-1.157-1.098-1.298-0.131-0.028-0.205 0-0.235 0.127-0.062 0.381-0.11 0.762-0.173 1.157-0.016 0.141 0.071 0.198 0.203 0.198 0.176-0.014 0.366-0.014 0.556-0.014zM17.157 21.934c0.175 0 0.336 0 0.512 0 0.175 0.014 0.278-0.056 0.251-0.24-0.040-0.353-0.081-0.706-0.135-1.058-0.027-0.169-0.115-0.212-0.291-0.155-0.557 0.155-1.060 0.734-1.080 1.284-0.001 0.056 0.101 0.155 0.159 0.169 0.204 0.014 0.395 0 0.585 0z">
            </path>
        </symbol>
        <symbol id="icon-goose" viewBox="0 0 32 32">
            <path fill="#010101" style="fill: var(--color5, #010101)"
                d="M17.987 4.924v0zM17.983 4.969l0.124-0.018 0.005 0.031-0.011 0.030-0.118-0.043zM20.788 5.381v0zM23.276 6.748v0zM23.27 6.761l-0.042 0.119-0.139-0.049 0.069-0.129 0.111 0.059zM23.274 6.762l0.042-0.119 0.118 0.042-0.041 0.118-0.119-0.041zM22.327 9.473l0.119 0.041-0.027 0.076-0.080 0.007-0.012-0.125zM22.318 9.473l0.012 0.125-0 0-0.011-0.125zM22.286 9.476l-0.103 0.072-0.125-0.178 0.217-0.019 0.011 0.125zM22.495 11.777l-0.036 0.12-0.135-0.041 0.056-0.129 0.115 0.050zM23.049 13.044v0zM22.207 14.18l-0.123 0.027-0.034-0.154 0.157 0.001-0.001 0.126zM22.664 15.538v0zM22.746 18.944v0zM21.595 20.4v0zM20.041 24.731v0zM18.291 33.83l0.019 0.124-0.188 0.028 0.048-0.184 0.122 0.032zM18.3 33.829l-0.018-0.124 0.194-0.029-0.054 0.188-0.121-0.035zM18.206 34.156l-0.122-0.032 0.001-0.003 0.121 0.035zM16.831 39.047l-0.101 0.074-0.037-0.050 0.018-0.060 0.12 0.036zM17.029 56.876l0.118 0.042-0.021 0.058-0.059 0.019-0.039-0.119zM-8.817 49.951v0zM3.192 35.44l0.109-0.062 0.071 0.126-0.135 0.053-0.046-0.117zM3.671 30.924l0.124-0.018 0.013 0.088-0.079 0.041-0.058-0.111zM7.764 29.219l0.121 0.035-0.033 0.114-0.115-0.026 0.028-0.122zM10.315 22.181v0zM10.678 17.903v0zM10.512 14.825v0zM12.634 12.566v0zM13.869 11.723l0.066-0.107 0.135 0.082-0.111 0.113-0.090-0.088zM13.721 10.325v0zM14.704 9.492l0.123 0.025-0.020 0.1-0.102 0.001-0.002-0.126zM17.037 7.556l0.118 0.043-0.026 0.071-0.075 0.010-0.017-0.124zM7.566 29.91l0.019-0.124 0.141 0.021-0.039 0.137-0.121-0.034zM7.421 30.428l0.121 0.034-0.029 0.103-0.106-0.012 0.014-0.125zM4.219 30.691l0.041 0.119-0.236 0.081 0.076-0.238 0.12 0.038zM4.264 31.839l-0.121 0.033-0.024-0.087 0.075-0.050 0.070 0.105zM7.172 31.258l0.12 0.039-0.029 0.091-0.095-0.004 0.005-0.126zM7.208 31.145l-0.12-0.039 0.24 0.073-0.121-0.035zM6.997 31.88l0.121 0.035-0.054 0.187-0.148-0.126 0.081-0.096zM6.987 31.871l-0.122-0.031 0.050-0.194 0.153 0.13-0.081 0.096zM6.621 33.291l-0.087 0.091-0.053-0.051 0.018-0.071 0.122 0.031zM6.647 33.316l0.087-0.091 0.053 0.051-0.018 0.071-0.122-0.031zM6.277 34.779l0.122 0.030-0.023 0.093-0.096 0.002-0.003-0.126zM5.681 34.818l0.013 0.125-0.082 0.008-0.041-0.071 0.109-0.062zM5.362 34.277l-0.107 0.066-0.002-0.004-0.002-0.004 0.112-0.057zM5.193 33.951v0zM4.986 34.299v0zM5.282 34.869l0.112-0.056 0.077 0.154-0.171 0.026-0.019-0.124zM3.969 32.071l-0.086-0.092 0.141-0.132 0.064 0.182-0.119 0.042zM3.626 35.281l0.041 0.119-0.114 0.039-0.044-0.113 0.117-0.045zM18.106 4.965c0.001-0.003 0.002-0.007 0.002-0.009s0-0.005-0-0.005l-0.249 0.036c-0.005-0.033-0.003-0.069 0.009-0.104l0.237 0.082zM20.748 5.499c-0.726-0.25-1.397-0.425-1.895-0.506-0.25-0.041-0.45-0.057-0.59-0.049-0.070 0.004-0.117 0.013-0.145 0.024-0.029 0.011-0.018 0.016-0.012-0.003l-0.237-0.082c0.028-0.082 0.097-0.126 0.159-0.15 0.063-0.024 0.14-0.036 0.222-0.041 0.166-0.009 0.387 0.010 0.644 0.052 0.516 0.084 1.202 0.263 1.937 0.517l-0.082 0.237zM23.157 6.708c-0.006 0.019 0.005 0.022-0.011-0.005-0.015-0.026-0.047-0.062-0.099-0.109-0.105-0.092-0.273-0.203-0.494-0.325-0.442-0.243-1.079-0.519-1.804-0.77l0.082-0.237c0.735 0.253 1.385 0.535 1.843 0.787 0.228 0.125 0.414 0.246 0.539 0.356 0.062 0.054 0.115 0.111 0.15 0.169 0.034 0.057 0.061 0.134 0.033 0.216l-0.237-0.082zM23.159 6.702c-0.001 0.002-0.002 0.004-0.003 0.006l0.237 0.082c-0.004 0.011-0.008 0.021-0.014 0.031l-0.221-0.119zM23.232 6.881l-0.004-0.001 0.083-0.237 0.004 0.001-0.083 0.237zM22.209 9.431l0.946-2.71 0.237 0.083-0.946 2.71-0.237-0.083zM22.307 9.348l0.009-0.001 0.023 0.25-0.009 0.001-0.023-0.25zM22.275 9.351l0.033-0.003 0.022 0.25-0.033 0.003-0.022-0.25zM22.379 11.728c0.376-0.868 0.217-1.59-0.197-2.179l0.206-0.144c0.459 0.654 0.635 1.468 0.221 2.423l-0.231-0.1zM22.924 13.032c0.029-0.289-0.015-0.556-0.105-0.759-0.091-0.205-0.222-0.333-0.361-0.375l0.073-0.241c0.233 0.070 0.409 0.268 0.518 0.514 0.11 0.248 0.157 0.558 0.125 0.886l-0.25-0.025zM22.207 14.055c0.15 0.001 0.311-0.091 0.449-0.275 0.136-0.183 0.238-0.445 0.268-0.748l0.25 0.025c-0.034 0.341-0.149 0.649-0.317 0.873-0.166 0.223-0.394 0.378-0.652 0.377l0.001-0.251zM22.547 15.585c-0.174-0.437-0.356-0.892-0.463-1.377l0.245-0.054c0.102 0.462 0.276 0.899 0.451 1.339l-0.233 0.093zM22.638 18.88c0.729-1.227 0.343-2.208-0.091-3.295l0.233-0.093c0.431 1.082 0.871 2.173 0.074 3.517l-0.216-0.128zM21.504 20.314c0.373-0.396 0.765-0.811 1.134-1.433l0.216 0.128c-0.385 0.648-0.794 1.081-1.167 1.477l-0.183-0.172zM19.915 24.73c0.004-1.356 0.184-2.235 0.476-2.891s0.693-1.081 1.113-1.526l0.183 0.172c-0.421 0.446-0.793 0.842-1.066 1.455s-0.45 1.454-0.454 2.79l-0.251-0.001zM18.17 33.798c0.455-1.743 0.89-3.547 1.213-5.148 0.323-1.604 0.53-2.996 0.533-3.92l0.251 0.001c-0.003 0.951-0.215 2.364-0.538 3.969-0.323 1.608-0.76 3.416-1.216 5.162l-0.243-0.063zM18.319 33.953l-0.009 0.001-0.037-0.248 0.009-0.001 0.037 0.248zM18.085 34.121l0.095-0.327 0.241 0.070-0.095 0.327-0.241-0.070zM16.711 39.011c0.401-1.341 0.895-3.071 1.373-4.887l0.243 0.064c-0.479 1.818-0.974 3.551-1.375 4.895l-0.241-0.072zM16.91 56.833c0.829-2.332 1.634-5.612 1.804-8.887 0.171-3.279-0.295-6.53-1.985-8.825l0.202-0.149c1.74 2.365 2.205 5.687 2.033 8.987-0.172 3.304-0.983 6.608-1.819 8.958l-0.237-0.084zM-8.701 49.999c-1.477 3.544-1.28 5.928-0.044 7.476 1.244 1.557 3.574 2.314 6.474 2.516 5.793 0.402 13.719-1.422 19.26-3.234l0.078 0.239c-5.549 1.815-13.513 3.652-19.355 3.246-2.917-0.203-5.34-0.967-6.653-2.61-1.32-1.653-1.484-4.15 0.008-7.729l0.232 0.096zM3.238 35.557c-3.584 1.398-8.139 5.325-11.939 14.442l-0.232-0.096c3.816-9.156 8.412-13.149 12.079-14.58l0.091 0.234zM3.729 31.035c-0.612 0.32-1.052 0.796-1.18 1.482-0.129 0.693 0.056 1.624 0.753 2.861l-0.219 0.123c-0.711-1.261-0.925-2.255-0.781-3.030 0.145-0.781 0.649-1.314 1.311-1.659l0.116 0.223zM7.737 29.342c-1.085-0.246-2.171-0.421-2.937-0.246-0.378 0.086-0.664 0.255-0.839 0.531-0.176 0.278-0.253 0.686-0.166 1.279l-0.249 0.036c-0.092-0.627-0.017-1.103 0.203-1.45 0.221-0.349 0.575-0.546 0.995-0.642 0.83-0.19 1.97 0.002 3.048 0.246l-0.055 0.245zM10.424 22.243c-0.771 1.344-1.696 4.104-2.539 7.011l-0.241-0.070c0.841-2.902 1.774-5.691 2.562-7.066l0.218 0.125zM10.798 17.866c0.181 0.592 0.369 1.203 0.369 1.908 0 0.709-0.189 1.503-0.743 2.469l-0.218-0.125c0.536-0.934 0.71-1.686 0.71-2.344-0-0.662-0.176-1.239-0.358-1.835l0.24-0.073zM10.632 14.863c-0.382 1.202-0.114 2.085 0.166 3.002l-0.24 0.073c-0.281-0.92-0.573-1.87-0.165-3.152l0.239 0.076zM12.695 12.676c-0.832 0.456-1.656 0.91-2.063 2.187l-0.239-0.076c0.439-1.378 1.345-1.873 2.181-2.331l0.121 0.22zM13.959 11.811c-0.37 0.376-0.822 0.623-1.264 0.865l-0.121-0.22c0.448-0.245 0.866-0.476 1.206-0.821l0.179 0.176zM13.835 10.377c-0.124 0.273-0.167 0.548-0.143 0.773 0.025 0.227 0.115 0.388 0.242 0.466l-0.131 0.214c-0.216-0.132-0.331-0.379-0.36-0.653-0.030-0.276 0.024-0.595 0.164-0.904l0.229 0.104zM14.706 9.617c-0.139 0.002-0.301 0.068-0.46 0.201-0.158 0.132-0.304 0.323-0.411 0.559l-0.229-0.104c0.121-0.266 0.289-0.489 0.478-0.647 0.188-0.157 0.404-0.257 0.618-0.26l0.003 0.251zM17.054 7.681c-0.527 0.073-1.025 0.235-1.419 0.525-0.392 0.289-0.687 0.708-0.807 1.31l-0.246-0.049c0.132-0.664 0.463-1.138 0.905-1.463 0.439-0.323 0.981-0.496 1.534-0.572l0.034 0.249zM18.101 5.012l-0.947 2.587-0.236-0.086 0.947-2.588 0.236 0.086zM7.687 29.945c-0.049 0.172-0.097 0.345-0.145 0.517l-0.242-0.067c0.048-0.173 0.097-0.346 0.146-0.518l0.242 0.069zM7.407 30.553c-0.986-0.111-2.183-0.073-3.147 0.257l-0.081-0.238c1.011-0.345 2.249-0.382 3.256-0.269l-0.028 0.25zM4.099 30.653c0.131-0.408 0.453-0.713 1.016-0.869 0.557-0.154 1.356-0.167 2.47 0.002l-0.038 0.248c-1.1-0.167-1.859-0.149-2.365-0.009-0.499 0.138-0.744 0.392-0.844 0.703l-0.239-0.077zM4.194 31.735c0.636-0.423 1.598-0.656 2.983-0.602l-0.010 0.251c-1.357-0.053-2.26 0.178-2.834 0.56l-0.139-0.209zM7.052 31.22l0.036-0.113 0.239 0.077-0.036 0.113-0.239-0.077zM7.329 31.18l-0.212 0.735-0.241-0.070 0.212-0.735 0.241 0.070zM6.915 31.975l-0.010-0.008 0.163-0.192 0.010 0.008-0.163 0.192zM7.108 31.903l-0.366 1.42-0.243-0.063 0.366-1.42 0.243 0.063zM6.708 33.2l0.026 0.025-0.174 0.182-0.026-0.025 0.174-0.181zM6.769 33.347c-0.131 0.506-0.254 0.996-0.37 1.462l-0.244-0.060c0.116-0.466 0.239-0.957 0.37-1.464l0.243 0.063zM6.28 34.904c-0.189 0.005-0.385 0.017-0.587 0.038l-0.026-0.25c0.208-0.022 0.41-0.035 0.606-0.040l0.006 0.251zM5.572 34.88c-0.099-0.174-0.205-0.353-0.317-0.537l0.214-0.131c0.114 0.187 0.221 0.368 0.321 0.544l-0.218 0.124zM5.25 34.334c-0.054-0.105-0.11-0.213-0.168-0.325l0.223-0.116c0.058 0.111 0.115 0.221 0.169 0.326l-0.223 0.115zM5.081 34.009c-0.345-0.662-0.748-1.435-0.939-2.137l0.242-0.066c0.182 0.671 0.571 1.418 0.919 2.087l-0.223 0.116zM5.097 34.239c0.106 0.198 0.205 0.389 0.298 0.573l-0.225 0.112c-0.091-0.182-0.189-0.371-0.294-0.567l0.221-0.119zM4.088 32.030c0.216 0.615 0.545 1.346 1.009 2.209l-0.221 0.119c-0.468-0.871-0.803-1.614-1.025-2.245l0.237-0.083zM3.509 35.326c-0.438-1.134-0.549-2.481 0.375-3.346l0.172 0.183c-0.806 0.755-0.741 1.963-0.312 3.073l-0.234 0.090zM5.301 34.993c-0.512 0.078-1.059 0.21-1.634 0.407l-0.081-0.238c0.589-0.202 1.151-0.337 1.678-0.417l0.038 0.248z">
            </path>
            <path fill="#010101" style="fill: var(--color5, #010101)"
                d="M21.508 12.893c-0.066 0.668 0.225 1.244 0.651 1.286s0.823-0.466 0.889-1.134c0.066-0.668-0.225-1.244-0.651-1.286s-0.823 0.466-0.889 1.134z">
            </path>
            <path fill="#010101" style="fill: var(--color5, #010101)"
                d="M15.127 10.964c-0.277 0.612-0.817 0.964-1.206 0.788s-0.48-0.815-0.203-1.427c0.277-0.612 0.817-0.964 1.206-0.788s0.48 0.815 0.203 1.427z">
            </path>
            <path fill="#fff" style="fill: var(--color2, #fff)"
                d="M19.407 7.657c1.472 0.413 4.143 1.831 3.053 4.193-0.681 1.475-0.23 2.606 0.201 3.689 0.432 1.084 0.845 2.121 0.082 3.406-0.377 0.635-0.777 1.059-1.151 1.455-0.841 0.891-1.547 1.64-1.555 4.331-0.009 3.11-2.295 11.342-3.437 15.069l-5.418-1.452 8.224-30.692zM19.392 7.71c-1.482-0.378-4.504-0.486-4.74 2.105-0.158 1.728-1.070 2.228-2.024 2.751-0.834 0.457-1.7 0.932-2.122 2.259-0.395 1.242-0.115 2.158 0.166 3.077 0.363 1.187 0.727 2.378-0.363 4.278-1.547 2.698-3.683 10.97-4.558 14.769l5.418 1.452 8.224-30.692z">
            </path>
            <path fill="#000" style="fill: var(--color6, #000)"
                d="M22.199 19.48c-0.942 1.108-2.344 1.464-3.13 0.795s-0.66-2.109 0.282-3.217c0.942-1.108 2.344-1.464 3.13-0.795s0.66 2.109-0.282 3.217z">
            </path>
            <path fill="#000" style="fill: var(--color6, #000)"
                d="M14.154 15.839c0.443 1.385 0.006 2.763-0.978 3.078s-2.14-0.553-2.584-1.938c-0.443-1.385-0.006-2.763 0.978-3.078s2.14 0.553 2.584 1.938z">
            </path>
            <path fill="#ffd500" style="fill: var(--color3, #ffd500)"
                d="M6.985 31.872c4.093 3.478 8.77 3.52 10.958 3.219l-0.311 0.997c-5.041 1.013-9.449-1.289-11.013-2.796l0.366-1.42z">
            </path>
            <path fill="#fff" style="fill: var(--color2, #fff)" opacity="0.2"
                d="M14.228 10.322c0.047 0.297 0.239 0.514 0.428 0.484s0.304-0.296 0.257-0.593c-0.047-0.297-0.239-0.514-0.428-0.484s-0.304 0.296-0.257 0.593z">
            </path>
            <path fill="#fff" style="fill: var(--color2, #fff)" opacity="0.2"
                d="M22.101 12.559c0.047 0.297 0.239 0.514 0.428 0.484s0.304-0.296 0.257-0.593c-0.047-0.297-0.239-0.514-0.428-0.484s-0.304 0.296-0.257 0.593z">
            </path>
            <path fill="#ff6b0a" style="fill: var(--color7, #ff6b0a)"
                d="M20.785 14.577c1.166-3.669-2.231-5.244-2.229-5.194-3.841 0-4.376 3.289-4.376 3.796 0 1.398-2.482 1.969-2.197 3.502s-0.482 4.362-0.478 6.48c0.003 1.298 0.379 1.872 0.698 2.078-0.094-0.024-0.056-0.009 0.036 0.022 0.084 0.048 0.163 0.070 0.228 0.074-0.085-0.027-0.168-0.054-0.228-0.074-0.012-0.007-0.024-0.014-0.036-0.022 0.123 0.032 0.473 0.132 1.225 0.353 2.121 0.625 3.005-2.141 5.705-4.85s0.194-1.578 1.652-6.165z">
            </path>
            <path fill="#010101" style="fill: var(--color5, #010101)"
                d="M13.795 24.231c1.748 0.308 3.316-3.335 3.881-5.196-0.988-0.513-3.177-1.446-4.030-1.080-1.067 0.458-2.036 5.89 0.149 6.276z">
            </path>
            <path fill="#956c7c" style="fill: var(--color8, #956c7c)"
                d="M13.575 23.657c-1.156-0.47-0.077-2.986 0.607-4.185l2.322 0.622c-0.495 1.383-1.773 4.033-2.928 3.563z">
            </path>
            <path fill="#86616f" style="fill: var(--color9, #86616f)"
                d="M13.958 22.756c-0.2-0.243 0.855-2.736 1.407-3.952l0.495 0.191c-0.551 1.355-1.703 4.004-1.903 3.761z">
            </path>
            <path fill="#eb6005" style="fill: var(--color10, #eb6005)"
                d="M18.754 17.78c-0.495-2.764 0.542-3.945 1.123-4.19-1.158-2.85-3.596-2.022-4.671-1.251 0.718 2.767 0.218 0.573-1.656 4.047-1.5 2.779 0.189 4.313 1.221 4.732 1.534 0.039 4.479-0.573 3.984-3.338z">
            </path>
            <path fill="#efe5d5" style="fill: var(--color11, #efe5d5)"
                d="M13.073 17.585c3.728-2.983 5.018 0.276 5.196 2.279-0.449 0.681-1.792 1.883-3.566 1.247s-1.826-2.616-1.63-3.526z">
            </path>
            <path fill="#dacab0" style="fill: var(--color12, #dacab0)"
                d="M16.248 17.934c0.115-0.308 0.379-0.865 0.516-0.624s-0.287 0.516-0.516 0.624z"></path>
            <path fill="#dacab0" style="fill: var(--color12, #dacab0)"
                d="M15.647 17.774c0.105-0.312 0.25-0.91-0.008-0.81s-0.102 0.582 0.008 0.81z"></path>
            <path fill="#3d3a00" style="fill: var(--color13, #3d3a00)"
                d="M18.003 4.914l-0.968 2.646c1.101 1.824 3.986 2.036 5.291 1.914l0.946-2.71-5.27-1.85z"></path>
            <path fill="#3d3a00" style="fill: var(--color13, #3d3a00)"
                d="M17.034 7.559c-0.050 1.556 1.007 3.992 5.291 1.893l-5.291-1.893z"></path>
            <path fill="#3d3a00" style="fill: var(--color13, #3d3a00)"
                d="M17.986 4.925c-0.087 0.252 1.027 0.864 2.487 1.368s2.715 0.708 2.801 0.456c0.087-0.252-1.027-0.864-2.487-1.368s-2.715-0.708-2.801-0.456z">
            </path>
        </symbol>
        <symbol id="icon-rocket" viewBox="0 0 32 32">
            <path fill="#000" style="fill: var(--color6, #000)"
                d="M10.562 16.761c-2.688 2.202-0.765 3.848 0.643 6.429-0.129-1.072-0.219-2.084 0.862-2.907l-1.505-3.522z">
            </path>
            <path fill="#000" style="fill: var(--color6, #000)"
                d="M18.743 13.736c2.81 0.268 3.254 0.49 4.045 5.142-0.875-0.81-1.177-1.666-2.63-1.346-0.376-1.3-0.849-2.569-1.415-3.796z">
            </path>
            <path fill="#000" style="fill: var(--color6, #000)"
                d="M19.67 21.341c0 0 1.061 1.379 0 2.221-0.707 0.582-3.994 2.313-4.469-0.412l4.469-1.81z"></path>
            <path fill="#ff6b08" style="fill: var(--color15, #ff6b08)"
                d="M20.368 20.008c1.331 0.771-2.913 2.894-5.273 3.188-0.379 0.046-2 0.248-1.35-0.699l1.994-0.405 2.971-1.117 0.103-0.052 1.556-0.915z">
            </path>
            <path fill="#abb4b5" style="fill: var(--color16, #abb4b5)"
                d="M19.887 17.708l0.457 2.306c-0.834 0.896-1.859 1.587-2.995 2.021s-2.356 0.598-3.564 0.481l-1.428-2.241c0 0 3.441 0.399 7.53-2.568z">
            </path>
            <path fill="#ff6b08" style="fill: var(--color15, #ff6b08)"
                d="M20.145 17.61c0 0-2.9-10.774-9.646-12.277 0 0-3.582 4.515 1.659 14.969 0.006 0 3.035 1.287 7.987-2.692z">
            </path>
            <path fill="#f1e324" style="fill: var(--color17, #f1e324)"
                d="M15.103 11.593c-2.289-1.803-5.363 2.783-1.286 3.607 1.145 0.235 3.576-1.124 1.286-3.607z"></path>
            <path fill="#fff" style="fill: var(--color2, #fff)"
                d="M13.488 11.73c0.172-0.067 0.356-0.096 0.54-0.085 0.209 0.010 0.414 0.071 0.596 0.176s0.337 0.253 0.452 0.431c0.186 0.305 0.309 0.645 0.36 1 0.014 0.063 0.004 0.129-0.028 0.185s-0.084 0.097-0.145 0.115c-0.061 0.016-0.127 0.008-0.182-0.024s-0.096-0.084-0.114-0.146c-0.026-0.164-0.064-0.326-0.116-0.483-0.010-0.034-0.023-0.067-0.039-0.098v-0.039c0 0 0 0.052 0 0 0 0-0.051-0.111-0.084-0.163l-0.045-0.072c0 0-0.051-0.072 0-0.039s0 0 0-0.039l-0.064-0.065c-0.027-0.032-0.057-0.060-0.090-0.085 0.064 0 0 0 0 0l-0.064-0.039h-0.045c0 0-0.032 0 0 0-0.041-0.006-0.080-0.019-0.116-0.039h-0.096c0.064 0 0 0 0 0h-0.051c-0.062-0.003-0.124-0.003-0.187 0h-0.045c0.077 0 0 0 0 0h-0.071l-0.161 0.046c-0.030 0.009-0.062 0.012-0.094 0.008s-0.062-0.014-0.089-0.030-0.052-0.037-0.071-0.062c-0.019-0.025-0.034-0.055-0.042-0.086-0.016-0.062-0.007-0.129 0.024-0.185s0.083-0.098 0.143-0.116l-0.077-0.065z">
            </path>
        </symbol>
        <symbol id="icon-arrow-down" viewBox="0 0 32 32">
            <path fill="#757575" style="fill: var(--color1, #757575)"
                d="M25.997 10.652l-9.996 9.744-9.996-9.744c-0.179-0.174-0.418-0.272-0.668-0.272s-0.489 0.098-0.668 0.272c-0.086 0.085-0.155 0.186-0.202 0.297s-0.071 0.231-0.071 0.353c0 0.121 0.024 0.241 0.071 0.353s0.116 0.213 0.202 0.297l10.634 10.368c0.187 0.182 0.437 0.284 0.698 0.284s0.511-0.102 0.698-0.284l10.634-10.366c0.087-0.085 0.156-0.186 0.204-0.298s0.072-0.232 0.072-0.354c0-0.122-0.024-0.242-0.072-0.354s-0.117-0.213-0.204-0.298c-0.179-0.174-0.418-0.272-0.668-0.272s-0.489 0.098-0.668 0.272v0.002z">
            </path>
        </symbol>
        <symbol id="icon-avatar_1" viewBox="0 0 32 32">
            <path fill="#fff" style="fill: var(--color1, #fff); stroke: var(--color2, #010101)" stroke="#010101"
                stroke-linejoin="miter" stroke-linecap="butt" stroke-miterlimit="4" stroke-width="0.3902"
                d="M31.415 15.61c0 8.513-6.901 15.415-15.415 15.415s-15.415-6.901-15.415-15.415c0-8.513 6.901-15.415 15.415-15.415s15.415 6.901 15.415 15.415z">
            </path>
            <path fill="#f3ea07" style="fill: var(--color3, #f3ea07); stroke: var(--color2, #010101)" stroke="#010101"
                stroke-linejoin="miter" stroke-linecap="butt" stroke-miterlimit="4" stroke-width="0.3902"
                d="M26.9 26.657c-2.813 2.74-6.594 4.441-10.765 4.441-3.997 0-7.6-1.368-10.362-3.839 2.705-1.14 6.337-1.14 11.212-1.14 4.201 0 7.328-0.147 9.915 0.538z">
            </path>
            <path fill="#d6b8a7" style="fill: var(--color4, #d6b8a7); stroke: var(--color2, #010101)" stroke="#010101"
                stroke-linejoin="miter" stroke-linecap="butt" stroke-miterlimit="4" stroke-width="0.3902"
                d="M11.52 19.023c0 0.92-1.878 2.522-2.987 2.82 0 1.534 1.9 1.086 1.629 1.47-0.217 0.307-0.498 1.129-1.154 1.214 0.054 0.409 1.697 0.469 2.511 0.447 0.109 0.46-0.724 0.746-1.154 0.831 3.801 1.074 5.227-2.117 5.634-3.459-1.493-1.491-4.479-4.244-4.479-3.323z">
            </path>
            <path fill="#ffe2d3" style="fill: var(--color5, #ffe2d3)"
                d="M16.032 5.222l0.35-0.018c3.788 0.019 5.888 3.17 5.763 6.868l-0.018 1.338c0.727 0.103 1.721 0.522 1.381 2.070-0.232 1.057-0.838 1.429-1.43 1.512l-0.119 8.72c-1.245 0.773-2.677 1.21-4.151 1.267s-2.937-0.269-4.241-0.944l-0.098-0.051c-0.010-1.041 0.016-1.988 0.016-1.988s-3.661-0.362-3.898-3.902c-0.115-1.709-0.057-5.248 0.033-8.449 0.046-1.661 0.731-3.245 1.919-4.435s2.793-1.9 4.493-1.988z">
            </path>
            <path fill="#010101" style="fill: var(--color2, #010101)"
                d="M16.382 5.204l0.001-0.195-0.011 0.001 0.010 0.195zM16.032 5.222l-0.010-0.195h-0l0.010 0.195zM22.145 12.072l-0.195-0.007-0 0.004 0.195 0.003zM22.127 13.41l-0.195-0.003-0.002 0.172 0.17 0.024 0.027-0.193zM23.508 15.48v0zM22.078 16.992l-0.027-0.193-0.166 0.023-0.002 0.167 0.195 0.003zM21.959 25.713l0.103 0.166 0.091-0.056 0.001-0.107-0.195-0.003zM13.567 26.036l-0.090 0.173 0 0 0.090-0.173zM13.469 25.985l-0.195 0.002 0.001 0.117 0.104 0.054 0.090-0.173zM13.485 23.997l0.195 0.005 0.005-0.182-0.181-0.018-0.019 0.194zM9.587 20.095v0zM9.62 11.645v0zM11.539 7.21v0zM16.372 5.009l-0.35 0.018 0.020 0.39 0.35-0.018-0.020-0.39zM22.34 12.079c0.064-1.886-0.439-3.646-1.456-4.941-1.020-1.299-2.548-2.119-4.501-2.129l-0.002 0.39c1.835 0.009 3.25 0.774 4.197 1.98 0.949 1.21 1.434 2.874 1.373 4.687l0.39 0.013zM22.322 13.413l0.018-1.338-0.39-0.005-0.018 1.337 0.39 0.005zM22.1 13.603c0.346 0.049 0.724 0.17 0.976 0.435 0.241 0.253 0.401 0.673 0.241 1.401l0.381 0.084c0.18-0.82 0.013-1.384-0.34-1.754-0.341-0.358-0.823-0.498-1.204-0.552l-0.055 0.386zM23.317 15.439c-0.109 0.498-0.302 0.817-0.522 1.020s-0.48 0.303-0.745 0.341l0.054 0.386c0.327-0.046 0.666-0.173 0.955-0.441s0.515-0.663 0.638-1.223l-0.381-0.084zM22.154 25.715l0.119-8.72-0.39-0.005-0.119 8.72 0.39 0.005zM17.815 27.175c1.508-0.058 2.973-0.505 4.247-1.296l-0.206-0.332c-1.216 0.755-2.615 1.182-4.056 1.238l0.015 0.39zM13.477 26.209c1.333 0.691 2.83 1.024 4.338 0.966l-0.015-0.39c-1.441 0.055-2.87-0.263-4.143-0.922l-0.179 0.347zM13.379 26.158l0.098 0.051 0.18-0.346-0.098-0.051-0.18 0.346zM13.485 23.997c-0.195-0.005-0.195-0.005-0.195-0.005s0 0 0 0 0 0 0 0-0 0-0 0.001 0 0.001 0 0.002-0 0.005-0 0.008-0 0.018-0.001 0.032c-0.001 0.028-0.002 0.069-0.003 0.122-0.002 0.105-0.005 0.257-0.008 0.441-0.005 0.368-0.009 0.867-0.004 1.389l0.39-0.004c-0.005-0.519-0.001-1.014 0.004-1.38 0.003-0.183 0.006-0.333 0.008-0.438 0.001-0.052 0.002-0.093 0.003-0.121 0-0.014 0.001-0.024 0.001-0.032 0-0.003 0-0.006 0-0.008s0-0.002 0-0.002 0-0 0-0 0-0 0-0 0 0 0 0 0 0-0.195-0.005zM9.392 20.108c0.124 1.851 1.149 2.878 2.137 3.435 0.491 0.277 0.973 0.438 1.332 0.531 0.18 0.046 0.329 0.075 0.434 0.093 0.053 0.009 0.094 0.015 0.123 0.019 0.014 0.002 0.026 0.003 0.034 0.004 0.004 0 0.007 0.001 0.009 0.001 0.001 0 0.002 0 0.003 0s0.001 0 0.001 0 0 0 0 0 0 0 0.019-0.194 0.019-0.194 0.019-0.194 0 0 0 0 0 0-0-0-0.001 0-0.001-0-0.003-0-0.006-0.001-0.015-0.002-0.027-0.003c-0.025-0.003-0.062-0.009-0.11-0.017-0.096-0.016-0.234-0.043-0.402-0.086-0.335-0.086-0.784-0.237-1.237-0.493-0.902-0.509-1.826-1.433-1.939-3.122l-0.389 0.026zM9.425 11.64c-0.090 3.199-0.148 6.747-0.032 8.468l0.389-0.026c-0.114-1.698-0.057-5.226 0.033-8.431l-0.39-0.011zM11.401 7.072c-1.223 1.225-1.929 2.856-1.976 4.567l0.39 0.011c0.044-1.611 0.709-3.147 1.862-4.302l-0.276-0.276zM16.022 5.027c-1.748 0.091-3.398 0.82-4.621 2.045l0.276 0.276c1.154-1.156 2.712-1.846 4.365-1.931l-0.020-0.39z">
            </path>
            <path fill="#010101" style="fill: var(--color2, #010101)"
                d="M16.25 13.254c-0.006 0.131-0.064 0.254-0.161 0.344s-0.226 0.139-0.36 0.136c-0.065 0.002-0.13-0.010-0.191-0.033s-0.116-0.058-0.163-0.103-0.084-0.098-0.11-0.157c-0.026-0.059-0.039-0.122-0.039-0.186 0.006-0.131 0.063-0.254 0.161-0.344s0.227-0.139 0.36-0.137c0.065-0.002 0.13 0.010 0.191 0.033s0.117 0.058 0.163 0.103c0.047 0.045 0.084 0.098 0.11 0.157s0.039 0.123 0.039 0.187z">
            </path>
            <path fill="#010101" style="fill: var(--color2, #010101)"
                d="M11.345 13.254c-0.006 0.131-0.064 0.254-0.161 0.344s-0.226 0.139-0.36 0.136c-0.065 0.002-0.13-0.009-0.191-0.033s-0.116-0.058-0.163-0.103-0.084-0.098-0.11-0.157c-0.026-0.059-0.039-0.122-0.039-0.187 0.006-0.131 0.064-0.254 0.161-0.344s0.226-0.139 0.36-0.137c0.065-0.002 0.131 0.009 0.192 0.033s0.117 0.058 0.164 0.103c0.047 0.045 0.084 0.098 0.11 0.157s0.039 0.123 0.039 0.187z">
            </path>
            <path fill="#010101" style="fill: var(--color2, #010101)"
                d="M14.448 11.396c0.060 0.145 0.77-0.179 1.426-0.129 0.656 0.039 1.031 0.436 1.113 0.3 0.037-0.065-0.060-0.201-0.278-0.336-0.29-0.164-0.615-0.261-0.95-0.284s-0.672 0.030-0.984 0.153c-0.236 0.104-0.353 0.226-0.327 0.296z">
            </path>
            <path fill="#010101" style="fill: var(--color2, #010101)"
                d="M9.576 11.99c0.096 0.125 0.496-0.227 0.957-0.226 0.459-0.015 0.837 0.328 0.929 0.2 0.040-0.062-0.019-0.187-0.188-0.307-0.227-0.144-0.493-0.219-0.763-0.215s-0.534 0.086-0.757 0.236c-0.165 0.125-0.221 0.252-0.179 0.313z">
            </path>
            <path fill="#000" style="fill: var(--color6, #000)" opacity="0.2"
                d="M20.654 19.993c0 1.542-1.25 2.791-2.791 2.791s-2.791-1.25-2.791-2.791c0-1.542 1.25-2.791 2.791-2.791s2.791 1.25 2.791 2.791z">
            </path>
            <path fill="#f89797" style="fill: var(--color7, #f89797); stroke: var(--color2, #010101)" stroke="#010101"
                stroke-linejoin="miter" stroke-linecap="butt" stroke-miterlimit="4" stroke-width="0.3902"
                d="M13.282 19.394c0.394-0.154 0.999 0.064 1.253 0.192-1.074 1.010-2.275 0.421-2.618 0 0.43-0.329 1.172-0.265 1.365-0.192z">
            </path>
            <path fill="none" stroke="#010101" style="stroke: var(--color2, #010101)" stroke-linejoin="miter"
                stroke-linecap="butt" stroke-miterlimit="4" stroke-width="0.3902"
                d="M13.211 14.264c-0.45 1.749-1.346 2.454-0.817 2.751 0.769 0.431 0.929 0.1 0.913-0.12"></path>
            <path fill="#d6b8a7" style="fill: var(--color4, #d6b8a7); stroke: var(--color2, #010101)" stroke="#010101"
                stroke-linejoin="miter" stroke-linecap="butt" stroke-miterlimit="4" stroke-width="0.3902"
                d="M24.072 13.868c0.106-7.586-4.513-8.908-6.836-8.621-3.053-0.522-4.646 0.597-5.641 1.393-0.796 0.637-0.332 1.238 0 1.459-0.199-0.928 3.584-1.857 2.522-1.459-0.849 0.318-0.354 1.105 0 1.459 1.040-0.951 3.531-1.287 5.177 4.974s-2.257 12.322-3.939 13.472c1.434 0.318 2.588-0.133 2.986-0.398 0.478 0.955-0.951 1.945-1.726 2.321 2.283 0.53 3.783-1.061 4.247-1.923 0.637 0.424 0.265 1.459 0 1.923 2.456-1.127 3.076-5.116 3.209-14.599z">
            </path>
        </symbol>
        <symbol id="icon-avatar_2" viewBox="0 0 32 32">
            <path fill="#fff" style="fill: var(--color1, #fff); stroke: var(--color2, #010101)" stroke="#010101"
                stroke-linejoin="miter" stroke-linecap="butt" stroke-miterlimit="4" stroke-width="0.381"
                d="M31.238 16c0 8.416-6.822 15.238-15.238 15.238s-15.238-6.822-15.238-15.238c0-8.416 6.822-15.238 15.238-15.238s15.238 6.822 15.238 15.238z">
            </path>
            <path fill="#57b2ab" style="fill: var(--color8, #57b2ab)"
                d="M26.64 26.772c-2.746 2.675-6.437 4.335-10.509 4.335-3.902 0-7.419-1.335-10.115-3.747 2.641-1.113 6.186-1.113 10.945-1.113 4.101 0 7.153-0.143 9.679 0.526z">
            </path>
            <path fill="#714e2f" style="fill: var(--color9, #714e2f)"
                d="M9.808 9.594c-1.095 0.725 0.456 1.539 1.369 1.856 0.128 0.23 0.552 0.829 1.219 1.381 0.834 0.691 2.374 0 3.379-0.691s2.138 0.54 3.657 1.77c1.518 1.23-0.085 2.395 0.834 3.863s0.855-0.086 0.855-1.467c0-1.381 0.064-0.928 1.069-1.769s1.133-1.23 1.518-2.395c0.385-1.165 0.235-1.618-1.518-2.546s-2.994-1.295-3.742-2.46c-0.748-1.165-3.742-0.302-4.982 0s0.706 1.165-0.535 1.165c-1.24 0-1.753 0.388-3.122 1.295z">
            </path>
            <path fill="#ffdece" style="fill: var(--color10, #ffdece)"
                d="M16.065 5.846l0.342-0.018c3.702 0.019 5.754 3.098 5.633 6.712l-0.018 1.307c0.71 0.1 1.681 0.51 1.35 2.023-0.227 1.033-0.819 1.396-1.398 1.478l-0.116 8.523c-1.216 0.755-2.616 1.183-4.057 1.238s-2.871-0.263-4.144-0.922l-0.096-0.050c-0.010-1.018 0.016-1.943 0.016-1.943s-3.578-0.354-3.81-3.814c-0.112-1.671-0.056-5.129 0.032-8.258 0.045-1.623 0.714-3.171 1.876-4.334s2.729-1.857 4.391-1.943z">
            </path>
            <path fill="#010101" style="fill: var(--color2, #010101)"
                d="M16.407 5.828l0-0.076-0.004 0 0.004 0.076zM16.065 5.846l-0.004-0.076h-0l0.004 0.076zM22.040 12.541l-0.076-0.003-0 0.002 0.076 0.001zM22.022 13.848l-0.076-0.001-0.001 0.067 0.066 0.009 0.011-0.075zM23.372 15.871v0zM21.974 17.349l-0.011-0.075-0.065 0.009-0.001 0.065 0.076 0.001zM21.858 25.871l0.040 0.065 0.035-0.022 0.001-0.042-0.076-0.001zM17.801 27.11v0zM13.656 26.187v0zM13.561 26.138l-0.076 0.001 0 0.046 0.041 0.021 0.035-0.068zM13.576 24.194l0.076 0.002 0.002-0.071-0.071-0.007-0.007 0.076zM9.766 20.381v0zM9.798 12.123v0zM11.674 7.789v0zM16.404 5.752l-0.342 0.018 0.008 0.152 0.342-0.018-0.008-0.152zM22.116 12.543c0.061-1.822-0.425-3.514-1.399-4.754-0.975-1.242-2.435-2.027-4.31-2.037l-0.001 0.152c1.828 0.009 3.245 0.773 4.191 1.979 0.948 1.207 1.427 2.862 1.366 4.655l0.152 0.005zM22.098 13.849l0.018-1.307-0.152-0.002-0.018 1.307 0.152 0.002zM22.012 13.923c0.348 0.049 0.748 0.173 1.021 0.459 0.268 0.281 0.427 0.734 0.265 1.473l0.149 0.033c0.17-0.774 0.009-1.283-0.303-1.61-0.308-0.322-0.748-0.454-1.11-0.505l-0.021 0.151zM23.297 15.855c-0.111 0.505-0.309 0.839-0.544 1.056s-0.512 0.323-0.79 0.362l0.021 0.151c0.302-0.043 0.61-0.159 0.872-0.402s0.473-0.607 0.589-1.135l-0.149-0.033zM21.934 25.873l0.116-8.523-0.152-0.002-0.117 8.523 0.152 0.002zM17.803 27.186c1.454-0.056 2.867-0.487 4.094-1.249l-0.080-0.129c-1.205 0.748-2.592 1.172-4.020 1.227l0.006 0.152zM13.621 26.255c1.285 0.666 2.729 0.987 4.182 0.931l-0.006-0.152c-1.428 0.055-2.845-0.261-4.106-0.914l-0.070 0.135zM13.525 26.205l0.096 0.050 0.070-0.135-0.096-0.050-0.070 0.135zM13.576 24.194c-0.076-0.002-0.076-0.002-0.076-0.002s0 0 0 0 0 0 0 0 0 0 0 0.001-0 0.001-0 0.002-0 0.005-0 0.008-0 0.018-0.001 0.031c-0.001 0.027-0.002 0.068-0.003 0.119-0.002 0.103-0.005 0.251-0.008 0.43-0.005 0.359-0.009 0.845-0.004 1.355l0.152-0.001c-0.005-0.508-0.001-0.993 0.004-1.351 0.002-0.179 0.005-0.326 0.008-0.429 0.001-0.051 0.002-0.091 0.003-0.119 0-0.014 0.001-0.024 0.001-0.031 0-0.003 0-0.006 0-0.008s0-0.002 0-0.002 0-0 0-0.001 0-0 0-0 0-0 0-0 0 0-0.076-0.002zM9.69 20.386c0.118 1.761 1.090 2.735 2.030 3.265 0.469 0.265 0.93 0.419 1.274 0.508 0.172 0.044 0.315 0.072 0.415 0.089 0.050 0.008 0.090 0.014 0.117 0.018 0.014 0.002 0.024 0.003 0.031 0.004 0.004 0 0.006 0.001 0.008 0.001 0.001 0 0.002 0 0.002 0s0 0 0.001 0 0 0 0 0 0 0 0.008-0.076 0.007-0.076 0.008-0.076-0 0-0 0-0-0-0-0-0.001-0-0.002-0-0.004-0-0.007-0.001-0.016-0.002-0.029-0.004c-0.025-0.003-0.063-0.009-0.111-0.017-0.096-0.016-0.235-0.043-0.402-0.086-0.335-0.086-0.782-0.236-1.237-0.493-0.907-0.512-1.84-1.445-1.953-3.143l-0.152 0.010zM9.722 12.121c-0.088 3.128-0.144 6.59-0.032 8.265l0.152-0.010c-0.112-1.666-0.056-5.12 0.032-8.25l-0.152-0.004zM11.62 7.735c-1.175 1.177-1.853 2.743-1.898 4.386l0.152 0.004c0.044-1.604 0.706-3.133 1.853-4.282l-0.108-0.108zM16.061 5.77c-1.681 0.087-3.266 0.789-4.441 1.965l0.108 0.108c1.148-1.15 2.698-1.836 4.341-1.921l-0.008-0.152z">
            </path>
            <path fill="#010101" style="fill: var(--color2, #010101)"
                d="M10.711 13.611c0.007 0.14 0.073 0.272 0.184 0.368s0.258 0.149 0.411 0.146c0.075 0.002 0.149-0.010 0.218-0.035s0.133-0.062 0.186-0.11 0.096-0.105 0.125-0.168c0.029-0.063 0.044-0.131 0.044-0.2-0.006-0.14-0.072-0.273-0.183-0.369s-0.259-0.149-0.411-0.146c-0.075-0.002-0.149 0.010-0.219 0.035s-0.133 0.063-0.187 0.111-0.096 0.105-0.125 0.169c-0.029 0.063-0.044 0.131-0.044 0.2z">
            </path>
            <path fill="#010101" style="fill: var(--color2, #010101)"
                d="M15.777 13.611c0.006 0.14 0.065 0.272 0.163 0.368s0.23 0.149 0.365 0.146c0.066 0.002 0.132-0.010 0.194-0.035s0.118-0.062 0.166-0.11 0.085-0.105 0.111-0.168c0.026-0.063 0.039-0.131 0.040-0.2-0.006-0.14-0.065-0.272-0.163-0.369s-0.23-0.149-0.365-0.146c-0.066-0.002-0.133 0.010-0.194 0.035s-0.118 0.063-0.166 0.11-0.085 0.105-0.111 0.169c-0.026 0.063-0.039 0.131-0.039 0.2z">
            </path>
            <path fill="#010101" style="fill: var(--color2, #010101)"
                d="M15.517 11.547c0.021 0.152 0.773 0.016 1.381 0.222 0.611 0.195 0.869 0.662 0.98 0.552 0.051-0.053-0.007-0.204-0.18-0.385-0.234-0.225-0.518-0.396-0.829-0.498s-0.643-0.134-0.969-0.092c-0.25 0.042-0.39 0.129-0.382 0.201z">
            </path>
            <path fill="#010101" style="fill: var(--color2, #010101)"
                d="M10.368 12.111c0.083 0.13 0.502-0.18 0.952-0.139 0.448 0.025 0.787 0.39 0.887 0.273 0.045-0.057-0.003-0.183-0.156-0.315-0.209-0.159-0.461-0.255-0.725-0.274s-0.527 0.038-0.757 0.166c-0.172 0.108-0.237 0.226-0.201 0.29z">
            </path>
            <path fill="#714e2f" style="fill: var(--color9, #714e2f)"
                d="M9.808 7.492c-1.095 0.725 0.456 1.539 1.369 1.856 0.128 0.23 0.552 0.829 1.219 1.381 0.834 0.691 2.374 0 3.379-0.691s2.138 0.539 3.657 1.769c1.518 1.23-0.085 2.395 0.834 3.863s0.855-0.086 0.855-1.467c0-1.381 0.064-0.928 1.069-1.769s1.133-1.23 1.518-2.395c0.385-1.165 0.235-1.618-1.518-2.546s-2.994-1.295-3.742-2.46-3.742-0.302-4.982 0c-1.24 0.302 0.706 1.165-0.535 1.165s-1.753 0.388-3.122 1.295z">
            </path>
            <path fill="#010101" style="fill: var(--color2, #010101)"
                d="M22.641 13.155l-12.726-0.631-0.031 0.609 12.726 0.631 0.031-0.609z"></path>
            <path fill="#010101" style="fill: var(--color2, #010101)"
                d="M21.415 13.094l-12.726-0.631-0.031 0.609 12.726 0.631 0.031-0.609z"></path>
            <path fill="#010101" style="fill: var(--color2, #010101)"
                d="M8.509 12.454c-0.016 0.379 0.050 0.743 0.182 1.075l0.96-1.019-1.143-0.056z"></path>
            <path fill="#010101" style="fill: var(--color2, #010101)"
                d="M10.781 12.567l-1.624 1.722c0.089 0.102 0.186 0.197 0.291 0.285l1.867-1.981-0.534-0.026z"></path>
            <path fill="#010101" style="fill: var(--color2, #010101)"
                d="M11.969 12.626l-2.107 2.235c0.347 0.194 0.743 0.313 1.168 0.334 1.459 0.072 2.701-1.035 2.788-2.477l-1.849-0.091z">
            </path>
            <path fill="#fff" style="fill: var(--color1, #fff)"
                d="M9.651 12.511l-0.96 1.019c0.111 0.279 0.269 0.536 0.465 0.76l1.624-1.722-1.128-0.056z"></path>
            <path fill="#fff" style="fill: var(--color1, #fff)"
                d="M11.316 12.593l-1.867 1.981c0.128 0.108 0.267 0.203 0.414 0.286l2.107-2.234-0.653-0.032z"></path>
            <path fill="#010101" style="fill: var(--color2, #010101)"
                d="M14.137 12.734c-0.016 0.379 0.050 0.743 0.182 1.075l0.96-1.019-1.143-0.056z"></path>
            <path fill="#010101" style="fill: var(--color2, #010101)"
                d="M16.409 12.847l-1.624 1.722c0.089 0.102 0.186 0.198 0.291 0.285l1.867-1.981-0.534-0.026z"></path>
            <path fill="#010101" style="fill: var(--color2, #010101)"
                d="M17.597 12.906l-2.107 2.235c0.347 0.194 0.743 0.313 1.168 0.334 1.459 0.072 2.701-1.035 2.788-2.477l-1.849-0.091z">
            </path>
            <path fill="#fff" style="fill: var(--color1, #fff)"
                d="M15.281 12.791l-0.96 1.019c0.111 0.279 0.269 0.536 0.465 0.76l1.624-1.722-1.128-0.056z"></path>
            <path fill="#fff" style="fill: var(--color1, #fff)"
                d="M16.944 12.873l-1.867 1.981c0.128 0.107 0.267 0.203 0.414 0.286l2.107-2.234-0.653-0.032z"></path>
        </symbol>
        <symbol id="icon-avatar_3" viewBox="0 0 32 32">
            <path fill="#fff" style="fill: var(--color1, #fff); stroke: var(--color2, #010101)" stroke="#010101"
                stroke-linejoin="miter" stroke-linecap="butt" stroke-miterlimit="4" stroke-width="0.3902"
                d="M31.415 15.61c0 8.513-6.901 15.415-15.415 15.415s-15.415-6.901-15.415-15.415c0-8.513 6.901-15.415 15.415-15.415s15.415 6.901 15.415 15.415z">
            </path>
            <path fill="#7bdef3" style="fill: var(--color11, #7bdef3); stroke: var(--color2, #010101)" stroke="#010101"
                stroke-linejoin="miter" stroke-linecap="butt" stroke-miterlimit="4" stroke-width="0.3902"
                d="M26.9 26.644c-2.813 2.74-6.594 4.441-10.765 4.441-3.997 0-7.6-1.368-10.362-3.839 2.705-1.14 6.337-1.14 11.212-1.14 4.201 0 7.328-0.147 9.915 0.538z">
            </path>
            <path fill="#493624" style="fill: var(--color12, #493624)"
                d="M9.657 9.047c-1.121 0.743 0.467 1.577 1.402 1.901 0.131 0.236 0.565 0.849 1.249 1.415 0.854 0.707 2.431 0 3.461-0.707s2.191 0.553 3.746 1.813c1.555 1.26-0.088 2.454 0.854 3.957s0.876-0.088 0.876-1.503c0-1.415 0.066-0.95 1.095-1.813s1.161-1.26 1.555-2.454c0.394-1.194 0.241-1.658-1.555-2.608s-3.067-1.326-3.833-2.52-3.833-0.309-5.104 0c-1.27 0.309 0.723 1.194-0.548 1.194s-1.796 0.398-3.198 1.326z">
            </path>
            <path fill="#ffe6ce" style="fill: var(--color13, #ffe6ce)"
                d="M16.067 5.207l0.351-0.018c3.793 0.019 5.895 3.173 5.77 6.876l-0.018 1.339c0.728 0.103 1.722 0.523 1.382 2.073-0.232 1.059-0.839 1.43-1.432 1.514l-0.119 8.731c-1.246 0.774-2.68 1.212-4.156 1.268s-2.941-0.269-4.246-0.945l-0.098-0.051c-0.010-1.042 0.016-1.991 0.016-1.991s-3.666-0.363-3.903-3.907c-0.115-1.711-0.057-5.254 0.033-8.459 0.046-1.663 0.732-3.248 1.921-4.44s2.796-1.902 4.498-1.991z">
            </path>
            <path fill="#010101" style="fill: var(--color2, #010101)"
                d="M16.417 5.189l0.001-0.195-0.011 0.001 0.010 0.195zM16.067 5.207l-0.010-0.195h-0l0.010 0.195zM22.187 12.066l-0.195-0.007v0.004l0.195 0.003zM22.169 13.405l-0.195-0.003-0.002 0.172 0.17 0.024 0.027-0.193zM23.552 15.477v0zM22.12 16.991l-0.027-0.193-0.166 0.023-0.002 0.167 0.195 0.003zM22.001 25.722l0.103 0.166 0.091-0.056 0.001-0.107-0.195-0.003zM17.845 26.99v0zM13.599 26.045l-0.090 0.173 0 0 0.090-0.173zM13.501 25.994l-0.195 0.002 0.001 0.117 0.104 0.054 0.090-0.173zM13.517 24.004l0.195 0.005 0.005-0.182-0.181-0.018-0.019 0.194zM9.614 20.097v0zM9.647 11.638v0zM11.569 7.198v0zM16.407 4.995l-0.351 0.018 0.020 0.39 0.35-0.018-0.020-0.39zM22.382 12.072c0.064-1.888-0.44-3.65-1.458-4.946-1.021-1.301-2.551-2.121-4.506-2.131l-0.002 0.39c1.837 0.009 3.254 0.775 4.201 1.982 0.951 1.211 1.436 2.878 1.375 4.692l0.39 0.013zM22.364 13.407l0.018-1.339-0.39-0.005-0.018 1.339 0.39 0.005zM22.142 13.598c0.346 0.049 0.725 0.17 0.978 0.435 0.241 0.253 0.401 0.674 0.242 1.403l0.381 0.084c0.18-0.821 0.013-1.385-0.34-1.755-0.342-0.358-0.824-0.498-1.205-0.552l-0.055 0.386zM23.361 15.435c-0.109 0.499-0.303 0.818-0.522 1.021s-0.48 0.304-0.746 0.341l0.054 0.386c0.327-0.046 0.667-0.173 0.956-0.441s0.516-0.664 0.639-1.224l-0.381-0.084zM22.196 25.724l0.119-8.731-0.39-0.005-0.119 8.731 0.39 0.005zM17.852 27.185c1.509-0.058 2.976-0.506 4.252-1.297l-0.206-0.331c-1.217 0.756-2.618 1.184-4.061 1.239l0.015 0.39zM13.509 26.218c1.335 0.691 2.833 1.025 4.343 0.967l-0.015-0.39c-1.442 0.055-2.874-0.263-4.148-0.923l-0.179 0.347zM13.411 26.168l0.098 0.051 0.18-0.346-0.098-0.051-0.18 0.346zM13.517 24.004c-0.195-0.005-0.195-0.005-0.195-0.005s0 0 0 0 0 0-0 0 0 0 0 0.001 0 0.001 0 0.002-0 0.005-0 0.008-0 0.018-0.001 0.032c-0.001 0.028-0.002 0.069-0.003 0.122-0.002 0.106-0.005 0.257-0.008 0.441-0.005 0.368-0.009 0.868-0.004 1.391l0.39-0.004c-0.005-0.519-0.001-1.015 0.004-1.382 0.003-0.183 0.006-0.334 0.008-0.439 0.001-0.052 0.002-0.093 0.003-0.121 0-0.014 0.001-0.024 0.001-0.032 0-0.003 0-0.006 0-0.008s0-0.002 0-0.002 0-0 0-0 0-0 0-0 0 0 0 0 0 0-0.195-0.005zM9.42 20.11c0.124 1.853 1.151 2.881 2.139 3.439 0.492 0.277 0.974 0.439 1.333 0.531 0.18 0.046 0.329 0.075 0.435 0.093 0.053 0.009 0.095 0.015 0.124 0.019 0.015 0.002 0.026 0.003 0.034 0.004 0.004 0 0.007 0.001 0.009 0.001 0.001 0 0.002 0 0.003 0s0.001 0 0.001 0 0 0 0 0 0 0 0.020-0.194 0.019-0.194 0.019-0.194 0 0 0 0 0-0-0-0-0.001 0-0.001-0-0.003-0-0.006-0.001-0.015-0.002-0.028-0.003c-0.025-0.003-0.062-0.009-0.11-0.017-0.096-0.016-0.234-0.043-0.402-0.086-0.336-0.086-0.784-0.237-1.239-0.493-0.903-0.51-1.828-1.434-1.942-3.125l-0.389 0.026zM9.452 11.632c-0.090 3.203-0.148 6.755-0.033 8.478l0.389-0.026c-0.114-1.7-0.057-5.232 0.033-8.441l-0.39-0.011zM11.43 7.060c-1.224 1.226-1.931 2.859-1.978 4.572l0.39 0.011c0.044-1.613 0.709-3.15 1.864-4.307l-0.276-0.276zM16.057 5.013c-1.75 0.091-3.402 0.821-4.626 2.048l0.276 0.276c1.155-1.157 2.715-1.848 4.37-1.934l-0.020-0.39z">
            </path>
            <path fill="#010101" style="fill: var(--color2, #010101)"
                d="M10.582 13.163c0.007 0.143 0.074 0.279 0.188 0.377s0.265 0.152 0.421 0.15c0.076 0.002 0.152-0.010 0.224-0.036s0.136-0.064 0.191-0.113 0.098-0.108 0.128-0.172c0.030-0.065 0.045-0.134 0.046-0.205-0.007-0.144-0.074-0.279-0.188-0.378s-0.265-0.152-0.421-0.15c-0.076-0.002-0.153 0.010-0.224 0.036s-0.136 0.064-0.191 0.113-0.098 0.108-0.128 0.173c-0.030 0.065-0.045 0.135-0.045 0.205z">
            </path>
            <path fill="#010101" style="fill: var(--color2, #010101)"
                d="M15.771 13.163c0.006 0.143 0.066 0.279 0.167 0.377s0.235 0.152 0.374 0.15c0.068 0.002 0.136-0.010 0.199-0.036s0.121-0.064 0.17-0.113 0.088-0.108 0.114-0.172c0.027-0.065 0.040-0.134 0.041-0.205-0.006-0.144-0.066-0.279-0.167-0.378s-0.235-0.152-0.374-0.15c-0.068-0.002-0.136 0.010-0.199 0.036s-0.121 0.064-0.17 0.113c-0.049 0.049-0.088 0.108-0.114 0.173s-0.040 0.135-0.040 0.205z">
            </path>
            <path fill="none" stroke="#010101" style="stroke: var(--color2, #010101)" stroke-linejoin="miter"
                stroke-linecap="round" stroke-miterlimit="4" stroke-width="0.3902"
                d="M14.165 17.331c-0.001 0.031-0.351 0.047-0.926 0.047-0.082 0.003-0.165-0.004-0.246-0.021-0.054-0.011-0.104-0.035-0.146-0.068s-0.077-0.076-0.1-0.124c-0.085-0.205-0.002-0.39 0.044-0.551 0.111-0.347 0.081-1.359 0.203-1.739 0.507-1.542 1.117-2.127 1.181-2.108">
            </path>
            <path fill="#514438" style="fill: var(--color14, #514438); stroke: var(--color14, #514438)" stroke="#514438"
                stroke-linejoin="miter" stroke-linecap="butt" stroke-miterlimit="4" stroke-width="0.3902"
                d="M15.505 11.048c0.021 0.156 0.792 0.017 1.415 0.228 0.626 0.199 0.89 0.678 1.003 0.566 0.052-0.054-0.007-0.209-0.185-0.394-0.24-0.231-0.53-0.405-0.849-0.51s-0.659-0.137-0.993-0.095c-0.256 0.043-0.399 0.132-0.391 0.206z">
            </path>
            <path fill="#514438" style="fill: var(--color14, #514438); stroke: var(--color14, #514438)" stroke="#514438"
                stroke-linejoin="miter" stroke-linecap="butt" stroke-miterlimit="4" stroke-width="0.3902"
                d="M10.231 11.626c0.085 0.133 0.514-0.184 0.975-0.143 0.459 0.025 0.806 0.4 0.909 0.279 0.046-0.058-0.003-0.188-0.16-0.323-0.214-0.163-0.472-0.261-0.742-0.281s-0.54 0.039-0.775 0.17c-0.176 0.111-0.243 0.232-0.206 0.297z">
            </path>
            <path fill="none" stroke="#010101" style="stroke: var(--color2, #010101)" stroke-linejoin="miter"
                stroke-linecap="butt" stroke-miterlimit="4" stroke-width="0.3902"
                d="M13.577 19.135c0 0.297-0.301 0.538-0.673 0.538s-0.673-0.241-0.673-0.538"></path>
            <path fill="#493624" style="fill: var(--color12, #493624)"
                d="M10.763 8.446c-0.935-0.324-2.523-1.158-1.402-1.901 1.402-0.928 1.928-1.326 3.198-1.326s0.528-0.683 1.799-0.993c1.271-0.309 2.288-0.538 4.037 0 1.356 0.417 1.91 1.267 3.649 2.319 0.779 0.471 1.343 1.548 1.433 2.56 0.469 0.382 0.72 0.917 0.813 1.473 0.39 2.341-0.39 3.512-0.39 5.073s1.171 2.732 0 4.683c-1.171 1.951-2.341-0.78-2.732-2.732s1.171-0.39 1.561-2.732c0-0.1-0.519-1.023-0.756-1.582-0.008 0.007-0.016 0.014-0.025 0.021-0.031 0.026-0.061 0.052-0.091 0.078-0.493 0.432-0.656 0.751-0.701 0.994-0.009 0.119-0.009 0.234-0.003 0.337 0.007 0.056 0.014 0.107 0.014 0.152 0 1.211-0.35 1.518-0.888 0.659-0.942-1.503 0.495-3.304-1.061-4.564s-2.716-2.52-3.746-1.813-2.010 0.625-2.864-0.083c-0.683-0.566-1.714-0.389-1.846-0.624z">
            </path>
            <path fill="#493624" style="fill: var(--color12, #493624)"
                d="M11.053 20.285c-0.329-2.108 1.005-2.67 1.713-2.688 1.291 0.193 1.418 1.15 1.319 1.604-0.197 2.889-0.483 1.981-0.601 1.166l0.040-1.184c0.009-0.27-0.135-0.803-0.785-0.775s-0.952 0.488-1.022 0.715c-0.084 1.266-0.335 3.271-0.663 1.163z">
            </path>
            <path fill="#493624" style="fill: var(--color12, #493624)"
                d="M17.63 19.632c2.414-0.518 3.077-3.683 3.108-5.2 0.837 2.961-0.228 6.794-1.19 7.573s-3.576 2.439-7.502 2.244c-3.925-0.194-3.064-5.407-2.332-4.884 0.585 0.419 1.374 1.211 1.695 1.555 0.72-0.625 1.754-0.212 2.182 0.073 0.341-0.238 1.626-0.844 4.040-1.362z">
            </path>
        </symbol>
        <symbol id="icon-avatar_4" viewBox="0 0 32 32">
            <path fill="#fff" style="fill: var(--color1, #fff); stroke: var(--color2, #010101)" stroke="#010101"
                stroke-linejoin="miter" stroke-linecap="butt" stroke-miterlimit="4" stroke-width="0.3902"
                d="M0.585 15.61c0 8.513 6.901 15.415 15.415 15.415s15.415-6.901 15.415-15.415c0-8.513-6.901-15.415-15.415-15.415s-15.415 6.901-15.415 15.415z">
            </path>
            <path fill="#f3a307" style="fill: var(--color15, #f3a307); stroke: var(--color2, #010101)" stroke="#010101"
                stroke-linejoin="miter" stroke-linecap="butt" stroke-miterlimit="4" stroke-width="0.3902"
                d="M5.1 26.657c2.813 2.74 6.594 4.441 10.765 4.441 3.997 0 7.6-1.368 10.362-3.839-2.705-1.14-6.337-1.14-11.212-1.14-4.201 0-7.328-0.147-9.915 0.538z">
            </path>
            <path fill="#010101" style="fill: var(--color2, #010101)"
                d="M21.141 27.401c-0.988 0.172-7.514-3.635-2.143-9.958 2.001-2.356 1.387 5.001 3.248 4.801 1.424 0.499 1.557 4.693-1.105 5.157z">
            </path>
            <path fill="#efc7b2" style="fill: var(--color16, #efc7b2)"
                d="M15.968 5.222l-0.35-0.018c-3.788 0.019-5.888 3.17-5.763 6.868l0.018 1.337c-0.727 0.103-1.72 0.522-1.381 2.070 0.232 1.057 0.838 1.429 1.43 1.512l0.119 8.72c1.245 0.773 2.677 1.21 4.151 1.267s2.937-0.269 4.241-0.944l0.098-0.051c0.010-1.041-0.016-1.988-0.016-1.988s3.661-0.363 3.898-3.902c0.115-1.709 0.057-5.248-0.033-8.449-0.046-1.661-0.731-3.244-1.919-4.435s-2.793-1.9-4.493-1.988z">
            </path>
            <path fill="#010101" style="fill: var(--color2, #010101)"
                d="M15.618 5.204l-0.001-0.195 0.011 0.001-0.010 0.195zM15.968 5.222l0.010-0.195h0l-0.010 0.195zM9.855 12.073l0.195-0.007 0 0.004-0.195 0.003zM9.873 13.41l0.195-0.003 0.002 0.172-0.17 0.024-0.027-0.193zM8.492 15.48v0zM9.922 16.993l0.027-0.193 0.166 0.023 0.002 0.167-0.195 0.003zM10.041 25.713l-0.103 0.166-0.091-0.056-0.001-0.107 0.195-0.003zM18.433 26.036l0.090 0.173h-0l-0.090-0.173zM18.531 25.985l0.195 0.002-0.001 0.117-0.104 0.054-0.090-0.173zM18.515 23.997l-0.195 0.005-0.005-0.182 0.181-0.018 0.019 0.194zM22.413 20.095v0zM22.38 11.645v0zM20.461 7.211v0zM15.628 5.010l0.35 0.018-0.020 0.39-0.35-0.018 0.020-0.39zM9.66 12.079c-0.064-1.886 0.44-3.646 1.456-4.941 1.020-1.299 2.548-2.119 4.501-2.129l0.002 0.39c-1.835 0.009-3.25 0.774-4.197 1.98-0.949 1.21-1.434 2.874-1.373 4.687l-0.39 0.013zM9.678 13.413l-0.018-1.337 0.39-0.005 0.018 1.337-0.39 0.005zM9.9 13.603c-0.346 0.049-0.724 0.17-0.976 0.435-0.241 0.253-0.401 0.673-0.241 1.401l-0.381 0.084c-0.18-0.82-0.013-1.384 0.34-1.754 0.341-0.358 0.823-0.498 1.204-0.552l0.055 0.386zM8.683 15.439c0.109 0.498 0.302 0.817 0.522 1.020s0.48 0.304 0.745 0.341l-0.054 0.386c-0.327-0.046-0.666-0.173-0.955-0.441s-0.515-0.663-0.638-1.223l0.381-0.084zM9.846 25.716l-0.119-8.72 0.39-0.005 0.119 8.72-0.39 0.005zM14.185 27.175c-1.508-0.058-2.973-0.505-4.247-1.296l0.206-0.331c1.216 0.755 2.615 1.182 4.056 1.238l-0.015 0.39zM18.523 26.209c-1.333 0.691-2.83 1.024-4.338 0.966l0.015-0.39c1.441 0.055 2.87-0.263 4.143-0.922l0.179 0.347zM18.621 26.158l-0.098 0.051-0.18-0.346 0.098-0.051 0.18 0.346zM18.515 23.997c0.195-0.005 0.195-0.005 0.195-0.005s0 0 0 0 0 0 0 0 0 0 0 0.001 0 0.001 0 0.002 0 0.005 0 0.008 0 0.018 0.001 0.032c0.001 0.028 0.002 0.069 0.003 0.122 0.002 0.106 0.005 0.257 0.008 0.441 0.005 0.368 0.009 0.867 0.004 1.389l-0.39-0.004c0.005-0.519 0.001-1.014-0.004-1.38-0.003-0.183-0.006-0.333-0.008-0.438-0.001-0.052-0.002-0.093-0.003-0.121-0-0.014-0.001-0.024-0.001-0.032-0-0.003-0-0.006-0-0.008s0-0.002-0-0.002 0-0 0-0 0-0 0-0 0-0 0-0 0 0 0.195-0.005zM22.608 20.108c-0.124 1.851-1.149 2.878-2.137 3.435-0.491 0.277-0.973 0.438-1.332 0.531-0.18 0.046-0.329 0.075-0.434 0.093-0.053 0.009-0.094 0.015-0.123 0.019-0.014 0.002-0.026 0.003-0.034 0.004-0.004 0-0.007 0.001-0.009 0.001-0.001 0-0.002 0-0.003 0s-0.001 0-0.001 0-0 0-0 0-0 0-0.019-0.194-0.019-0.194-0.019-0.194 0 0 0 0 0 0 0 0 0.001-0 0.001-0 0.003-0 0.006-0.001 0.015-0.002 0.027-0.003c0.025-0.003 0.062-0.009 0.11-0.017 0.096-0.016 0.234-0.043 0.402-0.086 0.335-0.086 0.784-0.237 1.237-0.493 0.902-0.509 1.826-1.433 1.939-3.122l0.389 0.026zM22.575 11.64c0.090 3.199 0.148 6.747 0.032 8.468l-0.389-0.026c0.114-1.698 0.057-5.226-0.033-8.431l0.39-0.011zM20.599 7.073c1.223 1.225 1.929 2.856 1.976 4.567l-0.39 0.011c-0.044-1.611-0.709-3.147-1.862-4.302l0.276-0.276zM15.978 5.027c1.748 0.091 3.398 0.82 4.621 2.045l-0.276 0.276c-1.154-1.156-2.712-1.846-4.365-1.931l0.020-0.39z">
            </path>
            <path fill="#010101" style="fill: var(--color2, #010101)"
                d="M15.75 13.254c0.006 0.131 0.064 0.254 0.161 0.344s0.226 0.139 0.36 0.136c0.065 0.002 0.13-0.009 0.191-0.033s0.116-0.058 0.163-0.103c0.047-0.045 0.084-0.098 0.11-0.157s0.039-0.122 0.039-0.187c-0.006-0.131-0.063-0.254-0.161-0.344s-0.227-0.139-0.36-0.137c-0.065-0.002-0.131 0.009-0.191 0.033s-0.117 0.058-0.163 0.103-0.084 0.098-0.11 0.157c-0.025 0.059-0.039 0.123-0.039 0.187z">
            </path>
            <path fill="#010101" style="fill: var(--color2, #010101)"
                d="M20.655 13.254c0.006 0.131 0.064 0.254 0.161 0.344s0.226 0.139 0.36 0.136c0.065 0.002 0.13-0.010 0.191-0.033s0.116-0.058 0.163-0.103c0.047-0.045 0.084-0.098 0.11-0.157s0.039-0.122 0.039-0.187c-0.006-0.131-0.064-0.254-0.161-0.344s-0.226-0.139-0.36-0.137c-0.065-0.002-0.131 0.009-0.192 0.033s-0.117 0.058-0.163 0.103c-0.047 0.045-0.084 0.098-0.11 0.157s-0.039 0.123-0.039 0.187z">
            </path>
            <path fill="#010101" style="fill: var(--color2, #010101)"
                d="M17.552 11.396c-0.060 0.145-0.77-0.179-1.426-0.129-0.656 0.039-1.031 0.436-1.113 0.3-0.037-0.065 0.060-0.201 0.278-0.336 0.29-0.164 0.615-0.262 0.95-0.284s0.672 0.030 0.984 0.153c0.236 0.104 0.353 0.226 0.327 0.296z">
            </path>
            <path fill="#010101" style="fill: var(--color2, #010101)"
                d="M22.424 11.99c-0.096 0.125-0.496-0.227-0.957-0.226-0.459-0.015-0.837 0.328-0.929 0.2-0.040-0.062 0.019-0.187 0.188-0.307 0.227-0.144 0.493-0.219 0.763-0.215s0.534 0.086 0.757 0.236c0.165 0.125 0.221 0.252 0.179 0.313z">
            </path>
            <path fill="#000" style="fill: var(--color6, #000)" opacity="0.2"
                d="M11.317 19.182c0 1.542 1.25 2.791 2.791 2.791s2.791-1.25 2.791-2.791c0-1.542-1.25-2.791-2.791-2.791s-2.791 1.25-2.791 2.791z">
            </path>
            <path fill="#010101" style="fill: var(--color2, #010101)"
                d="M7.088 13.733c1.988-7.389 5.191-8.932 7.742-8.66 3.352-0.494 4.865 1.081 5.958 1.832 0.874 0.601 2.742 3.14 0 1.378 0 2.64-2.906 0.941-6.421 1.134s0.825 5.277-1.82 4.958c-0.832-0.1-0.948-0.642-0.948-0.642-2.378-0.55-2.127 3.027-0.496 3.027 0.628 0 0.512 8.493 2.276 9.12 1.067 1.067-1.199 3.703-3.232 4.168-0.978 0.224-6.575-3.246-3.059-16.315z">
            </path>
        </symbol>
        <symbol id="icon-star_empty" viewBox="0 0 32 32">
            <path fill="#c2e6ff" style="fill: var(--color17, #c2e6ff); stroke: var(--color18, #a0a0a0)" stroke="#a0a0a0"
                stroke-linejoin="miter" stroke-linecap="butt" stroke-miterlimit="4" stroke-width="1.3333"
                d="M16 2.513l5.227 7.627 8.869 2.614-5.638 7.328 0.007 0.237 0.248 9.005-8.711-3.098-8.711 3.098 0.254-9.242-5.638-7.328 8.868-2.614 5.227-7.627z">
            </path>
        </symbol>
        <symbol id="icon-star_fill" viewBox="0 0 32 32">
            <path fill="#f3ea07" style="fill: var(--color3, #f3ea07); stroke: var(--color18, #a0a0a0)" stroke="#a0a0a0"
                stroke-linejoin="miter" stroke-linecap="butt" stroke-miterlimit="4" stroke-width="1.3333"
                d="M16 2.513l5.227 7.627 8.869 2.614-5.638 7.328 0.007 0.237 0.248 9.005-8.711-3.098-8.711 3.098 0.254-9.242-5.638-7.328 8.868-2.614 5.227-7.627z">
            </path>
        </symbol>
        <symbol id="icon-arrow-right" viewBox="0 0 109 32">
            <path fill="#545454" style="fill: var(--color1, #545454)"
                d="M107.987 17.32c0.729-0.729 0.729-1.911 0-2.64l-11.879-11.879c-0.729-0.729-1.911-0.729-2.64 0s-0.729 1.911 0 2.64l10.559 10.559-10.559 10.559c-0.729 0.729-0.729 1.911 0 2.64s1.911 0.729 2.64 0l11.879-11.879zM0 17.867h106.667v-3.733h-106.667v3.733z">
            </path>
        </symbol>
        <symbol id="icon-facebook" viewBox="0 0 32 32">
            <path
                d="M16 2.667c-7.363 0-13.333 6.006-13.333 13.414 0 6.694 4.875 12.243 11.25 13.253v-9.374h-3.387v-3.878h3.387v-2.955c0-3.365 1.991-5.22 5.035-5.22 1.459 0 2.987 0.262 2.987 0.262v3.299h-1.686c-1.654 0-2.171 1.036-2.171 2.097v2.515h3.695l-0.591 3.878h-3.104v9.375c6.375-1.005 11.25-6.555 11.25-13.25 0-7.408-5.97-13.414-13.333-13.414z">
            </path>
        </symbol>
        <symbol id="icon-twitter" viewBox="0 0 32 32">
            <path
                d="M16 2.667c-7.363 0-13.333 5.97-13.333 13.333s5.97 13.333 13.333 13.333c7.363 0 13.333-5.97 13.333-13.333s-5.97-13.333-13.333-13.333zM22.407 12.717c0.009 0.14 0.009 0.286 0.009 0.429 0 4.369-3.327 9.402-9.408 9.402-1.875 0-3.613-0.545-5.077-1.482 0.268 0.030 0.524 0.042 0.798 0.042 1.548 0 2.97-0.524 4.104-1.411-1.452-0.030-2.673-0.982-3.089-2.292 0.509 0.074 0.967 0.074 1.491-0.060-0.748-0.152-1.42-0.558-1.902-1.149s-0.745-1.332-0.744-2.095v-0.042c0.438 0.247 0.952 0.399 1.491 0.42-0.453-0.302-0.824-0.711-1.081-1.19s-0.392-1.015-0.392-1.56c0-0.616 0.161-1.179 0.449-1.667 0.83 1.022 1.866 1.858 3.040 2.453s2.46 0.937 3.775 1.002c-0.467-2.247 1.211-4.066 3.229-4.066 0.952 0 1.81 0.399 2.414 1.042 0.747-0.14 1.461-0.42 2.098-0.795-0.247 0.765-0.765 1.411-1.452 1.818 0.667-0.071 1.31-0.256 1.905-0.515-0.449 0.661-1.012 1.247-1.658 1.714z">
            </path>
        </symbol>
        <symbol id="icon-youtube" viewBox="0 0 32 32">
            <path
                d="M18.226 15.768l-3.119-1.456c-0.272-0.126-0.496 0.015-0.496 0.317v2.742c0 0.301 0.224 0.443 0.496 0.317l3.118-1.456c0.274-0.128 0.274-0.336 0.001-0.464zM16 2.667c-7.364 0-13.333 5.969-13.333 13.333s5.969 13.333 13.333 13.333c7.364 0 13.333-5.969 13.333-13.333s-5.969-13.333-13.333-13.333zM16 21.417c-6.825 0-6.944-0.615-6.944-5.417s0.119-5.417 6.944-5.417c6.825 0 6.944 0.615 6.944 5.417s-0.119 5.417-6.944 5.417z">
            </path>
        </symbol>
        <symbol id="icon-instagram" viewBox="0 0 32 32">
            <path
                d="M16 2.881c4.275 0 4.781 0.019 6.462 0.094 1.563 0.069 2.406 0.331 2.969 0.55 0.744 0.288 1.281 0.638 1.837 1.194 0.563 0.563 0.906 1.094 1.2 1.838 0.219 0.563 0.481 1.412 0.55 2.969 0.075 1.688 0.094 2.194 0.094 6.463s-0.019 4.781-0.094 6.463c-0.069 1.563-0.331 2.406-0.55 2.969-0.288 0.744-0.637 1.281-1.194 1.837-0.563 0.563-1.094 0.906-1.837 1.2-0.563 0.219-1.413 0.481-2.969 0.55-1.688 0.075-2.194 0.094-6.463 0.094s-4.781-0.019-6.463-0.094c-1.563-0.069-2.406-0.331-2.969-0.55-0.744-0.288-1.281-0.637-1.838-1.194-0.563-0.563-0.906-1.094-1.2-1.837-0.219-0.563-0.481-1.413-0.55-2.969-0.075-1.688-0.094-2.194-0.094-6.463s0.019-4.781 0.094-6.463c0.069-1.563 0.331-2.406 0.55-2.969 0.288-0.744 0.638-1.281 1.194-1.838 0.563-0.563 1.094-0.906 1.838-1.2 0.563-0.219 1.412-0.481 2.969-0.55 1.681-0.075 2.188-0.094 6.463-0.094zM16 0c-4.344 0-4.887 0.019-6.594 0.094-1.7 0.075-2.869 0.35-3.881 0.744-1.056 0.412-1.95 0.956-2.837 1.85-0.894 0.888-1.438 1.781-1.85 2.831-0.394 1.019-0.669 2.181-0.744 3.881-0.075 1.713-0.094 2.256-0.094 6.6s0.019 4.887 0.094 6.594c0.075 1.7 0.35 2.869 0.744 3.881 0.413 1.056 0.956 1.95 1.85 2.837 0.887 0.887 1.781 1.438 2.831 1.844 1.019 0.394 2.181 0.669 3.881 0.744 1.706 0.075 2.25 0.094 6.594 0.094s4.888-0.019 6.594-0.094c1.7-0.075 2.869-0.35 3.881-0.744 1.050-0.406 1.944-0.956 2.831-1.844s1.438-1.781 1.844-2.831c0.394-1.019 0.669-2.181 0.744-3.881 0.075-1.706 0.094-2.25 0.094-6.594s-0.019-4.887-0.094-6.594c-0.075-1.7-0.35-2.869-0.744-3.881-0.394-1.063-0.938-1.956-1.831-2.844-0.887-0.887-1.781-1.438-2.831-1.844-1.019-0.394-2.181-0.669-3.881-0.744-1.712-0.081-2.256-0.1-6.6-0.1v0z">
            </path>
            <path
                d="M16 7.781c-4.537 0-8.219 3.681-8.219 8.219s3.681 8.219 8.219 8.219 8.219-3.681 8.219-8.219c0-4.537-3.681-8.219-8.219-8.219zM16 21.331c-2.944 0-5.331-2.387-5.331-5.331s2.387-5.331 5.331-5.331c2.944 0 5.331 2.387 5.331 5.331s-2.387 5.331-5.331 5.331z">
            </path>
            <path
                d="M26.462 7.456c0 1.060-0.859 1.919-1.919 1.919s-1.919-0.859-1.919-1.919c0-1.060 0.859-1.919 1.919-1.919s1.919 0.859 1.919 1.919z">
            </path>
        </symbol>
    </defs>
</svg>