<svg aria-hidden="true" style="position: absolute; width: 0; height: 0; overflow: hidden;" version="1.1"
    xmlns="http://www.w3.org/2000/svg" xmlns:xlink="http://www.w3.org/1999/xlink">
    <defs>
        <symbol>
            <svg id="icon-quality" xmlns="http://www.w3.org/2000/svg" width="332" height="337" viewBox="0 0 332 337"
                fill="none">
                <path
                    d="M94.1297 12.6872L97.0453 11.2794L104.633 26.9744L101.717 28.3822L94.1297 12.6872ZM93.598 32.3023L90.6823 33.7101L83.095 18.0151L86.0107 16.6074L93.598 32.3023ZM98.6896 21.5475L90.0996 25.695L88.8965 23.2063L97.4864 19.0587L98.6896 21.5475Z"
                    fill="#010101" />
                <path
                    d="M116.129 22.7893L115.233 20.2536L114.878 19.7716L113.309 15.3341C113.005 14.4732 112.511 13.8992 111.829 13.612C111.14 13.3091 110.272 13.3428 109.223 13.7131C108.518 13.9618 107.86 14.3173 107.249 14.7796C106.653 15.2364 106.189 15.7434 105.858 16.3005L103.952 14.5701C104.442 13.8159 105.105 13.1506 105.941 12.5741C106.786 11.9764 107.71 11.5007 108.712 11.147C110.528 10.5059 112.085 10.4495 113.381 10.9778C114.687 11.485 115.661 12.6465 116.303 14.4622L118.901 21.8111L116.129 22.7893ZM112.242 24.3464C111.302 24.678 110.425 24.8117 109.61 24.7473C108.789 24.6673 108.083 24.4146 107.492 23.9893C106.912 23.5428 106.494 22.9595 106.24 22.2395C105.991 21.5352 105.931 20.8432 106.061 20.1636C106.206 19.4786 106.604 18.8363 107.255 18.2367C107.906 17.6372 108.866 17.1136 110.134 16.666L113.775 15.381L114.464 17.3297L111.035 18.5401C110.032 18.8938 109.417 19.2958 109.189 19.7461C108.955 20.1808 108.921 20.6329 109.087 21.1024C109.275 21.6346 109.636 21.9826 110.17 22.1465C110.703 22.3103 111.345 22.2596 112.097 21.9943C112.817 21.7401 113.401 21.3491 113.849 20.8214C114.312 20.2883 114.555 19.6566 114.579 18.9264L115.695 20.5132C115.673 21.3484 115.366 22.0993 114.774 22.766C114.197 23.4272 113.353 23.954 112.242 24.3464Z"
                    fill="#010101" />
                <path
                    d="M121.9 20.8358L118.75 7.91684L121.775 7.18054L123.852 15.6964L128.915 5.4429L131.674 4.77141L134.824 17.6904L131.798 18.4267L129.722 9.91079L124.683 20.1584L121.9 20.8358ZM124.647 4.8671C123.356 5.18125 122.291 5.12437 121.452 4.69647C120.609 4.25244 120.037 3.45176 119.738 2.29444L121.747 1.80554C121.904 2.38224 122.194 2.79871 122.615 3.05494C123.053 3.30725 123.586 3.35683 124.216 3.20368C124.829 3.05446 125.271 2.76731 125.544 2.34221C125.832 1.9132 125.914 1.40641 125.788 0.821857L127.846 0.321181C128.113 1.48636 127.966 2.46179 127.405 3.24745C126.857 4.01307 125.937 4.55295 124.647 4.8671Z"
                    fill="#010101" />
                <path
                    d="M147.723 15.7433L142.088 10.0853L144.391 8.18438L151.351 15.2433L147.723 15.7433ZM138.273 17.0461L136.452 3.87443L139.537 3.44923L141.357 16.6209L138.273 17.0461ZM139.715 11.4682L139.36 8.90297L143.826 8.28728L144.181 10.8526L139.715 11.4682ZM144.915 9.79619L141.98 9.84885L145.903 2.57162L149.21 2.11581L144.915 9.79619Z"
                    fill="#010101" />
                <path
                    d="M160.793 15.0097C159.714 15.0465 158.718 14.8313 157.805 14.3642C156.908 13.8965 156.177 13.174 155.612 12.1968C155.062 11.2023 154.761 9.93368 154.708 8.39081C154.654 6.83134 154.859 5.54542 155.323 4.53302C155.803 3.52006 156.475 2.75802 157.338 2.24689C158.201 1.71917 159.196 1.43606 160.325 1.39754C161.636 1.3528 162.799 1.59547 163.814 2.12555C164.846 2.65506 165.67 3.4159 166.286 4.40807C166.918 5.39967 167.258 6.58396 167.305 7.96094C167.352 9.33791 167.095 10.5509 166.533 11.5999C165.987 12.6317 165.217 13.4469 164.224 14.0455C163.248 14.6435 162.104 14.9649 160.793 15.0097ZM153.584 19.9146L152.961 1.79832L155.923 1.69722L156.031 4.83274L156.053 8.36982L156.424 11.895L156.696 19.8084L153.584 19.9146ZM160.353 12.3589C161.1 12.3334 161.758 12.1448 162.327 11.7932C162.913 11.441 163.37 10.9438 163.697 10.3014C164.023 9.65912 164.172 8.91492 164.143 8.06883C164.114 7.20615 163.914 6.47384 163.544 5.8719C163.174 5.25337 162.685 4.7884 162.076 4.47699C161.483 4.16501 160.814 4.02177 160.067 4.04725C159.32 4.07274 158.654 4.26158 158.068 4.61377C157.481 4.96596 157.025 5.46321 156.698 6.10553C156.371 6.73125 156.222 7.47546 156.251 8.33814C156.281 9.18423 156.48 9.91654 156.85 10.5351C157.221 11.1536 157.71 11.6186 158.319 11.93C158.928 12.2414 159.606 12.3843 160.353 12.3589Z"
                    fill="#010101" />
                <path
                    d="M178.153 15.2568L178.33 12.5734L178.193 11.9905L178.502 7.29468C178.561 6.38367 178.334 5.6617 177.82 5.12877C177.307 4.57927 176.495 4.26795 175.385 4.19482C174.639 4.1457 173.894 4.21308 173.15 4.39694C172.422 4.5819 171.796 4.86505 171.272 5.2464L170.202 2.90522C170.951 2.40555 171.822 2.0554 172.818 1.85478C173.83 1.63869 174.867 1.56557 175.928 1.63543C177.85 1.76205 179.302 2.32353 180.285 3.31986C181.286 4.30073 181.723 5.75186 181.597 7.67326L181.086 15.45L178.153 15.2568ZM173.966 15.1556C172.972 15.0901 172.113 14.8672 171.389 14.4868C170.666 14.0898 170.117 13.5795 169.742 12.956C169.384 12.3169 169.231 11.6164 169.281 10.8545C169.33 10.1091 169.548 9.44974 169.935 8.87636C170.339 8.30408 170.958 7.87076 171.793 7.57641C172.627 7.28205 173.716 7.17908 175.058 7.2675L178.911 7.52128L178.776 9.58347L175.147 9.34443C174.086 9.27457 173.362 9.40155 172.975 9.72538C172.588 10.0326 172.379 10.4347 172.346 10.9316C172.309 11.4948 172.503 11.9568 172.929 12.3175C173.355 12.6783 173.965 12.8848 174.761 12.9372C175.523 12.9874 176.214 12.8583 176.833 12.5497C177.469 12.2423 177.942 11.7577 178.252 11.0961L178.651 12.9939C178.302 13.7527 177.724 14.3218 176.917 14.7012C176.126 15.0816 175.142 15.2331 173.966 15.1556Z"
                    fill="#010101" />
                <path
                    d="M194.777 14.8103L193.976 15.4175L196.119 4.21715L199.178 4.80272L197.034 16.0031L196.44 15.1289L202.899 16.3656L202.05 16.9634L204.193 5.76306L207.252 6.34863L204.752 19.4076L185.497 15.7208L187.997 2.66187L191.055 3.24744L188.911 14.4478L188.342 13.5783L194.777 14.8103ZM203.259 21.9102L203.919 18.4621L204.483 19.356L201.596 18.8032L202.092 16.211L207.132 17.176L206.121 22.4583L203.259 21.9102Z"
                    fill="#010101" />
                <path
                    d="M215.739 22.9346L216.555 20.3723L216.563 19.7737L217.99 15.2897C218.267 14.4198 218.22 13.6645 217.849 13.0237C217.483 12.3671 216.77 11.87 215.71 11.5325C214.998 11.3057 214.258 11.1922 213.492 11.192C212.741 11.1968 212.065 11.3213 211.464 11.5655L210.989 9.03625C211.835 8.73096 212.766 8.60041 213.78 8.64461C214.815 8.67804 215.839 8.85598 216.852 9.17843C218.687 9.76289 219.963 10.6567 220.677 11.8598C221.413 13.0522 221.489 14.5658 220.905 16.4005L218.54 23.8264L215.739 22.9346ZM211.698 21.831C210.749 21.5287 209.968 21.106 209.357 20.5629C208.751 20.004 208.34 19.3769 208.126 18.6816C207.933 17.9754 207.952 17.2586 208.184 16.531C208.41 15.8193 208.78 15.2316 209.294 14.768C209.823 14.3095 210.529 14.0376 211.41 13.9523C212.291 13.867 213.373 14.0284 214.654 14.4366L218.334 15.608L217.706 17.5772L214.241 16.4737C213.228 16.1513 212.495 16.1007 212.041 16.322C211.592 16.5275 211.292 16.8675 211.141 17.342C210.97 17.8797 211.047 18.3748 211.374 18.8272C211.7 19.2796 212.243 19.6267 213.003 19.8685C213.731 20.1003 214.433 20.1408 215.108 19.99C215.799 19.8443 216.375 19.4875 216.835 18.9196L216.766 20.8577C216.245 21.5104 215.547 21.9239 214.672 22.0984C213.813 22.2778 212.822 22.1887 211.698 21.831Z"
                    fill="#010101" />
                <path
                    d="M234.988 30.8654L236.924 26.7681L237.106 27.4323L233.502 25.7303C231.851 24.9501 230.715 23.9915 230.095 22.8543C229.497 21.7092 229.51 20.4763 230.134 19.1555C230.801 17.7447 231.804 16.9057 233.142 16.6383C234.496 16.3781 236.006 16.6416 237.673 17.4288L243.191 20.0351L237.511 32.0569L234.988 30.8654ZM226.339 26.7804L231.752 23.7197L234.636 25.0814L229.357 28.2059L226.339 26.7804ZM237.35 25.8676L239.903 20.4645L239.957 21.3989L236.646 19.8352C235.775 19.4238 235.021 19.2698 234.385 19.373C233.77 19.4683 233.293 19.8762 232.953 20.5966C232.314 21.9474 232.874 23.0376 234.631 23.8674L238.032 25.4737L237.35 25.8676Z"
                    fill="#010101" />
                <path
                    d="M248.572 38.4061L247.688 30.4721L250.674 30.4183L251.723 40.2731L248.572 38.4061ZM240.365 33.5418L247.147 22.1051L249.826 23.6927L243.044 35.1293L240.365 33.5418ZM244.969 30.0762L246.29 27.8488L250.168 30.1476L248.848 32.375L244.969 30.0762ZM250.08 32.0057L247.751 30.2199L255.355 26.9695L258.226 28.6713L250.08 32.0057Z"
                    fill="#010101" />
                <path
                    d="M253.142 41.4052L260.715 30.4758L263.275 32.2484L255.702 43.1778L253.142 41.4052ZM263.253 29.5681C262.775 29.2372 262.483 28.8129 262.377 28.2953C262.285 27.7872 262.385 27.3216 262.678 26.8986C262.981 26.462 263.382 26.2044 263.88 26.1258C264.402 26.0431 264.902 26.1671 265.38 26.498C265.858 26.8289 266.148 27.2416 266.25 27.7361C266.375 28.2264 266.291 28.6831 265.997 29.1061C265.685 29.5563 265.271 29.8344 264.753 29.9403C264.244 30.0325 263.744 29.9084 263.253 29.5681Z"
                    fill="#010101" />
                <path
                    d="M264.028 49.6883C262.94 48.8159 262.15 47.8103 261.659 46.6716C261.19 45.5304 261.038 44.3662 261.203 43.179C261.368 41.9919 261.86 40.8869 262.681 39.8639C263.512 38.828 264.484 38.1072 265.597 37.7016C266.72 37.2831 267.885 37.1847 269.091 37.4066C270.309 37.6389 271.463 38.1912 272.551 39.0637C273.562 39.8738 274.283 40.7924 274.715 41.8196C275.171 42.8442 275.283 43.9124 275.051 45.0243L272.312 44.6164C272.396 43.8751 272.305 43.2061 272.038 42.6095C271.785 42.0233 271.399 41.5224 270.88 41.107C270.284 40.6292 269.643 40.3277 268.956 40.2024C268.268 40.0771 267.591 40.1514 266.925 40.4253C266.268 40.6864 265.67 41.1535 265.13 41.8269C264.59 42.5002 264.258 43.192 264.136 43.9022C264.023 44.5994 264.103 45.2696 264.375 45.9129C264.646 46.5562 265.08 47.1167 265.676 47.5945C266.194 48.0099 266.767 48.2776 267.395 48.3977C268.035 48.5281 268.708 48.472 269.414 48.2292L270.407 50.8125C269.382 51.2675 268.31 51.397 267.19 51.2012C266.093 51.0027 265.039 50.4985 264.028 49.6883Z"
                    fill="#010101" />
                <path
                    d="M272.24 56.5777L280.101 48.3139L280.109 49.3528L276.191 45.6293L278.011 43.7167L287.038 52.2962L285.219 54.2088L281.319 50.5024L282.357 50.4588L274.497 58.7226L272.24 56.5777Z"
                    fill="#010101" />
                <path
                    d="M290.107 62.2046C291.244 63.4824 291.825 64.71 291.85 65.8872C291.875 67.0645 291.366 68.1163 290.324 69.0428C289.244 70.0023 288.07 70.3801 286.799 70.1761C285.542 69.9611 284.317 69.172 283.127 67.8087L279.007 63.1399L288.946 54.3057L291.015 56.6318L287.758 59.5269L290.107 62.2046ZM284.657 66.082C285.252 66.7754 285.858 67.1696 286.476 67.2647C287.094 67.3598 287.688 67.1536 288.259 66.6463C288.83 66.139 289.079 65.5951 289.007 65.0148C288.959 64.4358 288.632 63.7934 288.026 63.0876L286.157 60.9497L282.789 63.944L284.657 66.082Z"
                    fill="#010101" />
        </symbol>
        <symbol>
            <svg id="icon-great" xmlns="http://www.w3.org/2000/svg" width="332" height="340" viewBox="0 0 332 340" fill="none">
                <path
                    d="M58.1574 302.542L68.1 289.768L68.3182 291.799L64.2877 288.665L65.955 286.523L71.4208 290.773L60.7134 304.529L58.1574 302.542Z"
                    fill="#010101" />
                <path
                    d="M70.0407 311.395C68.8876 310.64 68.0367 309.666 67.488 308.474C66.9533 307.29 66.7859 305.97 66.9858 304.514C67.1949 303.043 67.8226 301.51 68.869 299.913C69.9153 298.316 71.0664 297.135 72.3222 296.37C73.5872 295.59 74.8692 295.209 76.1682 295.226C77.4812 295.252 78.7142 295.643 79.8673 296.398C81.0343 297.162 81.8852 298.135 82.42 299.319C82.9548 300.502 83.1176 301.829 82.9086 303.299C82.7225 304.765 82.1063 306.296 81.0599 307.893C80.0136 309.49 78.851 310.674 77.5722 311.444C76.3163 312.209 75.0389 312.583 73.7398 312.566C72.4407 312.549 71.2077 312.159 70.0407 311.395ZM71.5829 309.041C72.2637 309.487 72.9724 309.693 73.7091 309.659C74.4549 309.611 75.217 309.297 75.9953 308.715C76.7875 308.142 77.5657 307.273 78.33 306.106C79.1034 304.926 79.5899 303.865 79.7894 302.924C80.012 301.979 79.9915 301.162 79.7279 300.473C79.4735 299.771 79.0059 299.197 78.3251 298.751C77.6721 298.324 76.9658 298.129 76.2061 298.168C75.4694 298.202 74.705 298.505 73.9128 299.078C73.1436 299.645 72.3723 300.52 71.5989 301.7C70.8346 302.866 70.3412 303.922 70.1186 304.868C69.9099 305.823 69.9328 306.651 70.1873 307.354C70.4648 308.051 70.93 308.614 71.5829 309.041Z"
                    fill="#010101" />
                <path
                    d="M85.7634 320.577C84.5378 319.947 83.5898 319.067 82.9195 317.939C82.264 316.818 81.9596 315.522 82.0064 314.053C82.0607 312.569 82.5247 310.978 83.3985 309.281C84.2723 307.583 85.2937 306.288 86.4627 305.396C87.6393 304.489 88.8745 303.976 90.1683 303.858C91.4768 303.747 92.7439 304.006 93.9695 304.637C95.21 305.275 96.1579 306.154 96.8134 307.275C97.4689 308.396 97.7695 309.699 97.7152 311.183C97.6832 312.66 97.2304 314.247 96.3566 315.945C95.4828 317.642 94.4502 318.941 93.2588 319.84C92.0898 320.732 90.8584 321.238 89.5647 321.356C88.2709 321.475 87.0038 321.215 85.7634 320.577ZM87.0513 318.076C87.7749 318.448 88.5013 318.579 89.2304 318.468C89.9672 318.343 90.6922 317.951 91.4055 317.291C92.1335 316.638 92.8166 315.692 93.4548 314.453C94.1007 313.198 94.4737 312.092 94.5739 311.136C94.6965 310.172 94.5907 309.362 94.2567 308.705C93.9302 308.033 93.4052 307.511 92.6816 307.138C91.9876 306.782 91.2648 306.662 90.5133 306.779C89.7841 306.89 89.0555 307.271 88.3275 307.923C87.6218 308.568 86.9461 309.518 86.3002 310.773C85.662 312.013 85.2816 313.114 85.159 314.078C85.0512 315.049 85.1606 315.871 85.487 316.543C85.8358 317.208 86.3573 317.719 87.0513 318.076Z"
                    fill="#010101" />
                <path
                    d="M97.5248 326.004L114.786 313.848L117.073 314.703L99.8113 326.859L97.5248 326.004ZM101.697 318.977C100.934 318.692 100.328 318.253 99.8762 317.658C99.4247 317.064 99.1607 316.372 99.0842 315.581C99.0077 314.791 99.1382 313.945 99.4756 313.043C99.813 312.141 100.27 311.417 100.847 310.871C101.424 310.324 102.078 309.975 102.808 309.823C103.539 309.67 104.285 309.737 105.048 310.022C105.841 310.318 106.455 310.761 106.891 311.349C107.343 311.943 107.607 312.635 107.683 313.426C107.76 314.217 107.629 315.063 107.292 315.965C106.955 316.866 106.497 317.591 105.921 318.137C105.344 318.683 104.69 319.033 103.959 319.185C103.244 319.343 102.49 319.274 101.697 318.977ZM102.331 317.353C102.953 317.586 103.525 317.525 104.048 317.171C104.592 316.807 105.035 316.167 105.379 315.25C105.722 314.332 105.805 313.566 105.627 312.95C105.471 312.325 105.082 311.896 104.46 311.663C103.838 311.43 103.247 311.493 102.688 311.851C102.144 312.215 101.703 312.848 101.366 313.749C101.028 314.651 100.945 315.418 101.117 316.049C101.304 316.686 101.709 317.121 102.331 317.353ZM109.526 330.676C108.764 330.392 108.157 329.952 107.706 329.358C107.254 328.764 106.991 328.071 106.914 327.281C106.838 326.49 106.968 325.644 107.305 324.742C107.643 323.84 108.1 323.116 108.677 322.57C109.254 322.024 109.907 321.674 110.638 321.522C111.369 321.37 112.115 321.436 112.877 321.721C113.671 322.018 114.285 322.46 114.721 323.048C115.173 323.643 115.437 324.335 115.513 325.126C115.59 325.916 115.459 326.762 115.122 327.664C114.784 328.566 114.327 329.29 113.75 329.836C113.174 330.383 112.52 330.732 111.789 330.884C111.074 331.042 110.32 330.973 109.526 330.676ZM110.137 329.044C110.759 329.277 111.343 329.211 111.886 328.847C112.43 328.483 112.871 327.851 113.208 326.949C113.546 326.047 113.629 325.281 113.457 324.649C113.286 324.018 112.889 323.586 112.267 323.354C111.66 323.127 111.077 323.192 110.517 323.55C109.979 323.899 109.539 324.531 109.195 325.449C108.852 326.366 108.766 327.14 108.938 327.772C109.131 328.393 109.531 328.817 110.137 329.044Z"
                    fill="#010101" />
                <path
                    d="M130.9 336.438C129.826 336.219 128.899 335.862 128.119 335.364C127.339 334.867 126.708 334.222 126.225 333.429C125.762 332.623 125.474 331.667 125.36 330.56C125.246 329.453 125.335 328.183 125.627 326.752C125.839 325.711 126.122 324.778 126.476 323.952C126.831 323.126 127.257 322.408 127.754 321.798C128.254 321.171 128.827 320.644 129.474 320.216C130.136 319.792 130.87 319.476 131.675 319.267C132.48 319.058 133.367 318.95 134.334 318.943L140.651 318.881L140.534 321.703L134.813 321.709C134.491 321.711 134.097 321.733 133.631 321.773C133.185 321.801 132.709 321.891 132.203 322.042C131.718 322.18 131.235 322.429 130.755 322.789C130.294 323.136 129.873 323.626 129.49 324.26C129.126 324.88 128.842 325.695 128.636 326.703C128.573 327.012 128.533 327.25 128.517 327.416C128.519 327.569 128.511 327.736 128.491 327.919C128.49 328.088 128.457 328.335 128.39 328.661L127.486 327.232C127.981 326.468 128.572 325.852 129.261 325.382C129.969 324.899 130.738 324.581 131.565 324.428C132.413 324.261 133.292 324.271 134.203 324.456C135.424 324.704 136.455 325.176 137.296 325.873C138.137 326.569 138.734 327.427 139.085 328.447C139.437 329.467 139.495 330.555 139.26 331.709C139.015 332.913 138.505 333.919 137.731 334.727C136.956 335.535 135.977 336.098 134.794 336.417C133.63 336.722 132.332 336.729 130.9 336.438ZM131.646 334.023C132.378 334.172 133.052 334.148 133.669 333.952C134.304 333.742 134.833 333.392 135.255 332.902C135.693 332.415 135.982 331.83 136.121 331.147C136.26 330.464 136.218 329.837 135.995 329.267C135.792 328.683 135.437 328.179 134.93 327.754C134.44 327.333 133.812 327.044 133.047 326.889C132.315 326.74 131.626 326.752 130.981 326.926C130.351 327.103 129.821 327.419 129.39 327.873C128.978 328.314 128.704 328.868 128.568 329.535C128.429 330.218 128.464 330.878 128.674 331.513C128.884 332.149 129.24 332.687 129.743 333.128C130.263 333.573 130.897 333.871 131.646 334.023Z"
                    fill="#010101" />
                <path
                    d="M150.938 339.095L151.208 336.42L151.092 335.832L151.563 331.15C151.655 330.242 151.453 329.513 150.958 328.962C150.464 328.395 149.664 328.056 148.557 327.945C147.813 327.87 147.066 327.911 146.316 328.069C145.582 328.229 144.946 328.49 144.409 328.853L143.422 326.477C144.187 326.003 145.071 325.683 146.072 325.517C147.092 325.336 148.131 325.299 149.188 325.406C151.105 325.599 152.537 326.21 153.485 327.24C154.451 328.255 154.837 329.72 154.644 331.636L153.863 339.39L150.938 339.095ZM146.757 338.849C145.765 338.75 144.914 338.497 144.204 338.092C143.496 337.67 142.965 337.141 142.611 336.505C142.276 335.854 142.147 335.149 142.224 334.389C142.299 333.646 142.54 332.994 142.947 332.435C143.37 331.877 144.004 331.465 144.849 331.2C145.693 330.935 146.785 330.869 148.123 331.004L151.965 331.391L151.758 333.447L148.139 333.083C147.081 332.976 146.353 333.078 145.955 333.388C145.558 333.682 145.335 334.077 145.285 334.572C145.228 335.134 145.406 335.602 145.819 335.977C146.232 336.353 146.835 336.58 147.628 336.66C148.388 336.736 149.083 336.631 149.713 336.344C150.359 336.059 150.849 335.591 151.181 334.941L151.515 336.851C151.139 337.597 150.541 338.146 149.721 338.497C148.918 338.85 147.93 338.968 146.757 338.849Z"
                    fill="#010101" />
                <path
                    d="M158.643 339.678L158.749 326.382L165.251 326.434C166.861 326.447 168.121 326.756 169.03 327.361C169.955 327.966 170.413 328.816 170.404 329.911C170.396 330.99 169.957 331.833 169.089 332.441C168.221 333.031 167.072 333.321 165.644 333.31L166.024 332.541C167.635 332.554 168.828 332.862 169.604 333.466C170.396 334.053 170.788 334.911 170.779 336.04C170.77 337.218 170.322 338.136 169.437 338.793C168.552 339.433 167.212 339.746 165.419 339.732L158.643 339.678ZM161.626 337.436L165.188 337.464C166.035 337.471 166.675 337.343 167.109 337.081C167.543 336.802 167.762 336.381 167.767 335.816C167.771 335.219 167.576 334.777 167.179 334.492C166.783 334.207 166.161 334.061 165.314 334.054L161.653 334.025L161.626 337.436ZM161.669 331.958L164.932 331.984C165.729 331.991 166.328 331.854 166.729 331.575C167.147 331.28 167.358 330.866 167.362 330.335C167.366 329.788 167.162 329.379 166.749 329.11C166.352 328.842 165.756 328.704 164.959 328.698L161.695 328.672L161.669 331.958Z"
                    fill="#010101" />
                <path
                    d="M180.698 339.29C179.341 339.41 178.108 339.226 176.998 338.741C175.887 338.239 174.98 337.502 174.278 336.53C173.576 335.559 173.167 334.42 173.052 333.114C172.936 331.791 173.139 330.599 173.663 329.536C174.184 328.457 174.949 327.582 175.957 326.91C176.965 326.238 178.147 325.842 179.504 325.723C180.877 325.602 182.118 325.785 183.228 326.271C184.354 326.755 185.259 327.475 185.944 328.431C186.645 329.386 187.054 330.533 187.172 331.873C187.287 333.179 187.083 334.372 186.562 335.451C186.056 336.528 185.292 337.412 184.269 338.102C183.261 338.773 182.071 339.17 180.698 339.29ZM180.464 336.636C181.225 336.57 181.889 336.345 182.455 335.961C183.022 335.578 183.443 335.058 183.718 334.401C184.01 333.742 184.119 332.991 184.045 332.147C183.97 331.288 183.731 330.567 183.33 329.986C182.944 329.387 182.438 328.948 181.814 328.669C181.189 328.391 180.504 328.285 179.76 328.35C178.999 328.417 178.335 328.642 177.769 329.025C177.219 329.407 176.798 329.927 176.506 330.586C176.212 331.228 176.103 331.979 176.179 332.839C176.253 333.682 176.492 334.403 176.894 335.001C177.297 335.599 177.802 336.037 178.411 336.317C179.035 336.595 179.72 336.702 180.464 336.636Z"
                    fill="#010101" />
                <path
                    d="M192.327 337.838L189.862 324.772L196.252 323.568C197.835 323.27 199.13 323.33 200.139 323.748C201.163 324.163 201.777 324.909 201.98 325.985C202.18 327.045 201.913 327.957 201.178 328.721C200.44 329.468 199.369 329.974 197.966 330.238L198.19 329.41C199.773 329.112 201.003 329.184 201.881 329.627C202.772 330.05 203.322 330.817 203.531 331.926C203.75 333.084 203.488 334.071 202.746 334.886C202.001 335.685 200.748 336.251 198.985 336.583L192.327 337.838ZM194.82 335.062L198.32 334.403C199.153 334.246 199.756 333.997 200.131 333.656C200.503 333.299 200.637 332.843 200.533 332.288C200.422 331.701 200.144 331.306 199.7 331.102C199.257 330.899 198.618 330.875 197.786 331.032L194.188 331.71L194.82 335.062ZM193.805 329.679L197.011 329.075C197.795 328.927 198.356 328.678 198.695 328.327C199.048 327.957 199.175 327.51 199.077 326.988C198.975 326.45 198.696 326.089 198.239 325.905C197.798 325.718 197.186 325.698 196.402 325.845L193.195 326.45L193.805 329.679Z"
                    fill="#010101" />
                <path
                    d="M208.955 334.473L205.183 321.723L208.169 320.841L209.701 326.022L216.127 324.123L214.594 318.941L217.58 318.059L221.353 330.809L218.367 331.692L216.876 326.654L210.45 328.553L211.941 333.591L208.955 334.473Z"
                    fill="#010101" />
                <path
                    d="M233.118 326.264L232.11 323.771L231.734 323.305L229.971 318.942C229.629 318.095 229.11 317.544 228.416 317.287C227.715 317.015 226.848 317.088 225.817 317.504C225.124 317.784 224.482 318.168 223.892 318.657C223.316 319.14 222.876 319.667 222.569 320.238L220.588 318.594C221.045 317.819 221.678 317.125 222.487 316.512C223.305 315.877 224.207 315.361 225.193 314.963C226.979 314.242 228.531 314.117 229.85 314.587C231.177 315.035 232.202 316.152 232.923 317.938L235.844 325.164L233.118 326.264ZM229.303 327.993C228.379 328.366 227.508 328.538 226.691 328.51C225.868 328.467 225.151 328.245 224.543 327.847C223.943 327.427 223.5 326.862 223.214 326.154C222.934 325.462 222.844 324.773 222.943 324.089C223.058 323.398 223.427 322.738 224.051 322.111C224.675 321.483 225.611 320.917 226.858 320.413L230.438 318.968L231.213 320.884L227.84 322.246C226.855 322.644 226.258 323.073 226.05 323.532C225.835 323.977 225.822 324.43 226.008 324.892C226.22 325.415 226.595 325.747 227.136 325.887C227.676 326.027 228.315 325.948 229.055 325.649C229.763 325.363 230.329 324.947 230.753 324.4C231.192 323.846 231.407 323.205 231.398 322.474L232.583 324.01C232.598 324.845 232.325 325.609 231.763 326.301C231.216 326.987 230.396 327.551 229.303 327.993Z"
                    fill="#010101" />
        </symbol>
    </defs>
</svg>