<svg width="42" height="42" viewBox="0 0 42 42" fill="none" xmlns="http://www.w3.org/2000/svg">
<circle cx="21" cy="21" r="20" fill="white" stroke="#010101" stroke-width="0.5"/>
<path d="M34.9655 35.138C31.3618 38.6491 26.5172 40.8275 21.1723 40.8275C16.0509 40.8275 11.4346 39.0751 7.89648 35.9092C11.3622 34.4484 16.0153 34.4483 22.2623 34.4483C27.6453 34.4483 31.651 34.2603 34.9655 35.138Z" fill="#57B2AB" stroke="#010101" stroke-width="0.2"/>
<path d="M12.8731 12.5919C11.4362 13.5436 13.4719 14.6123 14.6694 15.0277C14.8377 15.3298 15.3934 16.1152 16.2691 16.8403C17.3637 17.7466 19.3844 16.8403 20.7035 15.9339C22.0226 15.0276 23.5101 16.642 25.5027 18.2564C27.4954 19.8708 25.3905 21.4002 26.5973 23.3262C27.8041 25.2521 27.7199 23.2129 27.7199 21.4002C27.7199 19.5876 27.8041 20.1823 29.1232 19.0778C30.4423 17.9732 30.6107 17.4634 31.1159 15.9339C31.6211 14.4045 31.4246 13.8097 29.1232 12.5919C26.8218 11.3741 25.194 10.8926 24.2117 9.36315C23.2294 7.83372 19.3002 8.96663 17.6724 9.36315C16.0446 9.75966 18.5986 10.8926 16.9707 10.8926C15.3429 10.8926 14.6694 11.4024 12.8731 12.5919Z" fill="#714E2F"/>
<path fill-rule="evenodd" clip-rule="evenodd" d="M21.0857 7.67238L21.5348 7.64941C26.394 7.67429 29.0873 11.7153 28.9275 16.4595L28.9041 18.1749C29.8363 18.3067 31.1109 18.8448 30.6754 20.8306C30.3779 22.1868 29.6009 22.6631 28.8412 22.7701L28.6883 33.9563C27.0917 34.9478 25.2543 35.5085 23.3633 35.5813C21.4723 35.6541 19.5953 35.2363 17.9237 34.3706L17.7982 34.3055C17.7854 32.97 17.8188 31.755 17.8188 31.755C17.8188 31.755 13.1223 31.29 12.8183 26.7496C12.6713 24.5569 12.7448 20.0184 12.8605 15.9113C12.9191 13.7806 13.798 11.7496 15.3223 10.2228C16.8465 8.69596 18.9043 7.78537 21.0857 7.67238Z" fill="#FFDECE"/>
<path d="M21.5348 7.64941L21.5353 7.54926L21.5296 7.54954L21.5348 7.64941ZM21.0857 7.67238L21.0806 7.57251L21.0805 7.57251L21.0857 7.67238ZM28.9275 16.4595L28.8276 16.4561L28.8275 16.4581L28.9275 16.4595ZM28.9041 18.1749L28.8041 18.1735L28.8029 18.2616L28.8901 18.2739L28.9041 18.1749ZM30.6754 20.8306L30.5777 20.8092L30.6754 20.8306ZM28.8412 22.7701L28.8273 22.6711L28.7424 22.6831L28.7413 22.7688L28.8412 22.7701ZM28.6883 33.9563L28.7411 34.0413L28.7875 34.0124L28.7883 33.9577L28.6883 33.9563ZM23.3633 35.5813L23.3594 35.4814L23.3633 35.5813ZM17.9237 34.3706L17.8777 34.4593L17.8777 34.4593L17.9237 34.3706ZM17.7982 34.3055L17.6982 34.3064L17.6988 34.3666L17.7522 34.3943L17.7982 34.3055ZM17.8188 31.755L17.9187 31.7577L17.9213 31.6646L17.8286 31.6555L17.8188 31.755ZM12.8183 26.7496L12.9181 26.7429L12.9181 26.7429L12.8183 26.7496ZM12.8605 15.9113L12.9605 15.9142L12.9605 15.9141L12.8605 15.9113ZM15.3223 10.2228L15.393 10.2934L15.3223 10.2228ZM21.5296 7.54954L21.0806 7.57251L21.0908 7.77224L21.5399 7.74928L21.5296 7.54954ZM29.0275 16.4629C29.108 14.0719 28.4699 11.8512 27.1919 10.223C25.9123 8.59253 23.9954 7.56201 21.5353 7.54942L21.5342 7.74941C23.9334 7.76169 25.7927 8.76412 27.0346 10.3465C28.2782 11.931 28.9069 14.1029 28.8276 16.4561L29.0275 16.4629ZM29.0041 18.1763L29.0275 16.4609L28.8275 16.4581L28.8041 18.1735L29.0041 18.1763ZM28.8901 18.2739C29.3473 18.3386 29.8723 18.5012 30.2303 18.8765C30.5825 19.2458 30.7903 19.8399 30.5777 20.8092L30.7731 20.852C30.996 19.8355 30.7843 19.1677 30.375 18.7385C29.9714 18.3153 29.3931 18.143 28.9181 18.0759L28.8901 18.2739ZM30.5777 20.8092C30.4324 21.4716 30.1722 21.91 29.8637 22.1954C29.5552 22.4809 29.1913 22.6198 28.8273 22.6711L28.8552 22.8692C29.2509 22.8134 29.6553 22.6607 29.9995 22.3422C30.3438 22.0237 30.6209 21.5458 30.7731 20.852L30.5777 20.8092ZM28.7883 33.9577L28.9412 22.7715L28.7413 22.7688L28.5883 33.9549L28.7883 33.9577ZM23.3671 35.6812C25.2754 35.6078 27.1297 35.042 28.7411 34.0413L28.6355 33.8714C27.0538 34.8536 25.2333 35.4093 23.3594 35.4814L23.3671 35.6812ZM17.8777 34.4593C19.5648 35.3331 21.4589 35.7546 23.3671 35.6812L23.3594 35.4814C21.4856 35.5535 19.6258 35.1395 17.9697 34.2818L17.8777 34.4593ZM17.7522 34.3943L17.8777 34.4593L17.9697 34.2818L17.8442 34.2167L17.7522 34.3943ZM17.8188 31.755C17.7188 31.7522 17.7188 31.7522 17.7188 31.7523C17.7188 31.7523 17.7188 31.7523 17.7188 31.7523C17.7188 31.7523 17.7188 31.7524 17.7188 31.7525C17.7188 31.7526 17.7188 31.7529 17.7188 31.7532C17.7188 31.7538 17.7187 31.7546 17.7187 31.7558C17.7186 31.7582 17.7185 31.7617 17.7184 31.7663C17.7182 31.7756 17.7178 31.7894 17.7174 31.8073C17.7165 31.8432 17.7152 31.896 17.7138 31.9635C17.7108 32.0985 17.7071 32.2924 17.7037 32.528C17.6969 32.9992 17.6918 33.6376 17.6982 34.3064L17.8982 34.3045C17.8918 33.6378 17.8969 33.001 17.9037 32.5308C17.907 32.2958 17.9108 32.1024 17.9137 31.9679C17.9152 31.9006 17.9164 31.848 17.9173 31.8123C17.9178 31.7944 17.9181 31.7807 17.9184 31.7716C17.9185 31.767 17.9186 31.7635 17.9186 31.7612C17.9187 31.76 17.9187 31.7592 17.9187 31.7586C17.9187 31.7583 17.9187 31.7581 17.9187 31.7579C17.9187 31.7579 17.9187 31.7578 17.9187 31.7578C17.9187 31.7577 17.9187 31.7577 17.9187 31.7577C17.9187 31.7577 17.9187 31.7577 17.8188 31.755ZM12.7186 26.7563C12.8733 29.0679 14.1494 30.3459 15.3834 31.042C15.999 31.3894 16.6043 31.5922 17.0553 31.7082C17.2809 31.7663 17.4684 31.8028 17.5999 31.8248C17.6656 31.8358 17.7174 31.8431 17.753 31.8478C17.7707 31.8501 17.7845 31.8518 17.7939 31.8529C17.7986 31.8534 17.8022 31.8538 17.8048 31.8541C17.806 31.8542 17.807 31.8543 17.8077 31.8544C17.808 31.8544 17.8083 31.8544 17.8085 31.8545C17.8086 31.8545 17.8087 31.8545 17.8088 31.8545C17.8088 31.8545 17.8089 31.8545 17.8188 31.755C17.8286 31.6555 17.8286 31.6555 17.8287 31.6555C17.8286 31.6555 17.8286 31.6555 17.8286 31.6555C17.8285 31.6555 17.8284 31.6554 17.8281 31.6554C17.8277 31.6554 17.827 31.6553 17.826 31.6552C17.824 31.655 17.8208 31.6546 17.8167 31.6542C17.8083 31.6532 17.7956 31.6517 17.7789 31.6495C17.7456 31.6451 17.6961 31.6381 17.6329 31.6275C17.5063 31.6063 17.3245 31.571 17.1051 31.5145C16.666 31.4015 16.0781 31.2043 15.4817 30.8679C14.2914 30.1964 13.0673 28.9717 12.9181 26.7429L12.7186 26.7563ZM12.7605 15.9085C12.6449 20.0141 12.5711 24.5578 12.7186 26.7563L12.9181 26.7429C12.7714 24.5559 12.8447 20.0226 12.9605 15.9142L12.7605 15.9085ZM15.2515 10.1521C13.7094 11.6968 12.8198 13.752 12.7605 15.9086L12.9605 15.9141C13.0183 13.8092 13.8866 11.8024 15.393 10.2934L15.2515 10.1521ZM21.0805 7.57251C18.8747 7.68677 16.7935 8.60755 15.2515 10.1521L15.393 10.2934C16.8996 8.78438 18.9338 7.88398 21.0909 7.77224L21.0805 7.57251Z" fill="#010101"/>
<path d="M14.0586 17.8649C14.0674 18.0487 14.1539 18.2222 14.2996 18.3482C14.4453 18.4743 14.6388 18.5431 14.8388 18.5399C14.9368 18.5423 15.0342 18.5266 15.1255 18.4938C15.2167 18.461 15.2999 18.4118 15.3702 18.349C15.4405 18.2862 15.4964 18.2111 15.5346 18.1282C15.5729 18.0452 15.5928 17.9561 15.593 17.866C15.5845 17.6819 15.4982 17.5083 15.3524 17.382C15.2067 17.2557 15.013 17.1868 14.8128 17.1899C14.7148 17.1876 14.6172 17.2033 14.5259 17.2361C14.4346 17.269 14.3513 17.3183 14.281 17.3812C14.2107 17.4441 14.1549 17.5193 14.1167 17.6024C14.0785 17.6855 14.0587 17.7747 14.0586 17.8649Z" fill="#010101"/>
<path d="M20.707 17.8649C20.7149 18.0488 20.7917 18.2222 20.9213 18.3482C21.0508 18.4743 21.2228 18.5431 21.4006 18.5399C21.4876 18.5423 21.5742 18.5266 21.6554 18.4938C21.7365 18.461 21.8104 18.4118 21.8729 18.349C21.9354 18.2862 21.9851 18.2111 22.0191 18.1282C22.0531 18.0452 22.0707 17.9561 22.071 17.866C22.0631 17.6821 21.9863 17.5085 21.8568 17.3823C21.7273 17.2561 21.5553 17.1871 21.3774 17.19C21.2903 17.1875 21.2035 17.2031 21.1223 17.2359C21.041 17.2687 20.9669 17.318 20.9044 17.3809C20.8419 17.4438 20.7923 17.5191 20.7584 17.6022C20.7245 17.6854 20.707 17.7747 20.707 17.8649Z" fill="#010101"/>
<path d="M18.649 23.2056C18.648 23.2458 18.1987 23.266 17.4631 23.266C17.3574 23.2696 17.2516 23.2606 17.1482 23.2391C17.0796 23.2245 17.0155 23.1947 16.9607 23.1522C16.9059 23.1096 16.8619 23.0554 16.8322 22.9937C16.7236 22.7309 16.8302 22.4941 16.8885 22.288C17.0307 21.8431 16.9922 20.5465 17.1482 20.0595C17.7979 18.0834 18.5789 17.3339 18.6608 17.3589" stroke="#010101" stroke-width="0.2" stroke-linecap="round"/>
<path d="M20.3657 15.1552C20.393 15.3548 21.3803 15.1766 22.1783 15.4468C22.9803 15.7023 23.3184 16.3154 23.464 16.1716C23.531 16.1021 23.4548 15.9034 23.2272 15.6665C22.92 15.3706 22.5479 15.147 22.139 15.0128C21.7301 14.8785 21.2951 14.8371 20.867 14.8915C20.5395 14.9465 20.3557 15.0603 20.3657 15.1552Z" fill="#010101"/>
<path d="M13.6085 15.8961C13.7176 16.0661 14.2677 15.6604 14.8576 15.7131C15.4454 15.7453 15.8899 16.2251 16.0224 16.071C16.0809 15.9968 16.0187 15.8302 15.8172 15.6576C15.5432 15.4483 15.2122 15.3231 14.866 15.2978C14.5198 15.2725 14.1741 15.3482 13.8726 15.5155C13.647 15.6571 13.5617 15.8127 13.6085 15.8961Z" fill="#010101"/>
<path d="M17.896 26.5172C17.896 26.8981 17.5101 27.2069 17.0339 27.2069C16.5578 27.2069 16.1719 26.8981 16.1719 26.5172" stroke="#010101" stroke-width="0.2"/>
<path d="M12.8731 9.83314C11.4362 10.7848 13.4719 11.8535 14.6694 12.2689C14.8377 12.571 15.3934 13.3564 16.2691 14.0815C17.3637 14.9878 19.3844 14.0815 20.7035 13.1752C22.0226 12.2688 23.5101 13.8832 25.5027 15.4976C27.4954 17.112 25.3905 18.6414 26.5973 20.5674C27.8041 22.4933 27.7199 20.4541 27.7199 18.6414C27.7199 16.8288 27.8041 17.4236 29.1232 16.319C30.4423 15.2144 30.6107 14.7046 31.1159 13.1752C31.6211 11.6457 31.4246 11.051 29.1232 9.83314C26.8218 8.61533 25.194 8.13378 24.2117 6.60436C23.2294 5.07493 19.3002 6.20784 17.6724 6.60436C16.0446 7.00088 18.5986 8.13378 16.9707 8.13378C15.3429 8.13378 14.6694 8.64359 12.8731 9.83314Z" fill="#714E2F"/>
<path d="M29.7168 17.2665L13.0137 16.438L12.9728 17.2375L29.6759 18.066L29.7168 17.2665Z" fill="#010101" stroke="#010101" stroke-width="0.2" stroke-miterlimit="10"/>
<path d="M28.1074 17.186L11.4043 16.3574L11.3634 17.1569L28.0666 17.9855L28.1074 17.186Z" fill="#010101" stroke="#010101" stroke-width="0.2" stroke-miterlimit="10"/>
<path d="M11.168 16.3457C11.1467 16.8437 11.2338 17.3209 11.4072 17.7569L12.6676 16.4198L11.168 16.3457Z" fill="#010101" stroke="#010101" stroke-width="0.2" stroke-miterlimit="10"/>
<path d="M14.1506 16.4938L12.0196 18.7542C12.1367 18.888 12.2643 19.0134 12.401 19.1283L14.852 16.5285L14.1506 16.4938Z" fill="#010101" stroke="#010101" stroke-width="0.2" stroke-miterlimit="10"/>
<path d="M15.7097 16.5712L12.9445 19.5044C13.4001 19.7584 13.9201 19.915 14.4778 19.9426C16.3922 20.0372 18.0235 18.5838 18.1369 16.6911L15.7097 16.5712Z" fill="#010101" stroke="#010101" stroke-width="0.2" stroke-miterlimit="10"/>
<path d="M12.6674 16.4201L11.4069 17.7572C11.5528 18.1235 11.76 18.4602 12.0168 18.7542L14.148 16.4937L12.6674 16.4205L12.6674 16.4201Z" fill="white" stroke="#010101" stroke-width="0.2" stroke-miterlimit="10"/>
<path d="M14.8528 16.5283L12.4018 19.1281C12.5697 19.2693 12.7519 19.395 12.9454 19.5032L15.7103 16.5706L14.8528 16.5283Z" fill="white" stroke="#010101" stroke-width="0.2" stroke-miterlimit="10"/>
<path d="M18.5547 16.7139C18.5334 17.2119 18.6205 17.6891 18.7939 18.1251L20.0544 16.788L18.5547 16.7139Z" fill="#010101" stroke="#010101" stroke-width="0.2" stroke-miterlimit="10"/>
<path d="M21.5373 16.862L19.4063 19.1223C19.5234 19.2562 19.651 19.3816 19.7877 19.4965L22.2387 16.8966L21.5373 16.862Z" fill="#010101" stroke="#010101" stroke-width="0.2" stroke-miterlimit="10"/>
<path d="M23.0964 16.9394L20.3312 19.8725C20.7868 20.1266 21.3068 20.2832 21.8646 20.3108C23.7789 20.4053 25.4102 18.952 25.5236 17.0593L23.0964 16.9394Z" fill="#010101" stroke="#010101" stroke-width="0.2" stroke-miterlimit="10"/>
<path d="M20.0561 16.7882L18.7956 18.1254C18.9414 18.4917 19.1487 18.8283 19.4055 19.1223L21.5367 16.8618L20.056 16.7887L20.0561 16.7882Z" fill="white" stroke="#010101" stroke-width="0.2" stroke-miterlimit="10"/>
<path d="M22.2395 16.8964L19.7885 19.4963C19.9564 19.6374 20.1386 19.7631 20.3321 19.8714L23.097 16.9388L22.2395 16.8964Z" fill="white" stroke="#010101" stroke-width="0.2" stroke-miterlimit="10"/>
</svg>
