<svg width="40" height="41" viewBox="0 0 40 41" fill="none" xmlns="http://www.w3.org/2000/svg">
<circle cx="20" cy="20" r="19.75" fill="white" stroke="#010101" stroke-width="0.5"/>
<path d="M33.9655 34.1549C30.3618 37.6659 25.5172 39.8444 20.1723 39.8444C15.0509 39.8444 10.4346 38.0919 6.89648 34.926C10.3622 33.4652 15.0153 33.4652 21.2623 33.4652C26.6453 33.4652 30.651 33.2771 33.9655 34.1549Z" fill="#F3EA07" stroke="#010101" stroke-width="0.5"/>
<path d="M14.2606 24.3738C14.2606 25.5529 11.8539 27.6052 10.4336 27.9873C10.4336 29.9525 12.8684 29.3793 12.5206 29.8706C12.2423 30.2637 11.8829 31.3173 11.0423 31.4264C11.1119 31.9505 13.2162 32.0269 14.2597 31.9996C14.3988 32.5892 13.3321 32.955 12.7814 33.0641C17.651 34.4398 19.478 30.3513 19.9998 28.6317C18.0867 26.7211 14.2606 23.1946 14.2606 24.3738Z" fill="#D6B8A7" stroke="#010101" stroke-width="0.5"/>
<path fill-rule="evenodd" clip-rule="evenodd" d="M20.041 6.69078L20.4895 6.66785C25.3431 6.69269 28.0334 10.7291 27.8738 15.4678L27.8503 17.1815C28.7815 17.3131 30.0547 17.8506 29.6196 19.8341C29.3225 21.1888 28.5464 21.6645 27.7876 21.7714L27.6348 32.9445C26.0401 33.9349 24.2048 34.4949 22.3159 34.5676C20.4271 34.6403 18.5523 34.223 16.8826 33.3583L16.7572 33.2933C16.7445 31.9593 16.7778 30.7457 16.7778 30.7457C16.7778 30.7457 12.0867 30.2813 11.7831 25.7461C11.6362 23.5559 11.7096 19.0226 11.8252 14.9203C11.8837 12.792 12.7616 10.7633 14.2841 9.23826C15.8067 7.71319 17.862 6.80365 20.041 6.69078Z" fill="#FFE2D3"/>
<path d="M20.4895 6.66785L20.4908 6.41745L20.4767 6.41817L20.4895 6.66785ZM20.041 6.69078L20.0282 6.44111L20.028 6.44112L20.041 6.69078ZM27.8738 15.4678L27.6239 15.4594L27.6238 15.4644L27.8738 15.4678ZM27.8503 17.1815L27.6004 17.178L27.5974 17.3982L27.8153 17.429L27.8503 17.1815ZM29.6196 19.8341L29.8638 19.8877L29.6196 19.8341ZM27.7876 21.7714L27.7527 21.5239L27.5405 21.5538L27.5376 21.768L27.7876 21.7714ZM27.6348 32.9445L27.7667 33.1569L27.8829 33.0847L27.8848 32.9479L27.6348 32.9445ZM16.8826 33.3583L16.7675 33.5802L16.7676 33.5803L16.8826 33.3583ZM16.7572 33.2933L16.5072 33.2957L16.5086 33.4461L16.6422 33.5153L16.7572 33.2933ZM16.7778 30.7457L17.0277 30.7526L17.0341 30.5199L16.8024 30.4969L16.7778 30.7457ZM11.7831 25.7461L12.0325 25.7294L12.0325 25.7294L11.7831 25.7461ZM11.8252 14.9203L12.0751 14.9273L12.0751 14.9271L11.8252 14.9203ZM14.2841 9.23826L14.1072 9.06163L14.2841 9.23826ZM20.4767 6.41817L20.0282 6.44111L20.0537 6.94046L20.5023 6.91752L20.4767 6.41817ZM28.1236 15.4762C28.205 13.0597 27.5605 10.805 26.2583 9.14578C24.9518 7.48109 22.9938 6.43066 20.4908 6.41785L20.4882 6.91784C22.8389 6.92988 24.6528 7.91007 25.865 9.45447C27.0813 11.0043 27.7021 13.1372 27.6239 15.4594L28.1236 15.4762ZM28.1003 17.1849L28.1238 15.4712L27.6238 15.4644L27.6004 17.178L28.1003 17.1849ZM27.8153 17.429C28.2587 17.4917 28.7431 17.6469 29.0664 17.9859C29.3753 18.3098 29.58 18.8479 29.3754 19.7806L29.8638 19.8877C30.0943 18.8368 29.8799 18.1144 29.4282 17.6408C28.9909 17.1822 28.3731 17.0029 27.8853 16.9339L27.8153 17.429ZM29.3754 19.7806C29.2355 20.4186 28.9882 20.827 28.707 21.0872C28.4256 21.3475 28.0924 21.476 27.7527 21.5239L27.8225 22.019C28.2416 21.9599 28.6759 21.7971 29.0465 21.4542C29.4173 21.1112 29.7066 20.6043 29.8638 19.8877L29.3754 19.7806ZM27.8848 32.9479L28.0376 21.7749L27.5376 21.768L27.3848 32.9411L27.8848 32.9479ZM22.3255 34.8174C24.2574 34.7431 26.1349 34.1703 27.7667 33.1569L27.5029 32.7321C25.9453 33.6995 24.1522 34.2468 22.3063 34.3178L22.3255 34.8174ZM16.7676 33.5803C18.4759 34.465 20.3937 34.8918 22.3255 34.8174L22.3063 34.3178C20.4605 34.3889 18.6286 33.981 16.9975 33.1363L16.7676 33.5803ZM16.6422 33.5153L16.7675 33.5802L16.9976 33.1363L16.8723 33.0714L16.6422 33.5153ZM16.7778 30.7457C16.5279 30.7389 16.5279 30.7389 16.5279 30.7389C16.5279 30.7389 16.5279 30.7389 16.5279 30.7389C16.5279 30.739 16.5279 30.739 16.5279 30.7391C16.5279 30.7393 16.5278 30.7395 16.5278 30.7398C16.5278 30.7404 16.5278 30.7413 16.5278 30.7425C16.5277 30.7449 16.5276 30.7485 16.5275 30.7531C16.5272 30.7625 16.5269 30.7763 16.5264 30.7943C16.5255 30.8303 16.5243 30.8832 16.5228 30.9508C16.5199 31.0859 16.5161 31.2799 16.5127 31.5157C16.506 31.9871 16.5008 32.6261 16.5072 33.2957L17.0072 33.2909C17.0008 32.6265 17.006 31.9917 17.0127 31.5228C17.016 31.2885 17.0198 31.0957 17.0227 30.9616C17.0242 30.8946 17.0254 30.8422 17.0263 30.8067C17.0267 30.7889 17.0271 30.7753 17.0273 30.7662C17.0274 30.7617 17.0275 30.7582 17.0276 30.7559C17.0276 30.7548 17.0276 30.7539 17.0277 30.7534C17.0277 30.7531 17.0277 30.7529 17.0277 30.7528C17.0277 30.7527 17.0277 30.7526 17.0277 30.7526C17.0277 30.7526 17.0277 30.7526 17.0277 30.7526C17.0277 30.7526 17.0277 30.7526 16.7778 30.7457ZM11.5337 25.7628C11.6924 28.1339 13.0061 29.4505 14.2714 30.1644C14.9008 30.5194 15.5184 30.7262 15.9777 30.8444C16.2078 30.9036 16.3994 30.9409 16.5344 30.9635C16.6019 30.9748 16.6554 30.9824 16.6926 30.9873C16.7111 30.9897 16.7257 30.9915 16.7359 30.9926C16.741 30.9932 16.745 30.9936 16.7479 30.994C16.7493 30.9941 16.7505 30.9942 16.7514 30.9943C16.7518 30.9944 16.7522 30.9944 16.7525 30.9944C16.7526 30.9944 16.7528 30.9945 16.7529 30.9945C16.753 30.9945 16.7531 30.9945 16.7778 30.7457C16.8024 30.4969 16.8025 30.4969 16.8026 30.497C16.8026 30.497 16.8026 30.497 16.8026 30.497C16.8027 30.497 16.8026 30.497 16.8025 30.4969C16.8022 30.4969 16.8017 30.4969 16.8009 30.4968C16.7992 30.4966 16.7965 30.4963 16.7927 30.4959C16.7852 30.495 16.7733 30.4936 16.7575 30.4915C16.7258 30.4874 16.6782 30.4806 16.6169 30.4703C16.4941 30.4498 16.3168 30.4154 16.1024 30.3602C15.6726 30.2496 15.0985 30.0568 14.5171 29.7289C13.361 29.0767 12.1774 27.8935 12.0325 25.7294L11.5337 25.7628ZM11.5753 14.9132C11.4598 19.012 11.3858 23.5583 11.5337 25.7628L12.0325 25.7294C11.8866 23.5535 11.9594 19.0332 12.0751 14.9273L11.5753 14.9132ZM14.1072 9.06163C12.5402 10.6313 11.6356 12.7205 11.5753 14.9134L12.0751 14.9271C12.1318 12.8636 12.983 10.8954 14.4611 9.41489L14.1072 9.06163ZM20.028 6.44112C17.7881 6.55714 15.6741 7.49215 14.1072 9.06163L14.4611 9.41489C15.9392 7.93423 17.9359 7.05016 20.0539 6.94045L20.028 6.44112Z" fill="#010101"/>
<path d="M20.3203 16.9811C20.3128 17.1486 20.2388 17.3067 20.1142 17.4216C19.9896 17.5365 19.8242 17.5992 19.6531 17.5963C19.5694 17.5984 19.486 17.5841 19.408 17.5543C19.33 17.5244 19.2588 17.4795 19.1987 17.4223C19.1386 17.3651 19.0908 17.2966 19.0581 17.221C19.0254 17.1454 19.0084 17.0642 19.0082 16.9821C19.0155 16.8144 19.0893 16.6561 19.2139 16.541C19.3386 16.4259 19.5042 16.3631 19.6754 16.3659C19.7592 16.3638 19.8426 16.3781 19.9207 16.408C19.9988 16.438 20.07 16.4829 20.1301 16.5403C20.1902 16.5976 20.238 16.6661 20.2707 16.7418C20.3033 16.8176 20.3202 16.8989 20.3203 16.9811Z" fill="#010101"/>
<path d="M14.0352 16.9812C14.0276 17.1488 13.9537 17.3068 13.8291 17.4217C13.7045 17.5366 13.539 17.5993 13.368 17.5964C13.2842 17.5986 13.2009 17.5843 13.1228 17.5544C13.0448 17.5245 12.9737 17.4796 12.9136 17.4224C12.8535 17.3652 12.8057 17.2968 12.7729 17.2212C12.7402 17.1456 12.7232 17.0643 12.723 16.9822C12.7305 16.8146 12.8045 16.6564 12.929 16.5414C13.0536 16.4263 13.2191 16.3635 13.3902 16.3661C13.4741 16.3638 13.5575 16.378 13.6357 16.4079C13.7139 16.4378 13.7851 16.4828 13.8452 16.5401C13.9054 16.5975 13.9532 16.6661 13.9858 16.7418C14.0184 16.8176 14.0352 16.899 14.0352 16.9812Z" fill="#010101"/>
<path d="M18.0119 14.6013C18.0885 14.7876 18.9987 14.3719 19.8386 14.4366C20.6786 14.486 21.1599 14.9958 21.2645 14.8208C21.3119 14.737 21.1882 14.5636 20.9084 14.3905C20.5369 14.18 20.1207 14.0555 19.6914 14.0264C19.2621 13.9973 18.8309 14.0644 18.4305 14.2226C18.1275 14.3565 17.9784 14.512 18.0119 14.6013Z" fill="#010101"/>
<path d="M11.7694 15.3622C11.8929 15.5219 12.4046 15.0707 12.9962 15.0723C13.5839 15.0537 14.0684 15.4927 14.1868 15.328C14.2384 15.2491 14.1619 15.0887 13.9462 14.9343C13.6552 14.7497 13.3147 14.6536 12.968 14.6583C12.6213 14.663 12.284 14.7682 11.9987 14.9606C11.7867 15.121 11.7155 15.2832 11.7694 15.3622Z" fill="#010101"/>
<circle opacity="0.2" cx="22.3868" cy="25.6162" r="3.57624" fill="url(#paint0_radial_2_7673)"/>
<path d="M16.5177 24.8488C17.0223 24.652 17.7982 24.9309 18.123 25.0949C16.7471 26.3886 15.2078 25.6339 14.7682 25.0949C15.3186 24.673 16.2693 24.7551 16.5177 24.8488Z" fill="#F89797" stroke="#010101" stroke-width="0.5"/>
<path d="M16.4267 18.2758C15.8497 20.5171 14.7017 21.4204 15.3799 21.8002C16.3651 22.3518 16.5704 21.9279 16.5498 21.6469" stroke="#010101" stroke-width="0.5"/>
<path d="M30.3424 17.7688C30.4784 8.04882 24.5602 6.35518 21.5841 6.72336C17.6726 6.05394 15.6319 7.48805 14.3564 8.50763C13.336 9.3233 13.9312 10.0937 14.3564 10.3769C14.1013 9.18736 18.9481 7.99784 17.5876 8.50763C16.4992 8.91547 17.1341 9.92372 17.5876 10.3769C18.9198 9.15903 22.1113 8.72854 24.2201 16.7493C26.3289 24.77 21.3277 32.5369 19.1736 34.0097C21.0103 34.4175 22.4898 33.8397 23 33.4999C23.6122 34.7234 21.7812 35.9922 20.7892 36.4737C23.7143 37.1534 25.636 35.1142 26.2312 34.0097C27.0475 34.5534 26.5713 35.8789 26.2312 36.4737C29.3774 35.0293 30.1723 29.9189 30.3424 17.7688Z" fill="#D6B8A7" stroke="#010101" stroke-width="0.5"/>
<defs>
<radialGradient id="paint0_radial_2_7673" cx="0" cy="0" r="1" gradientUnits="userSpaceOnUse" gradientTransform="translate(22.3868 25.6162) rotate(90) scale(3.57624)">
<stop stop-color="#FF0000"/>
<stop offset="1" stop-color="#FF0000" stop-opacity="0"/>
</radialGradient>
</defs>
</svg>
