<svg width="40" height="41" viewBox="0 0 40 41" fill="none" xmlns="http://www.w3.org/2000/svg">
<circle cx="20" cy="20" r="19.75" fill="white" stroke="#010101" stroke-width="0.5"/>
<path d="M33.9655 34.138C30.3618 37.6491 25.5172 39.8275 20.1723 39.8275C15.0509 39.8275 10.4346 38.0751 6.89648 34.9092C10.3622 33.4484 15.0153 33.4483 21.2623 33.4483C26.6453 33.4483 30.651 33.2603 33.9655 34.138Z" fill="#7BDEF3" stroke="#010101" stroke-width="0.5"/>
<path d="M11.8731 11.5914C10.4362 12.5431 12.4719 13.6118 13.6694 14.0272C13.8377 14.3293 14.3934 15.1147 15.2691 15.8398C16.3637 16.7461 18.3844 15.8398 19.7035 14.9335C21.0226 14.0271 22.5101 15.6415 24.5027 17.2559C26.4954 18.8703 24.3905 20.3997 25.5973 22.3257C26.8041 24.2516 26.7199 22.2124 26.7199 20.3997C26.7199 18.5871 26.8041 19.1819 28.1232 18.0773C29.4423 16.9727 29.6107 16.4629 30.1159 14.9335C30.6211 13.404 30.4246 12.8093 28.1232 11.5914C25.8218 10.3736 24.194 9.89208 23.2117 8.36266C22.2294 6.83324 18.3002 7.96614 16.6724 8.36266C15.0446 8.75918 17.5986 9.89208 15.9707 9.89208C14.3429 9.89208 13.6694 10.4019 11.8731 11.5914Z" fill="#493624"/>
<path fill-rule="evenodd" clip-rule="evenodd" d="M20.0857 6.67201L20.5348 6.64905C25.394 6.67392 28.0873 10.715 27.9275 15.4591L27.9041 17.1745C28.8363 17.3063 30.1109 17.8445 29.6754 19.8302C29.3779 21.1865 28.6009 21.6627 27.8412 21.7698L27.6883 32.9559C26.0917 33.9474 24.2543 34.5082 22.3633 34.5809C20.4723 34.6537 18.5953 34.2359 16.9237 33.3702L16.7982 33.3051C16.7854 31.9696 16.8188 30.7546 16.8188 30.7546C16.8188 30.7546 12.1223 30.2897 11.8183 25.7492C11.6713 23.5565 11.7448 19.018 11.8605 14.911C11.9191 12.7803 12.798 10.7492 14.3223 9.22242C15.8465 7.6956 17.9043 6.78501 20.0857 6.67201Z" fill="#FFE6CE"/>
<path d="M20.5348 6.64905L20.536 6.39866L20.522 6.39937L20.5348 6.64905ZM20.0857 6.67201L20.0729 6.42233L20.0728 6.42234L20.0857 6.67201ZM27.9275 15.4591L27.6776 15.4507L27.6776 15.4557L27.9275 15.4591ZM27.9041 17.1745L27.6541 17.1711L27.6511 17.3912L27.8691 17.4221L27.9041 17.1745ZM29.6754 19.8302L29.4312 19.7767L29.6754 19.8302ZM27.8412 21.7698L27.8064 21.5222L27.5942 21.5521L27.5913 21.7664L27.8412 21.7698ZM27.6883 32.9559L27.8202 33.1683L27.9364 33.0961L27.9383 32.9594L27.6883 32.9559ZM22.3633 34.5809L22.3537 34.3311L22.3633 34.5809ZM16.9237 33.3702L16.8086 33.5921L16.8087 33.5922L16.9237 33.3702ZM16.7982 33.3051L16.5482 33.3075L16.5496 33.4579L16.6831 33.5271L16.7982 33.3051ZM16.8188 30.7546L17.0687 30.7615L17.0751 30.5288L16.8434 30.5058L16.8188 30.7546ZM11.8183 25.7492L12.0678 25.7325L12.0678 25.7325L11.8183 25.7492ZM11.8605 14.911L12.1104 14.918L12.1104 14.9178L11.8605 14.911ZM14.3223 9.22242L14.4992 9.39905L14.3223 9.22242ZM20.522 6.39937L20.0729 6.42233L20.0985 6.92168L20.5475 6.89872L20.522 6.39937ZM28.1774 15.4676C28.2589 13.0483 27.6136 10.7911 26.3099 9.13C25.002 7.46347 23.0418 6.41188 20.536 6.39905L20.5335 6.89904C22.8869 6.91109 24.7031 7.89245 25.9166 9.4387C27.1345 10.9904 27.756 13.1258 27.6777 15.4507L28.1774 15.4676ZM28.1541 17.1779L28.1775 15.4626L27.6776 15.4557L27.6541 17.1711L28.1541 17.1779ZM27.8691 17.4221C28.313 17.4848 28.798 17.6403 29.1217 17.9797C29.4311 18.3041 29.636 18.8429 29.4312 19.7767L29.9196 19.8838C30.1503 18.8318 29.9357 18.1087 29.4836 17.6346C29.0458 17.1756 28.4274 16.996 27.9391 16.927L27.8691 17.4221ZM29.4312 19.7767C29.2911 20.4155 29.0435 20.8244 28.7619 21.0849C28.4801 21.3456 28.1465 21.4743 27.8064 21.5222L27.8761 22.0173C28.2956 21.9582 28.7304 21.7952 29.1014 21.4519C29.4726 21.1086 29.7622 20.6012 29.9196 19.8838L29.4312 19.7767ZM27.9383 32.9594L28.0912 21.7732L27.5913 21.7664L27.4383 32.9525L27.9383 32.9594ZM22.3729 34.8307C24.3069 34.7563 26.1865 34.1828 27.8202 33.1683L27.5564 32.7436C25.9969 33.712 24.2017 34.26 22.3537 34.3311L22.3729 34.8307ZM16.8087 33.5922C18.5189 34.4779 20.4389 34.9052 22.3729 34.8307L22.3537 34.3311C20.5057 34.4022 18.6716 33.9939 17.0386 33.1482L16.8087 33.5922ZM16.6831 33.5271L16.8086 33.5921L17.0387 33.1482L16.9132 33.0832L16.6831 33.5271ZM16.8188 30.7546C16.5689 30.7478 16.5689 30.7478 16.5689 30.7478C16.5689 30.7478 16.5689 30.7478 16.5689 30.7478C16.5689 30.7479 16.5689 30.7479 16.5688 30.748C16.5688 30.7482 16.5688 30.7484 16.5688 30.7487C16.5688 30.7493 16.5688 30.7502 16.5688 30.7514C16.5687 30.7538 16.5686 30.7574 16.5685 30.7621C16.5682 30.7714 16.5679 30.7852 16.5674 30.8032C16.5665 30.8393 16.5653 30.8922 16.5638 30.9599C16.5609 31.0952 16.5571 31.2894 16.5537 31.5255C16.547 31.9974 16.5418 32.6371 16.5482 33.3075L17.0482 33.3027C17.0418 32.6376 17.0469 32.0021 17.0537 31.5326C17.057 31.298 17.0608 31.105 17.0637 30.9707C17.0652 30.9036 17.0664 30.8512 17.0673 30.8156C17.0677 30.7978 17.0681 30.7842 17.0683 30.7751C17.0684 30.7706 17.0685 30.7671 17.0686 30.7648C17.0686 30.7637 17.0686 30.7628 17.0686 30.7623C17.0687 30.762 17.0687 30.7618 17.0687 30.7617C17.0687 30.7616 17.0687 30.7615 17.0687 30.7615C17.0687 30.7615 17.0687 30.7615 17.0687 30.7615C17.0687 30.7615 17.0687 30.7615 16.8188 30.7546ZM11.5689 25.7659C11.7278 28.1397 13.043 29.4577 14.3097 30.1723C14.9397 30.5278 15.558 30.7348 16.0179 30.8531C16.2482 30.9124 16.44 30.9497 16.5751 30.9723C16.6427 30.9836 16.6963 30.9913 16.7335 30.9962C16.7521 30.9986 16.7666 31.0003 16.7768 31.0015C16.7819 31.0021 16.786 31.0025 16.7889 31.0028C16.7903 31.003 16.7915 31.0031 16.7923 31.0032C16.7928 31.0033 16.7932 31.0033 16.7935 31.0033C16.7936 31.0033 16.7938 31.0034 16.7938 31.0034C16.794 31.0034 16.7941 31.0034 16.8188 30.7546C16.8434 30.5058 16.8435 30.5058 16.8436 30.5058C16.8436 30.5058 16.8436 30.5058 16.8436 30.5059C16.8437 30.5059 16.8436 30.5058 16.8435 30.5058C16.8432 30.5058 16.8427 30.5058 16.8419 30.5057C16.8402 30.5055 16.8375 30.5052 16.8337 30.5048C16.8261 30.5039 16.8143 30.5025 16.7984 30.5004C16.7667 30.4962 16.719 30.4895 16.6576 30.4792C16.5347 30.4586 16.3572 30.4242 16.1425 30.3689C15.7123 30.2582 15.1374 30.0652 14.5554 29.7368C13.3979 29.0839 12.2128 27.8992 12.0678 25.7325L11.5689 25.7659ZM11.6106 14.9039C11.495 19.0074 11.4209 23.5589 11.5689 25.766L12.0678 25.7325C11.9217 23.5541 11.9946 19.0286 12.1104 14.918L11.6106 14.9039ZM14.1453 9.04579C12.5766 10.6172 11.6709 12.7087 11.6106 14.9041L12.1104 14.9178C12.1672 12.8518 13.0194 10.8813 14.4992 9.39905L14.1453 9.04579ZM20.0728 6.42234C17.8304 6.5385 15.7139 7.47456 14.1453 9.04579L14.4992 9.39905C15.9791 7.91663 17.9782 7.03152 20.0986 6.92167L20.0728 6.42234Z" fill="#010101"/>
<path d="M13.0586 16.8646C13.0674 17.0484 13.1539 17.2218 13.2996 17.3479C13.4453 17.4739 13.6388 17.5427 13.8388 17.5395C13.9368 17.5419 14.0342 17.5262 14.1255 17.4934C14.2167 17.4606 14.2999 17.4114 14.3702 17.3486C14.4405 17.2858 14.4964 17.2108 14.5346 17.1278C14.5729 17.0449 14.5928 16.9557 14.593 16.8656C14.5845 16.6816 14.4982 16.5079 14.3524 16.3816C14.2067 16.2553 14.013 16.1864 13.8128 16.1896C13.7148 16.1872 13.6172 16.2029 13.5259 16.2358C13.4346 16.2686 13.3513 16.3179 13.281 16.3808C13.2107 16.4437 13.1549 16.5189 13.1167 16.602C13.0785 16.6851 13.0587 16.7744 13.0586 16.8646Z" fill="#010101"/>
<path d="M19.707 16.8646C19.7149 17.0484 19.7917 17.2218 19.9213 17.3479C20.0508 17.4739 20.2228 17.5427 20.4006 17.5395C20.4876 17.5419 20.5742 17.5262 20.6554 17.4934C20.7365 17.4606 20.8104 17.4114 20.8729 17.3486C20.9354 17.2858 20.9851 17.2108 21.0191 17.1278C21.0531 17.0449 21.0707 16.9557 21.071 16.8656C21.0631 16.6817 20.9863 16.5082 20.8568 16.3819C20.7273 16.2557 20.5553 16.1867 20.3774 16.1896C20.2903 16.1871 20.2035 16.2027 20.1223 16.2355C20.041 16.2683 19.9669 16.3176 19.9044 16.3805C19.8419 16.4435 19.7923 16.5187 19.7584 16.6019C19.7245 16.685 19.707 16.7743 19.707 16.8646Z" fill="#010101"/>
<path d="M17.649 22.2052C17.648 22.2455 17.1987 22.2656 16.4631 22.2656C16.3574 22.2693 16.2516 22.2603 16.1482 22.2387C16.0796 22.2241 16.0155 22.1944 15.9607 22.1518C15.9059 22.1092 15.8619 22.055 15.8322 21.9933C15.7236 21.7306 15.8302 21.4938 15.8885 21.2876C16.0307 20.8428 15.9922 19.5462 16.1482 19.0591C16.7979 17.083 17.5789 16.3336 17.6608 16.3585" stroke="#010101" stroke-width="0.5" stroke-linecap="round"/>
<path d="M19.3657 14.1548C19.393 14.3544 20.3803 14.1762 21.1783 14.4465C21.9803 14.7019 22.3184 15.3151 22.464 15.1712C22.531 15.1018 22.4548 14.903 22.2272 14.6661C21.92 14.3702 21.5479 14.1467 21.139 14.0124C20.7301 13.8782 20.2951 13.8367 19.867 13.8912C19.5395 13.9461 19.3557 14.0599 19.3657 14.1548Z" fill="#514438" stroke="#514438" stroke-width="0.5"/>
<path d="M12.6085 14.8958C12.7176 15.0657 13.2677 14.66 13.8576 14.7128C14.4454 14.745 14.8899 15.2247 15.0224 15.0707C15.0809 14.9964 15.0187 14.8299 14.8172 14.6572C14.5432 14.4479 14.2122 14.3227 13.866 14.2974C13.5198 14.2721 13.1741 14.3479 12.8726 14.5151C12.647 14.6567 12.5617 14.8123 12.6085 14.8958Z" fill="#514438" stroke="#514438" stroke-width="0.5"/>
<path d="M16.896 24.5167C16.896 24.8976 16.5101 25.2064 16.0339 25.2064C15.5578 25.2064 15.1719 24.8976 15.1719 24.5167" stroke="#010101" stroke-width="0.5"/>
<path d="M13.2904 10.8213C12.093 10.4059 10.0573 9.33715 11.4942 8.38551C13.2904 7.19596 13.964 6.68615 15.5918 6.68615C17.2196 6.68615 16.2688 5.81095 17.8966 5.41444C19.5245 5.01792 20.8277 4.72489 23.069 5.41445C24.8064 5.94894 25.5164 7.03795 27.7443 8.38551C28.7421 8.98905 29.4655 10.3695 29.5798 11.666C30.1801 12.1549 30.5025 12.8414 30.6211 13.5527C31.1211 16.5527 30.1211 18.0527 30.1211 20.0527C30.1211 22.0527 31.6211 23.5527 30.1211 26.0527C28.6211 28.5527 27.1211 25.0527 26.6211 22.5527C26.1211 20.0527 28.1211 22.0527 28.6211 19.0527C28.6211 18.9241 27.9558 17.7422 27.6526 17.0261C27.6422 17.035 27.6317 17.0439 27.6211 17.0527C27.5809 17.0864 27.5423 17.1195 27.5051 17.1521C26.874 17.7056 26.6646 18.1141 26.6065 18.4255C26.5949 18.5774 26.5953 18.7252 26.6031 18.8574C26.6119 18.9296 26.6211 18.9941 26.6211 19.0527C26.6211 20.6045 26.1725 20.9979 25.4828 19.8973C24.276 17.9714 26.1165 15.6644 24.1238 14.05C22.1312 12.4356 20.6437 10.8212 19.3246 11.7275C18.0055 12.6338 16.7498 12.5277 15.6553 11.6214C14.7796 10.8963 13.4588 11.1233 13.2904 10.8213Z" fill="#493624"/>
<path d="M13.6623 25.9904C13.2412 23.2898 14.9498 22.5689 15.8568 22.546C17.5115 22.7934 17.6731 24.0195 17.547 24.6016C17.2948 28.3032 16.9287 27.1395 16.7772 26.095L16.8282 24.5775C16.8398 24.2314 16.6548 23.5483 15.8219 23.5843C14.989 23.6203 14.6016 24.2096 14.512 24.4998C14.4042 26.1219 14.0834 28.6911 13.6623 25.9904Z" fill="#493624"/>
<path d="M22.0878 25.1539C25.1804 24.4901 26.0308 20.4355 26.0694 18.4912C27.1414 22.2851 25.7772 27.1966 24.5444 28.1947C23.3116 29.1927 19.962 31.3191 14.9331 31.0704C9.90417 30.8216 11.0079 24.1423 11.9448 24.8134C12.6944 25.3503 13.7051 26.365 14.1167 26.8053C15.0391 26.0047 16.3646 26.5343 16.9121 26.8991C17.3487 26.5939 18.9952 25.8176 22.0878 25.1539Z" fill="#493624"/>
</svg>
