<svg width="40" height="41" viewBox="0 0 40 41" fill="none" xmlns="http://www.w3.org/2000/svg">
<circle cx="20" cy="20" r="19.75" transform="matrix(-1 0 0 1 40 0)" fill="white" stroke="#010101" stroke-width="0.5"/>
<path d="M6.03455 34.1549C9.63816 37.6659 14.4828 39.8444 19.8277 39.8444C24.9491 39.8444 29.5654 38.0919 33.1035 34.926C29.6378 33.4652 24.9847 33.4652 18.7377 33.4652C13.3547 33.4652 9.34898 33.2771 6.03455 34.1549Z" fill="#F3A307" stroke="#010101" stroke-width="0.5"/>
<path d="M26.5865 35.1071C25.3206 35.3276 16.9597 30.4498 23.841 22.3481C26.4045 19.33 25.6175 28.7551 28.0026 28.4999C29.8272 29.1391 29.9971 34.5132 26.5865 35.1071Z" fill="#010101"/>
<path fill-rule="evenodd" clip-rule="evenodd" d="M19.959 6.69103L19.5105 6.66809C14.6569 6.69294 11.9666 10.7293 12.1262 15.4681L12.1497 17.1817C11.2185 17.3134 9.94529 17.8509 10.3804 19.8344C10.6775 21.1891 11.4536 21.6648 12.2124 21.7717L12.3652 32.9448C13.9599 33.9351 15.7952 34.4952 17.6841 34.5679C19.5729 34.6406 21.4477 34.2233 23.1174 33.3585L23.2428 33.2936C23.2555 31.9596 23.2222 30.746 23.2222 30.746C23.2222 30.746 27.9133 30.2815 28.2169 25.7463C28.3638 23.5561 28.2904 19.0228 28.1748 14.9205C28.1163 12.7923 27.2384 10.7636 25.7159 9.2385C24.1933 7.71344 22.138 6.8039 19.959 6.69103Z" fill="#EFC7B2"/>
<path d="M19.5105 6.66809L19.5092 6.4177L19.5233 6.41842L19.5105 6.66809ZM19.959 6.69103L19.9718 6.44135L19.972 6.44136L19.959 6.69103ZM12.1262 15.4681L12.3761 15.4597L12.3762 15.4647L12.1262 15.4681ZM12.1497 17.1817L12.3996 17.1783L12.4026 17.3984L12.1847 17.4292L12.1497 17.1817ZM10.3804 19.8344L10.1362 19.8879L10.3804 19.8344ZM12.2124 21.7717L12.2473 21.5241L12.4595 21.554L12.4624 21.7683L12.2124 21.7717ZM12.3652 32.9448L12.2333 33.1571L12.1171 33.085L12.1152 32.9482L12.3652 32.9448ZM23.1174 33.3585L23.2325 33.5805L23.2324 33.5805L23.1174 33.3585ZM23.2428 33.2936L23.4928 33.2959L23.4914 33.4463L23.3578 33.5155L23.2428 33.2936ZM23.2222 30.746L22.9723 30.7528L22.9659 30.5201L23.1976 30.4972L23.2222 30.746ZM28.2169 25.7463L27.9675 25.7296L27.9675 25.7296L28.2169 25.7463ZM28.1748 14.9205L27.9249 14.9276L27.9249 14.9274L28.1748 14.9205ZM25.7159 9.2385L25.8928 9.06188L25.7159 9.2385ZM19.5233 6.41842L19.9718 6.44135L19.9463 6.9407L19.4977 6.91776L19.5233 6.41842ZM11.8764 15.4765C11.795 13.0599 12.4395 10.8053 13.7417 9.14602C15.0482 7.48133 17.0062 6.43091 19.5092 6.41809L19.5118 6.91809C17.1611 6.93012 15.3472 7.91031 14.135 9.45472C12.9187 11.0046 12.2979 13.1375 12.3761 15.4597L11.8764 15.4765ZM11.8997 17.1851L11.8762 15.4715L12.3762 15.4647L12.3996 17.1783L11.8997 17.1851ZM12.1847 17.4292C11.7413 17.4919 11.2569 17.6472 10.9336 17.9861C10.6247 18.3101 10.42 18.8482 10.6246 19.7808L10.1362 19.8879C9.90566 18.837 10.1201 18.1147 10.5718 17.6411C11.0091 17.1825 11.6269 17.0031 12.1147 16.9342L12.1847 17.4292ZM10.6246 19.7808C10.7645 20.4189 11.0118 20.8272 11.293 21.0874C11.5744 21.3478 11.9076 21.4763 12.2473 21.5241L12.1775 22.0192C11.7584 21.9602 11.3241 21.7974 10.9535 21.4544C10.5827 21.1114 10.2934 20.6046 10.1362 19.8879L10.6246 19.7808ZM12.1152 32.9482L11.9624 21.7751L12.4624 21.7683L12.6152 32.9413L12.1152 32.9482ZM17.6745 34.8177C15.7426 34.7434 13.8651 34.1705 12.2333 33.1571L12.4971 32.7324C14.0547 33.6997 15.8478 34.247 17.6937 34.3181L17.6745 34.8177ZM23.2324 33.5805C21.5241 34.4653 19.6063 34.892 17.6745 34.8177L17.6937 34.3181C19.5395 34.3891 21.3714 33.9813 23.0025 33.1365L23.2324 33.5805ZM23.3578 33.5155L23.2325 33.5805L23.0024 33.1366L23.1277 33.0716L23.3578 33.5155ZM23.2222 30.746C23.4721 30.7391 23.4721 30.7391 23.4721 30.7391C23.4721 30.7391 23.4721 30.7392 23.4721 30.7392C23.4721 30.7392 23.4721 30.7393 23.4721 30.7394C23.4721 30.7395 23.4722 30.7398 23.4722 30.7401C23.4722 30.7407 23.4722 30.7416 23.4722 30.7428C23.4723 30.7452 23.4724 30.7487 23.4725 30.7534C23.4728 30.7627 23.4731 30.7765 23.4736 30.7945C23.4745 30.8306 23.4757 30.8834 23.4772 30.951C23.4801 31.0862 23.4839 31.2802 23.4873 31.5159C23.494 31.9873 23.4992 32.6263 23.4928 33.2959L22.9928 33.2912C22.9992 32.6268 22.994 31.992 22.9873 31.5231C22.984 31.2887 22.9802 31.0959 22.9773 30.9619C22.9758 30.8948 22.9746 30.8425 22.9737 30.8069C22.9733 30.7891 22.9729 30.7756 22.9727 30.7664C22.9726 30.7619 22.9725 30.7585 22.9724 30.7562C22.9724 30.755 22.9724 30.7542 22.9723 30.7536C22.9723 30.7533 22.9723 30.7531 22.9723 30.753C22.9723 30.7529 22.9723 30.7529 22.9723 30.7529C22.9723 30.7528 22.9723 30.7528 22.9723 30.7528C22.9723 30.7528 22.9723 30.7528 23.2222 30.746ZM28.4663 25.763C28.3076 28.1342 26.9939 29.4508 25.7286 30.1646C25.0992 30.5196 24.4816 30.7264 24.0223 30.8446C23.7922 30.9039 23.6006 30.9411 23.4656 30.9637C23.3981 30.975 23.3446 30.9827 23.3074 30.9875C23.2889 30.99 23.2743 30.9917 23.2641 30.9929C23.259 30.9935 23.255 30.9939 23.2521 30.9942C23.2507 30.9944 23.2495 30.9945 23.2486 30.9946C23.2482 30.9946 23.2478 30.9946 23.2475 30.9947C23.2474 30.9947 23.2472 30.9947 23.2471 30.9947C23.247 30.9947 23.2469 30.9947 23.2222 30.746C23.1976 30.4972 23.1975 30.4972 23.1974 30.4972C23.1974 30.4972 23.1974 30.4972 23.1974 30.4972C23.1973 30.4972 23.1974 30.4972 23.1975 30.4972C23.1978 30.4972 23.1983 30.4971 23.1991 30.497C23.2008 30.4968 23.2035 30.4965 23.2073 30.4961C23.2148 30.4952 23.2267 30.4938 23.2425 30.4918C23.2742 30.4876 23.3218 30.4808 23.3831 30.4706C23.5059 30.45 23.6832 30.4156 23.8976 30.3604C24.3274 30.2498 24.9015 30.0571 25.4829 29.7291C26.639 29.0769 27.8226 27.8937 27.9675 25.7296L28.4663 25.763ZM28.4247 14.9135C28.5402 19.0122 28.6142 23.5585 28.4663 25.7631L27.9675 25.7296C28.1134 23.5538 28.0406 19.0335 27.9249 14.9276L28.4247 14.9135ZM25.8928 9.06188C27.4598 10.6315 28.3644 12.7207 28.4247 14.9137L27.9249 14.9274C27.8682 12.8638 27.017 10.8956 25.5389 9.41513L25.8928 9.06188ZM19.972 6.44136C22.2119 6.55739 24.3259 7.4924 25.8928 9.06188L25.5389 9.41513C24.0608 7.93447 22.0641 7.0504 19.9461 6.94069L19.972 6.44136Z" fill="#010101"/>
<path d="M19.6797 16.9814C19.6872 17.1489 19.7612 17.3069 19.8858 17.4218C20.0104 17.5367 20.1758 17.5994 20.3469 17.5965C20.4306 17.5987 20.514 17.5844 20.592 17.5545C20.67 17.5246 20.7412 17.4798 20.8013 17.4225C20.8614 17.3653 20.9092 17.2969 20.9419 17.2213C20.9746 17.1457 20.9916 17.0644 20.9918 16.9823C20.9845 16.8146 20.9107 16.6563 20.7861 16.5412C20.6614 16.4261 20.4958 16.3633 20.3246 16.3662C20.2408 16.364 20.1574 16.3783 20.0793 16.4083C20.0012 16.4382 19.93 16.4832 19.8699 16.5405C19.8098 16.5978 19.762 16.6664 19.7293 16.7421C19.6967 16.8178 19.6798 16.8991 19.6797 16.9814Z" fill="#010101"/>
<path d="M25.9648 16.9815C25.9724 17.149 26.0463 17.3071 26.1709 17.422C26.2955 17.5369 26.461 17.5995 26.632 17.5967C26.7158 17.5988 26.7991 17.5845 26.8772 17.5546C26.9552 17.5248 27.0263 17.4799 27.0864 17.4227C27.1465 17.3654 27.1943 17.297 27.2271 17.2214C27.2598 17.1458 27.2768 17.0646 27.277 16.9824C27.2695 16.8148 27.1955 16.6567 27.071 16.5416C26.9464 16.4266 26.7809 16.3637 26.6098 16.3663C26.5259 16.364 26.4425 16.3783 26.3643 16.4082C26.2861 16.4381 26.2149 16.483 26.1548 16.5404C26.0946 16.5977 26.0468 16.6663 26.0142 16.7421C25.9816 16.8178 25.9648 16.8992 25.9648 16.9815Z" fill="#010101"/>
<path d="M21.9879 14.6015C21.9113 14.7879 21.001 14.3721 20.1612 14.4368C19.3211 14.4862 18.8399 14.996 18.7353 14.821C18.6879 14.7373 18.8116 14.5638 19.0913 14.3908C19.4629 14.1802 19.879 14.0557 20.3084 14.0266C20.7377 13.9976 21.1688 14.0647 21.5693 14.2229C21.8722 14.3567 22.0214 14.5122 21.9879 14.6015Z" fill="#010101"/>
<path d="M28.2306 15.3624C28.1071 15.5221 27.5954 15.071 27.0038 15.0726C26.4161 15.0539 25.9316 15.493 25.8132 15.3282C25.7616 15.2493 25.8381 15.0889 26.0538 14.9345C26.3448 14.7499 26.6853 14.6539 27.032 14.6586C27.3787 14.6632 27.716 14.7685 28.0013 14.9609C28.2133 15.1213 28.2845 15.2834 28.2306 15.3624Z" fill="#010101"/>
<circle opacity="0.2" cx="3.57624" cy="3.57624" r="3.57624" transform="matrix(-1 0 0 1 21.1523 21.0001)" fill="url(#paint0_radial_2_7601)"/>
<path d="M22.6973 25.3683C22.9153 25.2143 23.8058 24.6843 24.2059 25.2262C24.3726 25.1382 24.8916 24.4266 24.9488 25.3683" stroke="#010101" stroke-width="0.32951"/>
<path d="M25.0293 25.7706C24.6748 26.256 23.0367 26.1315 21.5715 24.9664" stroke="#010101" stroke-width="0.32951"/>
<path d="M23.5733 18.2761C24.1503 20.5175 25.2983 21.4208 24.6201 21.8005C23.6349 22.3522 23.4296 21.9282 23.4502 21.6473" stroke="#010101" stroke-width="0.33"/>
<path d="M8.58084 17.596C11.1281 8.12932 15.2323 6.15216 18.5 6.49995C22.7947 5.86761 24.7327 7.88475 26.1331 8.84785C27.2535 9.61834 29.6466 12.8704 26.1331 10.6135C26.1331 13.9962 22.4094 11.8197 17.9063 12.0663C13.4031 12.3128 18.9631 18.8271 15.5743 18.4189C14.5078 18.2905 14.3597 17.596 14.3597 17.596C11.3124 16.8911 11.634 21.4746 13.7248 21.4746C14.5289 21.4746 14.3808 32.356 16.6407 33.1602C18.0078 34.5272 15.1045 37.9046 12.5 38.5001C11.2474 38.7865 4.07515 34.3408 8.58084 17.596Z" fill="#010101"/>
<defs>
<radialGradient id="paint0_radial_2_7601" cx="0" cy="0" r="1" gradientUnits="userSpaceOnUse" gradientTransform="translate(3.57624 3.57624) rotate(90) scale(3.57624)">
<stop stop-color="#FF0000"/>
<stop offset="1" stop-color="#FF0000" stop-opacity="0"/>
</radialGradient>
</defs>
</svg>
