<svg width="166" height="172" viewBox="0 0 166 172" fill="none" xmlns="http://www.w3.org/2000/svg">
<path d="M55.1477 0.471591H109.852C117.405 0.471591 123.528 6.59461 123.528 14.1477V157.852C123.528 165.405 117.405 171.528 109.852 171.528H55.1477C47.5946 171.528 41.4716 165.405 41.4716 157.852V14.1477C41.4716 6.5946 47.5946 0.471591 55.1477 0.471591Z" fill="white" stroke="#010101" stroke-width="0.943182"/>
<path d="M57.0355 8.93058H59.8651C64.2928 8.93058 67.8821 12.5199 67.8821 16.9476V29.107C67.8821 33.5346 64.2927 37.124 59.8651 37.124H57.0355C52.6078 37.124 49.0185 33.5346 49.0185 29.107V23.0273V16.9476C49.0185 12.5199 52.6078 8.93058 57.0355 8.93058Z" stroke="#010101" stroke-width="0.943182"/>
<g clip-path="url(#clip0_2_6139)">
<mask id="path-3-outside-1_2_6139" maskUnits="userSpaceOnUse" x="51.8107" y="52.5468" width="47.9629" height="74.745" fill="black">
<rect fill="white" x="51.8107" y="52.5468" width="47.9629" height="74.745"/>
<path fill-rule="evenodd" clip-rule="evenodd" d="M64.3662 75.6745C64.3456 75.6101 64.3267 75.5443 64.3097 75.4773C62.3281 67.6541 67.3885 57.4899 67.3885 57.4899C67.3885 57.4899 76.9254 64.0185 78.8923 71.7835C78.9222 71.9015 78.9452 72.0186 78.9615 72.1348L86.1506 100.517C86.1548 100.531 86.1586 100.545 86.1622 100.559C86.1662 100.575 86.1699 100.591 86.1732 100.607L86.4637 101.753L86.4624 101.754C86.6298 102.494 86.0861 103.343 85.0538 104.143C85.2388 104.603 85.4276 105.121 85.6207 105.702C87.2459 110.588 87.2529 118.516 87.2529 118.516C86.6688 116.76 85.9793 115.479 85.2582 114.394C85.779 118.298 85.7822 122.001 85.7822 122.001C84.83 119.138 83.5979 117.538 82.4049 115.989L82.4048 115.989L82.4048 115.989L82.4047 115.989L82.4046 115.988L82.4045 115.988L82.4045 115.988L82.4044 115.988L82.4037 115.987C82.2546 115.794 82.1061 115.601 81.9588 115.406C82.0798 117.383 82.081 118.775 82.081 118.775C81.1288 115.912 79.8967 114.312 78.7037 112.763C77.5843 111.31 76.4995 109.901 75.7127 107.536C75.65 107.347 75.591 107.164 75.5354 106.987C73.5571 106.931 72.1374 106.38 71.8924 105.413C71.8884 105.397 71.8848 105.381 71.8815 105.366L64.6561 76.8408L64.6563 76.8408L64.3612 75.6758L64.3662 75.6745ZM63.6776 103.181L70.8523 101.364L66.7564 85.1938C66.7564 85.1938 61.696 95.358 63.6776 103.181ZM85.4346 97.6699L92.6093 95.8525C90.6277 88.0293 81.3388 81.4999 81.3388 81.4999L85.4346 97.6699Z"/>
</mask>
<path fill-rule="evenodd" clip-rule="evenodd" d="M64.3662 75.6745C64.3456 75.6101 64.3267 75.5443 64.3097 75.4773C62.3281 67.6541 67.3885 57.4899 67.3885 57.4899C67.3885 57.4899 76.9254 64.0185 78.8923 71.7835C78.9222 71.9015 78.9452 72.0186 78.9615 72.1348L86.1506 100.517C86.1548 100.531 86.1586 100.545 86.1622 100.559C86.1662 100.575 86.1699 100.591 86.1732 100.607L86.4637 101.753L86.4624 101.754C86.6298 102.494 86.0861 103.343 85.0538 104.143C85.2388 104.603 85.4276 105.121 85.6207 105.702C87.2459 110.588 87.2529 118.516 87.2529 118.516C86.6688 116.76 85.9793 115.479 85.2582 114.394C85.779 118.298 85.7822 122.001 85.7822 122.001C84.83 119.138 83.5979 117.538 82.4049 115.989L82.4048 115.989L82.4048 115.989L82.4047 115.989L82.4046 115.988L82.4045 115.988L82.4045 115.988L82.4044 115.988L82.4037 115.987C82.2546 115.794 82.1061 115.601 81.9588 115.406C82.0798 117.383 82.081 118.775 82.081 118.775C81.1288 115.912 79.8967 114.312 78.7037 112.763C77.5843 111.31 76.4995 109.901 75.7127 107.536C75.65 107.347 75.591 107.164 75.5354 106.987C73.5571 106.931 72.1374 106.38 71.8924 105.413C71.8884 105.397 71.8848 105.381 71.8815 105.366L64.6561 76.8408L64.6563 76.8408L64.3612 75.6758L64.3662 75.6745ZM63.6776 103.181L70.8523 101.364L66.7564 85.1938C66.7564 85.1938 61.696 95.358 63.6776 103.181ZM85.4346 97.6699L92.6093 95.8525C90.6277 88.0293 81.3388 81.4999 81.3388 81.4999L85.4346 97.6699Z" fill="#8C8C8C"/>
<path d="M64.3097 75.4773L64.6733 75.3852L64.6733 75.3852L64.3097 75.4773ZM64.3662 75.6745L64.4582 76.038L64.8448 75.9401L64.7234 75.5603L64.3662 75.6745ZM67.3885 57.4899L67.6004 57.1805L67.2449 56.9371L67.0528 57.3228L67.3885 57.4899ZM78.8923 71.7835L78.5288 71.8756L78.8923 71.7835ZM78.9615 72.1348L78.5901 72.1869L78.593 72.2071L78.598 72.2269L78.9615 72.1348ZM86.1506 100.517L85.7869 100.609L85.7907 100.622L86.1506 100.517ZM86.1732 100.607L85.8063 100.684L85.8078 100.692L85.8097 100.699L86.1732 100.607ZM86.4637 101.753L86.5558 102.117L86.9193 102.025L86.8272 101.661L86.4637 101.753ZM86.4624 101.754L86.3703 101.39L86.0159 101.48L86.0966 101.837L86.4624 101.754ZM85.0538 104.143L84.8243 103.846L84.6003 104.019L84.7058 104.282L85.0538 104.143ZM85.6207 105.702L85.2649 105.82L85.6207 105.702ZM87.2529 118.516L86.8971 118.635L87.6279 118.516L87.2529 118.516ZM85.2582 114.394L85.5705 114.186L84.8865 114.443L85.2582 114.394ZM85.7822 122.001L85.4264 122.119L86.1572 122L85.7822 122.001ZM82.4049 115.989L82.1064 116.216L82.1078 116.218L82.4049 115.989ZM82.4048 115.989L82.1063 116.216L82.4048 115.989ZM82.4048 115.989L82.7033 115.762L82.4048 115.989ZM82.4047 115.989L82.1062 116.215L82.4047 115.989ZM82.4046 115.988L82.7032 115.761L82.4046 115.988ZM82.4045 115.988L82.106 116.215L82.4045 115.988ZM82.4045 115.988L82.7031 115.761L82.6982 115.755L82.4045 115.988ZM82.4044 115.988L82.1073 116.217L82.1107 116.221L82.4044 115.988ZM82.4037 115.987L82.1066 116.216L82.1066 116.216L82.4037 115.987ZM81.9588 115.406L82.2578 115.18L81.5088 114.191L81.5845 115.429L81.9588 115.406ZM82.081 118.775L81.7252 118.893L82.456 118.775L82.081 118.775ZM78.7037 112.763L79.0008 112.534L78.7037 112.763ZM75.7127 107.536L76.0685 107.417L75.7127 107.536ZM75.5354 106.987L75.8933 106.875L75.8133 106.62L75.5459 106.612L75.5354 106.987ZM71.8815 105.366L72.2484 105.288L72.2468 105.281L72.245 105.274L71.8815 105.366ZM64.6561 76.8408L64.5641 76.4773L64.2005 76.5694L64.2926 76.9329L64.6561 76.8408ZM64.6563 76.8408L64.7484 77.2043L65.1119 77.1122L65.0198 76.7487L64.6563 76.8408ZM64.3612 75.6758L64.2691 75.3122L63.9056 75.4043L63.9977 75.7678L64.3612 75.6758ZM70.8523 101.364L70.9443 101.727L71.3079 101.635L71.2158 101.272L70.8523 101.364ZM63.6776 103.181L63.3141 103.273L63.4062 103.637L63.7697 103.545L63.6776 103.181ZM66.7564 85.1938L67.1199 85.1018L66.8716 84.1212L66.4207 85.0267L66.7564 85.1938ZM92.6093 95.8525L92.7013 96.216L93.0649 96.124L92.9728 95.7604L92.6093 95.8525ZM85.4346 97.6699L85.0711 97.7619L85.1632 98.1254L85.5267 98.0334L85.4346 97.6699ZM81.3388 81.4999L81.5545 81.1931L80.7269 80.6114L80.9753 81.5919L81.3388 81.4999ZM63.9462 75.5693C63.9651 75.6437 63.986 75.7169 64.009 75.7887L64.7234 75.5603C64.7051 75.5033 64.6884 75.4449 64.6733 75.3852L63.9462 75.5693ZM67.3885 57.4899C67.0528 57.3228 67.0528 57.3229 67.0527 57.3231C67.0527 57.3232 67.0526 57.3234 67.0525 57.3236C67.0523 57.324 67.052 57.3246 67.0516 57.3253C67.0509 57.3267 67.0499 57.3288 67.0486 57.3314C67.0459 57.3368 67.0421 57.3445 67.0372 57.3547C67.0272 57.375 67.0127 57.4049 66.994 57.444C66.9566 57.5221 66.9023 57.637 66.8341 57.7856C66.6978 58.0828 66.5059 58.5148 66.2821 59.0573C65.8348 60.1419 65.2591 61.6701 64.7458 63.4458C63.7228 66.984 62.9305 71.5596 63.9462 75.5693L64.6733 75.3852C63.7073 71.5718 64.4545 67.1536 65.4663 63.6541C65.9703 61.9107 66.5359 60.409 66.9755 59.3433C67.1952 58.8107 67.3831 58.3876 67.5158 58.0983C67.5822 57.9537 67.6347 57.8426 67.6704 57.768C67.6882 57.7307 67.7019 57.7026 67.711 57.684C67.7156 57.6747 67.719 57.6677 67.7212 57.6632C67.7223 57.661 67.7231 57.6594 67.7236 57.6583C67.7239 57.6578 67.7241 57.6574 67.7242 57.6572C67.7242 57.6571 67.7242 57.6571 67.7243 57.657C67.7243 57.657 67.7242 57.6571 67.3885 57.4899ZM79.2558 71.6914C78.2467 67.7074 75.3103 64.0744 72.6666 61.4583C71.3396 60.1451 70.0752 59.0772 69.1424 58.3375C68.6758 57.9675 68.2917 57.6793 68.0237 57.483C67.8896 57.3849 67.7845 57.3098 67.7126 57.2589C67.6766 57.2335 67.6489 57.2142 67.6301 57.201C67.6206 57.1945 67.6134 57.1895 67.6084 57.186C67.6059 57.1843 67.604 57.183 67.6027 57.1821C67.602 57.1816 67.6015 57.1813 67.6011 57.181C67.6009 57.1809 67.6007 57.1807 67.6006 57.1807C67.6005 57.1806 67.6004 57.1805 67.3885 57.4899C67.1767 57.7994 67.1767 57.7994 67.1767 57.7994C67.1767 57.7994 67.1768 57.7994 67.1769 57.7995C67.1771 57.7996 67.1774 57.7999 67.1779 57.8002C67.1789 57.8009 67.1804 57.8019 67.1825 57.8034C67.1867 57.8063 67.1932 57.8108 67.2019 57.8168C67.2192 57.8288 67.2453 57.8471 67.2797 57.8714C67.3484 57.92 67.4501 57.9927 67.5807 58.0882C67.8418 58.2794 68.2182 58.5618 68.6764 58.9252C69.5933 59.6522 70.836 60.7019 72.1391 61.9914C74.7556 64.5807 77.5711 68.0946 78.5288 71.8756L79.2558 71.6914ZM79.3328 72.0826C79.3146 71.9528 79.289 71.8224 79.2558 71.6914L78.5288 71.8756C78.5554 71.9806 78.5757 72.0844 78.5901 72.1869L79.3328 72.0826ZM86.5141 100.425L79.325 72.0427L78.598 72.2269L85.7871 100.609L86.5141 100.425ZM86.5258 100.467C86.521 100.449 86.5159 100.43 86.5105 100.412L85.7907 100.622C85.7936 100.632 85.7962 100.642 85.7987 100.652L86.5258 100.467ZM86.5402 100.53C86.5358 100.509 86.531 100.488 86.5258 100.467L85.7987 100.652C85.8015 100.662 85.804 100.673 85.8063 100.684L86.5402 100.53ZM86.8272 101.661L86.5368 100.515L85.8097 100.699L86.1002 101.846L86.8272 101.661ZM86.5544 102.117L86.5558 102.117L86.3716 101.39L86.3703 101.39L86.5544 102.117ZM85.2834 104.439C85.8218 104.022 86.2533 103.577 86.5291 103.12C86.8057 102.661 86.9396 102.164 86.8281 101.671L86.0966 101.837C86.1525 102.084 86.0983 102.381 85.8868 102.732C85.6745 103.084 85.3181 103.464 84.8243 103.846L85.2834 104.439ZM85.9766 105.583C85.7815 104.997 85.5901 104.472 85.4018 104.003L84.7058 104.282C84.8875 104.735 85.0738 105.245 85.2649 105.82L85.9766 105.583ZM87.2529 118.516C87.6279 118.516 87.6279 118.516 87.6279 118.516C87.6279 118.516 87.6279 118.515 87.6279 118.515C87.6279 118.515 87.6279 118.515 87.6279 118.514C87.6279 118.513 87.6279 118.511 87.6279 118.509C87.6279 118.505 87.6279 118.499 87.6278 118.492C87.6278 118.476 87.6276 118.453 87.6274 118.423C87.627 118.363 87.6261 118.274 87.6244 118.16C87.621 117.932 87.6143 117.601 87.6012 117.189C87.575 116.365 87.5231 115.215 87.4201 113.912C87.2147 111.313 86.8042 108.071 85.9766 105.583L85.2649 105.82C86.0625 108.218 86.468 111.384 86.6724 113.971C86.7743 115.26 86.8257 116.398 86.8516 117.213C86.8646 117.62 86.8711 117.947 86.8745 118.172C86.8761 118.284 86.877 118.37 86.8774 118.429C86.8777 118.458 86.8778 118.48 86.8778 118.495C86.8779 118.502 86.8779 118.508 86.8779 118.511C86.8779 118.513 86.8779 118.514 86.8779 118.515C86.8779 118.516 86.8779 118.516 86.8779 118.516C86.8779 118.516 86.8779 118.516 86.8779 118.516C86.8779 118.516 86.8779 118.516 87.2529 118.516ZM84.9458 114.601C85.6507 115.662 86.3245 116.913 86.8971 118.635L87.6087 118.398C87.013 116.607 86.3079 115.296 85.5705 114.186L84.9458 114.601ZM85.7822 122.001C86.1572 122 86.1572 122 86.1572 122C86.1572 122 86.1572 122 86.1572 122C86.1572 122 86.1572 122 86.1572 121.999C86.1572 121.999 86.1572 121.998 86.1572 121.997C86.1572 121.995 86.1572 121.992 86.1572 121.989C86.1572 121.981 86.1571 121.97 86.157 121.956C86.1569 121.927 86.1566 121.885 86.156 121.83C86.1549 121.72 86.1527 121.559 86.1485 121.353C86.14 120.942 86.1232 120.354 86.0901 119.644C86.0239 118.223 85.8922 116.31 85.6299 114.344L84.8865 114.443C85.145 116.381 85.2753 118.271 85.3409 119.679C85.3737 120.382 85.3903 120.963 85.3986 121.369C85.4028 121.571 85.405 121.73 85.4061 121.838C85.4066 121.891 85.4069 121.933 85.407 121.96C85.4071 121.974 85.4072 121.984 85.4072 121.991C85.4072 121.994 85.4072 121.997 85.4072 121.999C85.4072 121.999 85.4072 122 85.4072 122C85.4072 122.001 85.4072 122.001 85.4072 122.001C85.4072 122.001 85.4072 122.001 85.4072 122.001C85.4072 122.001 85.4072 122.001 85.7822 122.001ZM82.1078 116.218C83.2952 117.759 84.4948 119.318 85.4264 122.119L86.138 121.882C85.1651 118.957 83.9005 117.316 82.702 115.76L82.1078 116.218ZM82.1063 116.216L82.1064 116.216L82.7035 115.762L82.7034 115.762L82.1063 116.216ZM82.1062 116.216L82.1063 116.216L82.7034 115.762L82.7033 115.762L82.1062 116.216ZM82.1062 116.215L82.1062 116.216L82.7033 115.762L82.7032 115.762L82.1062 116.215ZM82.1061 116.215L82.1062 116.215L82.7032 115.762L82.7032 115.761L82.1061 116.215ZM82.106 116.215L82.1061 116.215L82.7032 115.761L82.7031 115.761L82.106 116.215ZM82.1059 116.215L82.106 116.215L82.7031 115.761L82.703 115.761L82.1059 116.215ZM82.1107 116.221L82.1108 116.221L82.6982 115.755L82.6981 115.755L82.1107 116.221ZM82.1066 116.216L82.1073 116.217L82.7015 115.759L82.7008 115.758L82.1066 116.216ZM81.6599 115.633C81.8082 115.829 81.9577 116.023 82.1066 116.216L82.7008 115.758C82.5516 115.565 82.404 115.373 82.2578 115.18L81.6599 115.633ZM82.081 118.775C82.456 118.775 82.456 118.775 82.456 118.775C82.456 118.775 82.456 118.775 82.456 118.774C82.456 118.774 82.456 118.774 82.456 118.774C82.456 118.774 82.456 118.774 82.456 118.773C82.456 118.773 82.456 118.771 82.456 118.77C82.456 118.767 82.456 118.763 82.456 118.757C82.4559 118.746 82.4559 118.73 82.4557 118.709C82.4555 118.666 82.4549 118.603 82.4539 118.522C82.4519 118.359 82.4479 118.122 82.4402 117.822C82.4247 117.224 82.3939 116.377 82.3331 115.384L81.5845 115.429C81.6447 116.413 81.6751 117.25 81.6904 117.842C81.6981 118.137 81.702 118.371 81.704 118.531C81.705 118.611 81.7055 118.672 81.7058 118.714C81.7059 118.734 81.706 118.75 81.706 118.76C81.706 118.765 81.706 118.769 81.706 118.772C81.706 118.773 81.706 118.774 81.706 118.775C81.706 118.775 81.706 118.775 81.706 118.775C81.706 118.775 81.706 118.775 81.706 118.775C81.706 118.775 81.706 118.775 81.706 118.775C81.706 118.775 81.706 118.775 82.081 118.775ZM78.4066 112.992C79.5941 114.534 80.7937 116.093 81.7252 118.893L82.4369 118.657C81.4639 115.731 80.1993 114.091 79.0008 112.534L78.4066 112.992ZM75.3569 107.654C76.165 110.084 77.2844 111.535 78.4066 112.992L79.0008 112.534C77.8843 111.085 76.8339 109.719 76.0685 107.417L75.3569 107.654ZM75.1775 107.099C75.2338 107.279 75.2935 107.464 75.3569 107.654L76.0685 107.417C76.0065 107.231 75.9481 107.05 75.8933 106.875L75.1775 107.099ZM71.5289 105.505C71.6926 106.151 72.2341 106.6 72.9188 106.888C73.6092 107.177 74.5089 107.333 75.5249 107.362L75.5459 106.612C74.5837 106.585 73.7844 106.438 73.2091 106.196C72.6281 105.952 72.3371 105.641 72.2559 105.321L71.5289 105.505ZM71.5146 105.443C71.5189 105.464 71.5237 105.484 71.5289 105.505L72.2559 105.321C72.2532 105.31 72.2507 105.299 72.2484 105.288L71.5146 105.443ZM64.2926 76.9329L71.518 105.458L72.245 105.274L65.0197 76.7487L64.2926 76.9329ZM64.5642 76.4772L64.5641 76.4773L64.7482 77.2043L64.7484 77.2043L64.5642 76.4772ZM63.9977 75.7678L64.2928 76.9328L65.0198 76.7487L64.7247 75.5837L63.9977 75.7678ZM64.2741 75.311L64.2691 75.3122L64.4533 76.0393L64.4582 76.038L64.2741 75.311ZM70.7602 101L63.5855 102.818L63.7697 103.545L70.9443 101.727L70.7602 101ZM66.3929 85.2859L70.4887 101.456L71.2158 101.272L67.1199 85.1018L66.3929 85.2859ZM64.0411 103.089C63.0752 99.2756 63.8224 94.8575 64.8342 91.3579C65.3382 89.6146 65.9038 88.1128 66.3434 87.0472C66.563 86.5146 66.751 86.0915 66.8837 85.8022C66.95 85.6576 67.0025 85.5465 67.0383 85.4719C67.0561 85.4346 67.0698 85.4065 67.0789 85.3879C67.0834 85.3786 67.0868 85.3716 67.0891 85.3671C67.0902 85.3649 67.091 85.3632 67.0915 85.3622C67.0918 85.3617 67.0919 85.3613 67.092 85.3611C67.0921 85.361 67.0921 85.361 67.0921 85.3609C67.0921 85.3609 67.0921 85.361 66.7564 85.1938C66.4207 85.0267 66.4207 85.0268 66.4206 85.027C66.4205 85.0271 66.4204 85.0273 66.4203 85.0275C66.4201 85.0279 66.4199 85.0284 66.4195 85.0292C66.4188 85.0306 66.4178 85.0327 66.4165 85.0353C66.4138 85.0407 66.41 85.0484 66.405 85.0586C66.3951 85.0789 66.3806 85.1088 66.3619 85.1479C66.3244 85.226 66.2702 85.3409 66.202 85.4895C66.0657 85.7866 65.8738 86.2187 65.65 86.7612C65.2027 87.8458 64.627 89.374 64.1137 91.1496C63.0907 94.6879 62.2984 99.2635 63.3141 103.273L64.0411 103.089ZM92.5172 95.489L85.3426 97.3063L85.5267 98.0334L92.7013 96.216L92.5172 95.489ZM81.3388 81.4999C81.1232 81.8067 81.1231 81.8066 81.1231 81.8066C81.1232 81.8067 81.1232 81.8067 81.1233 81.8068C81.1235 81.8069 81.1238 81.8071 81.1243 81.8075C81.1252 81.8081 81.1267 81.8092 81.1288 81.8106C81.1329 81.8135 81.1392 81.818 81.1476 81.824C81.1645 81.8361 81.1899 81.8543 81.2233 81.8786C81.2902 81.9272 81.3893 81.9999 81.5165 82.0955C81.7709 82.2867 82.1376 82.5693 82.5844 82.9331C83.4782 83.661 84.6905 84.7124 85.9637 86.0056C88.5195 88.6015 91.2798 92.1312 92.2457 95.9446L92.9728 95.7604C91.9571 91.7507 89.0822 88.104 86.4982 85.4794C85.2014 84.1623 83.9677 83.0924 83.0579 82.3515C82.6029 81.981 82.2285 81.6924 81.9671 81.4959C81.8364 81.3977 81.734 81.3225 81.6639 81.2716C81.6288 81.2462 81.6018 81.2268 81.5834 81.2136C81.5742 81.2071 81.5672 81.2021 81.5623 81.1986C81.5599 81.1969 81.558 81.1956 81.5567 81.1947C81.556 81.1942 81.5555 81.1938 81.5552 81.1936C81.555 81.1934 81.5548 81.1933 81.5547 81.1932C81.5546 81.1931 81.5545 81.1931 81.3388 81.4999ZM85.7982 97.5778L81.7023 81.4078L80.9753 81.5919L85.0711 97.7619L85.7982 97.5778Z" fill="#010101" mask="url(#path-3-outside-1_2_6139)"/>
<ellipse cx="75.3046" cy="90.2737" rx="5.02592" ry="6.34306" transform="rotate(-14.214 75.3046 90.2737)" fill="white"/>
<ellipse cx="75.3031" cy="90.2739" rx="4.19405" ry="5.58051" transform="rotate(-14.214 75.3031 90.2739)" fill="white"/>
<ellipse cx="70.8645" cy="79.858" rx="0.338995" ry="0.532706" transform="rotate(-4.5729 70.8645 79.858)" fill="white"/>
<ellipse cx="0.338994" cy="0.532706" rx="0.338994" ry="0.532706" transform="matrix(-0.918374 0.395714 0.395714 0.918374 74.4238 78.2799)" fill="white"/>
<path fill-rule="evenodd" clip-rule="evenodd" d="M72.1756 77.5944C71.5274 77.7636 70.3456 78.363 70.8043 79.4068C71.1118 80.1065 70.9386 80.416 70.7513 80.7507C70.5894 81.04 70.417 81.3481 70.5359 81.9434C70.6438 82.484 70.8828 82.8217 71.1214 83.1588C71.4493 83.622 71.7763 84.084 71.761 85.0697C71.74 86.4321 72.6475 90.091 73.1176 91.7332L75.5337 91.1212L75.5335 91.1205L77.9171 90.5288C77.5646 88.8574 76.6979 85.2255 76.0422 84.0311C75.5801 83.1895 75.7492 82.6708 75.9177 82.1537C76.0481 81.7535 76.1783 81.3542 76.0152 80.8069C75.8409 80.2218 75.4654 80.0069 75.1038 79.7999C74.6901 79.5631 74.2946 79.3367 74.2394 78.5782C74.1568 77.442 72.834 77.4639 72.1813 77.6172L72.1756 77.5944Z" fill="white"/>
<ellipse cx="0.819266" cy="1.15399" rx="0.819266" ry="1.15399" transform="matrix(-0.77359 0.633687 0.633687 0.77359 71.2871 80.8915)" fill="white"/>
<ellipse cx="0.819266" cy="1.15399" rx="0.819266" ry="1.15399" transform="matrix(-0.946604 -0.322399 -0.322399 0.946604 76.3809 80.5802)" fill="white"/>
<path d="M77.2619 87.7229C75.7222 88.8978 73.3931 89.19 72.4397 89.029L72.5916 89.5925C74.7824 90.1027 76.7018 88.921 77.4118 88.2818L77.2619 87.7229Z" fill="white"/>
<path d="M77.4112 88.2633C75.5899 89.7537 73.5407 89.7347 72.5842 89.5847L72.7126 90.0241C74.9131 90.5088 76.8629 89.5356 77.5599 88.8882L77.4112 88.2633Z" fill="white"/>
<ellipse opacity="0.2" cx="74.2639" cy="78.7365" rx="0.151968" ry="0.238807" transform="rotate(10.1084 74.2639 78.7365)" fill="white"/>
<ellipse opacity="0.2" cx="70.7952" cy="79.6528" rx="0.151968" ry="0.238807" transform="rotate(10.1084 70.7952 79.6528)" fill="white"/>
<path d="M71.5047 80.5744C71.0235 78.9575 72.5247 78.2949 72.5231 78.3167C74.2057 78.3478 74.4138 79.7929 74.4097 80.0154C74.3984 80.6279 75.4812 80.898 75.3439 81.5674C75.2065 82.2368 75.5198 83.4822 75.5007 84.41C75.4889 84.9787 75.3197 85.2272 75.1782 85.3149C75.2194 85.3051 75.2027 85.3115 75.1621 85.3243C75.1249 85.3445 75.0902 85.3537 75.0616 85.3548C75.099 85.3437 75.1356 85.3326 75.1621 85.3243C75.1674 85.3214 75.1728 85.3183 75.1782 85.3149C75.124 85.3279 74.9698 85.3688 74.6386 85.4598C73.7044 85.7167 73.3394 84.4975 72.1785 83.2887C71.0177 82.08 72.1063 82.5956 71.5047 80.5744Z" fill="white"/>
<path d="M74.4925 84.8603C73.7241 84.9812 73.0669 83.3722 72.8343 82.5526C73.2712 82.336 74.2377 81.9447 74.6086 82.1121C75.0722 82.3213 75.4529 84.7092 74.4925 84.8603Z" fill="white"/>
<path d="M74.5901 84.6108C75.1002 84.4143 74.648 83.3032 74.3582 82.7722L73.3359 83.026C73.5415 83.6361 74.08 84.8073 74.5901 84.6108Z" fill="white"/>
<path d="M74.4301 84.213C74.5195 84.1084 74.0777 83.0075 73.8456 82.4702L73.627 82.5499C73.8574 83.1479 74.3407 84.3177 74.4301 84.213Z" fill="white"/>
<path d="M72.3681 81.9936C72.6074 80.7866 72.1625 80.2609 71.9101 80.1489C72.4407 78.9094 73.5021 79.2921 73.9664 79.6384C73.6297 80.8447 73.8662 79.8878 74.6594 81.4248C75.294 82.6545 74.5418 83.3127 74.0864 83.4882C73.4139 83.4929 72.1289 83.2007 72.3681 81.9936Z" fill="white"/>
<path d="M74.8613 81.9547C73.252 80.6178 72.6608 82.0353 72.5664 82.9111C72.7577 83.2129 73.3361 83.7505 74.1188 83.4863C74.9015 83.2221 74.9399 82.3552 74.8613 81.9547Z" fill="white"/>
<path d="M73.4668 82.0819C73.419 81.9459 73.3079 81.7 73.2457 81.8045C73.1834 81.9089 73.3671 82.0329 73.4668 82.0819Z" fill="white"/>
<path d="M73.7305 82.0166C73.687 81.8792 73.6282 81.6159 73.7407 81.662C73.8532 81.7081 73.7808 81.9176 73.7305 82.0166Z" fill="white"/>
<path d="M72.8009 76.3641L73.2035 77.531C72.7063 78.3211 71.4406 78.3908 70.8699 78.3268L70.4772 77.1318L72.8009 76.3641Z" fill="white"/>
<path d="M73.2029 77.5307C73.2123 78.2128 72.7296 79.2716 70.8694 78.3172L73.2029 77.5307Z" fill="white"/>
<ellipse cx="71.6412" cy="76.7472" rx="1.22567" ry="0.211275" transform="rotate(-17.973 71.6412 76.7472)" fill="white"/>
<path d="M71.6143 76.9357C71.6209 76.9369 71.6263 76.9376 71.6313 76.9391C71.6735 76.9503 71.7042 76.9706 71.7272 77.0076C71.7369 77.0233 71.7449 77.0403 71.7536 77.0564C71.7611 77.0707 71.7686 77.0848 71.7765 77.0989C71.7786 77.1026 71.7787 77.1045 71.7745 77.1068C71.7655 77.1115 71.7592 77.1192 71.759 77.1299C71.7586 77.1394 71.7631 77.1466 71.7707 77.1513C71.7784 77.1562 71.7869 77.1559 71.7952 77.1528C71.7994 77.1511 71.8015 77.1483 71.8021 77.1436C71.8078 77.1071 71.8055 77.0713 71.7962 77.0358C71.7884 77.0064 71.7751 76.9793 71.763 76.952C71.7562 76.9365 71.7498 76.9204 71.7425 76.905C71.738 76.8953 71.7345 76.8857 71.7331 76.875C71.7318 76.8643 71.7327 76.8536 71.7364 76.8428C71.7465 76.8473 71.7547 76.8543 71.7604 76.8632C71.7657 76.8717 71.7701 76.8812 71.774 76.8902C71.7782 76.9001 71.7811 76.9105 71.7847 76.9203C71.7941 76.9465 71.8032 76.9727 71.8134 76.9985C71.8307 77.0414 71.8574 77.0772 71.8937 77.1052C71.8984 77.1091 71.9028 77.1089 71.9078 77.1062C71.9206 77.0997 71.9264 77.0854 71.9215 77.0729C71.9169 77.0613 71.9025 77.0549 71.8894 77.0596C71.8846 77.0613 71.8837 77.0597 71.8827 77.0556C71.8771 77.0344 71.8712 77.0129 71.8654 76.9918C71.859 76.9676 71.8513 76.9441 71.8521 76.9186C71.8531 76.885 71.8637 76.8584 71.8832 76.8309C71.8846 76.829 71.8861 76.8271 71.8882 76.8243C71.8892 76.8268 71.8899 76.8284 71.8905 76.8301C71.933 76.9374 71.9738 77.0403 72.0163 77.1477C72.0187 77.1538 72.0187 77.1538 72.0129 77.1561C71.9912 77.165 71.9692 77.174 71.9475 77.1828C71.9436 77.1844 71.9424 77.1862 71.9431 77.1904C71.9484 77.2224 71.9432 77.2529 71.9265 77.2809C71.9231 77.2868 71.9207 77.2936 71.9178 77.3C71.8997 77.2906 71.8784 77.2877 71.8612 77.275C71.8472 77.2647 71.8345 77.2528 71.8251 77.2379C71.8229 77.2346 71.8208 77.2342 71.8175 77.2356C71.7952 77.2447 71.7732 77.2536 71.7509 77.2627C71.747 77.2643 71.7451 77.2641 71.7433 77.2597C71.7006 77.1518 71.6595 77.0481 71.6167 76.9402C71.616 76.9399 71.6155 76.9388 71.6143 76.9357ZM71.6581 76.9752C71.6577 76.9757 71.6568 76.976 71.6564 76.9765C71.6572 76.9785 71.6579 76.9804 71.6587 76.9824C71.6792 77.0342 71.6981 77.0819 71.7187 77.1338C71.7221 77.1424 71.7221 77.1424 71.7309 77.1388C71.7342 77.1375 71.7355 77.136 71.735 77.1323C71.7343 77.1207 71.7378 77.1102 71.7449 77.1015C71.7479 77.0977 71.7474 77.095 71.7453 77.0914C71.7353 77.0732 71.7248 77.0549 71.7156 77.0365C71.7058 77.0173 71.6954 77.0041 71.6786 76.9907C71.6719 76.985 71.665 76.9805 71.6581 76.9752ZM71.8852 76.8835C71.8846 76.8838 71.8842 76.8836 71.8837 76.8838C71.8829 76.8867 71.8821 76.8896 71.8816 76.8924C71.8775 76.9134 71.8738 76.93 71.8789 76.9508C71.8855 76.9771 71.8926 77.0032 71.8995 77.0294C71.9002 77.033 71.9019 77.0349 71.906 77.0355C71.9172 77.037 71.9268 77.0418 71.9344 77.0506C71.9379 77.0547 71.9414 77.0545 71.948 77.0502C71.9521 77.0476 71.9491 77.0449 71.9481 77.0424C71.9272 76.9897 71.908 76.9412 71.887 76.8882C71.8866 76.8865 71.886 76.8848 71.8852 76.8835ZM71.8004 77.1771C71.7989 77.1774 71.7972 77.1778 71.795 77.178C71.7761 77.1812 71.7592 77.1781 71.7466 77.1624C71.7448 77.1602 71.7432 77.1595 71.7409 77.1608C71.739 77.1616 71.737 77.1624 71.7351 77.1632C71.7324 77.1643 71.7317 77.1659 71.7328 77.1686C71.741 77.1894 71.7494 77.2105 71.7579 77.2312C71.7583 77.2323 71.7615 77.2339 71.7626 77.2335C71.7776 77.2277 71.7927 77.2215 71.8075 77.2152C71.8086 77.2147 71.81 77.2119 71.8098 77.2106C71.8068 77.1997 71.8037 77.1887 71.8004 77.1771ZM71.9182 77.1291C71.9237 77.1397 71.9292 77.1497 71.9346 77.1601C71.9361 77.163 71.9383 77.1621 71.9405 77.1612C71.9545 77.1555 71.9682 77.1496 71.9823 77.1441C71.9867 77.1423 71.9874 77.1401 71.9855 77.1361C71.9779 77.1176 71.9708 77.0989 71.9633 77.08C71.9599 77.0715 71.9599 77.0715 71.9514 77.0749C71.9489 77.0759 71.9467 77.0768 71.9471 77.0802C71.9486 77.0986 71.9403 77.1123 71.9268 77.1233C71.9238 77.1255 71.9206 77.1271 71.9182 77.1291ZM71.8289 77.0747C71.8296 77.0992 71.8301 77.1231 71.826 77.1474C71.8368 77.1497 71.847 77.152 71.8574 77.1539C71.8588 77.1543 71.8613 77.1526 71.8624 77.1512C71.8678 77.1438 71.8724 77.1362 71.8778 77.1288C71.8794 77.1265 71.8794 77.1249 71.8771 77.123C71.8602 77.1102 71.8461 77.0947 71.8325 77.0783C71.8312 77.0773 71.83 77.0758 71.8289 77.0747ZM71.8469 77.2242C71.8515 77.2391 71.878 77.2618 71.8885 77.2617C71.8887 77.2613 71.8889 77.2609 71.8889 77.2609C71.8832 77.2465 71.8777 77.2319 71.8718 77.2179C71.8714 77.2168 71.8688 77.2159 71.8676 77.2161C71.8605 77.2183 71.8537 77.2214 71.8469 77.2242ZM71.9119 77.2528C71.921 77.241 71.923 77.2057 71.9166 77.1954C71.9106 77.1979 71.904 77.2006 71.8979 77.2031C71.8943 77.2045 71.8938 77.2063 71.8951 77.2097C71.8997 77.2213 71.9043 77.233 71.909 77.2446C71.9097 77.2472 71.9107 77.2497 71.9119 77.2528ZM71.8478 77.1984C71.8514 77.1969 71.8553 77.1956 71.8587 77.1936C71.8598 77.1932 71.8611 77.19 71.8605 77.1893C71.854 77.1778 71.8422 77.1704 71.8295 77.1723C71.8268 77.1728 71.8257 77.1739 71.8261 77.1766C71.828 77.1846 71.8301 77.1924 71.8321 77.2006C71.8329 77.2035 71.835 77.2039 71.8375 77.2029C71.8407 77.2013 71.8442 77.1998 71.8478 77.1984ZM71.8984 77.1777C71.9017 77.1764 71.9048 77.1751 71.9081 77.1738C71.9115 77.1727 71.9129 77.1705 71.9109 77.1672C71.9073 77.1606 71.9037 77.154 71.8999 77.1475C71.898 77.1444 71.896 77.1442 71.8932 77.1467C71.8839 77.154 71.8791 77.1692 71.8831 77.1801C71.8835 77.1812 71.8862 77.1824 71.8874 77.1822C71.8914 77.1809 71.8949 77.1792 71.8984 77.1777Z" fill="white"/>
<path d="M72.8009 76.3641L73.2035 77.531C72.7063 78.3211 71.4406 78.3908 70.8699 78.3268L70.4772 77.1318C70.4772 77.1318 70.6771 77.1105 70.7988 77.0718C70.9447 77.0254 71.1508 76.8992 71.1508 76.8992L72.1347 77.728L72.157 76.5218C72.157 76.5218 72.3736 76.5618 72.5056 76.5283C72.6335 76.4958 72.8009 76.3641 72.8009 76.3641Z" fill="white"/>
<ellipse cx="75.5161" cy="91.128" rx="2.475" ry="0.675" transform="rotate(-14.214 75.5161 91.128)" fill="white"/>
<rect x="72.5273" y="90.3378" width="5.55" height="2.175" transform="rotate(-14.214 72.5273 90.3378)" fill="white"/>
<path d="M79.414 110.761C77.7887 105.875 78.589 104.741 79.8969 104.306C81.2047 103.871 82.5249 104.3 84.1501 109.186C85.7753 114.072 85.7823 122.001 85.7823 122.001C83.9365 116.451 81.0392 115.648 79.414 110.761Z" fill="#FF0000"/>
<path d="M80.8847 107.277C79.2595 102.391 80.0597 101.256 81.3676 100.821C82.6754 100.386 83.9956 100.815 85.6208 105.702C87.246 110.588 87.253 118.516 87.253 118.516C85.4072 112.967 82.5099 112.163 80.8847 107.277Z" fill="#FF0000"/>
<path d="M75.7128 107.536C74.0876 102.649 74.8878 101.515 76.1957 101.08C77.5035 100.645 78.8237 101.074 80.449 105.96C82.0742 110.847 82.0811 118.775 82.0811 118.775C80.2354 113.226 77.338 112.422 75.7128 107.536Z" fill="#FF0000"/>
<rect x="64.6562" y="76.8408" width="15.0228" height="29.5047" transform="rotate(-14.214 64.6562 76.8408)" fill="#B7B7B7"/>
<ellipse cx="79.1739" cy="103.568" rx="7.51138" ry="2.97451" transform="rotate(-14.214 79.1739 103.568)" fill="#B7B7B7"/>
<path fill-rule="evenodd" clip-rule="evenodd" d="M78.9242 71.987L64.3613 75.6758L71.606 104.277L71.6072 104.277C72.0462 105.846 75.6142 106.3 79.6113 105.287C83.6327 104.269 86.5657 102.152 86.1624 100.559C86.1587 100.545 86.1549 100.531 86.1507 100.517L78.9242 71.987Z" fill="url(#paint0_linear_2_6139)"/>
<path d="M64.3099 75.4773C65.7483 81.156 80.3309 77.4623 78.8924 71.7835C76.9256 64.0185 67.3887 57.49 67.3887 57.49C67.3887 57.49 62.3282 67.6541 64.3099 75.4773Z" fill="url(#paint1_linear_2_6139)"/>
<path d="M63.6777 103.181L70.8524 101.364L66.7565 85.1938C66.7565 85.1938 61.6961 95.358 63.6777 103.181Z" fill="url(#paint2_linear_2_6139)"/>
<path d="M92.6094 95.8525L85.4347 97.6699L81.3389 81.4999C81.3389 81.4999 90.6278 88.0293 92.6094 95.8525Z" fill="url(#paint3_linear_2_6139)"/>
<ellipse cx="75.3046" cy="90.2737" rx="5.02592" ry="6.34306" transform="rotate(-14.214 75.3046 90.2737)" fill="#EDEDED"/>
<ellipse cx="75.3031" cy="90.2739" rx="4.19405" ry="5.58051" transform="rotate(-14.214 75.3031 90.2739)" fill="#888888"/>
<ellipse cx="70.8645" cy="79.858" rx="0.338995" ry="0.532706" transform="rotate(-4.5729 70.8645 79.858)" fill="#010101"/>
<ellipse cx="0.338994" cy="0.532706" rx="0.338994" ry="0.532706" transform="matrix(-0.918374 0.395714 0.395714 0.918374 74.4238 78.2799)" fill="#010101"/>
<path fill-rule="evenodd" clip-rule="evenodd" d="M72.1756 77.5944C71.5274 77.7636 70.3456 78.363 70.8043 79.4068C71.1118 80.1065 70.9386 80.416 70.7513 80.7507C70.5894 81.04 70.417 81.3481 70.5359 81.9434C70.6438 82.484 70.8828 82.8217 71.1214 83.1588C71.4493 83.622 71.7763 84.084 71.761 85.0697C71.74 86.4321 72.6475 90.091 73.1176 91.7332L75.5337 91.1212L75.5335 91.1205L77.9171 90.5288C77.5646 88.8574 76.6979 85.2255 76.0422 84.0311C75.5801 83.1895 75.7492 82.6708 75.9177 82.1537C76.0481 81.7535 76.1783 81.3542 76.0152 80.8069C75.8409 80.2218 75.4654 80.0069 75.1038 79.7999C74.6901 79.5631 74.2946 79.3367 74.2394 78.5782C74.1568 77.442 72.834 77.4639 72.1813 77.6172L72.1756 77.5944Z" fill="white"/>
<ellipse cx="0.819266" cy="1.15399" rx="0.819266" ry="1.15399" transform="matrix(-0.77359 0.633687 0.633687 0.77359 71.2871 80.8915)" fill="url(#paint4_radial_2_6139)"/>
<ellipse cx="0.819266" cy="1.15399" rx="0.819266" ry="1.15399" transform="matrix(-0.946604 -0.322399 -0.322399 0.946604 76.3809 80.5802)" fill="url(#paint5_radial_2_6139)"/>
<path d="M77.2619 87.7229C75.7222 88.8978 73.3931 89.19 72.4397 89.029L72.5916 89.5925C74.7824 90.1027 76.7018 88.921 77.4118 88.2818L77.2619 87.7229Z" fill="#005BBB"/>
<path d="M77.4112 88.2633C75.5899 89.7537 73.5407 89.7347 72.5842 89.5847L72.7126 90.0241C74.9131 90.5088 76.8629 89.5356 77.5599 88.8882L77.4112 88.2633Z" fill="#FFD500"/>
<ellipse opacity="0.2" cx="74.2639" cy="78.7365" rx="0.151968" ry="0.238807" transform="rotate(10.1084 74.2639 78.7365)" fill="white"/>
<ellipse opacity="0.2" cx="70.7952" cy="79.6528" rx="0.151968" ry="0.238807" transform="rotate(10.1084 70.7952 79.6528)" fill="white"/>
<path d="M71.5047 80.5744C71.0235 78.9575 72.5247 78.2949 72.5231 78.3167C74.2057 78.3478 74.4138 79.7929 74.4097 80.0154C74.3984 80.6279 75.4812 80.898 75.3439 81.5674C75.2065 82.2368 75.5198 83.4822 75.5007 84.41C75.4889 84.9787 75.3197 85.2272 75.1782 85.3149C75.2194 85.3051 75.2027 85.3115 75.1621 85.3243C75.1249 85.3445 75.0902 85.3537 75.0616 85.3548C75.099 85.3437 75.1356 85.3326 75.1621 85.3243C75.1674 85.3214 75.1728 85.3183 75.1782 85.3149C75.124 85.3279 74.9698 85.3688 74.6386 85.4598C73.7044 85.7167 73.3394 84.4975 72.1785 83.2887C71.0177 82.08 72.1063 82.5956 71.5047 80.5744Z" fill="#FF6B0A"/>
<path d="M74.4925 84.8603C73.7241 84.9812 73.0669 83.3722 72.8343 82.5526C73.2712 82.336 74.2377 81.9447 74.6086 82.1121C75.0722 82.3213 75.4529 84.7092 74.4925 84.8603Z" fill="#010101"/>
<path d="M74.5901 84.6108C75.1002 84.4143 74.648 83.3032 74.3582 82.7722L73.3359 83.026C73.5415 83.6361 74.08 84.8073 74.5901 84.6108Z" fill="#956C7C"/>
<path d="M74.4301 84.213C74.5195 84.1084 74.0777 83.0075 73.8456 82.4702L73.627 82.5499C73.8574 83.1479 74.3407 84.3177 74.4301 84.213Z" fill="#86616F"/>
<path d="M72.3681 81.9936C72.6074 80.7866 72.1625 80.2609 71.9101 80.1489C72.4407 78.9094 73.5021 79.2921 73.9664 79.6384C73.6297 80.8447 73.8662 79.8878 74.6594 81.4248C75.294 82.6545 74.5418 83.3127 74.0864 83.4882C73.4139 83.4929 72.1289 83.2007 72.3681 81.9936Z" fill="#EB6005"/>
<path d="M74.8613 81.9547C73.252 80.6178 72.6608 82.0353 72.5664 82.9111C72.7577 83.2129 73.3361 83.7505 74.1188 83.4863C74.9015 83.2221 74.9399 82.3552 74.8613 81.9547Z" fill="#EFE5D5"/>
<path d="M73.4668 82.0819C73.419 81.9459 73.3079 81.7 73.2457 81.8045C73.1834 81.9089 73.3671 82.0329 73.4668 82.0819Z" fill="#DACAB0"/>
<path d="M73.7305 82.0166C73.687 81.8792 73.6282 81.6159 73.7407 81.662C73.8532 81.7081 73.7808 81.9176 73.7305 82.0166Z" fill="#DACAB0"/>
<path d="M72.8009 76.3641L73.2035 77.531C72.7063 78.3211 71.4406 78.3908 70.8699 78.3268L70.4772 77.1318L72.8009 76.3641Z" fill="#2B2900"/>
<path d="M73.2029 77.5307C73.2123 78.2128 72.7296 79.2716 70.8694 78.3172L73.2029 77.5307Z" fill="#2B2900"/>
<ellipse cx="71.6412" cy="76.7472" rx="1.22567" ry="0.211275" transform="rotate(-17.973 71.6412 76.7472)" fill="#2B2900"/>
<path d="M71.6143 76.9357C71.6209 76.9369 71.6263 76.9376 71.6313 76.9391C71.6735 76.9503 71.7042 76.9706 71.7272 77.0076C71.7369 77.0233 71.7449 77.0403 71.7536 77.0564C71.7611 77.0707 71.7686 77.0848 71.7765 77.0989C71.7786 77.1026 71.7787 77.1045 71.7745 77.1068C71.7655 77.1115 71.7592 77.1192 71.759 77.1299C71.7586 77.1394 71.7631 77.1466 71.7707 77.1513C71.7784 77.1562 71.7869 77.1559 71.7952 77.1528C71.7994 77.1511 71.8015 77.1483 71.8021 77.1436C71.8078 77.1071 71.8055 77.0713 71.7962 77.0358C71.7884 77.0064 71.7751 76.9793 71.763 76.952C71.7562 76.9365 71.7498 76.9204 71.7425 76.905C71.738 76.8953 71.7345 76.8857 71.7331 76.875C71.7318 76.8643 71.7327 76.8536 71.7364 76.8428C71.7465 76.8473 71.7547 76.8543 71.7604 76.8632C71.7657 76.8717 71.7701 76.8812 71.774 76.8902C71.7782 76.9001 71.7811 76.9105 71.7847 76.9203C71.7941 76.9465 71.8032 76.9727 71.8134 76.9985C71.8307 77.0414 71.8574 77.0772 71.8937 77.1052C71.8984 77.1091 71.9028 77.1089 71.9078 77.1062C71.9206 77.0997 71.9264 77.0854 71.9215 77.0729C71.9169 77.0613 71.9025 77.0549 71.8894 77.0596C71.8846 77.0613 71.8837 77.0597 71.8827 77.0556C71.8771 77.0344 71.8712 77.0129 71.8654 76.9918C71.859 76.9676 71.8513 76.9441 71.8521 76.9186C71.8531 76.885 71.8637 76.8584 71.8832 76.8309C71.8846 76.829 71.8861 76.8271 71.8882 76.8243C71.8892 76.8268 71.8899 76.8284 71.8905 76.8301C71.933 76.9374 71.9738 77.0403 72.0163 77.1477C72.0187 77.1538 72.0187 77.1538 72.0129 77.1561C71.9912 77.165 71.9692 77.174 71.9475 77.1828C71.9436 77.1844 71.9424 77.1862 71.9431 77.1904C71.9484 77.2224 71.9432 77.2529 71.9265 77.2809C71.9231 77.2868 71.9207 77.2936 71.9178 77.3C71.8997 77.2906 71.8784 77.2877 71.8612 77.275C71.8472 77.2647 71.8345 77.2528 71.8251 77.2379C71.8229 77.2346 71.8208 77.2342 71.8175 77.2356C71.7952 77.2447 71.7732 77.2536 71.7509 77.2627C71.747 77.2643 71.7451 77.2641 71.7433 77.2597C71.7006 77.1518 71.6595 77.0481 71.6167 76.9402C71.616 76.9399 71.6155 76.9388 71.6143 76.9357ZM71.6581 76.9752C71.6577 76.9757 71.6568 76.976 71.6564 76.9765C71.6572 76.9785 71.6579 76.9804 71.6587 76.9824C71.6792 77.0342 71.6981 77.0819 71.7187 77.1338C71.7221 77.1424 71.7221 77.1424 71.7309 77.1388C71.7342 77.1375 71.7355 77.136 71.735 77.1323C71.7343 77.1207 71.7378 77.1102 71.7449 77.1015C71.7479 77.0977 71.7474 77.095 71.7453 77.0914C71.7353 77.0732 71.7248 77.0549 71.7156 77.0365C71.7058 77.0173 71.6954 77.0041 71.6786 76.9907C71.6719 76.985 71.665 76.9805 71.6581 76.9752ZM71.8852 76.8835C71.8846 76.8838 71.8842 76.8836 71.8837 76.8838C71.8829 76.8867 71.8821 76.8896 71.8816 76.8924C71.8775 76.9134 71.8738 76.93 71.8789 76.9508C71.8855 76.9771 71.8926 77.0032 71.8995 77.0294C71.9002 77.033 71.9019 77.0349 71.906 77.0355C71.9172 77.037 71.9268 77.0418 71.9344 77.0506C71.9379 77.0547 71.9414 77.0545 71.948 77.0502C71.9521 77.0476 71.9491 77.0449 71.9481 77.0424C71.9272 76.9897 71.908 76.9412 71.887 76.8882C71.8866 76.8865 71.886 76.8848 71.8852 76.8835ZM71.8004 77.1771C71.7989 77.1774 71.7972 77.1778 71.795 77.178C71.7761 77.1812 71.7592 77.1781 71.7466 77.1624C71.7448 77.1602 71.7432 77.1595 71.7409 77.1608C71.739 77.1616 71.737 77.1624 71.7351 77.1632C71.7324 77.1643 71.7317 77.1659 71.7328 77.1686C71.741 77.1894 71.7494 77.2105 71.7579 77.2312C71.7583 77.2323 71.7615 77.2339 71.7626 77.2335C71.7776 77.2277 71.7927 77.2215 71.8075 77.2152C71.8086 77.2147 71.81 77.2119 71.8098 77.2106C71.8068 77.1997 71.8037 77.1887 71.8004 77.1771ZM71.9182 77.1291C71.9237 77.1397 71.9292 77.1497 71.9346 77.1601C71.9361 77.163 71.9383 77.1621 71.9405 77.1612C71.9545 77.1555 71.9682 77.1496 71.9823 77.1441C71.9867 77.1423 71.9874 77.1401 71.9855 77.1361C71.9779 77.1176 71.9708 77.0989 71.9633 77.08C71.9599 77.0715 71.9599 77.0715 71.9514 77.0749C71.9489 77.0759 71.9467 77.0768 71.9471 77.0802C71.9486 77.0986 71.9403 77.1123 71.9268 77.1233C71.9238 77.1255 71.9206 77.1271 71.9182 77.1291ZM71.8289 77.0747C71.8296 77.0992 71.8301 77.1231 71.826 77.1474C71.8368 77.1497 71.847 77.152 71.8574 77.1539C71.8588 77.1543 71.8613 77.1526 71.8624 77.1512C71.8678 77.1438 71.8724 77.1362 71.8778 77.1288C71.8794 77.1265 71.8794 77.1249 71.8771 77.123C71.8602 77.1102 71.8461 77.0947 71.8325 77.0783C71.8312 77.0773 71.83 77.0758 71.8289 77.0747ZM71.8469 77.2242C71.8515 77.2391 71.878 77.2618 71.8885 77.2617C71.8887 77.2613 71.8889 77.2609 71.8889 77.2609C71.8832 77.2465 71.8777 77.2319 71.8718 77.2179C71.8714 77.2168 71.8688 77.2159 71.8676 77.2161C71.8605 77.2183 71.8537 77.2214 71.8469 77.2242ZM71.9119 77.2528C71.921 77.241 71.923 77.2057 71.9166 77.1954C71.9106 77.1979 71.904 77.2006 71.8979 77.2031C71.8943 77.2045 71.8938 77.2063 71.8951 77.2097C71.8997 77.2213 71.9043 77.233 71.909 77.2446C71.9097 77.2472 71.9107 77.2497 71.9119 77.2528ZM71.8478 77.1984C71.8514 77.1969 71.8553 77.1956 71.8587 77.1936C71.8598 77.1932 71.8611 77.19 71.8605 77.1893C71.854 77.1778 71.8422 77.1704 71.8295 77.1723C71.8268 77.1728 71.8257 77.1739 71.8261 77.1766C71.828 77.1846 71.8301 77.1924 71.8321 77.2006C71.8329 77.2035 71.835 77.2039 71.8375 77.2029C71.8407 77.2013 71.8442 77.1998 71.8478 77.1984ZM71.8984 77.1777C71.9017 77.1764 71.9048 77.1751 71.9081 77.1738C71.9115 77.1727 71.9129 77.1705 71.9109 77.1672C71.9073 77.1606 71.9037 77.154 71.8999 77.1475C71.898 77.1444 71.896 77.1442 71.8932 77.1467C71.8839 77.154 71.8791 77.1692 71.8831 77.1801C71.8835 77.1812 71.8862 77.1824 71.8874 77.1822C71.8914 77.1809 71.8949 77.1792 71.8984 77.1777Z" fill="#FFD500"/>
<path d="M72.8009 76.3641L73.2035 77.531C72.7063 78.3211 71.4406 78.3908 70.8699 78.3268L70.4772 77.1318C70.4772 77.1318 70.6771 77.1105 70.7988 77.0718C70.9447 77.0254 71.1508 76.8992 71.1508 76.8992L72.1347 77.728L72.157 76.5218C72.157 76.5218 72.3736 76.5618 72.5056 76.5283C72.6335 76.4958 72.8009 76.3641 72.8009 76.3641Z" fill="#4B4800"/>
<ellipse cx="75.5161" cy="91.128" rx="2.475" ry="0.675" transform="rotate(-14.214 75.5161 91.128)" fill="white"/>
<rect x="72.5273" y="90.3378" width="5.55" height="2.175" transform="rotate(-14.214 72.5273 90.3378)" fill="url(#paint6_linear_2_6139)"/>
<path d="M86.5227 82.1128H86.2132L86.3565 81.8384C86.772 81.0436 87.0177 80.1337 86.7508 79.2486C86.4855 78.3685 85.6975 77.4613 83.9311 76.7038C83.0481 76.3251 82.2612 76.0327 81.5471 75.7674C81.3576 75.697 81.1732 75.6285 80.9936 75.5608C80.1401 75.2392 79.3904 74.9348 78.7209 74.532C77.3671 73.7174 76.3658 72.515 75.4236 70.0232C73.7131 65.4993 74.0978 61.9472 75.489 59.3552C76.8772 56.7687 79.2553 55.1616 81.4923 54.4997C83.7146 53.8422 89.761 53.1143 95.7739 53.2555C98.7828 53.3262 101.794 53.6146 104.323 54.2423C106.843 54.8681 108.92 55.8399 110.016 57.3065C112.151 60.1635 113.248 63.6256 113.354 66.72C113.459 69.8059 112.576 72.5723 110.692 73.9826C109.934 74.5495 108.565 75.0501 106.925 75.4814C105.275 75.915 103.324 76.2853 101.38 76.5802C97.6105 77.1519 93.8381 77.4447 92.326 77.3584C91.8375 78.3767 91.1011 79.5343 90.1537 80.452C89.1702 81.4047 87.9442 82.1128 86.5227 82.1128Z" fill="white" stroke="#010101" stroke-width="0.375"/>
<path d="M77.6672 64.7749L77.9897 64.0267C78.1832 64.1428 78.3896 64.2331 78.6089 64.2976C78.8325 64.3578 79.0497 64.3922 79.2604 64.4008C79.4754 64.4051 79.6689 64.3836 79.8409 64.3363C80.0172 64.289 80.1569 64.2181 80.2601 64.1235C80.3676 64.0289 80.4214 63.9085 80.4214 63.7623C80.4214 63.5903 80.3504 63.4634 80.2085 63.3817C80.0666 63.2957 79.8774 63.2527 79.6409 63.2527H78.538V62.4658H79.5635C79.7742 62.4658 79.9376 62.4228 80.0537 62.3368C80.1741 62.2508 80.2343 62.1326 80.2343 61.9821C80.2343 61.8531 80.1913 61.7499 80.1053 61.6725C80.0193 61.5908 79.9011 61.5306 79.7506 61.4919C79.6044 61.4532 79.4388 61.436 79.2539 61.4403C79.069 61.4446 78.8777 61.4747 78.6799 61.5306C78.4821 61.5865 78.2929 61.6639 78.1123 61.7628L77.7962 60.9565C78.0886 60.806 78.3961 60.7028 78.7186 60.6469C79.0454 60.5867 79.3593 60.5717 79.6603 60.6018C79.9656 60.6276 80.2408 60.6964 80.4859 60.8082C80.731 60.9157 80.9266 61.0576 81.0728 61.2339C81.219 61.4102 81.2921 61.6187 81.2921 61.8595C81.2921 62.0745 81.2362 62.2659 81.1244 62.4336C81.0126 62.6013 80.8557 62.7303 80.6536 62.8206C80.4558 62.9109 80.2279 62.956 79.9699 62.956L79.9957 62.7238C80.2967 62.7238 80.5568 62.7754 80.7761 62.8786C80.9997 62.9775 81.1717 63.1173 81.2921 63.2979C81.4168 63.4742 81.4792 63.6784 81.4792 63.9106C81.4792 64.1256 81.4211 64.3191 81.305 64.4911C81.1932 64.6588 81.0384 64.8007 80.8406 64.9168C80.6428 65.0329 80.4171 65.1189 80.1634 65.1748C79.9097 65.2307 79.6388 65.2544 79.3507 65.2458C79.0669 65.2372 78.7809 65.1963 78.4928 65.1232C78.2047 65.0458 77.9295 64.9297 77.6672 64.7749ZM84.3059 65.1748V64.4976L84.2414 64.3492V63.1366C84.2414 62.9216 84.1747 62.7539 84.0414 62.6335C83.9124 62.5131 83.7125 62.4529 83.4416 62.4529C83.2567 62.4529 83.0739 62.483 82.8933 62.5432C82.717 62.5991 82.5665 62.6765 82.4418 62.7754L82.0806 62.0724C82.2698 61.9391 82.4977 61.8359 82.7643 61.7628C83.0309 61.6897 83.3018 61.6531 83.577 61.6531C84.1059 61.6531 84.5166 61.7778 84.809 62.0272C85.1014 62.2766 85.2476 62.6658 85.2476 63.1947V65.1748H84.3059ZM83.2481 65.2264C82.9772 65.2264 82.745 65.1813 82.5515 65.091C82.358 64.9964 82.2096 64.8695 82.1064 64.7104C82.0032 64.5513 81.9516 64.3729 81.9516 64.1751C81.9516 63.9687 82.0011 63.7881 82.1 63.6333C82.2032 63.4785 82.3644 63.3581 82.5837 63.2721C82.803 63.1818 83.089 63.1366 83.4416 63.1366H84.3639V63.7236H83.5512C83.3147 63.7236 83.1513 63.7623 83.061 63.8397C82.975 63.9171 82.932 64.0138 82.932 64.1299C82.932 64.2589 82.9815 64.3621 83.0804 64.4395C83.1836 64.5126 83.3233 64.5492 83.4996 64.5492C83.6673 64.5492 83.8178 64.5105 83.9511 64.4331C84.0844 64.3514 84.1812 64.2331 84.2414 64.0783L84.3962 64.5427C84.3231 64.7663 84.1898 64.9362 83.9963 65.0523C83.8028 65.1684 83.5534 65.2264 83.2481 65.2264ZM86.1217 65.1748V61.7047H89.5724V65.1748H88.5662V62.3046L88.792 62.5303H86.8957L87.1214 62.3046V65.1748H86.1217ZM91.008 66.4777C90.8274 66.4777 90.6489 66.4498 90.4726 66.3939C90.2963 66.338 90.1523 66.2606 90.0405 66.1617L90.4081 65.4457C90.4855 65.5145 90.5737 65.5683 90.6726 65.607C90.7758 65.6457 90.8768 65.665 90.9757 65.665C91.1176 65.665 91.2294 65.6306 91.3111 65.5618C91.3971 65.4973 91.4745 65.3877 91.5433 65.2329L91.7239 64.8072L91.8013 64.6975L93.0462 61.7047H94.0137L92.4463 65.3877C92.3345 65.6672 92.2055 65.8865 92.0593 66.0456C91.9174 66.2047 91.7583 66.3165 91.582 66.381C91.41 66.4455 91.2187 66.4777 91.008 66.4777ZM91.6014 65.3103L90.0534 61.7047H91.0918L92.2915 64.6072L91.6014 65.3103ZM96.0558 65.2264C95.6817 65.2264 95.3485 65.1512 95.0561 65.0007C94.7637 64.8459 94.5336 64.633 94.3659 64.3621C94.2025 64.0912 94.1208 63.7838 94.1208 63.4398C94.1208 63.0915 94.2025 62.784 94.3659 62.5174C94.5336 62.2465 94.7637 62.0358 95.0561 61.8853C95.3485 61.7305 95.6817 61.6531 96.0558 61.6531C96.4213 61.6531 96.7395 61.7305 97.0104 61.8853C97.2813 62.0358 97.4813 62.253 97.6103 62.5368L96.8298 62.956C96.7395 62.7926 96.6256 62.6722 96.488 62.5948C96.3547 62.5174 96.2085 62.4787 96.0494 62.4787C95.8774 62.4787 95.7226 62.5174 95.585 62.5948C95.4474 62.6722 95.3377 62.7819 95.256 62.9238C95.1786 63.0657 95.1399 63.2377 95.1399 63.4398C95.1399 63.6419 95.1786 63.8139 95.256 63.9558C95.3377 64.0977 95.4474 64.2073 95.585 64.2847C95.7226 64.3621 95.8774 64.4008 96.0494 64.4008C96.2085 64.4008 96.3547 64.3643 96.488 64.2912C96.6256 64.2138 96.7395 64.0912 96.8298 63.9235L97.6103 64.3492C97.4813 64.6287 97.2813 64.8459 97.0104 65.0007C96.7395 65.1512 96.4213 65.2264 96.0558 65.2264ZM100.679 65.1748L99.5182 63.5301L100.337 63.0463L101.866 65.1748H100.679ZM98.2217 65.1748V61.7047H99.2279V65.1748H98.2217ZM98.9312 63.859V63.0528H100.144V63.859H98.9312ZM100.434 63.5559L99.4924 63.4527L100.711 61.7047H101.782L100.434 63.5559ZM104.374 65.1748V64.4976L104.309 64.3492V63.1366C104.309 62.9216 104.243 62.7539 104.11 62.6335C103.981 62.5131 103.781 62.4529 103.51 62.4529C103.325 62.4529 103.142 62.483 102.961 62.5432C102.785 62.5991 102.635 62.6765 102.51 62.7754L102.149 62.0724C102.338 61.9391 102.566 61.8359 102.832 61.7628C103.099 61.6897 103.37 61.6531 103.645 61.6531C104.174 61.6531 104.585 61.7778 104.877 62.0272C105.169 62.2766 105.316 62.6658 105.316 63.1947V65.1748H104.374ZM103.316 65.2264C103.045 65.2264 102.813 65.1813 102.62 65.091C102.426 64.9964 102.278 64.8695 102.175 64.7104C102.071 64.5513 102.02 64.3729 102.02 64.1751C102.02 63.9687 102.069 63.7881 102.168 63.6333C102.271 63.4785 102.433 63.3581 102.652 63.2721C102.871 63.1818 103.157 63.1366 103.51 63.1366H104.432V63.7236H103.619C103.383 63.7236 103.219 63.7623 103.129 63.8397C103.043 63.9171 103 64.0138 103 64.1299C103 64.2589 103.05 64.3621 103.148 64.4395C103.252 64.5126 103.391 64.5492 103.568 64.5492C103.735 64.5492 103.886 64.5105 104.019 64.4331C104.153 64.3514 104.249 64.2331 104.309 64.0783L104.464 64.5427C104.391 64.7663 104.258 64.9362 104.064 65.0523C103.871 65.1684 103.621 65.2264 103.316 65.2264ZM106.19 65.1748V61.7047H107.189V63.7687L108.879 61.7047H109.802V65.1748H108.802V63.1108L107.119 65.1748H106.19ZM107.931 61.3306C107.553 61.3306 107.269 61.2489 107.08 61.0855C106.891 60.9178 106.794 60.6663 106.79 60.3309H107.447C107.452 60.4771 107.493 60.5932 107.57 60.6792C107.647 60.7652 107.766 60.8082 107.925 60.8082C108.08 60.8082 108.198 60.7652 108.28 60.6792C108.366 60.5932 108.409 60.4771 108.409 60.3309H109.079C109.079 60.6663 108.983 60.9178 108.789 61.0855C108.596 61.2489 108.31 61.3306 107.931 61.3306ZM85.9579 71.1748V67.7047H88.7378V68.5303H86.7319L86.9576 68.311V71.1748H85.9579ZM89.7608 72.4777C89.5802 72.4777 89.4018 72.4498 89.2255 72.3939C89.0492 72.338 88.9051 72.2606 88.7933 72.1617L89.161 71.4457C89.2384 71.5145 89.3265 71.5683 89.4254 71.607C89.5286 71.6457 89.6297 71.665 89.7286 71.665C89.8705 71.665 89.9823 71.6306 90.064 71.5618C90.15 71.4973 90.2274 71.3877 90.2962 71.2329L90.4768 70.8072L90.5542 70.6975L91.799 67.7047H92.7665L91.1992 71.3877C91.0874 71.6672 90.9584 71.8865 90.8122 72.0456C90.6703 72.2047 90.5112 72.3165 90.3349 72.381C90.1629 72.4455 89.9715 72.4777 89.7608 72.4777ZM90.3542 71.3103L88.8062 67.7047H89.8447L91.0444 70.6072L90.3542 71.3103ZM94.8087 71.2264C94.4346 71.2264 94.1013 71.1512 93.8089 71.0007C93.5165 70.8459 93.2865 70.633 93.1188 70.3621C92.9554 70.0912 92.8737 69.7838 92.8737 69.4398C92.8737 69.0915 92.9554 68.784 93.1188 68.5174C93.2865 68.2465 93.5165 68.0358 93.8089 67.8853C94.1013 67.7305 94.4346 67.6531 94.8087 67.6531C95.1742 67.6531 95.4924 67.7305 95.7633 67.8853C96.0342 68.0358 96.2341 68.253 96.3631 68.5368L95.5827 68.956C95.4924 68.7926 95.3784 68.6722 95.2408 68.5948C95.1075 68.5174 94.9613 68.4787 94.8022 68.4787C94.6302 68.4787 94.4754 68.5174 94.3378 68.5948C94.2002 68.6722 94.0906 68.7819 94.0089 68.9238C93.9315 69.0657 93.8928 69.2377 93.8928 69.4398C93.8928 69.6419 93.9315 69.8139 94.0089 69.9558C94.0906 70.0977 94.2002 70.2073 94.3378 70.2847C94.4754 70.3621 94.6302 70.4008 94.8022 70.4008C94.9613 70.4008 95.1075 70.3643 95.2408 70.2912C95.3784 70.2138 95.4924 70.0912 95.5827 69.9235L96.3631 70.3492C96.2341 70.6287 96.0342 70.8459 95.7633 71.0007C95.4924 71.1512 95.1742 71.2264 94.8087 71.2264ZM99.0792 71.1748V70.0203L99.2211 70.1815H98.2601C97.7613 70.1815 97.37 70.0783 97.0862 69.8719C96.8024 69.6655 96.6605 69.3688 96.6605 68.9818C96.6605 68.569 96.8088 68.253 97.1055 68.0337C97.4065 67.8144 97.8107 67.7047 98.3181 67.7047H99.9758V71.1748H99.0792ZM96.6089 71.1748L97.5312 69.8526H98.5568L97.6796 71.1748H96.6089ZM99.0792 69.7107V68.2659L99.2211 68.5239H98.3375C98.1311 68.5239 97.9698 68.5626 97.8537 68.64C97.7419 68.7174 97.686 68.8421 97.686 69.0141C97.686 69.3452 97.8989 69.5107 98.3246 69.5107H99.2211L99.0792 69.7107ZM100.994 69.6075L100.794 66.6598H101.994L101.794 69.6075H100.994ZM101.394 71.2264C101.214 71.2264 101.065 71.1684 100.949 71.0523C100.833 70.9362 100.775 70.7986 100.775 70.6395C100.775 70.4761 100.833 70.3406 100.949 70.2331C101.065 70.1213 101.214 70.0654 101.394 70.0654C101.579 70.0654 101.728 70.1213 101.839 70.2331C101.955 70.3406 102.014 70.4761 102.014 70.6395C102.014 70.7986 101.955 70.9362 101.839 71.0523C101.728 71.1684 101.579 71.2264 101.394 71.2264Z" fill="#010101"/>
</g>
<defs>
<linearGradient id="paint0_linear_2_6139" x1="66.7656" y1="83.3583" x2="88.7231" y2="83.8985" gradientUnits="userSpaceOnUse">
<stop stop-color="#C8C8C8"/>
<stop offset="1" stop-color="white"/>
</linearGradient>
<linearGradient id="paint1_linear_2_6139" x1="64.5381" y1="74.5668" x2="81.1668" y2="61.7902" gradientUnits="userSpaceOnUse">
<stop stop-color="#C8C8C8"/>
<stop offset="1" stop-color="white"/>
</linearGradient>
<linearGradient id="paint2_linear_2_6139" x1="62.8754" y1="99.1221" x2="72.3473" y2="93.8249" gradientUnits="userSpaceOnUse">
<stop stop-color="#C8C8C8"/>
<stop offset="1" stop-color="white"/>
</linearGradient>
<linearGradient id="paint3_linear_2_6139" x1="91.3827" y1="91.901" x2="80.5312" y2="91.7517" gradientUnits="userSpaceOnUse">
<stop stop-color="#C8C8C8"/>
<stop offset="1" stop-color="white"/>
</linearGradient>
<radialGradient id="paint4_radial_2_6139" cx="0" cy="0" r="1" gradientUnits="userSpaceOnUse" gradientTransform="translate(0.819266 1.15399) rotate(90) scale(1.15399 0.819266)">
<stop stop-color="#FFBBBB"/>
<stop offset="1" stop-color="#FFBBBB" stop-opacity="0"/>
</radialGradient>
<radialGradient id="paint5_radial_2_6139" cx="0" cy="0" r="1" gradientUnits="userSpaceOnUse" gradientTransform="translate(0.819266 1.15399) rotate(90) scale(1.15399 0.819266)">
<stop stop-color="#FFBBBB"/>
<stop offset="1" stop-color="#FFBBBB" stop-opacity="0"/>
</radialGradient>
<linearGradient id="paint6_linear_2_6139" x1="75.3023" y1="90.3378" x2="75.3023" y2="92.5128" gradientUnits="userSpaceOnUse">
<stop stop-color="#888888" stop-opacity="0"/>
<stop offset="1" stop-color="#888888"/>
</linearGradient>
<clipPath id="clip0_2_6139">
<rect width="81" height="81" fill="white" transform="translate(42 46)"/>
</clipPath>
</defs>
</svg>
