<svg width="40" height="40" viewBox="0 0 40 40" fill="none" xmlns="http://www.w3.org/2000/svg">
<path fill-rule="evenodd" clip-rule="evenodd" d="M3.33301 20.0002C3.33301 10.7953 10.7948 3.3335 19.9997 3.3335C29.2045 3.3335 36.6663 10.7953 36.6663 20.0002C36.6663 29.205 29.2045 36.6668 19.9997 36.6668C10.7948 36.6668 3.33301 29.205 3.33301 20.0002ZM16.3504 16.35C17.312 15.3884 18.6163 14.8481 19.9762 14.8481C21.3361 14.8481 22.6403 15.3884 23.6019 16.35C24.5635 17.3116 25.1037 18.6158 25.1037 19.9757C25.1037 21.3356 24.5635 22.6398 23.6019 23.6014C22.6403 24.563 21.3361 25.1032 19.9762 25.1032C18.6163 25.1032 17.312 24.563 16.3504 23.6014C15.3889 22.6398 14.8486 21.3356 14.8486 19.9757C14.8486 18.6158 15.3889 17.3116 16.3504 16.35ZM17.6207 22.33C18.2454 22.9547 19.0927 23.3057 19.9762 23.3057C20.8596 23.3057 21.7069 22.9547 22.3316 22.33C22.9563 21.7053 23.3073 20.858 23.3073 19.9746C23.3073 19.0911 22.9563 18.2438 22.3316 17.6191C21.7069 16.9944 20.8596 16.6434 19.9762 16.6434C19.0927 16.6434 18.2454 16.9944 17.6207 17.6191C16.996 18.2438 16.645 19.0911 16.645 19.9746C16.645 20.858 16.996 21.7053 17.6207 22.33ZM25.3077 15.8551C25.9679 15.8551 26.5031 15.3199 26.5031 14.6597C26.5031 13.9995 25.9679 13.4644 25.3077 13.4644C24.6475 13.4644 24.1123 13.9995 24.1123 14.6597C24.1123 15.3199 24.6475 15.8551 25.3077 15.8551ZM28.2882 11.6767C28.791 12.1793 29.1833 12.7813 29.44 13.4442C29.736 14.2307 29.8939 15.0624 29.9069 15.9026C29.969 16.9639 29.969 17.3076 29.969 20.0166C29.969 22.7257 29.9545 23.0639 29.9069 24.1306C29.8902 24.9601 29.7339 25.7784 29.4422 26.5547C29.1852 27.2175 28.7928 27.8195 28.2901 28.3222C27.7873 28.8249 27.1854 29.2173 26.5225 29.4744C25.7465 29.7651 24.9269 29.9222 24.0985 29.939C23.0395 30 22.6924 30 19.9845 30C17.2766 30 16.9383 29.9856 15.8705 29.939C15.0403 29.9117 14.2209 29.743 13.4475 29.44C12.7845 29.1834 12.1823 28.7913 11.6793 28.2887C11.1764 27.7862 10.7839 27.1843 10.5267 26.5214C10.2351 25.7441 10.0787 24.9257 10.0621 24.0963C10 23.035 10 22.6902 10 19.9823C10 17.2732 10.0144 16.935 10.0621 15.8683C10.0783 15.0397 10.2354 14.22 10.5267 13.4442C10.7831 12.7811 11.1753 12.179 11.6781 11.6763C12.1809 11.1737 12.7833 10.7818 13.4464 10.5256C14.2213 10.2335 15.0404 10.076 15.8683 10.0599C16.9273 10 17.2743 10 19.9823 10C22.6902 10 23.0284 10.0133 24.0963 10.0599C24.9248 10.0769 25.7444 10.2344 26.5203 10.5256C27.1833 10.7821 27.7855 11.1741 28.2882 11.6767ZM27.7445 25.886C27.9656 25.2864 28.0822 24.6533 28.0894 24.0142L28.1016 24.0153C28.1493 22.9552 28.1493 22.6647 28.1493 19.9634C28.1493 17.261 28.1371 16.965 28.0894 15.9104C28.0791 15.2785 27.9625 14.6529 27.7445 14.0597C27.5779 13.6284 27.3229 13.2367 26.996 12.9098C26.669 12.5828 26.2774 12.3279 25.8461 12.1612C25.2532 11.9406 24.6268 11.824 23.9942 11.8164C22.9219 11.7554 22.6447 11.7554 19.9423 11.7554C17.24 11.7554 16.9439 11.7687 15.8893 11.8164C15.2573 11.8252 14.6314 11.9418 14.0386 12.1612C13.1637 12.4961 12.4706 13.1847 12.1324 14.0597C11.9114 14.6589 11.7947 15.2917 11.7875 15.9304C11.7288 17.0049 11.7288 17.281 11.7288 19.9834C11.7288 22.6846 11.7399 22.9818 11.7875 24.0353C11.7979 24.6672 11.9144 25.2928 12.1324 25.886C12.2997 26.318 12.5558 26.7102 12.8841 27.037C13.2125 27.3638 13.6058 27.6181 14.0386 27.7833C14.6311 28.0038 15.2572 28.1205 15.8893 28.1282C16.9627 28.1892 17.2389 28.1892 19.9423 28.1892C22.6436 28.1892 22.9408 28.177 23.9942 28.1282C24.6267 28.12 25.2531 28.0034 25.8461 27.7833C26.2774 27.617 26.6691 27.3623 26.9961 27.0356C27.323 26.7088 27.578 26.3172 27.7445 25.886Z" fill="#010101"/>
</svg>
