<svg width="40" height="40" viewBox="0 0 40 40" fill="none" xmlns="http://www.w3.org/2000/svg">
<path d="M19.9997 3.3335C10.7958 3.3335 3.33301 10.7963 3.33301 20.0002C3.33301 29.204 10.7958 36.6668 19.9997 36.6668C29.2035 36.6668 36.6663 29.204 36.6663 20.0002C36.6663 10.7963 29.2035 3.3335 19.9997 3.3335ZM28.0093 15.8967C28.0205 16.0716 28.0205 16.2539 28.0205 16.4325C28.0205 21.8938 23.8613 28.1847 16.2608 28.1847C13.9171 28.1847 11.7445 27.5039 9.91411 26.332C10.2489 26.3692 10.5689 26.3841 10.9111 26.3841C12.8457 26.3841 14.6239 25.7293 16.0413 24.6207C14.2259 24.5835 12.7006 23.393 12.1797 21.7561C12.8159 21.8491 13.3888 21.8491 14.0436 21.6817C13.1088 21.4918 12.2686 20.9841 11.6657 20.2449C11.0628 19.5057 10.7344 18.5805 10.7363 17.6267V17.5746C11.2832 17.8833 11.9268 18.0731 12.6001 18.0991C12.0341 17.7219 11.5698 17.2108 11.2486 16.6111C10.9274 16.0115 10.7591 15.3419 10.7586 14.6616C10.7586 13.8915 10.9595 13.1884 11.3204 12.5783C12.3579 13.8556 13.6527 14.9002 15.1205 15.6444C16.5882 16.3885 18.1961 16.8155 19.8397 16.8975C19.2556 14.0887 21.3538 11.8156 23.8762 11.8156C25.0666 11.8156 26.1381 12.3142 26.8933 13.1177C27.8271 12.9429 28.7199 12.5932 29.516 12.1244C29.2073 13.0805 28.5599 13.8878 27.7006 14.3975C28.5339 14.3082 29.3375 14.0775 30.0815 13.7539C29.5198 14.5798 28.8166 15.3127 28.0093 15.8967Z" fill="#17161C"/>
</svg>
