<svg width="40" height="40" viewBox="0 0 40 40" fill="none" xmlns="http://www.w3.org/2000/svg">
<path d="M22.7827 19.7102L18.8834 17.8908C18.5431 17.7328 18.2636 17.9099 18.2636 18.2866V21.7137C18.2636 22.0904 18.5431 22.2675 18.8834 22.1095L22.7809 20.2901C23.1229 20.1304 23.1229 19.87 22.7827 19.7102ZM19.9997 3.3335C10.7948 3.3335 3.33301 10.7953 3.33301 20.0002C3.33301 29.205 10.7948 36.6668 19.9997 36.6668C29.2045 36.6668 36.6663 29.205 36.6663 20.0002C36.6663 10.7953 29.2045 3.3335 19.9997 3.3335ZM19.9997 26.771C11.4684 26.771 11.3191 26.0019 11.3191 20.0002C11.3191 13.9984 11.4684 13.2293 19.9997 13.2293C28.5309 13.2293 28.6802 13.9984 28.6802 20.0002C28.6802 26.0019 28.5309 26.771 19.9997 26.771Z" fill="#17161C"/>
</svg>
