<svg width="495" height="481" viewBox="0 0 495 481" fill="none" xmlns="http://www.w3.org/2000/svg">
<path d="M322.247 159.526C322.247 159.526 369.376 160.626 397.426 155.127C425.475 149.628 479.33 149.628 487.186 155.127C495.042 160.626 416.497 176.017 442.302 344.258C442.302 344.258 382.836 377.246 260.537 349.757C260.537 349.757 242.588 354.157 239.221 299.179C235.854 244.193 322.247 159.526 322.247 159.526Z" fill="#F1E324" stroke="#010101" stroke-miterlimit="10"/>
<path d="M323.113 157.351C323.113 157.351 367.506 160.82 397.735 153.65C426.497 146.826 501.839 151.153 493.336 155.633C461.469 172.404 437.867 257.986 437.867 257.986C437.867 257.986 375.559 266.889 341.095 262.032C312.463 257.994 264.016 230.834 264.016 230.834L323.113 157.351Z" fill="#6D9BF5" stroke="#010101" stroke-miterlimit="10"/>
<path d="M234.376 77.052C234.376 77.052 283.995 83.2178 295.882 90.7483C307.76 98.2789 353.193 151.707 307.064 318.832C307.064 318.832 209.218 297.597 190.343 301.708C171.469 305.818 170.076 269.514 170.076 269.514L234.376 77.052Z" fill="#F1E324" stroke="#010101" stroke-miterlimit="10"/>
<path d="M234.376 77.052C234.376 77.052 284.495 82.5113 295.882 90.7483C336.441 120.108 327.012 203.915 327.012 203.915C327.012 203.915 278.9 179.437 262.868 176.346C246.664 173.223 200.125 179.581 200.125 179.581L234.376 77.052Z" fill="#6D9BF5" stroke="#010101" stroke-miterlimit="10"/>
<path d="M24.9868 51.4337C24.9868 51.4337 45.5816 257.921 26.6007 280.064C7.61967 302.214 25.2817 292.323 25.2817 292.323C25.2817 292.323 155.453 249.797 249.457 281.693C249.457 281.693 295.562 151.466 213.298 46.0468C213.306 46.0468 142.207 13.4037 24.9868 51.4337Z" fill="#F1E324" stroke="#010101" stroke-miterlimit="10"/>
<path d="M24.9863 51.4337L34.4318 165.452C34.4318 165.452 87.803 131.885 144.377 132.64C202.336 133.411 259.492 155.697 259.492 155.697C259.492 155.697 250.849 89.239 213.305 46.0468C213.305 46.0468 142.206 13.4037 24.9863 51.4337Z" fill="#6D9BF5" stroke="#010101" stroke-miterlimit="10"/>
<path d="M18.105 54.1633C27.5518 54.1633 35.21 42.2624 35.21 27.5818C35.21 12.9011 27.5518 1 18.105 1C8.65816 1 1 12.9011 1 27.5818C1 42.2624 8.65816 54.1633 18.105 54.1633Z" fill="#F1E324" stroke="#010101" stroke-miterlimit="10"/>
<path d="M33.3195 480.869C33.3278 480.911 33.3278 480.958 33.3278 481C33.3193 480.869 10.6585 481 2.00977 481C2.00977 480.78 12.2894 50.512 12.2894 50.512C12.2894 50.512 18.5463 46.0355 24.8032 50.512L33.3195 480.869Z" fill="#010101"/>
</svg>
