<svg width="488" height="591" viewBox="0 0 488 591" fill="none" xmlns="http://www.w3.org/2000/svg">
<path d="M126.588 109.667C87.5367 120.607 73.9246 145.081 72 155.95L109.792 339.505L96.1448 406.3C88.1665 445.85 92.8205 478.88 96.1448 490.45C90.2661 514.013 77.5988 534.98 72 542.519C82.9176 569.868 123.789 580.913 142.86 583.017C362.787 609.84 399.529 537.785 395.33 537.785C391.131 537.785 385.882 501.495 389.557 490.45C393.231 479.406 390 438.5 389.557 434.7C389.215 431.775 382.208 381.58 378.534 356.861C376.959 351.777 372.55 327.303 367.511 270.08C362.472 212.858 400.404 176.813 420 165.943C392.706 120.186 341.792 104.934 341.792 104.934C341.792 104.934 309.774 92.136 298.751 86C298.751 86 266.691 99.8891 245 100C222.874 100.113 190.1 86 190.1 86C186.25 89.331 165.64 98.7278 126.588 109.667Z" fill="white" stroke="#383838" stroke-width="2.20657"/>
<path d="M396.705 382C390.012 370.709 376.627 347.703 376.627 346.01C371.167 323.604 363.695 277.22 367.499 242.5C371.304 207.78 402.915 174.998 419.999 166L485.999 350.244C482.618 353.631 425.06 372.826 396.705 382Z" fill="white" stroke="#383838" stroke-width="2.20657"/>
<path d="M113.752 233.099C112.481 172.793 86.4469 155.239 72.5 154L2 339.802L93.0962 369L110 340C112.119 329.56 115.023 293.405 113.752 233.099Z" fill="white" stroke="#383838" stroke-width="2.20657"/>
<path d="M282 28.2969C270.298 8.05176 242.794 -19.0524 227.935 28.2969C211.434 80.88 251.807 59.6836 257.425 98" stroke="#010101" stroke-width="3"/>
<g clip-path="url(#clip0_2_5273)">
<mask id="path-5-outside-1_2_5273" maskUnits="userSpaceOnUse" x="221.359" y="150.704" width="158" height="262" fill="black">
<rect fill="white" x="221.359" y="150.704" width="158" height="262"/>
<path fill-rule="evenodd" clip-rule="evenodd" d="M248.1 153.406C248.109 153.336 248.103 153.269 248.082 153.208C247.677 152.032 241.818 152.986 234.997 155.339C228.176 157.692 222.975 160.552 223.381 161.728C223.388 161.749 223.397 161.769 223.408 161.789L223.394 161.794L227.815 174.452C227.878 174.458 227.942 174.464 228.007 174.469C225.97 177.372 225.191 180.959 227.032 185.214C225.291 185.735 224.152 188.249 224.436 191.132C224.733 194.142 226.473 196.454 228.378 196.439C227.889 198.651 227.059 200.735 226.243 202.782C224.223 207.847 222.294 212.687 225.859 218.69C227.62 221.657 229.489 223.638 231.233 225.488C235.159 229.65 238.456 233.146 238.494 245.717C238.521 254.473 242.412 271.924 246.666 288.218L246.615 288.211L247.145 290.042C249.357 298.418 251.632 306.385 253.484 312.582C237.464 334.35 244.787 373.987 252.561 395.858C304.354 412.801 401.009 430.052 373.278 363.512C355.493 320.836 334.121 302.341 317.185 295.735C323.761 284.075 320.907 277.753 314.96 274.645C316.633 263.252 305.954 264.393 295.848 266.679C291.915 253.114 287.576 240.156 283.937 233.808C278.846 224.929 280.546 219.368 282.24 213.824C283.552 209.533 284.86 205.252 283.014 199.451C281.041 193.251 276.997 191.034 273.103 188.899L273.103 188.899C271.023 187.759 268.986 186.642 267.33 184.954C268.921 183.97 269.241 181.144 268.013 178.432C266.955 176.097 265.077 174.57 263.434 174.539C262.253 168.618 257.573 166.19 252.524 165.498L248.1 153.406ZM296.773 269.908C297.001 270.714 297.228 271.52 297.453 272.326C302.108 271.805 307.789 271.982 312.4 273.558C311.325 270.198 307.107 268.339 296.773 269.908ZM312.189 278.922C309.363 277.039 305.007 275.955 298.598 276.204L298.387 275.549L299.413 279.109L299.461 279.068L301.169 285.699C301.134 285.732 301.099 285.766 301.063 285.8C301.675 288.173 302.255 290.469 302.795 292.649C303.689 292.672 304.615 292.732 305.569 292.831C306.034 292.014 306.531 291.173 307.062 290.305C307.314 289.813 307.579 289.305 307.85 288.784C309.469 285.677 311.318 282.129 312.189 278.922ZM307.432 293.071C307.86 292.215 308.321 291.327 308.816 290.406C310.991 286.356 312.542 282.917 313.562 280.008C317.597 283.794 317.182 289.757 315.16 294.993C312.444 294.064 309.857 293.442 307.432 293.071ZM263.871 249.672L263.87 249.672L273.402 285.244L273.403 285.244L263.871 249.672ZM276.824 298.011L276.906 298.318L276.905 298.318L276.823 298.011L276.824 298.011Z"/>
</mask>
<path fill-rule="evenodd" clip-rule="evenodd" d="M248.1 153.406C248.109 153.336 248.103 153.269 248.082 153.208C247.677 152.032 241.818 152.986 234.997 155.339C228.176 157.692 222.975 160.552 223.381 161.728C223.388 161.749 223.397 161.769 223.408 161.789L223.394 161.794L227.815 174.452C227.878 174.458 227.942 174.464 228.007 174.469C225.97 177.372 225.191 180.959 227.032 185.214C225.291 185.735 224.152 188.249 224.436 191.132C224.733 194.142 226.473 196.454 228.378 196.439C227.889 198.651 227.059 200.735 226.243 202.782C224.223 207.847 222.294 212.687 225.859 218.69C227.62 221.657 229.489 223.638 231.233 225.488C235.159 229.65 238.456 233.146 238.494 245.717C238.521 254.473 242.412 271.924 246.666 288.218L246.615 288.211L247.145 290.042C249.357 298.418 251.632 306.385 253.484 312.582C237.464 334.35 244.787 373.987 252.561 395.858C304.354 412.801 401.009 430.052 373.278 363.512C355.493 320.836 334.121 302.341 317.185 295.735C323.761 284.075 320.907 277.753 314.96 274.645C316.633 263.252 305.954 264.393 295.848 266.679C291.915 253.114 287.576 240.156 283.937 233.808C278.846 224.929 280.546 219.368 282.24 213.824C283.552 209.533 284.86 205.252 283.014 199.451C281.041 193.251 276.997 191.034 273.103 188.899L273.103 188.899C271.023 187.759 268.986 186.642 267.33 184.954C268.921 183.97 269.241 181.144 268.013 178.432C266.955 176.097 265.077 174.57 263.434 174.539C262.253 168.618 257.573 166.19 252.524 165.498L248.1 153.406ZM296.773 269.908C297.001 270.714 297.228 271.52 297.453 272.326C302.108 271.805 307.789 271.982 312.4 273.558C311.325 270.198 307.107 268.339 296.773 269.908ZM312.189 278.922C309.363 277.039 305.007 275.955 298.598 276.204L298.387 275.549L299.413 279.109L299.461 279.068L301.169 285.699C301.134 285.732 301.099 285.766 301.063 285.8C301.675 288.173 302.255 290.469 302.795 292.649C303.689 292.672 304.615 292.732 305.569 292.831C306.034 292.014 306.531 291.173 307.062 290.305C307.314 289.813 307.579 289.305 307.85 288.784C309.469 285.677 311.318 282.129 312.189 278.922ZM307.432 293.071C307.86 292.215 308.321 291.327 308.816 290.406C310.991 286.356 312.542 282.917 313.562 280.008C317.597 283.794 317.182 289.757 315.16 294.993C312.444 294.064 309.857 293.442 307.432 293.071ZM263.871 249.672L263.87 249.672L273.402 285.244L273.403 285.244L263.871 249.672ZM276.824 298.011L276.906 298.318L276.905 298.318L276.823 298.011L276.824 298.011Z" fill="#005BBB"/>
<path d="M248.082 153.208L247.132 153.535V153.535L248.082 153.208ZM248.1 153.406L247.104 153.279L247.073 153.522L247.157 153.751L248.1 153.406ZM234.997 155.339L235.325 156.289L234.997 155.339ZM223.381 161.728L224.331 161.401L224.331 161.401L223.381 161.728ZM223.408 161.789L223.74 162.737L224.854 162.346L224.29 161.309L223.408 161.789ZM223.394 161.794L223.062 160.846L222.115 161.178L222.446 162.125L223.394 161.794ZM227.815 174.452L226.866 174.783L227.079 175.392L227.721 175.452L227.815 174.452ZM228.007 174.469L228.829 175.046L229.832 173.617L228.093 173.468L228.007 174.469ZM227.032 185.214L227.32 186.176L228.403 185.852L227.954 184.815L227.032 185.214ZM224.436 191.132L223.436 191.23H223.436L224.436 191.132ZM228.378 196.439L229.359 196.656L229.631 195.424L228.37 195.434L228.378 196.439ZM226.243 202.782L225.309 202.41H225.309L226.243 202.782ZM225.859 218.69L224.995 219.203H224.995L225.859 218.69ZM231.233 225.488L230.502 226.177H230.502L231.233 225.488ZM238.494 245.717L239.499 245.714L238.494 245.717ZM246.666 288.218L246.518 289.212L248.022 289.436L247.638 287.964L246.666 288.218ZM246.615 288.211L246.763 287.217L245.215 286.987L245.65 288.49L246.615 288.211ZM247.145 290.042L248.117 289.786L248.114 289.774L248.11 289.763L247.145 290.042ZM253.484 312.582L254.293 313.178L254.59 312.774L254.446 312.294L253.484 312.582ZM252.561 395.858L251.614 396.195L251.78 396.66L252.249 396.813L252.561 395.858ZM373.278 363.512L374.206 363.126L373.278 363.512ZM317.185 295.735L316.31 295.241L315.741 296.25L316.82 296.671L317.185 295.735ZM314.96 274.645L313.966 274.499L313.862 275.205L314.494 275.536L314.96 274.645ZM295.848 266.679L294.883 266.959L295.146 267.868L296.069 267.659L295.848 266.679ZM283.937 233.808L284.808 233.308L283.937 233.808ZM282.24 213.824L281.28 213.531L282.24 213.824ZM283.014 199.451L283.972 199.147L283.014 199.451ZM273.103 188.899L273.586 188.018L273.569 188.009L273.552 188.001L273.103 188.899ZM273.103 188.899L272.62 189.78L272.637 189.789L272.654 189.798L273.103 188.899ZM267.33 184.954L266.801 184.1L265.732 184.761L266.612 185.658L267.33 184.954ZM268.013 178.432L267.098 178.847L267.098 178.847L268.013 178.432ZM263.434 174.539L262.448 174.736L262.607 175.528L263.415 175.544L263.434 174.539ZM252.524 165.498L251.58 165.843L251.788 166.411L252.388 166.493L252.524 165.498ZM296.773 269.908L296.622 268.914L295.496 269.085L295.806 270.182L296.773 269.908ZM297.453 272.326L296.485 272.596L296.715 273.419L297.564 273.324L297.453 272.326ZM312.4 273.558L312.075 274.509L313.965 275.155L313.356 273.252L312.4 273.558ZM312.189 278.922L313.158 279.186L313.348 278.487L312.746 278.086L312.189 278.922ZM298.598 276.204L297.641 276.512L297.875 277.237L298.637 277.208L298.598 276.204ZM298.387 275.549L299.343 275.241L297.421 275.827L298.387 275.549ZM299.413 279.109L298.447 279.387L298.878 280.881L300.063 279.875L299.413 279.109ZM299.461 279.068L300.434 278.818L300.034 277.264L298.811 278.302L299.461 279.068ZM301.169 285.699L301.866 286.422L302.288 286.016L302.142 285.448L301.169 285.699ZM301.063 285.8L300.37 285.072L299.943 285.479L300.09 286.051L301.063 285.8ZM302.795 292.649L301.82 292.891L302.004 293.633L302.768 293.653L302.795 292.649ZM305.569 292.831L305.465 293.83L306.117 293.898L306.442 293.328L305.569 292.831ZM307.062 290.305L307.919 290.829L307.938 290.797L307.955 290.764L307.062 290.305ZM307.85 288.784L306.959 288.32V288.32L307.85 288.784ZM308.816 290.406L307.93 289.931L308.816 290.406ZM307.432 293.071L306.534 292.621L305.917 293.855L307.281 294.064L307.432 293.071ZM313.562 280.008L314.25 279.276L313.125 278.22L312.614 279.675L313.562 280.008ZM315.16 294.993L314.834 295.944L315.749 296.257L316.097 295.355L315.16 294.993ZM263.87 249.672L264.21 248.726L262.403 248.076L262.9 249.932L263.87 249.672ZM263.871 249.672L264.842 249.412L264.706 248.905L264.211 248.727L263.871 249.672ZM273.402 285.244L272.431 285.504L272.696 286.49L273.677 286.211L273.402 285.244ZM273.403 285.244L273.678 286.21L274.629 285.94L274.373 284.984L273.403 285.244ZM276.906 298.318L277.094 299.304L278.156 299.102L277.876 298.058L276.906 298.318ZM276.824 298.011L277.794 297.751L277.542 296.808L276.592 297.033L276.824 298.011ZM276.905 298.318L275.934 298.578L276.176 299.479L277.093 299.305L276.905 298.318ZM276.823 298.011L276.591 297.033L275.585 297.272L275.852 298.271L276.823 298.011ZM247.132 153.535C247.098 153.435 247.095 153.344 247.104 153.279L249.097 153.533C249.123 153.327 249.109 153.103 249.032 152.88L247.132 153.535ZM235.325 156.289C238.698 155.125 241.811 154.316 244.107 153.942C245.263 153.753 246.164 153.684 246.771 153.717C247.079 153.734 247.249 153.775 247.322 153.803C247.405 153.835 247.22 153.79 247.132 153.535L249.032 152.88C248.843 152.332 248.386 152.059 248.045 151.928C247.692 151.792 247.285 151.733 246.881 151.711C246.062 151.666 244.996 151.761 243.784 151.959C241.344 152.356 238.117 153.2 234.67 154.389L235.325 156.289ZM224.331 161.401C224.418 161.655 224.3 161.805 224.346 161.728C224.386 161.661 224.495 161.524 224.727 161.321C225.184 160.92 225.937 160.42 226.963 159.855C229.001 158.734 231.951 157.452 235.325 156.289L234.67 154.389C231.222 155.578 228.161 156.903 225.995 158.095C224.919 158.686 224.021 159.268 223.404 159.809C223.099 160.076 222.815 160.373 222.621 160.697C222.434 161.011 222.242 161.507 222.431 162.056L224.331 161.401ZM224.29 161.309C224.306 161.338 224.319 161.368 224.331 161.401L222.431 162.056C222.457 162.13 222.488 162.201 222.525 162.269L224.29 161.309ZM223.727 162.741L223.74 162.737L223.075 160.841L223.062 160.846L223.727 162.741ZM228.763 174.121L224.343 161.462L222.446 162.125L226.866 174.783L228.763 174.121ZM228.093 173.468C228.03 173.463 227.969 173.457 227.908 173.452L227.721 175.452C227.787 175.458 227.854 175.464 227.921 175.47L228.093 173.468ZM227.954 184.815C226.264 180.909 226.975 177.689 228.829 175.046L227.184 173.892C224.965 177.056 224.118 181.01 226.11 185.612L227.954 184.815ZM225.436 191.033C225.309 189.742 225.505 188.57 225.893 187.694C226.288 186.802 226.825 186.324 227.32 186.176L226.744 184.251C225.497 184.624 224.595 185.664 224.056 186.88C223.51 188.112 223.279 189.638 223.436 191.23L225.436 191.033ZM228.37 195.434C227.848 195.439 227.206 195.119 226.609 194.319C226.023 193.533 225.569 192.382 225.436 191.033L223.436 191.23C223.6 192.891 224.165 194.402 224.999 195.52C225.823 196.626 227.003 197.455 228.386 197.444L228.37 195.434ZM227.176 203.154C227.987 201.119 228.85 198.961 229.359 196.656L227.397 196.222C226.929 198.342 226.13 200.351 225.309 202.41L227.176 203.154ZM226.722 218.177C223.433 212.637 225.148 208.241 227.176 203.154L225.309 202.41C223.299 207.454 221.155 212.736 224.995 219.203L226.722 218.177ZM231.964 224.798C230.222 222.951 228.422 221.04 226.722 218.177L224.995 219.203C226.818 222.274 228.756 224.325 230.502 226.177L231.964 224.798ZM239.499 245.714C239.48 239.346 238.636 235.178 237.239 232.041C235.842 228.9 233.922 226.874 231.964 224.798L230.502 226.177C232.47 228.263 234.162 230.067 235.404 232.858C236.647 235.652 237.471 239.516 237.49 245.72L239.499 245.714ZM247.638 287.964C245.514 279.827 243.482 271.411 241.98 263.942C240.473 256.453 239.512 249.985 239.499 245.714L237.49 245.72C237.503 250.204 238.501 256.839 240.01 264.339C241.523 271.858 243.564 280.315 245.694 288.472L247.638 287.964ZM246.467 289.204L246.518 289.212L246.814 287.224L246.763 287.217L246.467 289.204ZM248.11 289.763L247.58 287.931L245.65 288.49L246.18 290.321L248.11 289.763ZM254.446 312.294C252.597 306.107 250.326 298.15 248.117 289.786L246.174 290.299C248.389 298.686 250.666 306.664 252.521 312.87L254.446 312.294ZM253.507 395.522C249.646 384.658 245.897 369.378 245.103 354.129C244.308 338.852 246.488 323.784 254.293 313.178L252.675 311.987C244.46 323.149 242.292 338.783 243.097 354.234C243.903 369.714 247.702 385.187 251.614 396.195L253.507 395.522ZM372.351 363.899C379.225 380.392 378.248 391.339 372.614 398.393C366.917 405.525 356.189 409.05 342.672 409.989C315.699 411.862 278.738 403.364 252.873 394.904L252.249 396.813C278.178 405.295 315.441 413.894 342.811 411.993C356.465 411.045 367.938 407.466 374.184 399.647C380.491 391.751 381.197 379.902 374.206 363.126L372.351 363.899ZM316.82 296.671C333.42 303.145 354.631 321.38 372.351 363.899L374.206 363.126C356.354 320.292 334.822 301.536 317.55 294.799L316.82 296.671ZM314.494 275.536C317.27 276.986 319.216 279.118 319.781 282.166C320.355 285.264 319.542 289.51 316.31 295.241L318.06 296.228C321.404 290.299 322.452 285.555 321.756 281.8C321.051 277.995 318.596 275.412 315.425 273.755L314.494 275.536ZM296.069 267.659C301.15 266.51 306.128 265.717 309.597 266.511C311.29 266.899 312.512 267.641 313.252 268.81C314.001 269.993 314.364 271.787 313.966 274.499L315.953 274.791C316.392 271.808 316.048 269.471 314.949 267.735C313.842 265.985 312.076 265.018 310.045 264.553C306.067 263.641 300.652 264.562 295.626 265.699L296.069 267.659ZM283.065 234.307C286.635 240.534 290.944 253.372 294.883 266.959L296.813 266.4C292.886 252.856 288.518 239.779 284.808 233.308L283.065 234.307ZM281.28 213.531C280.437 216.288 279.54 219.201 279.54 222.566C279.539 225.958 280.445 229.738 283.065 234.307L284.808 233.308C282.338 228.999 281.548 225.56 281.549 222.566C281.549 219.544 282.349 216.905 283.201 214.118L281.28 213.531ZM282.057 199.756C283.801 205.236 282.588 209.249 281.28 213.531L283.201 214.118C284.515 209.818 285.92 205.269 283.972 199.147L282.057 199.756ZM272.62 189.78C276.497 191.905 280.213 193.96 282.057 199.756L283.972 199.147C281.87 192.541 277.497 190.162 273.586 188.018L272.62 189.78ZM272.654 189.798L272.654 189.798L273.552 188.001L273.552 188.001L272.654 189.798ZM266.612 185.658C268.39 187.469 270.562 188.652 272.62 189.78L273.586 188.018C271.484 186.866 269.582 185.815 268.047 184.25L266.612 185.658ZM267.098 178.847C267.648 180.062 267.833 181.266 267.73 182.234C267.624 183.218 267.243 183.827 266.801 184.1L267.858 185.809C269.008 185.098 269.582 183.802 269.727 182.448C269.874 181.079 269.606 179.515 268.928 178.018L267.098 178.847ZM263.415 175.544C263.939 175.553 264.606 175.811 265.297 176.391C265.979 176.963 266.625 177.803 267.098 178.847L268.928 178.018C268.343 176.726 267.522 175.635 266.589 174.852C265.665 174.077 264.571 173.556 263.453 173.535L263.415 175.544ZM252.388 166.493C254.808 166.825 257.063 167.564 258.834 168.867C260.582 170.153 261.907 172.023 262.448 174.736L264.419 174.343C263.779 171.134 262.173 168.829 260.025 167.248C257.898 165.684 255.289 164.863 252.66 164.502L252.388 166.493ZM247.157 153.751L251.58 165.843L253.467 165.152L249.044 153.061L247.157 153.751ZM295.806 270.182C296.034 270.986 296.261 271.791 296.485 272.596L298.42 272.056C298.195 271.249 297.968 270.441 297.739 269.634L295.806 270.182ZM297.564 273.324C302.134 272.813 307.653 272.997 312.075 274.509L312.725 272.608C307.926 270.967 302.083 270.797 297.341 271.328L297.564 273.324ZM313.356 273.252C312.696 271.187 311.065 269.677 308.327 268.917C305.645 268.172 301.842 268.122 296.622 268.914L296.924 270.901C302.038 270.125 305.51 270.22 307.79 270.853C310.013 271.47 311.028 272.569 311.443 273.864L313.356 273.252ZM312.746 278.086C309.675 276.04 305.078 274.947 298.559 275.2L298.637 277.208C304.936 276.963 309.051 278.039 311.631 279.758L312.746 278.086ZM299.554 275.896L299.343 275.241L297.431 275.857L297.641 276.512L299.554 275.896ZM297.421 275.827L298.447 279.387L300.378 278.831L299.352 275.271L297.421 275.827ZM300.063 279.875L300.111 279.834L298.811 278.302L298.762 278.343L300.063 279.875ZM298.488 279.319L300.196 285.949L302.142 285.448L300.434 278.818L298.488 279.319ZM300.472 284.975C300.438 285.008 300.405 285.04 300.37 285.072L301.756 286.527C301.793 286.492 301.83 286.457 301.866 286.422L300.472 284.975ZM300.09 286.051C300.701 288.421 301.28 290.714 301.82 292.891L303.77 292.407C303.229 290.224 302.649 287.925 302.036 285.549L300.09 286.051ZM302.768 293.653C303.636 293.676 304.536 293.734 305.465 293.83L305.673 291.832C304.693 291.73 303.742 291.669 302.821 291.645L302.768 293.653ZM306.442 293.328C306.901 292.521 307.393 291.688 307.919 290.829L306.205 289.781C305.669 290.657 305.166 291.508 304.696 292.334L306.442 293.328ZM307.955 290.764C308.207 290.275 308.47 289.769 308.741 289.248L306.959 288.32C306.688 288.84 306.422 289.351 306.168 289.846L307.955 290.764ZM308.741 289.248C310.346 286.168 312.253 282.518 313.158 279.186L311.219 278.659C310.382 281.74 308.592 285.186 306.959 288.32L308.741 289.248ZM307.93 289.931C307.432 290.86 306.967 291.756 306.534 292.621L308.331 293.52C308.754 292.673 309.21 291.794 309.701 290.881L307.93 289.931ZM312.614 279.675C311.616 282.522 310.089 285.911 307.93 289.931L309.701 290.881C311.892 286.8 313.467 283.313 314.51 280.341L312.614 279.675ZM316.097 295.355C318.158 290.021 318.755 283.503 314.25 279.276L312.875 280.741C316.439 284.085 316.207 289.494 314.223 294.631L316.097 295.355ZM307.281 294.064C309.644 294.425 312.174 295.034 314.834 295.944L315.485 294.043C312.715 293.095 310.069 292.458 307.584 292.078L307.281 294.064ZM263.53 250.617L263.531 250.617L264.211 248.727L264.21 248.726L263.53 250.617ZM274.372 284.984L264.841 249.412L262.9 249.932L272.431 285.504L274.372 284.984ZM273.128 284.278L273.127 284.278L273.677 286.211L273.678 286.21L273.128 284.278ZM262.901 249.932L272.432 285.504L274.373 284.984L264.842 249.412L262.901 249.932ZM277.876 298.058L277.794 297.751L275.853 298.271L275.936 298.578L277.876 298.058ZM277.093 299.305L277.094 299.304L276.718 297.331L276.717 297.331L277.093 299.305ZM275.852 298.271L275.934 298.578L277.875 298.058L277.793 297.751L275.852 298.271ZM276.592 297.033L276.591 297.033L277.054 298.988L277.055 298.988L276.592 297.033Z" fill="#010101" mask="url(#path-5-outside-1_2_5273)"/>
<ellipse cx="228.032" cy="190.777" rx="3.61345" ry="5.67828" transform="rotate(-5.63119 228.032 190.777)" fill="#010101"/>
<ellipse cx="3.61345" cy="5.67828" rx="3.61345" ry="5.67828" transform="matrix(-0.910908 0.412609 0.412609 0.910908 265.67 173.26)" fill="#010101"/>
<path fill-rule="evenodd" clip-rule="evenodd" d="M241.442 165.967C234.566 167.898 222.089 174.519 227.183 185.553C230.364 192.443 228.259 197.725 226.243 202.782C224.223 207.847 222.294 212.687 225.859 218.69C227.62 221.657 229.489 223.638 231.233 225.488C235.159 229.65 238.456 233.146 238.494 245.717C238.538 260.241 249.215 298.691 254.548 316.1L279.853 309.319L241.442 165.967ZM241.509 166.216C248.429 164.451 262.545 163.946 263.65 176.049C264.388 184.121 268.647 186.457 273.103 188.899C276.997 191.034 281.041 193.251 283.014 199.451C284.86 205.253 283.552 209.533 282.24 213.825C280.546 219.368 278.846 224.929 283.937 233.808C291.161 246.408 301.139 285.045 305.226 302.788L279.921 309.569L241.509 166.216Z" fill="white"/>
<ellipse cx="8.73282" cy="12.3007" rx="8.73282" ry="12.3007" transform="matrix(-0.761754 0.647867 0.647867 0.761754 233.738 200.507)" fill="url(#paint0_radial_2_5273)"/>
<ellipse cx="8.73282" cy="12.3007" rx="8.73282" ry="12.3007" transform="matrix(-0.952397 -0.30486 -0.30486 0.952397 286.359 197.794)" fill="url(#paint1_radial_2_5273)"/>
<path d="M297.751 273.342C281.573 286.166 256.809 289.739 246.615 288.211L248.345 294.187C271.795 299.193 292.018 286.221 299.459 279.269L297.751 273.342Z" fill="#005BBB"/>
<path d="M299.461 279.069C280.343 295.311 258.5 295.512 248.277 294.102L249.732 298.759C273.279 303.491 293.868 292.736 301.169 285.699L299.461 279.069Z" fill="#FFD500"/>
<ellipse opacity="0.2" cx="264.025" cy="178.159" rx="1.61987" ry="2.54551" transform="rotate(9.05007 264.025 178.159)" fill="white"/>
<ellipse opacity="0.2" cx="227.256" cy="188.607" rx="1.61987" ry="2.54551" transform="rotate(9.05007 227.256 188.607)" fill="white"/>
<path d="M277.068 298.286C232.783 306.907 242.278 366.926 252.561 395.858C304.354 412.801 401.009 430.052 373.278 363.512C345.548 296.973 309.099 289.218 294.341 293.658L277.068 298.286Z" fill="white"/>
<path d="M235.003 198.287C229.556 181.149 245.425 173.792 245.412 174.025C263.35 174.025 265.853 189.385 265.853 191.758C265.853 198.287 277.446 200.953 276.114 208.114C274.783 215.275 278.366 228.486 278.345 238.379C278.332 244.441 276.577 247.123 275.086 248.086C275.524 247.973 275.347 248.044 274.917 248.189C274.524 248.412 274.157 248.516 273.852 248.534C274.248 248.408 274.636 248.283 274.917 248.189C274.973 248.157 275.029 248.123 275.086 248.086C274.511 248.234 272.876 248.701 269.364 249.736C259.458 252.658 255.328 239.736 242.719 227.082C230.109 214.428 241.812 219.71 235.003 198.287Z" fill="#FF6B0A"/>
<path d="M267.662 243.379C259.497 244.819 252.176 227.8 249.536 219.11C254.15 216.716 264.373 212.356 268.359 214.067C273.341 216.206 277.868 241.58 267.662 243.379Z" fill="#010101"/>
<path d="M268.68 240.701C274.078 238.506 269.04 226.754 265.847 221.152L255.002 224.058C257.312 230.52 263.283 242.895 268.68 240.701Z" fill="#956C7C"/>
<path d="M266.891 236.492C267.823 235.359 262.897 223.713 260.318 218.032L258.004 218.925C260.578 225.253 265.959 237.625 266.891 236.492Z" fill="#86616F"/>
<path d="M244.489 213.247C246.801 200.336 241.957 194.82 239.245 193.676C244.656 180.363 256.043 184.232 261.06 187.831C257.709 200.754 260.041 190.509 268.797 206.734C275.802 219.714 267.915 226.877 263.096 228.837C255.93 229.02 242.177 226.158 244.489 213.247Z" fill="#EB6005"/>
<path d="M271.03 212.337C253.616 198.405 247.595 213.628 246.761 222.982C248.859 226.16 255.129 231.775 263.419 228.806C271.708 225.836 271.947 216.589 271.03 212.337Z" fill="#EFE5D5"/>
<path d="M256.199 213.968C255.663 212.528 254.431 209.93 253.788 211.055C253.145 212.18 255.127 213.466 256.199 213.968Z" fill="#DACAB0"/>
<path d="M259.009 213.22C258.519 211.764 257.84 208.97 259.048 209.439C260.256 209.908 259.526 212.156 259.009 213.22Z" fill="#DACAB0"/>
<path d="M248.008 153.154L252.529 165.511C247.385 174.03 233.91 175.021 227.815 174.452L223.395 161.793L248.008 153.154Z" fill="#3D3A00"/>
<path d="M252.526 165.51C252.761 172.777 247.825 184.156 227.812 174.351L252.526 165.51Z" fill="#3D3A00"/>
<ellipse cx="235.73" cy="157.468" rx="13.0648" ry="2.25205" transform="rotate(-19.0312 235.73 157.468)" fill="#3D3A00"/>
<path d="M235.467 159.485C235.537 159.496 235.595 159.503 235.649 159.518C236.1 159.628 236.432 159.839 236.684 160.229C236.79 160.394 236.879 160.574 236.974 160.744C237.058 160.895 237.14 161.043 237.227 161.193C237.25 161.231 237.252 161.251 237.207 161.277C237.112 161.328 237.047 161.412 237.047 161.526C237.045 161.627 237.094 161.703 237.175 161.751C237.258 161.802 237.349 161.798 237.438 161.763C237.481 161.744 237.503 161.714 237.509 161.663C237.563 161.273 237.531 160.892 237.425 160.516C237.336 160.204 237.189 159.918 237.055 159.63C236.979 159.465 236.908 159.295 236.827 159.132C236.777 159.029 236.738 158.928 236.721 158.814C236.705 158.7 236.712 158.587 236.749 158.47C236.858 158.517 236.947 158.59 237.01 158.683C237.068 158.773 237.116 158.873 237.16 158.969C237.207 159.073 237.239 159.184 237.279 159.288C237.385 159.564 237.487 159.842 237.601 160.115C237.794 160.568 238.085 160.945 238.478 161.237C238.529 161.277 238.576 161.274 238.629 161.244C238.763 161.173 238.823 161.019 238.768 160.887C238.716 160.764 238.562 160.698 238.423 160.751C238.372 160.77 238.362 160.753 238.35 160.71C238.287 160.484 238.22 160.257 238.154 160.033C238.081 159.777 237.994 159.527 237.997 159.256C238.002 158.897 238.11 158.612 238.311 158.315C238.327 158.294 238.342 158.274 238.364 158.243C238.375 158.27 238.382 158.287 238.39 158.305C238.864 159.441 239.318 160.529 239.793 161.665C239.82 161.729 239.82 161.729 239.759 161.755C239.529 161.854 239.296 161.954 239.066 162.053C239.025 162.071 239.013 162.09 239.021 162.135C239.084 162.474 239.035 162.8 238.862 163.103C238.827 163.166 238.803 163.239 238.773 163.307C238.578 163.211 238.351 163.184 238.165 163.053C238.014 162.945 237.876 162.821 237.773 162.664C237.748 162.63 237.726 162.625 237.691 162.64C237.455 162.742 237.222 162.842 236.987 162.943C236.946 162.961 236.925 162.959 236.905 162.912C236.429 161.771 235.97 160.674 235.494 159.532C235.485 159.529 235.48 159.517 235.467 159.485ZM235.941 159.897C235.937 159.903 235.928 159.906 235.923 159.912C235.932 159.932 235.94 159.953 235.949 159.973C236.178 160.522 236.389 161.027 236.618 161.575C236.656 161.666 236.656 161.666 236.749 161.626C236.784 161.611 236.798 161.595 236.792 161.556C236.781 161.433 236.817 161.32 236.891 161.226C236.922 161.185 236.917 161.156 236.894 161.118C236.783 160.927 236.668 160.734 236.566 160.539C236.457 160.336 236.345 160.198 236.163 160.058C236.09 159.999 236.015 159.952 235.941 159.897ZM238.343 158.875C238.337 158.878 238.333 158.876 238.327 158.879C238.32 158.91 238.312 158.941 238.307 158.97C238.267 159.195 238.232 159.373 238.289 159.594C238.365 159.873 238.446 160.15 238.524 160.427C238.533 160.465 238.552 160.485 238.595 160.49C238.715 160.505 238.817 160.554 238.901 160.646C238.939 160.689 238.976 160.687 239.045 160.64C239.088 160.611 239.056 160.583 239.045 160.557C238.812 159.999 238.598 159.486 238.364 158.925C238.359 158.906 238.352 158.889 238.343 158.875ZM237.498 162.021C237.482 162.024 237.463 162.029 237.44 162.032C237.24 162.07 237.059 162.04 236.921 161.874C236.902 161.852 236.885 161.845 236.86 161.859C236.84 161.868 236.819 161.877 236.799 161.885C236.77 161.898 236.763 161.915 236.775 161.944C236.867 162.164 236.96 162.387 237.055 162.606C237.06 162.617 237.094 162.634 237.106 162.629C237.264 162.564 237.424 162.495 237.58 162.425C237.592 162.42 237.607 162.389 237.605 162.376C237.57 162.26 237.535 162.143 237.498 162.021ZM238.743 161.486C238.804 161.598 238.865 161.703 238.924 161.813C238.941 161.844 238.964 161.834 238.987 161.824C239.136 161.76 239.28 161.695 239.43 161.634C239.476 161.614 239.483 161.59 239.462 161.547C239.377 161.352 239.298 161.154 239.215 160.954C239.177 160.863 239.177 160.863 239.086 160.902C239.06 160.913 239.037 160.923 239.042 160.96C239.062 161.155 238.976 161.303 238.834 161.423C238.802 161.447 238.769 161.464 238.743 161.486ZM237.781 160.924C237.793 161.184 237.804 161.44 237.764 161.699C237.88 161.722 237.989 161.744 238.1 161.762C238.115 161.766 238.142 161.748 238.153 161.733C238.209 161.653 238.257 161.57 238.313 161.491C238.33 161.466 238.33 161.449 238.304 161.429C238.122 161.296 237.968 161.134 237.821 160.962C237.806 160.951 237.793 160.936 237.781 160.924ZM238.002 162.514C238.054 162.671 238.341 162.908 238.453 162.905C238.455 162.9 238.457 162.896 238.457 162.896C238.393 162.744 238.332 162.59 238.267 162.441C238.262 162.43 238.234 162.421 238.221 162.423C238.146 162.448 238.075 162.483 238.002 162.514ZM238.7 162.805C238.795 162.678 238.809 162.302 238.74 162.193C238.676 162.221 238.606 162.251 238.542 162.278C238.504 162.294 238.499 162.314 238.513 162.349C238.565 162.473 238.616 162.596 238.668 162.719C238.676 162.747 238.687 162.773 238.7 162.805ZM238.007 162.238C238.045 162.222 238.087 162.207 238.122 162.185C238.134 162.18 238.147 162.147 238.141 162.139C238.069 162.018 237.941 161.941 237.807 161.964C237.778 161.97 237.766 161.982 237.771 162.011C237.793 162.095 237.817 162.178 237.84 162.265C237.849 162.296 237.871 162.3 237.898 162.289C237.931 162.271 237.969 162.254 238.007 162.238ZM238.542 162.008C238.577 161.993 238.609 161.979 238.644 161.964C238.68 161.952 238.695 161.929 238.673 161.893C238.634 161.824 238.594 161.754 238.552 161.686C238.531 161.653 238.51 161.652 238.48 161.678C238.383 161.758 238.334 161.921 238.379 162.037C238.384 162.048 238.413 162.06 238.426 162.058C238.468 162.044 238.505 162.024 238.542 162.008Z" fill="#FFD500"/>
<path d="M248.008 153.154L252.529 165.511C247.385 174.03 233.91 175.021 227.815 174.452L223.395 161.793C223.395 161.793 225.52 161.527 226.81 161.09C228.356 160.567 230.527 159.181 230.527 159.181L241.176 167.821V154.962C241.176 154.962 243.494 155.345 244.894 154.962C246.25 154.59 248.008 153.154 248.008 153.154Z" fill="#4B4800"/>
<path d="M297.35 272.337C310.606 270.822 332.351 274.952 313.737 301.111C295.26 327.077 291.683 343.404 301.603 340.192C301.674 340.165 301.749 340.14 301.826 340.117C301.751 340.143 301.676 340.168 301.603 340.192C298.845 341.222 300.106 344.94 298.682 346.449C287.64 348.204 287.434 333.364 312.096 300.807C318.031 292.151 321.996 275.296 298.596 276.204L297.35 272.337Z" fill="#FFD500"/>
<path d="M295.577 266.74C309.089 263.653 323.83 262.44 308.812 290.406C293.947 318.085 309.715 316.014 319.738 311.414C319.833 311.365 319.936 311.317 320.048 311.27C319.945 311.319 319.842 311.367 319.738 311.414C317.27 312.689 320.26 314.715 319.044 316.349C307.87 319.405 289.829 318.474 307.058 290.305C311.795 281.078 320.789 266.216 296.646 269.926L295.577 266.74Z" fill="#005BBB"/>
<path d="M214.85 241.577L215.688 241.586L215.285 242.321C214.291 244.136 213.318 247.074 213.607 249.972C213.891 252.827 215.399 255.679 219.45 257.428C221.972 258.516 225.539 258.605 229.701 258.404C231.046 258.339 232.451 258.244 233.893 258.146C236.862 257.945 239.985 257.734 243.053 257.754C247.623 257.784 252.166 258.323 256.072 260.2C259.998 262.087 263.247 265.311 265.241 270.632C269.174 281.123 268.95 290.024 265.975 296.354C262.992 302.699 257.263 306.406 250.353 306.485C247.632 306.516 242.065 306.959 234.817 307.536C233.181 307.667 231.459 307.804 229.665 307.944C219.94 308.707 208.123 309.574 196.415 310.023C184.711 310.473 173.099 310.507 163.789 309.602C159.134 309.149 155.036 308.46 151.782 307.463C148.546 306.471 146.059 305.15 144.729 303.372C139.741 296.703 137.224 288.658 137.049 281.485C136.874 274.334 139.03 267.931 143.544 264.699C144.474 264.033 145.957 263.402 147.804 262.804C149.662 262.201 151.934 261.617 154.474 261.06C159.555 259.947 165.74 258.935 171.908 258.097C178.076 257.26 184.235 256.595 189.265 256.175C193.962 255.784 197.716 255.603 199.564 255.704C200.769 253.309 202.867 249.886 205.448 247.014C208.115 244.046 211.411 241.541 214.85 241.577Z" fill="white" stroke="#010101" stroke-width="1.00463"/>
<path d="M150.726 288.831V275.328H163.033V288.831H159.927V277.161L160.641 277.874H153.118L153.832 277.161V288.831H150.726ZM172.263 288.985C171.388 288.985 170.623 288.792 169.967 288.406C169.312 288.02 168.797 287.435 168.424 286.651C168.064 285.854 167.884 284.851 167.884 283.642C167.884 282.42 168.058 281.417 168.405 280.633C168.752 279.848 169.254 279.263 169.91 278.877C170.565 278.492 171.35 278.299 172.263 278.299C173.24 278.299 174.114 278.524 174.886 278.974C175.67 279.411 176.288 280.028 176.738 280.826C177.201 281.623 177.432 282.562 177.432 283.642C177.432 284.735 177.201 285.68 176.738 286.477C176.288 287.275 175.67 287.892 174.886 288.329C174.114 288.766 173.24 288.985 172.263 288.985ZM166.129 292.573V278.453H169.003V280.575L168.945 283.661L169.138 286.728V292.573H166.129ZM171.742 286.516C172.243 286.516 172.687 286.4 173.073 286.169C173.472 285.937 173.787 285.609 174.018 285.185C174.262 284.748 174.385 284.233 174.385 283.642C174.385 283.037 174.262 282.523 174.018 282.099C173.787 281.674 173.472 281.346 173.073 281.115C172.687 280.884 172.243 280.768 171.742 280.768C171.24 280.768 170.79 280.884 170.392 281.115C169.993 281.346 169.678 281.674 169.447 282.099C169.215 282.523 169.099 283.037 169.099 283.642C169.099 284.233 169.215 284.748 169.447 285.185C169.678 285.609 169.993 285.937 170.392 286.169C170.79 286.4 171.24 286.516 171.742 286.516ZM179.541 288.831V278.453H182.531V284.626L187.585 278.453H190.343V288.831H187.353V282.658L182.319 288.831H179.541ZM193.236 288.831V278.453H198.54C199.839 278.453 200.855 278.691 201.588 279.167C202.321 279.63 202.687 280.286 202.687 281.134C202.687 281.983 202.34 282.652 201.645 283.14C200.964 283.616 200.057 283.854 198.926 283.854L199.234 283.16C200.495 283.16 201.433 283.391 202.051 283.854C202.681 284.317 202.996 284.992 202.996 285.879C202.996 286.792 202.648 287.512 201.954 288.04C201.26 288.567 200.199 288.831 198.771 288.831H193.236ZM195.994 286.786H198.521C199.074 286.786 199.485 286.696 199.755 286.516C200.038 286.323 200.18 286.034 200.18 285.648C200.18 285.249 200.051 284.96 199.794 284.78C199.537 284.587 199.131 284.491 198.579 284.491H195.994V286.786ZM195.994 282.716H198.27C198.797 282.716 199.189 282.62 199.447 282.427C199.717 282.234 199.852 281.957 199.852 281.597C199.852 281.224 199.717 280.948 199.447 280.768C199.189 280.588 198.797 280.498 198.27 280.498H195.994V282.716ZM205.215 288.831V278.453H208.224V288.831H205.215ZM206.72 277.006C206.167 277.006 205.717 276.846 205.37 276.524C205.022 276.203 204.849 275.804 204.849 275.328C204.849 274.853 205.022 274.454 205.37 274.132C205.717 273.811 206.167 273.65 206.72 273.65C207.273 273.65 207.723 273.805 208.07 274.113C208.417 274.409 208.591 274.795 208.591 275.27C208.591 275.772 208.417 276.19 208.07 276.524C207.736 276.846 207.286 277.006 206.72 277.006ZM213.33 288.831V280.228L214.005 280.922H209.819V278.453H219.83V280.922H215.645L216.32 280.228V288.831H213.33ZM222.899 292.727C222.359 292.727 221.825 292.643 221.298 292.476C220.771 292.309 220.34 292.078 220.005 291.782L221.105 289.641C221.336 289.846 221.6 290.007 221.896 290.123C222.204 290.239 222.507 290.297 222.802 290.297C223.227 290.297 223.561 290.194 223.805 289.988C224.063 289.795 224.294 289.467 224.5 289.004L225.04 287.731L225.271 287.403L228.994 278.453H231.887L227.2 289.467C226.866 290.303 226.48 290.959 226.043 291.435C225.619 291.91 225.143 292.245 224.616 292.438C224.101 292.63 223.529 292.727 222.899 292.727ZM224.673 289.236L220.044 278.453H223.15L226.737 287.133L224.673 289.236ZM231.293 288.811L231.447 286.342C231.524 286.355 231.601 286.368 231.679 286.381C231.756 286.381 231.826 286.381 231.891 286.381C232.251 286.381 232.534 286.278 232.739 286.072C232.945 285.867 233.1 285.59 233.202 285.243C233.305 284.883 233.376 284.478 233.415 284.028C233.466 283.578 233.505 283.108 233.53 282.62L233.685 278.453H242.558V288.831H239.548V280.189L240.224 280.922H235.671L236.308 280.151L236.173 282.755C236.134 283.68 236.057 284.529 235.941 285.301C235.839 286.072 235.665 286.741 235.421 287.307C235.176 287.86 234.848 288.29 234.437 288.599C234.025 288.895 233.498 289.043 232.855 289.043C232.624 289.043 232.379 289.023 232.122 288.985C231.865 288.946 231.589 288.888 231.293 288.811ZM245.432 288.831V278.453H248.441V288.831H245.432ZM246.936 277.006C246.383 277.006 245.933 276.846 245.586 276.524C245.239 276.203 245.065 275.804 245.065 275.328C245.065 274.853 245.239 274.454 245.586 274.132C245.933 273.811 246.383 273.65 246.936 273.65C247.489 273.65 247.939 273.805 248.287 274.113C248.634 274.409 248.807 274.795 248.807 275.27C248.807 275.772 248.634 276.19 248.287 276.524C247.952 276.846 247.502 277.006 246.936 277.006Z" fill="#010101"/>
</g>
<defs>
<radialGradient id="paint0_radial_2_5273" cx="0" cy="0" r="1" gradientUnits="userSpaceOnUse" gradientTransform="translate(8.73282 12.3007) rotate(90) scale(12.3007 8.73282)">
<stop stop-color="#FFBBBB"/>
<stop offset="1" stop-color="#FFBBBB" stop-opacity="0"/>
</radialGradient>
<radialGradient id="paint1_radial_2_5273" cx="0" cy="0" r="1" gradientUnits="userSpaceOnUse" gradientTransform="translate(8.73282 12.3007) rotate(90) scale(12.3007 8.73282)">
<stop stop-color="#FFBBBB"/>
<stop offset="1" stop-color="#FFBBBB" stop-opacity="0"/>
</radialGradient>
<clipPath id="clip0_2_5273">
<rect width="217" height="217" fill="white" transform="translate(126 134)"/>
</clipPath>
</defs>
</svg>
