<svg width="235" height="211" viewBox="0 0 235 211" fill="none" xmlns="http://www.w3.org/2000/svg">
<path d="M217.556 53.2829C216.361 62.3243 200.043 75.0147 192.033 80.2297C150.988 76.9037 66.0021 68.4063 54.427 61.0249C42.852 53.6434 38.1989 33.4466 37.3193 24.2709C29.1119 35.7319 31.9358 65.0257 34.3737 78.24C31.9227 90.4607 37.4909 104.785 40.5814 110.42C32.7923 106.047 17.5532 105.29 10.9073 105.458C16.1181 108.237 27.6803 116.243 32.2424 126.045C36.8044 135.846 52.9827 145.856 60.5015 149.635L58.1742 151.419C41.7274 149.248 35.1594 156.744 33.9313 160.764C35.2306 158.845 52.7054 161.151 66.5534 167.159C77.6319 171.967 97.5202 164.974 106.08 160.877C102.207 169.077 94.3547 186.299 93.9204 189.587C93.4861 192.875 103.566 195.738 108.661 196.759L116.359 162.233C126.794 178.245 162.636 184.021 165.234 180.182C167.313 177.111 182.728 179.703 190.176 181.383C186.219 173.334 171.977 166.089 165.35 163.472C178.849 164.208 195.761 154.941 199.038 145.965C201.66 138.785 214.508 134.417 220.604 133.131C211.388 126.897 195.843 130.561 189.224 133.171C203.404 120.826 205.656 106.419 205.009 100.758C219.95 82.6594 219.599 61.5668 217.556 53.2829Z" fill="#998470" stroke="#010101" stroke-width="1.6"/>
<path d="M129.597 14.4961C103.714 11.0805 97.0728 31.1109 96.937 32.1383L106.927 75.2704L139.82 79.6112L158.612 40.2774C157.506 32.8141 151.183 17.3448 129.597 14.4961Z" fill="white" stroke="#010101" stroke-width="1.6"/>
<path d="M72.2501 124.007C17.3081 109.23 42.7112 62.6149 59.0781 57.4573C59.1162 33.4194 72.5364 26.8277 84.8718 28.4556C96.3757 29.9737 105.392 36.7388 108.049 43.013C117.747 72.5172 127.192 138.784 72.2501 124.007Z" fill="white" stroke="#010101" stroke-width="1.6"/>
<path d="M158.944 135.448C215.84 135.43 203.412 83.8222 188.945 74.5956C195.15 51.3715 183.901 41.5244 171.566 39.8965C160.062 38.3783 149.598 42.5727 145.403 47.9427C128.375 73.9199 102.048 135.466 158.944 135.448Z" fill="white" stroke="#010101" stroke-width="1.6"/>
<path d="M165.726 89.3019C174.662 156.335 114.081 155.66 112.025 155.389C107.913 154.847 54.2305 139.399 78.4856 76.7438C91.191 43.9235 161.045 54.1879 165.726 89.3019Z" fill="white" stroke="#010101" stroke-width="1.6"/>
</svg>
