<svg width="106" height="32" viewBox="0 0 106 32" fill="none" xmlns="http://www.w3.org/2000/svg">
<path fill-rule="evenodd" clip-rule="evenodd" d="M0 32.0001H46.7359C46.767 31.9491 46.7964 31.8966 46.8307 31.8473C48.6298 29.2567 50.4294 26.6665 52.2289 24.0763C54.0318 21.4813 55.8347 18.8863 57.6371 16.2909C57.7006 16.1998 57.732 16.1546 57.7319 16.1095C57.7318 16.0651 57.7012 16.0208 57.6404 15.9328C56.9034 14.8671 56.1663 13.8015 55.4293 12.7359C52.5648 8.59465 49.7008 4.45398 46.8389 0.312262C46.7621 0.200558 46.6836 0.161133 46.5496 0.161133C31.099 0.164418 15.6468 0.164418 0.196137 0.164418H0.196095H0V32.0001ZM33.8721 8.8724C34.5552 8.69171 35.1974 8.62107 36.0569 8.62107C37.9182 8.6375 39.719 9.29786 41.2289 10.6876C42.4022 11.7685 43.1212 13.1155 43.4088 14.6876C43.7291 16.4371 43.4987 18.1126 42.6392 19.6748C41.6195 21.5262 40.0638 22.7138 38.0342 23.2527C36.2873 23.7175 34.5552 23.6239 32.8835 22.9208C30.7052 22.0058 29.2998 20.3631 28.6396 18.1061C28.0497 16.0872 28.2638 14.1258 29.3194 12.2942C30.3489 10.5118 31.8964 9.39478 33.8721 8.8724ZM21.7289 13.7186C21.7007 13.7558 21.6717 13.7938 21.626 13.8219C21.507 13.7268 21.3908 13.6317 21.2757 13.5375C21.1442 13.4298 21.014 13.3232 20.8825 13.219C20.389 12.8395 19.8546 12.5373 19.2434 12.4026C18.5653 12.2531 17.8838 12.1989 17.2089 12.4059C16.2464 12.6999 15.5748 13.3406 15.1336 14.2326C14.7659 14.9734 14.6663 15.7619 14.7643 16.58C14.8411 17.2206 15.0454 17.8153 15.4196 18.3426C15.9948 19.1508 16.7808 19.6206 17.7596 19.7438C18.6421 19.8555 19.4967 19.7438 20.3056 19.3529C20.5818 19.219 20.5818 19.2165 20.5818 18.9082V18.9028C20.5818 18.8277 20.582 18.7528 20.5821 18.678C20.5825 18.5285 20.5829 18.3792 20.5818 18.2293C20.5801 18.1133 20.5886 18.0626 20.5673 18.0408C20.5468 18.0196 20.4983 18.0256 20.3857 18.0256C20.1001 18.0256 19.8148 18.0257 19.5295 18.0259C18.9594 18.0263 18.3898 18.0267 17.8201 18.0256C17.7055 18.0247 17.656 18.0308 17.6352 18.0093C17.6141 17.9875 17.6224 17.9374 17.6224 17.8235V14.7188C17.6224 14.7063 17.6227 14.6935 17.6231 14.6808C17.6238 14.655 17.6246 14.6291 17.6224 14.6038C17.6175 14.543 17.6387 14.5118 17.7041 14.5167C17.7292 14.5189 17.7551 14.5182 17.7807 14.5175C17.7934 14.5171 17.806 14.5167 17.8185 14.5167H24.1899H24.3043C24.3468 14.5167 24.3811 14.525 24.3762 14.5792C24.3732 14.6128 24.3939 14.6348 24.4149 14.6572C24.44 14.6841 24.4656 14.7115 24.4514 14.7599C24.439 14.8006 24.4421 14.8469 24.4453 14.8932C24.4467 14.9141 24.4481 14.9349 24.4481 14.9553C24.4481 15.3481 24.448 15.7408 24.448 16.1337C24.4477 17.706 24.4475 19.2791 24.4514 20.851C24.4514 20.9791 24.4122 21.0596 24.3157 21.1401C23.1081 22.152 21.7502 22.8584 20.2141 23.2067C19.3055 23.4136 18.3855 23.4711 17.4557 23.3956C16.3576 23.3069 15.315 23.0227 14.3492 22.4839C12.5795 21.495 11.465 19.9935 10.9519 18.0338C10.7264 17.1681 10.6577 16.2859 10.7296 15.3956C10.9976 12.0954 13.2969 9.51799 16.3755 8.80177C17.2547 8.59643 18.142 8.56686 19.0375 8.62764C19.7239 8.67364 20.3988 8.78206 21.0589 8.98082C22.0492 9.27815 22.9218 9.79068 23.7144 10.4478C23.8059 10.525 23.8974 10.6022 23.9889 10.681C24.1017 10.7796 24.1066 10.8354 24.0069 10.957L22.5051 12.7771C22.4009 12.9031 22.2971 13.029 22.1935 13.1548C22.0471 13.3326 21.9008 13.5102 21.7534 13.6872C21.7451 13.6974 21.737 13.708 21.7289 13.7186ZM39.4115 15.1837C39.0422 13.5508 37.6875 12.373 35.6154 12.3779C34.5958 12.4009 33.5434 12.989 32.8832 14.2161C32.4354 15.049 32.3309 15.9475 32.5008 16.8757C32.6348 17.6083 32.9502 18.2555 33.4731 18.7894C34.2885 19.6206 35.287 19.9459 36.4309 19.8145C37.614 19.6781 38.4948 19.067 39.0569 18.0174C39.5357 17.1237 39.6337 16.1677 39.4115 15.1837Z" fill="#17161C"/>
<path d="M58.8613 0C74.4182 0 89.975 0 105.532 0C105.532 10.6119 105.532 21.2238 105.532 31.8357C105.452 31.8094 105.372 31.8242 105.29 31.8242C89.8999 31.8242 74.5081 31.8242 59.1179 31.8225C58.8368 31.8225 58.876 31.8636 58.876 31.581C58.876 21.1301 58.876 10.6792 58.8744 0.226693C58.8744 0.151129 58.8891 0.0739218 58.8613 0ZM86.3473 9.06117C84.4141 9.06117 82.4809 9.06117 80.5461 9.06117C80.502 9.06117 80.4595 9.06281 80.4154 9.06117C80.35 9.05788 80.3288 9.08909 80.3321 9.14987C80.3337 9.1778 80.3321 9.20408 80.3321 9.23201C80.3321 10.3441 80.3321 11.4546 80.3321 12.5667C80.3321 12.7589 80.319 12.7408 80.5102 12.7408C81.7243 12.7408 82.9385 12.7408 84.1543 12.7408C84.3896 12.7408 84.3896 12.7408 84.3896 12.9708C84.3896 16.3975 84.3896 19.8258 84.3896 23.2525C84.3896 23.4414 84.3667 23.4266 84.5644 23.4283C84.5808 23.4283 84.5971 23.4283 84.6135 23.4283C85.7623 23.4283 86.911 23.4283 88.0615 23.4283C88.2788 23.4283 88.2788 23.4283 88.2788 23.2147C88.2788 19.788 88.2788 16.3597 88.2788 12.933C88.2788 12.7244 88.2527 12.7425 88.4733 12.7425C89.7103 12.7425 90.9457 12.7425 92.1827 12.7425C92.3445 12.7425 92.3445 12.7408 92.3445 12.5831C92.3445 12.5667 92.3445 12.5503 92.3445 12.5338C92.3445 11.4447 92.3445 10.3556 92.3445 9.26486C92.3445 9.03653 92.369 9.06281 92.1451 9.06281C90.2136 9.06117 88.2804 9.06117 86.3473 9.06117ZM72.7775 16.2365C72.7775 18.5527 72.7775 20.8673 72.7775 23.1835C72.7775 23.2279 72.7808 23.2706 72.7775 23.3149C72.771 23.3938 72.7922 23.4431 72.8837 23.4299C72.9164 23.425 72.9491 23.4299 72.9818 23.4299C74.142 23.4299 75.3022 23.4299 76.4608 23.4299C76.701 23.4299 76.6667 23.4578 76.6667 23.2197C76.6667 18.5724 76.6667 13.9236 76.6667 9.27636C76.6667 9.24351 76.6635 9.21065 76.6667 9.1778C76.6749 9.09566 76.6471 9.05295 76.5589 9.06281C76.5327 9.0661 76.505 9.06281 76.4772 9.06281C75.3071 9.06281 74.1355 9.06281 72.9654 9.06281C72.7514 9.06281 72.7775 9.03653 72.7775 9.25665C72.7759 11.5827 72.7775 13.9088 72.7775 16.2365Z" fill="#17161C"/>
</svg>
