<svg width="332" height="340" viewBox="0 0 332 340" fill="none" xmlns="http://www.w3.org/2000/svg">
<path d="M58.1574 302.542L68.1 289.768L68.3182 291.799L64.2877 288.665L65.955 286.523L71.4208 290.773L60.7134 304.529L58.1574 302.542Z" fill="#010101"/>
<path d="M70.0407 311.395C68.8876 310.64 68.0367 309.666 67.488 308.474C66.9533 307.29 66.7859 305.97 66.9858 304.514C67.1949 303.043 67.8226 301.51 68.869 299.913C69.9153 298.316 71.0664 297.135 72.3222 296.37C73.5872 295.59 74.8692 295.209 76.1682 295.226C77.4812 295.252 78.7142 295.643 79.8673 296.398C81.0343 297.162 81.8852 298.135 82.42 299.319C82.9548 300.502 83.1176 301.829 82.9086 303.299C82.7225 304.765 82.1063 306.296 81.0599 307.893C80.0136 309.49 78.851 310.674 77.5722 311.444C76.3163 312.209 75.0389 312.583 73.7398 312.566C72.4407 312.549 71.2077 312.159 70.0407 311.395ZM71.5829 309.041C72.2637 309.487 72.9724 309.693 73.7091 309.659C74.4549 309.611 75.217 309.297 75.9953 308.715C76.7875 308.142 77.5657 307.273 78.33 306.106C79.1034 304.926 79.5899 303.865 79.7894 302.924C80.012 301.979 79.9915 301.162 79.7279 300.473C79.4735 299.771 79.0059 299.197 78.3251 298.751C77.6721 298.324 76.9658 298.129 76.2061 298.168C75.4694 298.202 74.705 298.505 73.9128 299.078C73.1436 299.645 72.3723 300.52 71.5989 301.7C70.8346 302.866 70.3412 303.922 70.1186 304.868C69.9099 305.823 69.9328 306.651 70.1873 307.354C70.4648 308.051 70.93 308.614 71.5829 309.041Z" fill="#010101"/>
<path d="M85.7634 320.577C84.5378 319.947 83.5898 319.067 82.9195 317.939C82.264 316.818 81.9596 315.522 82.0064 314.053C82.0607 312.569 82.5247 310.978 83.3985 309.281C84.2723 307.583 85.2937 306.288 86.4627 305.396C87.6393 304.489 88.8745 303.976 90.1683 303.858C91.4768 303.747 92.7439 304.006 93.9695 304.637C95.21 305.275 96.1579 306.154 96.8134 307.275C97.4689 308.396 97.7695 309.699 97.7152 311.183C97.6832 312.66 97.2304 314.247 96.3566 315.945C95.4828 317.642 94.4502 318.941 93.2588 319.84C92.0898 320.732 90.8584 321.238 89.5647 321.356C88.2709 321.475 87.0038 321.215 85.7634 320.577ZM87.0513 318.076C87.7749 318.448 88.5013 318.579 89.2304 318.468C89.9672 318.343 90.6922 317.951 91.4055 317.291C92.1335 316.638 92.8166 315.692 93.4548 314.453C94.1007 313.198 94.4737 312.092 94.5739 311.136C94.6965 310.172 94.5907 309.362 94.2567 308.705C93.9302 308.033 93.4052 307.511 92.6816 307.138C91.9876 306.782 91.2648 306.662 90.5133 306.779C89.7841 306.89 89.0555 307.271 88.3275 307.923C87.6218 308.568 86.9461 309.518 86.3002 310.773C85.662 312.013 85.2816 313.114 85.159 314.078C85.0512 315.049 85.1606 315.871 85.487 316.543C85.8358 317.208 86.3573 317.719 87.0513 318.076Z" fill="#010101"/>
<path d="M97.5248 326.004L114.786 313.848L117.073 314.703L99.8113 326.859L97.5248 326.004ZM101.697 318.977C100.934 318.692 100.328 318.253 99.8762 317.658C99.4247 317.064 99.1607 316.372 99.0842 315.581C99.0077 314.791 99.1382 313.945 99.4756 313.043C99.813 312.141 100.27 311.417 100.847 310.871C101.424 310.324 102.078 309.975 102.808 309.823C103.539 309.67 104.285 309.737 105.048 310.022C105.841 310.318 106.455 310.761 106.891 311.349C107.343 311.943 107.607 312.635 107.683 313.426C107.76 314.217 107.629 315.063 107.292 315.965C106.955 316.866 106.497 317.591 105.921 318.137C105.344 318.683 104.69 319.033 103.959 319.185C103.244 319.343 102.49 319.274 101.697 318.977ZM102.331 317.353C102.953 317.586 103.525 317.525 104.048 317.171C104.592 316.807 105.035 316.167 105.379 315.25C105.722 314.332 105.805 313.566 105.627 312.95C105.471 312.325 105.082 311.896 104.46 311.663C103.838 311.43 103.247 311.493 102.688 311.851C102.144 312.215 101.703 312.848 101.366 313.749C101.028 314.651 100.945 315.418 101.117 316.049C101.304 316.686 101.709 317.121 102.331 317.353ZM109.526 330.676C108.764 330.392 108.157 329.952 107.706 329.358C107.254 328.764 106.991 328.071 106.914 327.281C106.838 326.49 106.968 325.644 107.305 324.742C107.643 323.84 108.1 323.116 108.677 322.57C109.254 322.024 109.907 321.674 110.638 321.522C111.369 321.37 112.115 321.436 112.877 321.721C113.671 322.018 114.285 322.46 114.721 323.048C115.173 323.643 115.437 324.335 115.513 325.126C115.59 325.916 115.459 326.762 115.122 327.664C114.784 328.566 114.327 329.29 113.75 329.836C113.174 330.383 112.52 330.732 111.789 330.884C111.074 331.042 110.32 330.973 109.526 330.676ZM110.137 329.044C110.759 329.277 111.343 329.211 111.886 328.847C112.43 328.483 112.871 327.851 113.208 326.949C113.546 326.047 113.629 325.281 113.457 324.649C113.286 324.018 112.889 323.586 112.267 323.354C111.66 323.127 111.077 323.192 110.517 323.55C109.979 323.899 109.539 324.531 109.195 325.449C108.852 326.366 108.766 327.14 108.938 327.772C109.131 328.393 109.531 328.817 110.137 329.044Z" fill="#010101"/>
<path d="M130.9 336.438C129.826 336.219 128.899 335.862 128.119 335.364C127.339 334.867 126.708 334.222 126.225 333.429C125.762 332.623 125.474 331.667 125.36 330.56C125.246 329.453 125.335 328.183 125.627 326.752C125.839 325.711 126.122 324.778 126.476 323.952C126.831 323.126 127.257 322.408 127.754 321.798C128.254 321.171 128.827 320.644 129.474 320.216C130.136 319.792 130.87 319.476 131.675 319.267C132.48 319.058 133.367 318.95 134.334 318.943L140.651 318.881L140.534 321.703L134.813 321.709C134.491 321.711 134.097 321.733 133.631 321.773C133.185 321.801 132.709 321.891 132.203 322.042C131.718 322.18 131.235 322.429 130.755 322.789C130.294 323.136 129.873 323.626 129.49 324.26C129.126 324.88 128.842 325.695 128.636 326.703C128.573 327.012 128.533 327.25 128.517 327.416C128.519 327.569 128.511 327.736 128.491 327.919C128.49 328.088 128.457 328.335 128.39 328.661L127.486 327.232C127.981 326.468 128.572 325.852 129.261 325.382C129.969 324.899 130.738 324.581 131.565 324.428C132.413 324.261 133.292 324.271 134.203 324.456C135.424 324.704 136.455 325.176 137.296 325.873C138.137 326.569 138.734 327.427 139.085 328.447C139.437 329.467 139.495 330.555 139.26 331.709C139.015 332.913 138.505 333.919 137.731 334.727C136.956 335.535 135.977 336.098 134.794 336.417C133.63 336.722 132.332 336.729 130.9 336.438ZM131.646 334.023C132.378 334.172 133.052 334.148 133.669 333.952C134.304 333.742 134.833 333.392 135.255 332.902C135.693 332.415 135.982 331.83 136.121 331.147C136.26 330.464 136.218 329.837 135.995 329.267C135.792 328.683 135.437 328.179 134.93 327.754C134.44 327.333 133.812 327.044 133.047 326.889C132.315 326.74 131.626 326.752 130.981 326.926C130.351 327.103 129.821 327.419 129.39 327.873C128.978 328.314 128.704 328.868 128.568 329.535C128.429 330.218 128.464 330.878 128.674 331.513C128.884 332.149 129.24 332.687 129.743 333.128C130.263 333.573 130.897 333.871 131.646 334.023Z" fill="#010101"/>
<path d="M150.938 339.095L151.208 336.42L151.092 335.832L151.563 331.15C151.655 330.242 151.453 329.513 150.958 328.962C150.464 328.395 149.664 328.056 148.557 327.945C147.813 327.87 147.066 327.911 146.316 328.069C145.582 328.229 144.946 328.49 144.409 328.853L143.422 326.477C144.187 326.003 145.071 325.683 146.072 325.517C147.092 325.336 148.131 325.299 149.188 325.406C151.105 325.599 152.537 326.21 153.485 327.24C154.451 328.255 154.837 329.72 154.644 331.636L153.863 339.39L150.938 339.095ZM146.757 338.849C145.765 338.75 144.914 338.497 144.204 338.092C143.496 337.67 142.965 337.141 142.611 336.505C142.276 335.854 142.147 335.149 142.224 334.389C142.299 333.646 142.54 332.994 142.947 332.435C143.37 331.877 144.004 331.465 144.849 331.2C145.693 330.935 146.785 330.869 148.123 331.004L151.965 331.391L151.758 333.447L148.139 333.083C147.081 332.976 146.353 333.078 145.955 333.388C145.558 333.682 145.335 334.077 145.285 334.572C145.228 335.134 145.406 335.602 145.819 335.977C146.232 336.353 146.835 336.58 147.628 336.66C148.388 336.736 149.083 336.631 149.713 336.344C150.359 336.059 150.849 335.591 151.181 334.941L151.515 336.851C151.139 337.597 150.541 338.146 149.721 338.497C148.918 338.85 147.93 338.968 146.757 338.849Z" fill="#010101"/>
<path d="M158.643 339.678L158.749 326.382L165.251 326.434C166.861 326.447 168.121 326.756 169.03 327.361C169.955 327.966 170.413 328.816 170.404 329.911C170.396 330.99 169.957 331.833 169.089 332.441C168.221 333.031 167.072 333.321 165.644 333.31L166.024 332.541C167.635 332.554 168.828 332.862 169.604 333.466C170.396 334.053 170.788 334.911 170.779 336.04C170.77 337.218 170.322 338.136 169.437 338.793C168.552 339.433 167.212 339.746 165.419 339.732L158.643 339.678ZM161.626 337.436L165.188 337.464C166.035 337.471 166.675 337.343 167.109 337.081C167.543 336.802 167.762 336.381 167.767 335.816C167.771 335.219 167.576 334.777 167.179 334.492C166.783 334.207 166.161 334.061 165.314 334.054L161.653 334.025L161.626 337.436ZM161.669 331.958L164.932 331.984C165.729 331.991 166.328 331.854 166.729 331.575C167.147 331.28 167.358 330.866 167.362 330.335C167.366 329.788 167.162 329.379 166.749 329.11C166.352 328.842 165.756 328.704 164.959 328.698L161.695 328.672L161.669 331.958Z" fill="#010101"/>
<path d="M180.698 339.29C179.341 339.41 178.108 339.226 176.998 338.741C175.887 338.239 174.98 337.502 174.278 336.53C173.576 335.559 173.167 334.42 173.052 333.114C172.936 331.791 173.139 330.599 173.663 329.536C174.184 328.457 174.949 327.582 175.957 326.91C176.965 326.238 178.147 325.842 179.504 325.723C180.877 325.602 182.118 325.785 183.228 326.271C184.354 326.755 185.259 327.475 185.944 328.431C186.645 329.386 187.054 330.533 187.172 331.873C187.287 333.179 187.083 334.372 186.562 335.451C186.056 336.528 185.292 337.412 184.269 338.102C183.261 338.773 182.071 339.17 180.698 339.29ZM180.464 336.636C181.225 336.57 181.889 336.345 182.455 335.961C183.022 335.578 183.443 335.058 183.718 334.401C184.01 333.742 184.119 332.991 184.045 332.147C183.97 331.288 183.731 330.567 183.33 329.986C182.944 329.387 182.438 328.948 181.814 328.669C181.189 328.391 180.504 328.285 179.76 328.35C178.999 328.417 178.335 328.642 177.769 329.025C177.219 329.407 176.798 329.927 176.506 330.586C176.212 331.228 176.103 331.979 176.179 332.839C176.253 333.682 176.492 334.403 176.894 335.001C177.297 335.599 177.802 336.037 178.411 336.317C179.035 336.595 179.72 336.702 180.464 336.636Z" fill="#010101"/>
<path d="M192.327 337.838L189.862 324.772L196.252 323.568C197.835 323.27 199.13 323.33 200.139 323.748C201.163 324.163 201.777 324.909 201.98 325.985C202.18 327.045 201.913 327.957 201.178 328.721C200.44 329.468 199.369 329.974 197.966 330.238L198.19 329.41C199.773 329.112 201.003 329.184 201.881 329.627C202.772 330.05 203.322 330.817 203.531 331.926C203.75 333.084 203.488 334.071 202.746 334.886C202.001 335.685 200.748 336.251 198.985 336.583L192.327 337.838ZM194.82 335.062L198.32 334.403C199.153 334.246 199.756 333.997 200.131 333.656C200.503 333.299 200.637 332.843 200.533 332.288C200.422 331.701 200.144 331.306 199.7 331.102C199.257 330.899 198.618 330.875 197.786 331.032L194.188 331.71L194.82 335.062ZM193.805 329.679L197.011 329.075C197.795 328.927 198.356 328.678 198.695 328.327C199.048 327.957 199.175 327.51 199.077 326.988C198.975 326.45 198.696 326.089 198.239 325.905C197.798 325.718 197.186 325.698 196.402 325.845L193.195 326.45L193.805 329.679Z" fill="#010101"/>
<path d="M208.955 334.473L205.183 321.723L208.169 320.841L209.701 326.022L216.127 324.123L214.594 318.941L217.58 318.059L221.353 330.809L218.367 331.692L216.876 326.654L210.45 328.553L211.941 333.591L208.955 334.473Z" fill="#010101"/>
<path d="M233.118 326.264L232.11 323.771L231.734 323.305L229.971 318.942C229.629 318.095 229.11 317.544 228.416 317.287C227.715 317.015 226.848 317.088 225.817 317.504C225.124 317.784 224.482 318.168 223.892 318.657C223.316 319.14 222.876 319.667 222.569 320.238L220.588 318.594C221.045 317.819 221.678 317.125 222.487 316.512C223.305 315.877 224.207 315.361 225.193 314.963C226.979 314.242 228.531 314.117 229.85 314.587C231.177 315.035 232.202 316.152 232.923 317.938L235.844 325.164L233.118 326.264ZM229.303 327.993C228.379 328.366 227.508 328.538 226.691 328.51C225.868 328.467 225.151 328.245 224.543 327.847C223.943 327.427 223.5 326.862 223.214 326.154C222.934 325.462 222.844 324.773 222.943 324.089C223.058 323.398 223.427 322.738 224.051 322.111C224.675 321.483 225.611 320.917 226.858 320.413L230.438 318.968L231.213 320.884L227.84 322.246C226.855 322.644 226.258 323.073 226.05 323.532C225.835 323.977 225.822 324.43 226.008 324.892C226.22 325.415 226.595 325.747 227.136 325.887C227.676 326.027 228.315 325.948 229.055 325.649C229.763 325.363 230.329 324.947 230.753 324.4C231.192 323.846 231.407 323.205 231.398 322.474L232.583 324.01C232.598 324.845 232.325 325.609 231.763 326.301C231.216 326.987 230.396 327.551 229.303 327.993Z" fill="#010101"/>
</svg>
